G04 EAGLE Gerber RS-274X export*
G75*
%MOMM*%
%FSLAX34Y34*%
%LPD*%
%INVias*%
%IPPOS*%
%AMOC8*
5,1,8,0,0,1.08239X$1,22.5*%
G01*
%ADD10C,0.457200*%
%ADD11C,0.452400*%
%ADD12C,0.975000*%
%ADD13C,1.350000*%


D10*
X317500Y149606D03*
X34290Y166370D03*
D11*
X49530Y260350D03*
X285750Y82550D03*
X488950Y184150D03*
D12*
X424180Y173990D03*
D10*
X330200Y139700D03*
X355600Y177800D03*
D11*
X161290Y283210D03*
X279400Y285750D03*
D10*
X172720Y285750D03*
X190500Y238760D03*
X266700Y234950D03*
D11*
X322580Y208280D03*
D10*
X281940Y167640D03*
X252730Y145419D03*
D11*
X95250Y260350D03*
D10*
X76200Y76200D03*
X40640Y140970D03*
D11*
X222250Y165100D03*
D10*
X335280Y16510D03*
X393700Y38100D03*
D11*
X406400Y12700D03*
D10*
X342900Y171450D03*
D13*
X107950Y65278D03*
X412750Y57150D03*
D12*
X424180Y196850D03*
D10*
X292100Y57150D03*
D13*
X129540Y88900D03*
X416560Y73660D03*
D11*
X41910Y260350D03*
D10*
X182880Y20320D03*
X213360Y22860D03*
X289560Y21590D03*
X290830Y134620D03*
X405130Y231140D03*
X17780Y166370D03*
D11*
X260350Y207010D03*
X367030Y132080D03*
X226060Y77470D03*
D10*
X87630Y19050D03*
X12700Y12700D03*
D11*
X494030Y13970D03*
X488950Y223520D03*
D10*
X27940Y86360D03*
D11*
X274320Y82550D03*
D10*
X76200Y99150D03*
D11*
X177292Y205740D03*
D10*
X125730Y116840D03*
D11*
X134620Y200660D03*
X416560Y93980D03*
D10*
X209550Y151130D03*
X153670Y151130D03*
X175260Y80010D03*
X467360Y85090D03*
X132080Y265430D03*
X76200Y168300D03*
X331470Y154305D03*
X391795Y205994D03*
X259080Y121920D03*
D11*
X172974Y191770D03*
D10*
X131445Y254635D03*
X122555Y248285D03*
X244475Y144780D03*
X300355Y154940D03*
D11*
X166370Y233680D03*
D10*
X336550Y57785D03*
X292100Y88900D03*
X335026Y35941D03*
X286385Y143510D03*
X286385Y154940D03*
X311150Y62738D03*
D11*
X285244Y101600D03*
D10*
X307975Y164465D03*
X140335Y260985D03*
D11*
X347980Y107950D03*
D10*
X391795Y193040D03*
X196850Y85090D03*
X50800Y82550D03*
D11*
X333024Y219710D03*
D10*
X340360Y229870D03*
D11*
X374650Y82550D03*
D10*
X448310Y132080D03*
X459740Y132080D03*
X431800Y135890D03*
X431800Y107950D03*
D11*
X118745Y287655D03*
X193167Y207772D03*
X78740Y287655D03*
D10*
X72390Y122555D03*
X185430Y147330D03*
D11*
X186690Y121920D03*
X353060Y120396D03*
X393700Y92710D03*
D10*
X128270Y152400D03*
X133350Y133350D03*
D11*
X158750Y258445D03*
D10*
X172720Y272415D03*
X297180Y37465D03*
X313690Y48260D03*
X43815Y200025D03*
X60960Y159385D03*
X109220Y207645D03*
X109220Y150495D03*
X88900Y76200D03*
X146050Y57150D03*
D11*
X309880Y199390D03*
X267970Y171450D03*
X68580Y281940D03*
X162560Y273050D03*
X279400Y273050D03*
X74295Y265430D03*
X135890Y274320D03*
X58420Y181864D03*
D10*
X102235Y265430D03*
X90170Y243205D03*
D11*
X96520Y279400D03*
D10*
X299085Y231140D03*
X98425Y203835D03*
D11*
X165735Y212725D03*
D10*
X165100Y177800D03*
X121920Y152400D03*
X304800Y150495D03*
D11*
X417195Y152400D03*
D10*
X55245Y202565D03*
X64135Y207645D03*
X95250Y69850D03*
D11*
X168910Y205740D03*
X169517Y198727D03*
X281905Y176530D03*
M02*
