G04 EAGLE Gerber RS-274X export*
G75*
%MOMM*%
%FSLAX34Y34*%
%LPD*%
%INBottom Silkscreen*%
%IPPOS*%
%AMOC8*
5,1,8,0,0,1.08239X$1,22.5*%
G01*
%ADD10C,0.152400*%
%ADD11C,0.101600*%
%ADD12C,0.076200*%
%ADD13R,0.650000X0.500000*%
%ADD14R,0.650000X1.400000*%
%ADD15C,0.050800*%
%ADD16R,0.750100X1.450100*%
%ADD17R,1.400000X0.650000*%
%ADD18R,1.450100X0.750100*%
%ADD19C,0.127000*%
%ADD20C,0.300000*%


D10*
X457708Y272514D02*
X446871Y272514D01*
X452289Y267095D02*
X452289Y277932D01*
D11*
X27432Y92008D02*
X15748Y92008D01*
X27432Y92008D02*
X27432Y95253D01*
X27430Y95366D01*
X27424Y95479D01*
X27414Y95592D01*
X27400Y95705D01*
X27383Y95817D01*
X27361Y95928D01*
X27336Y96038D01*
X27306Y96148D01*
X27273Y96256D01*
X27236Y96363D01*
X27196Y96469D01*
X27151Y96573D01*
X27103Y96676D01*
X27052Y96777D01*
X26997Y96876D01*
X26939Y96973D01*
X26877Y97068D01*
X26812Y97161D01*
X26744Y97251D01*
X26673Y97339D01*
X26598Y97425D01*
X26521Y97508D01*
X26441Y97588D01*
X26358Y97665D01*
X26272Y97740D01*
X26184Y97811D01*
X26094Y97879D01*
X26001Y97944D01*
X25906Y98006D01*
X25809Y98064D01*
X25710Y98119D01*
X25609Y98170D01*
X25506Y98218D01*
X25402Y98263D01*
X25296Y98303D01*
X25189Y98340D01*
X25081Y98373D01*
X24971Y98403D01*
X24861Y98428D01*
X24750Y98450D01*
X24638Y98467D01*
X24525Y98481D01*
X24412Y98491D01*
X24299Y98497D01*
X24186Y98499D01*
X24073Y98497D01*
X23960Y98491D01*
X23847Y98481D01*
X23734Y98467D01*
X23622Y98450D01*
X23511Y98428D01*
X23401Y98403D01*
X23291Y98373D01*
X23183Y98340D01*
X23076Y98303D01*
X22970Y98263D01*
X22866Y98218D01*
X22763Y98170D01*
X22662Y98119D01*
X22563Y98064D01*
X22466Y98006D01*
X22371Y97944D01*
X22278Y97879D01*
X22188Y97811D01*
X22100Y97740D01*
X22014Y97665D01*
X21931Y97588D01*
X21851Y97508D01*
X21774Y97425D01*
X21699Y97339D01*
X21628Y97251D01*
X21560Y97161D01*
X21495Y97068D01*
X21433Y96973D01*
X21375Y96876D01*
X21320Y96777D01*
X21269Y96676D01*
X21221Y96573D01*
X21176Y96469D01*
X21136Y96363D01*
X21099Y96256D01*
X21066Y96148D01*
X21036Y96038D01*
X21011Y95928D01*
X20989Y95817D01*
X20972Y95705D01*
X20958Y95592D01*
X20948Y95479D01*
X20942Y95366D01*
X20940Y95253D01*
X20941Y95253D02*
X20941Y92008D01*
X20941Y95902D02*
X15748Y98499D01*
X15748Y105199D02*
X15748Y108444D01*
X15748Y105199D02*
X15750Y105112D01*
X15756Y105024D01*
X15766Y104938D01*
X15779Y104851D01*
X15797Y104766D01*
X15818Y104681D01*
X15843Y104597D01*
X15872Y104515D01*
X15905Y104434D01*
X15941Y104354D01*
X15980Y104276D01*
X16024Y104200D01*
X16070Y104126D01*
X16120Y104055D01*
X16173Y103985D01*
X16229Y103918D01*
X16288Y103854D01*
X16350Y103792D01*
X16414Y103733D01*
X16481Y103677D01*
X16551Y103624D01*
X16622Y103574D01*
X16696Y103528D01*
X16772Y103484D01*
X16850Y103445D01*
X16930Y103409D01*
X17011Y103376D01*
X17093Y103347D01*
X17177Y103322D01*
X17262Y103301D01*
X17347Y103283D01*
X17434Y103270D01*
X17520Y103260D01*
X17608Y103254D01*
X17695Y103252D01*
X17695Y103251D02*
X20941Y103251D01*
X20941Y103252D02*
X21042Y103254D01*
X21142Y103260D01*
X21242Y103270D01*
X21342Y103283D01*
X21441Y103301D01*
X21540Y103322D01*
X21637Y103347D01*
X21734Y103376D01*
X21829Y103409D01*
X21923Y103445D01*
X22015Y103485D01*
X22106Y103528D01*
X22195Y103575D01*
X22282Y103625D01*
X22368Y103679D01*
X22451Y103736D01*
X22531Y103796D01*
X22610Y103859D01*
X22686Y103926D01*
X22759Y103995D01*
X22829Y104067D01*
X22897Y104141D01*
X22962Y104218D01*
X23023Y104298D01*
X23082Y104380D01*
X23137Y104464D01*
X23189Y104550D01*
X23238Y104638D01*
X23283Y104728D01*
X23325Y104820D01*
X23363Y104913D01*
X23397Y105008D01*
X23428Y105103D01*
X23455Y105200D01*
X23478Y105298D01*
X23498Y105397D01*
X23513Y105497D01*
X23525Y105597D01*
X23533Y105697D01*
X23537Y105798D01*
X23537Y105898D01*
X23533Y105999D01*
X23525Y106099D01*
X23513Y106199D01*
X23498Y106299D01*
X23478Y106398D01*
X23455Y106496D01*
X23428Y106593D01*
X23397Y106688D01*
X23363Y106783D01*
X23325Y106876D01*
X23283Y106968D01*
X23238Y107058D01*
X23189Y107146D01*
X23137Y107232D01*
X23082Y107316D01*
X23023Y107398D01*
X22962Y107478D01*
X22897Y107555D01*
X22829Y107629D01*
X22759Y107701D01*
X22686Y107770D01*
X22610Y107837D01*
X22531Y107900D01*
X22451Y107960D01*
X22368Y108017D01*
X22282Y108071D01*
X22195Y108121D01*
X22106Y108168D01*
X22015Y108211D01*
X21923Y108251D01*
X21829Y108287D01*
X21734Y108320D01*
X21637Y108349D01*
X21540Y108374D01*
X21441Y108395D01*
X21342Y108413D01*
X21242Y108426D01*
X21142Y108436D01*
X21042Y108442D01*
X20941Y108444D01*
X19643Y108444D01*
X19643Y103251D01*
X15748Y115105D02*
X15748Y118350D01*
X15748Y115105D02*
X15750Y115018D01*
X15756Y114930D01*
X15766Y114844D01*
X15779Y114757D01*
X15797Y114672D01*
X15818Y114587D01*
X15843Y114503D01*
X15872Y114421D01*
X15905Y114340D01*
X15941Y114260D01*
X15980Y114182D01*
X16024Y114106D01*
X16070Y114032D01*
X16120Y113961D01*
X16173Y113891D01*
X16229Y113824D01*
X16288Y113760D01*
X16350Y113698D01*
X16414Y113639D01*
X16481Y113583D01*
X16551Y113530D01*
X16622Y113480D01*
X16696Y113434D01*
X16772Y113390D01*
X16850Y113351D01*
X16930Y113315D01*
X17011Y113282D01*
X17093Y113253D01*
X17177Y113228D01*
X17262Y113207D01*
X17347Y113189D01*
X17434Y113176D01*
X17520Y113166D01*
X17608Y113160D01*
X17695Y113158D01*
X17695Y113157D02*
X20941Y113157D01*
X20941Y113158D02*
X21042Y113160D01*
X21142Y113166D01*
X21242Y113176D01*
X21342Y113189D01*
X21441Y113207D01*
X21540Y113228D01*
X21637Y113253D01*
X21734Y113282D01*
X21829Y113315D01*
X21923Y113351D01*
X22015Y113391D01*
X22106Y113434D01*
X22195Y113481D01*
X22282Y113531D01*
X22368Y113585D01*
X22451Y113642D01*
X22531Y113702D01*
X22610Y113765D01*
X22686Y113832D01*
X22759Y113901D01*
X22829Y113973D01*
X22897Y114047D01*
X22962Y114124D01*
X23023Y114204D01*
X23082Y114286D01*
X23137Y114370D01*
X23189Y114456D01*
X23238Y114544D01*
X23283Y114634D01*
X23325Y114726D01*
X23363Y114819D01*
X23397Y114914D01*
X23428Y115009D01*
X23455Y115106D01*
X23478Y115204D01*
X23498Y115303D01*
X23513Y115403D01*
X23525Y115503D01*
X23533Y115603D01*
X23537Y115704D01*
X23537Y115804D01*
X23533Y115905D01*
X23525Y116005D01*
X23513Y116105D01*
X23498Y116205D01*
X23478Y116304D01*
X23455Y116402D01*
X23428Y116499D01*
X23397Y116594D01*
X23363Y116689D01*
X23325Y116782D01*
X23283Y116874D01*
X23238Y116964D01*
X23189Y117052D01*
X23137Y117138D01*
X23082Y117222D01*
X23023Y117304D01*
X22962Y117384D01*
X22897Y117461D01*
X22829Y117535D01*
X22759Y117607D01*
X22686Y117676D01*
X22610Y117743D01*
X22531Y117806D01*
X22451Y117866D01*
X22368Y117923D01*
X22282Y117977D01*
X22195Y118027D01*
X22106Y118074D01*
X22015Y118117D01*
X21923Y118157D01*
X21829Y118193D01*
X21734Y118226D01*
X21637Y118255D01*
X21540Y118280D01*
X21441Y118301D01*
X21342Y118319D01*
X21242Y118332D01*
X21142Y118342D01*
X21042Y118348D01*
X20941Y118350D01*
X19643Y118350D01*
X19643Y113157D01*
X15748Y123690D02*
X25485Y123690D01*
X25572Y123692D01*
X25660Y123698D01*
X25746Y123708D01*
X25833Y123721D01*
X25918Y123739D01*
X26003Y123760D01*
X26087Y123785D01*
X26169Y123814D01*
X26250Y123847D01*
X26330Y123883D01*
X26408Y123922D01*
X26484Y123966D01*
X26558Y124012D01*
X26629Y124062D01*
X26699Y124115D01*
X26766Y124171D01*
X26830Y124230D01*
X26892Y124291D01*
X26951Y124356D01*
X27007Y124423D01*
X27060Y124493D01*
X27110Y124564D01*
X27156Y124638D01*
X27200Y124714D01*
X27239Y124792D01*
X27275Y124872D01*
X27308Y124953D01*
X27337Y125035D01*
X27362Y125119D01*
X27383Y125204D01*
X27401Y125289D01*
X27414Y125376D01*
X27424Y125462D01*
X27430Y125550D01*
X27432Y125637D01*
X27432Y126286D01*
X23537Y126286D02*
X23537Y122392D01*
X23537Y129470D02*
X15748Y129470D01*
X26783Y129145D02*
X27432Y129145D01*
X27432Y129794D01*
X26783Y129794D01*
X26783Y129145D01*
X23537Y134493D02*
X15748Y134493D01*
X23537Y134493D02*
X23537Y137739D01*
X23535Y137826D01*
X23529Y137914D01*
X23519Y138000D01*
X23506Y138087D01*
X23488Y138172D01*
X23467Y138257D01*
X23442Y138341D01*
X23413Y138423D01*
X23380Y138504D01*
X23344Y138584D01*
X23305Y138662D01*
X23261Y138738D01*
X23215Y138812D01*
X23165Y138883D01*
X23112Y138953D01*
X23056Y139020D01*
X22997Y139084D01*
X22935Y139146D01*
X22871Y139205D01*
X22804Y139261D01*
X22734Y139314D01*
X22663Y139364D01*
X22589Y139410D01*
X22513Y139454D01*
X22435Y139493D01*
X22355Y139529D01*
X22274Y139562D01*
X22192Y139591D01*
X22108Y139616D01*
X22023Y139637D01*
X21938Y139655D01*
X21851Y139668D01*
X21765Y139678D01*
X21677Y139684D01*
X21590Y139686D01*
X15748Y139686D01*
X15748Y146669D02*
X15748Y149914D01*
X15748Y146669D02*
X15750Y146582D01*
X15756Y146494D01*
X15766Y146408D01*
X15779Y146321D01*
X15797Y146236D01*
X15818Y146151D01*
X15843Y146067D01*
X15872Y145985D01*
X15905Y145904D01*
X15941Y145824D01*
X15980Y145746D01*
X16024Y145670D01*
X16070Y145596D01*
X16120Y145525D01*
X16173Y145455D01*
X16229Y145388D01*
X16288Y145324D01*
X16350Y145262D01*
X16414Y145203D01*
X16481Y145147D01*
X16551Y145094D01*
X16622Y145044D01*
X16696Y144998D01*
X16772Y144954D01*
X16850Y144915D01*
X16930Y144879D01*
X17011Y144846D01*
X17093Y144817D01*
X17177Y144792D01*
X17262Y144771D01*
X17347Y144753D01*
X17434Y144740D01*
X17520Y144730D01*
X17608Y144724D01*
X17695Y144722D01*
X17695Y144721D02*
X21590Y144721D01*
X21590Y144722D02*
X21677Y144724D01*
X21765Y144730D01*
X21851Y144740D01*
X21938Y144753D01*
X22023Y144771D01*
X22108Y144792D01*
X22192Y144817D01*
X22274Y144846D01*
X22355Y144879D01*
X22435Y144915D01*
X22513Y144954D01*
X22589Y144998D01*
X22663Y145044D01*
X22734Y145094D01*
X22804Y145147D01*
X22871Y145203D01*
X22935Y145262D01*
X22997Y145324D01*
X23056Y145388D01*
X23112Y145455D01*
X23165Y145525D01*
X23215Y145596D01*
X23261Y145670D01*
X23305Y145746D01*
X23344Y145824D01*
X23380Y145904D01*
X23413Y145985D01*
X23442Y146067D01*
X23467Y146151D01*
X23488Y146236D01*
X23506Y146321D01*
X23519Y146408D01*
X23529Y146494D01*
X23535Y146582D01*
X23537Y146669D01*
X23537Y149914D01*
X13801Y149914D01*
X13714Y149912D01*
X13626Y149906D01*
X13540Y149896D01*
X13453Y149883D01*
X13368Y149865D01*
X13283Y149844D01*
X13199Y149819D01*
X13117Y149790D01*
X13036Y149757D01*
X12956Y149721D01*
X12878Y149682D01*
X12802Y149638D01*
X12728Y149592D01*
X12657Y149542D01*
X12587Y149489D01*
X12520Y149433D01*
X12456Y149374D01*
X12394Y149313D01*
X12335Y149248D01*
X12279Y149181D01*
X12226Y149111D01*
X12176Y149040D01*
X12130Y148966D01*
X12086Y148890D01*
X12047Y148812D01*
X12011Y148732D01*
X11978Y148651D01*
X11949Y148569D01*
X11924Y148485D01*
X11903Y148400D01*
X11885Y148315D01*
X11872Y148228D01*
X11862Y148142D01*
X11856Y148054D01*
X11854Y147967D01*
X11853Y147967D02*
X11853Y145370D01*
X15748Y163839D02*
X15748Y166436D01*
X15748Y163839D02*
X15750Y163740D01*
X15756Y163640D01*
X15765Y163541D01*
X15778Y163443D01*
X15795Y163345D01*
X15816Y163247D01*
X15841Y163151D01*
X15869Y163056D01*
X15901Y162962D01*
X15936Y162869D01*
X15975Y162777D01*
X16018Y162687D01*
X16063Y162599D01*
X16113Y162512D01*
X16165Y162428D01*
X16221Y162345D01*
X16279Y162265D01*
X16341Y162187D01*
X16406Y162112D01*
X16474Y162039D01*
X16544Y161969D01*
X16617Y161901D01*
X16692Y161836D01*
X16770Y161774D01*
X16850Y161716D01*
X16933Y161660D01*
X17017Y161608D01*
X17104Y161558D01*
X17192Y161513D01*
X17282Y161470D01*
X17374Y161431D01*
X17467Y161396D01*
X17561Y161364D01*
X17656Y161336D01*
X17752Y161311D01*
X17850Y161290D01*
X17948Y161273D01*
X18046Y161260D01*
X18145Y161251D01*
X18245Y161245D01*
X18344Y161243D01*
X24836Y161243D01*
X24935Y161245D01*
X25035Y161251D01*
X25134Y161260D01*
X25232Y161273D01*
X25330Y161290D01*
X25428Y161311D01*
X25524Y161336D01*
X25619Y161364D01*
X25713Y161396D01*
X25806Y161431D01*
X25898Y161470D01*
X25988Y161513D01*
X26076Y161558D01*
X26163Y161608D01*
X26247Y161660D01*
X26330Y161716D01*
X26410Y161774D01*
X26488Y161836D01*
X26563Y161901D01*
X26636Y161969D01*
X26706Y162039D01*
X26774Y162112D01*
X26839Y162187D01*
X26901Y162265D01*
X26959Y162345D01*
X27015Y162428D01*
X27067Y162512D01*
X27117Y162599D01*
X27162Y162687D01*
X27205Y162777D01*
X27244Y162869D01*
X27279Y162961D01*
X27311Y163056D01*
X27339Y163151D01*
X27364Y163247D01*
X27385Y163345D01*
X27402Y163443D01*
X27415Y163541D01*
X27424Y163640D01*
X27430Y163740D01*
X27432Y163839D01*
X27432Y166436D01*
X20941Y170688D02*
X18344Y170688D01*
X20941Y170689D02*
X21042Y170691D01*
X21142Y170697D01*
X21242Y170707D01*
X21342Y170720D01*
X21441Y170738D01*
X21540Y170759D01*
X21637Y170784D01*
X21734Y170813D01*
X21829Y170846D01*
X21923Y170882D01*
X22015Y170922D01*
X22106Y170965D01*
X22195Y171012D01*
X22282Y171062D01*
X22368Y171116D01*
X22451Y171173D01*
X22531Y171233D01*
X22610Y171296D01*
X22686Y171363D01*
X22759Y171432D01*
X22829Y171504D01*
X22897Y171578D01*
X22962Y171655D01*
X23023Y171735D01*
X23082Y171817D01*
X23137Y171901D01*
X23189Y171987D01*
X23238Y172075D01*
X23283Y172165D01*
X23325Y172257D01*
X23363Y172350D01*
X23397Y172445D01*
X23428Y172540D01*
X23455Y172637D01*
X23478Y172735D01*
X23498Y172834D01*
X23513Y172934D01*
X23525Y173034D01*
X23533Y173134D01*
X23537Y173235D01*
X23537Y173335D01*
X23533Y173436D01*
X23525Y173536D01*
X23513Y173636D01*
X23498Y173736D01*
X23478Y173835D01*
X23455Y173933D01*
X23428Y174030D01*
X23397Y174125D01*
X23363Y174220D01*
X23325Y174313D01*
X23283Y174405D01*
X23238Y174495D01*
X23189Y174583D01*
X23137Y174669D01*
X23082Y174753D01*
X23023Y174835D01*
X22962Y174915D01*
X22897Y174992D01*
X22829Y175066D01*
X22759Y175138D01*
X22686Y175207D01*
X22610Y175274D01*
X22531Y175337D01*
X22451Y175397D01*
X22368Y175454D01*
X22282Y175508D01*
X22195Y175558D01*
X22106Y175605D01*
X22015Y175648D01*
X21923Y175688D01*
X21829Y175724D01*
X21734Y175757D01*
X21637Y175786D01*
X21540Y175811D01*
X21441Y175832D01*
X21342Y175850D01*
X21242Y175863D01*
X21142Y175873D01*
X21042Y175879D01*
X20941Y175881D01*
X18344Y175881D01*
X18243Y175879D01*
X18143Y175873D01*
X18043Y175863D01*
X17943Y175850D01*
X17844Y175832D01*
X17745Y175811D01*
X17648Y175786D01*
X17551Y175757D01*
X17456Y175724D01*
X17362Y175688D01*
X17270Y175648D01*
X17179Y175605D01*
X17090Y175558D01*
X17003Y175508D01*
X16917Y175454D01*
X16834Y175397D01*
X16754Y175337D01*
X16675Y175274D01*
X16599Y175207D01*
X16526Y175138D01*
X16456Y175066D01*
X16388Y174992D01*
X16323Y174915D01*
X16262Y174835D01*
X16203Y174753D01*
X16148Y174669D01*
X16096Y174583D01*
X16047Y174495D01*
X16002Y174405D01*
X15960Y174313D01*
X15922Y174220D01*
X15888Y174125D01*
X15857Y174030D01*
X15830Y173933D01*
X15807Y173835D01*
X15787Y173736D01*
X15772Y173636D01*
X15760Y173536D01*
X15752Y173436D01*
X15748Y173335D01*
X15748Y173235D01*
X15752Y173134D01*
X15760Y173034D01*
X15772Y172934D01*
X15787Y172834D01*
X15807Y172735D01*
X15830Y172637D01*
X15857Y172540D01*
X15888Y172445D01*
X15922Y172350D01*
X15960Y172257D01*
X16002Y172165D01*
X16047Y172075D01*
X16096Y171987D01*
X16148Y171901D01*
X16203Y171817D01*
X16262Y171735D01*
X16323Y171655D01*
X16388Y171578D01*
X16456Y171504D01*
X16526Y171432D01*
X16599Y171363D01*
X16675Y171296D01*
X16754Y171233D01*
X16834Y171173D01*
X16917Y171116D01*
X17003Y171062D01*
X17090Y171012D01*
X17179Y170965D01*
X17270Y170922D01*
X17362Y170882D01*
X17456Y170846D01*
X17551Y170813D01*
X17648Y170784D01*
X17745Y170759D01*
X17844Y170738D01*
X17943Y170720D01*
X18043Y170707D01*
X18143Y170697D01*
X18243Y170691D01*
X18344Y170689D01*
X15748Y181201D02*
X23537Y181201D01*
X23537Y187043D01*
X23535Y187130D01*
X23529Y187218D01*
X23519Y187304D01*
X23506Y187391D01*
X23488Y187476D01*
X23467Y187561D01*
X23442Y187645D01*
X23413Y187727D01*
X23380Y187808D01*
X23344Y187888D01*
X23305Y187966D01*
X23261Y188042D01*
X23215Y188116D01*
X23165Y188187D01*
X23112Y188257D01*
X23056Y188324D01*
X22997Y188388D01*
X22935Y188450D01*
X22871Y188509D01*
X22804Y188565D01*
X22734Y188618D01*
X22663Y188668D01*
X22589Y188714D01*
X22513Y188758D01*
X22435Y188797D01*
X22355Y188833D01*
X22274Y188866D01*
X22192Y188895D01*
X22108Y188920D01*
X22023Y188941D01*
X21938Y188959D01*
X21851Y188972D01*
X21765Y188982D01*
X21677Y188988D01*
X21590Y188990D01*
X15748Y188990D01*
X15748Y185096D02*
X23537Y185096D01*
X23537Y194750D02*
X11853Y194750D01*
X23537Y194750D02*
X23537Y197996D01*
X23535Y198083D01*
X23529Y198171D01*
X23519Y198257D01*
X23506Y198344D01*
X23488Y198429D01*
X23467Y198514D01*
X23442Y198598D01*
X23413Y198680D01*
X23380Y198761D01*
X23344Y198841D01*
X23305Y198919D01*
X23261Y198995D01*
X23215Y199069D01*
X23165Y199140D01*
X23112Y199210D01*
X23056Y199277D01*
X22997Y199341D01*
X22935Y199403D01*
X22871Y199462D01*
X22804Y199518D01*
X22734Y199571D01*
X22663Y199621D01*
X22589Y199667D01*
X22513Y199711D01*
X22435Y199750D01*
X22355Y199786D01*
X22274Y199819D01*
X22192Y199848D01*
X22108Y199873D01*
X22023Y199894D01*
X21938Y199912D01*
X21851Y199925D01*
X21765Y199935D01*
X21677Y199941D01*
X21590Y199943D01*
X17695Y199943D01*
X17608Y199941D01*
X17520Y199935D01*
X17434Y199925D01*
X17347Y199912D01*
X17262Y199894D01*
X17177Y199873D01*
X17093Y199848D01*
X17011Y199819D01*
X16930Y199786D01*
X16850Y199750D01*
X16772Y199711D01*
X16696Y199667D01*
X16622Y199621D01*
X16551Y199571D01*
X16481Y199518D01*
X16414Y199462D01*
X16350Y199403D01*
X16288Y199341D01*
X16229Y199277D01*
X16173Y199210D01*
X16120Y199140D01*
X16070Y199069D01*
X16024Y198995D01*
X15980Y198919D01*
X15941Y198841D01*
X15905Y198761D01*
X15872Y198680D01*
X15843Y198598D01*
X15818Y198514D01*
X15797Y198429D01*
X15779Y198344D01*
X15766Y198257D01*
X15756Y198171D01*
X15750Y198083D01*
X15748Y197996D01*
X15748Y194750D01*
X17695Y204978D02*
X23537Y204978D01*
X17695Y204978D02*
X17608Y204980D01*
X17520Y204986D01*
X17434Y204996D01*
X17347Y205009D01*
X17262Y205027D01*
X17177Y205048D01*
X17093Y205073D01*
X17011Y205102D01*
X16930Y205135D01*
X16850Y205171D01*
X16772Y205210D01*
X16696Y205254D01*
X16622Y205300D01*
X16551Y205350D01*
X16481Y205403D01*
X16414Y205459D01*
X16350Y205518D01*
X16288Y205580D01*
X16229Y205644D01*
X16173Y205711D01*
X16120Y205781D01*
X16070Y205852D01*
X16024Y205926D01*
X15980Y206002D01*
X15941Y206080D01*
X15905Y206160D01*
X15872Y206241D01*
X15843Y206323D01*
X15818Y206407D01*
X15797Y206492D01*
X15779Y206577D01*
X15766Y206664D01*
X15756Y206750D01*
X15750Y206838D01*
X15748Y206925D01*
X15748Y210171D01*
X23537Y210171D01*
X23537Y214298D02*
X23537Y218192D01*
X27432Y215596D02*
X17695Y215596D01*
X17608Y215598D01*
X17520Y215604D01*
X17434Y215614D01*
X17347Y215627D01*
X17262Y215645D01*
X17177Y215666D01*
X17093Y215691D01*
X17011Y215720D01*
X16930Y215753D01*
X16850Y215789D01*
X16772Y215828D01*
X16696Y215872D01*
X16622Y215918D01*
X16551Y215968D01*
X16481Y216021D01*
X16414Y216077D01*
X16350Y216136D01*
X16288Y216198D01*
X16229Y216262D01*
X16173Y216329D01*
X16120Y216399D01*
X16070Y216470D01*
X16024Y216544D01*
X15980Y216620D01*
X15941Y216698D01*
X15905Y216778D01*
X15872Y216859D01*
X15843Y216941D01*
X15818Y217025D01*
X15797Y217110D01*
X15779Y217195D01*
X15766Y217282D01*
X15756Y217368D01*
X15750Y217456D01*
X15748Y217543D01*
X15748Y218192D01*
X15748Y224451D02*
X15748Y227697D01*
X15748Y224451D02*
X15750Y224364D01*
X15756Y224276D01*
X15766Y224190D01*
X15779Y224103D01*
X15797Y224018D01*
X15818Y223933D01*
X15843Y223849D01*
X15872Y223767D01*
X15905Y223686D01*
X15941Y223606D01*
X15980Y223528D01*
X16024Y223452D01*
X16070Y223378D01*
X16120Y223307D01*
X16173Y223237D01*
X16229Y223170D01*
X16288Y223106D01*
X16350Y223044D01*
X16414Y222985D01*
X16481Y222929D01*
X16551Y222876D01*
X16622Y222826D01*
X16696Y222780D01*
X16772Y222736D01*
X16850Y222697D01*
X16930Y222661D01*
X17011Y222628D01*
X17093Y222599D01*
X17177Y222574D01*
X17262Y222553D01*
X17347Y222535D01*
X17434Y222522D01*
X17520Y222512D01*
X17608Y222506D01*
X17695Y222504D01*
X20941Y222504D01*
X20941Y222505D02*
X21042Y222507D01*
X21142Y222513D01*
X21242Y222523D01*
X21342Y222536D01*
X21441Y222554D01*
X21540Y222575D01*
X21637Y222600D01*
X21734Y222629D01*
X21829Y222662D01*
X21923Y222698D01*
X22015Y222738D01*
X22106Y222781D01*
X22195Y222828D01*
X22282Y222878D01*
X22368Y222932D01*
X22451Y222989D01*
X22531Y223049D01*
X22610Y223112D01*
X22686Y223179D01*
X22759Y223248D01*
X22829Y223320D01*
X22897Y223394D01*
X22962Y223471D01*
X23023Y223551D01*
X23082Y223633D01*
X23137Y223717D01*
X23189Y223803D01*
X23238Y223891D01*
X23283Y223981D01*
X23325Y224073D01*
X23363Y224166D01*
X23397Y224261D01*
X23428Y224356D01*
X23455Y224453D01*
X23478Y224551D01*
X23498Y224650D01*
X23513Y224750D01*
X23525Y224850D01*
X23533Y224950D01*
X23537Y225051D01*
X23537Y225151D01*
X23533Y225252D01*
X23525Y225352D01*
X23513Y225452D01*
X23498Y225552D01*
X23478Y225651D01*
X23455Y225749D01*
X23428Y225846D01*
X23397Y225941D01*
X23363Y226036D01*
X23325Y226129D01*
X23283Y226221D01*
X23238Y226311D01*
X23189Y226399D01*
X23137Y226485D01*
X23082Y226569D01*
X23023Y226651D01*
X22962Y226731D01*
X22897Y226808D01*
X22829Y226882D01*
X22759Y226954D01*
X22686Y227023D01*
X22610Y227090D01*
X22531Y227153D01*
X22451Y227213D01*
X22368Y227270D01*
X22282Y227324D01*
X22195Y227374D01*
X22106Y227421D01*
X22015Y227464D01*
X21923Y227504D01*
X21829Y227540D01*
X21734Y227573D01*
X21637Y227602D01*
X21540Y227627D01*
X21441Y227648D01*
X21342Y227666D01*
X21242Y227679D01*
X21142Y227689D01*
X21042Y227695D01*
X20941Y227697D01*
X19643Y227697D01*
X19643Y222504D01*
X15748Y232857D02*
X23537Y232857D01*
X23537Y236752D01*
X22239Y236752D01*
X27432Y247075D02*
X15748Y247075D01*
X27432Y247075D02*
X27432Y250320D01*
X27430Y250433D01*
X27424Y250546D01*
X27414Y250659D01*
X27400Y250772D01*
X27383Y250884D01*
X27361Y250995D01*
X27336Y251105D01*
X27306Y251215D01*
X27273Y251323D01*
X27236Y251430D01*
X27196Y251536D01*
X27151Y251640D01*
X27103Y251743D01*
X27052Y251844D01*
X26997Y251943D01*
X26939Y252040D01*
X26877Y252135D01*
X26812Y252228D01*
X26744Y252318D01*
X26673Y252406D01*
X26598Y252492D01*
X26521Y252575D01*
X26441Y252655D01*
X26358Y252732D01*
X26272Y252807D01*
X26184Y252878D01*
X26094Y252946D01*
X26001Y253011D01*
X25906Y253073D01*
X25809Y253131D01*
X25710Y253186D01*
X25609Y253237D01*
X25506Y253285D01*
X25402Y253330D01*
X25296Y253370D01*
X25189Y253407D01*
X25081Y253440D01*
X24971Y253470D01*
X24861Y253495D01*
X24750Y253517D01*
X24638Y253534D01*
X24525Y253548D01*
X24412Y253558D01*
X24299Y253564D01*
X24186Y253566D01*
X24073Y253564D01*
X23960Y253558D01*
X23847Y253548D01*
X23734Y253534D01*
X23622Y253517D01*
X23511Y253495D01*
X23401Y253470D01*
X23291Y253440D01*
X23183Y253407D01*
X23076Y253370D01*
X22970Y253330D01*
X22866Y253285D01*
X22763Y253237D01*
X22662Y253186D01*
X22563Y253131D01*
X22466Y253073D01*
X22371Y253011D01*
X22278Y252946D01*
X22188Y252878D01*
X22100Y252807D01*
X22014Y252732D01*
X21931Y252655D01*
X21851Y252575D01*
X21774Y252492D01*
X21699Y252406D01*
X21628Y252318D01*
X21560Y252228D01*
X21495Y252135D01*
X21433Y252040D01*
X21375Y251943D01*
X21320Y251844D01*
X21269Y251743D01*
X21221Y251640D01*
X21176Y251536D01*
X21136Y251430D01*
X21099Y251323D01*
X21066Y251215D01*
X21036Y251105D01*
X21011Y250995D01*
X20989Y250884D01*
X20972Y250772D01*
X20958Y250659D01*
X20948Y250546D01*
X20942Y250433D01*
X20940Y250320D01*
X20941Y250320D02*
X20941Y247075D01*
X20941Y250969D02*
X15748Y253566D01*
X15748Y258431D02*
X15748Y261676D01*
X15750Y261789D01*
X15756Y261902D01*
X15766Y262015D01*
X15780Y262128D01*
X15797Y262240D01*
X15819Y262351D01*
X15844Y262461D01*
X15874Y262571D01*
X15907Y262679D01*
X15944Y262786D01*
X15984Y262892D01*
X16029Y262996D01*
X16077Y263099D01*
X16128Y263200D01*
X16183Y263299D01*
X16241Y263396D01*
X16303Y263491D01*
X16368Y263584D01*
X16436Y263674D01*
X16507Y263762D01*
X16582Y263848D01*
X16659Y263931D01*
X16739Y264011D01*
X16822Y264088D01*
X16908Y264163D01*
X16996Y264234D01*
X17086Y264302D01*
X17179Y264367D01*
X17274Y264429D01*
X17371Y264487D01*
X17470Y264542D01*
X17571Y264593D01*
X17674Y264641D01*
X17778Y264686D01*
X17884Y264726D01*
X17991Y264763D01*
X18099Y264796D01*
X18209Y264826D01*
X18319Y264851D01*
X18430Y264873D01*
X18542Y264890D01*
X18655Y264904D01*
X18768Y264914D01*
X18881Y264920D01*
X18994Y264922D01*
X19107Y264920D01*
X19220Y264914D01*
X19333Y264904D01*
X19446Y264890D01*
X19558Y264873D01*
X19669Y264851D01*
X19779Y264826D01*
X19889Y264796D01*
X19997Y264763D01*
X20104Y264726D01*
X20210Y264686D01*
X20314Y264641D01*
X20417Y264593D01*
X20518Y264542D01*
X20617Y264487D01*
X20714Y264429D01*
X20809Y264367D01*
X20902Y264302D01*
X20992Y264234D01*
X21080Y264163D01*
X21166Y264088D01*
X21249Y264011D01*
X21329Y263931D01*
X21406Y263848D01*
X21481Y263762D01*
X21552Y263674D01*
X21620Y263584D01*
X21685Y263491D01*
X21747Y263396D01*
X21805Y263299D01*
X21860Y263200D01*
X21911Y263099D01*
X21959Y262996D01*
X22004Y262892D01*
X22044Y262786D01*
X22081Y262679D01*
X22114Y262571D01*
X22144Y262461D01*
X22169Y262351D01*
X22191Y262240D01*
X22208Y262128D01*
X22222Y262015D01*
X22232Y261902D01*
X22238Y261789D01*
X22240Y261676D01*
X27432Y262326D02*
X27432Y258431D01*
X27432Y262326D02*
X27430Y262427D01*
X27424Y262527D01*
X27414Y262627D01*
X27401Y262727D01*
X27383Y262826D01*
X27362Y262925D01*
X27337Y263022D01*
X27308Y263119D01*
X27275Y263214D01*
X27239Y263308D01*
X27199Y263400D01*
X27156Y263491D01*
X27109Y263580D01*
X27059Y263667D01*
X27005Y263753D01*
X26948Y263836D01*
X26888Y263916D01*
X26825Y263995D01*
X26758Y264071D01*
X26689Y264144D01*
X26617Y264214D01*
X26543Y264282D01*
X26466Y264347D01*
X26386Y264408D01*
X26304Y264467D01*
X26220Y264522D01*
X26134Y264574D01*
X26046Y264623D01*
X25956Y264668D01*
X25864Y264710D01*
X25771Y264748D01*
X25676Y264782D01*
X25581Y264813D01*
X25484Y264840D01*
X25386Y264863D01*
X25287Y264883D01*
X25187Y264898D01*
X25087Y264910D01*
X24987Y264918D01*
X24886Y264922D01*
X24786Y264922D01*
X24685Y264918D01*
X24585Y264910D01*
X24485Y264898D01*
X24385Y264883D01*
X24286Y264863D01*
X24188Y264840D01*
X24091Y264813D01*
X23996Y264782D01*
X23901Y264748D01*
X23808Y264710D01*
X23716Y264668D01*
X23626Y264623D01*
X23538Y264574D01*
X23452Y264522D01*
X23368Y264467D01*
X23286Y264408D01*
X23206Y264347D01*
X23129Y264282D01*
X23055Y264214D01*
X22983Y264144D01*
X22914Y264071D01*
X22847Y263995D01*
X22784Y263916D01*
X22724Y263836D01*
X22667Y263753D01*
X22613Y263667D01*
X22563Y263580D01*
X22516Y263491D01*
X22473Y263400D01*
X22433Y263308D01*
X22397Y263214D01*
X22364Y263119D01*
X22335Y263022D01*
X22310Y262925D01*
X22289Y262826D01*
X22271Y262727D01*
X22258Y262627D01*
X22248Y262527D01*
X22242Y262427D01*
X22240Y262326D01*
X22239Y262326D02*
X22239Y259729D01*
D12*
X12319Y125857D02*
X4953Y125857D01*
X8227Y128312D02*
X12319Y125857D01*
X8227Y128312D02*
X12319Y130768D01*
X4953Y130768D01*
X7818Y135626D02*
X7818Y137467D01*
X7817Y135626D02*
X7815Y135551D01*
X7809Y135476D01*
X7799Y135402D01*
X7786Y135328D01*
X7768Y135255D01*
X7747Y135183D01*
X7722Y135113D01*
X7693Y135044D01*
X7661Y134976D01*
X7625Y134910D01*
X7586Y134846D01*
X7544Y134784D01*
X7498Y134725D01*
X7449Y134668D01*
X7398Y134613D01*
X7343Y134562D01*
X7286Y134513D01*
X7227Y134467D01*
X7165Y134425D01*
X7101Y134386D01*
X7035Y134350D01*
X6967Y134318D01*
X6898Y134289D01*
X6828Y134264D01*
X6756Y134243D01*
X6683Y134225D01*
X6609Y134212D01*
X6535Y134202D01*
X6460Y134196D01*
X6385Y134194D01*
X6310Y134196D01*
X6235Y134202D01*
X6161Y134212D01*
X6087Y134225D01*
X6014Y134243D01*
X5942Y134264D01*
X5872Y134289D01*
X5803Y134318D01*
X5735Y134350D01*
X5669Y134386D01*
X5605Y134425D01*
X5543Y134467D01*
X5484Y134513D01*
X5427Y134562D01*
X5372Y134613D01*
X5321Y134668D01*
X5272Y134725D01*
X5226Y134784D01*
X5184Y134846D01*
X5145Y134910D01*
X5109Y134976D01*
X5077Y135044D01*
X5048Y135113D01*
X5023Y135183D01*
X5002Y135255D01*
X4984Y135328D01*
X4971Y135402D01*
X4961Y135476D01*
X4955Y135551D01*
X4953Y135626D01*
X4953Y137467D01*
X8636Y137467D01*
X8636Y137468D02*
X8705Y137466D01*
X8773Y137460D01*
X8842Y137451D01*
X8909Y137437D01*
X8976Y137420D01*
X9042Y137399D01*
X9106Y137375D01*
X9169Y137346D01*
X9230Y137315D01*
X9289Y137280D01*
X9347Y137242D01*
X9402Y137200D01*
X9454Y137156D01*
X9504Y137108D01*
X9552Y137058D01*
X9596Y137006D01*
X9638Y136951D01*
X9676Y136893D01*
X9711Y136834D01*
X9742Y136773D01*
X9771Y136710D01*
X9795Y136646D01*
X9816Y136580D01*
X9833Y136513D01*
X9847Y136446D01*
X9856Y136377D01*
X9862Y136309D01*
X9864Y136240D01*
X9864Y134603D01*
X9864Y140188D02*
X9864Y142643D01*
X12319Y141006D02*
X6181Y141006D01*
X6112Y141008D01*
X6044Y141014D01*
X5975Y141023D01*
X5908Y141037D01*
X5841Y141054D01*
X5775Y141075D01*
X5711Y141099D01*
X5648Y141128D01*
X5587Y141159D01*
X5528Y141194D01*
X5470Y141232D01*
X5415Y141274D01*
X5363Y141318D01*
X5313Y141366D01*
X5265Y141416D01*
X5221Y141468D01*
X5179Y141523D01*
X5141Y141581D01*
X5106Y141640D01*
X5075Y141701D01*
X5046Y141764D01*
X5022Y141828D01*
X5001Y141894D01*
X4984Y141961D01*
X4970Y142028D01*
X4961Y142097D01*
X4955Y142165D01*
X4953Y142234D01*
X4953Y142643D01*
X9864Y144821D02*
X9864Y147276D01*
X12319Y145639D02*
X6181Y145639D01*
X6112Y145641D01*
X6044Y145647D01*
X5975Y145656D01*
X5908Y145670D01*
X5841Y145687D01*
X5775Y145708D01*
X5711Y145732D01*
X5648Y145761D01*
X5587Y145792D01*
X5528Y145827D01*
X5470Y145865D01*
X5415Y145907D01*
X5363Y145951D01*
X5313Y145999D01*
X5265Y146049D01*
X5221Y146101D01*
X5179Y146156D01*
X5141Y146214D01*
X5106Y146273D01*
X5075Y146334D01*
X5046Y146397D01*
X5022Y146461D01*
X5001Y146527D01*
X4984Y146594D01*
X4970Y146661D01*
X4961Y146730D01*
X4955Y146798D01*
X4953Y146867D01*
X4953Y147276D01*
X4953Y154386D02*
X12319Y154386D01*
X8227Y156841D01*
X12319Y159297D01*
X4953Y159297D01*
X6590Y162764D02*
X8227Y162764D01*
X8227Y162763D02*
X8306Y162765D01*
X8385Y162771D01*
X8464Y162780D01*
X8542Y162793D01*
X8619Y162811D01*
X8695Y162831D01*
X8770Y162856D01*
X8844Y162884D01*
X8917Y162915D01*
X8988Y162951D01*
X9057Y162989D01*
X9124Y163031D01*
X9189Y163076D01*
X9252Y163124D01*
X9313Y163175D01*
X9370Y163229D01*
X9426Y163285D01*
X9478Y163344D01*
X9528Y163406D01*
X9574Y163470D01*
X9618Y163536D01*
X9658Y163604D01*
X9694Y163674D01*
X9728Y163746D01*
X9758Y163820D01*
X9784Y163894D01*
X9807Y163970D01*
X9825Y164047D01*
X9841Y164124D01*
X9852Y164203D01*
X9860Y164281D01*
X9864Y164360D01*
X9864Y164440D01*
X9860Y164519D01*
X9852Y164597D01*
X9841Y164676D01*
X9825Y164753D01*
X9807Y164830D01*
X9784Y164906D01*
X9758Y164980D01*
X9728Y165054D01*
X9694Y165126D01*
X9658Y165196D01*
X9618Y165264D01*
X9574Y165330D01*
X9528Y165394D01*
X9478Y165456D01*
X9426Y165515D01*
X9370Y165571D01*
X9313Y165625D01*
X9252Y165676D01*
X9189Y165724D01*
X9124Y165769D01*
X9057Y165811D01*
X8988Y165849D01*
X8917Y165885D01*
X8844Y165916D01*
X8770Y165944D01*
X8695Y165969D01*
X8619Y165989D01*
X8542Y166007D01*
X8464Y166020D01*
X8385Y166029D01*
X8306Y166035D01*
X8227Y166037D01*
X6590Y166037D01*
X6511Y166035D01*
X6432Y166029D01*
X6353Y166020D01*
X6275Y166007D01*
X6198Y165989D01*
X6122Y165969D01*
X6047Y165944D01*
X5973Y165916D01*
X5900Y165885D01*
X5829Y165849D01*
X5760Y165811D01*
X5693Y165769D01*
X5628Y165724D01*
X5565Y165676D01*
X5504Y165625D01*
X5447Y165571D01*
X5391Y165515D01*
X5339Y165456D01*
X5289Y165394D01*
X5243Y165330D01*
X5199Y165264D01*
X5159Y165196D01*
X5123Y165126D01*
X5089Y165054D01*
X5059Y164980D01*
X5033Y164906D01*
X5010Y164830D01*
X4992Y164753D01*
X4976Y164676D01*
X4965Y164597D01*
X4957Y164519D01*
X4953Y164440D01*
X4953Y164360D01*
X4957Y164281D01*
X4965Y164203D01*
X4976Y164124D01*
X4992Y164047D01*
X5010Y163970D01*
X5033Y163894D01*
X5059Y163820D01*
X5089Y163746D01*
X5123Y163674D01*
X5159Y163604D01*
X5199Y163536D01*
X5243Y163470D01*
X5289Y163406D01*
X5339Y163344D01*
X5391Y163285D01*
X5447Y163229D01*
X5504Y163175D01*
X5565Y163124D01*
X5628Y163076D01*
X5693Y163031D01*
X5760Y162989D01*
X5829Y162951D01*
X5900Y162915D01*
X5973Y162884D01*
X6047Y162856D01*
X6122Y162831D01*
X6198Y162811D01*
X6275Y162793D01*
X6353Y162780D01*
X6432Y162771D01*
X6511Y162765D01*
X6590Y162763D01*
X4953Y169393D02*
X9864Y169393D01*
X9864Y171849D01*
X9045Y171849D01*
X6181Y174307D02*
X12319Y174307D01*
X6181Y174307D02*
X6112Y174309D01*
X6044Y174315D01*
X5975Y174324D01*
X5908Y174338D01*
X5841Y174355D01*
X5775Y174376D01*
X5711Y174400D01*
X5648Y174429D01*
X5587Y174460D01*
X5528Y174495D01*
X5470Y174533D01*
X5415Y174575D01*
X5363Y174619D01*
X5313Y174667D01*
X5265Y174717D01*
X5221Y174769D01*
X5179Y174824D01*
X5141Y174882D01*
X5106Y174941D01*
X5075Y175002D01*
X5046Y175065D01*
X5022Y175129D01*
X5001Y175195D01*
X4984Y175262D01*
X4970Y175329D01*
X4961Y175398D01*
X4955Y175466D01*
X4953Y175535D01*
X4953Y179353D02*
X4953Y181399D01*
X4953Y179353D02*
X4955Y179284D01*
X4961Y179216D01*
X4970Y179147D01*
X4984Y179080D01*
X5001Y179013D01*
X5022Y178947D01*
X5046Y178883D01*
X5075Y178820D01*
X5106Y178759D01*
X5141Y178700D01*
X5179Y178642D01*
X5221Y178587D01*
X5265Y178535D01*
X5313Y178485D01*
X5363Y178437D01*
X5415Y178393D01*
X5470Y178351D01*
X5528Y178313D01*
X5587Y178278D01*
X5648Y178247D01*
X5711Y178218D01*
X5775Y178194D01*
X5841Y178173D01*
X5908Y178156D01*
X5975Y178142D01*
X6044Y178133D01*
X6112Y178127D01*
X6181Y178125D01*
X8227Y178125D01*
X8306Y178127D01*
X8385Y178133D01*
X8464Y178142D01*
X8542Y178155D01*
X8619Y178173D01*
X8695Y178193D01*
X8770Y178218D01*
X8844Y178246D01*
X8917Y178277D01*
X8988Y178313D01*
X9057Y178351D01*
X9124Y178393D01*
X9189Y178438D01*
X9252Y178486D01*
X9313Y178537D01*
X9370Y178591D01*
X9426Y178647D01*
X9478Y178706D01*
X9528Y178768D01*
X9574Y178832D01*
X9618Y178898D01*
X9658Y178966D01*
X9694Y179036D01*
X9728Y179108D01*
X9758Y179182D01*
X9784Y179256D01*
X9807Y179332D01*
X9825Y179409D01*
X9841Y179486D01*
X9852Y179565D01*
X9860Y179643D01*
X9864Y179722D01*
X9864Y179802D01*
X9860Y179881D01*
X9852Y179959D01*
X9841Y180038D01*
X9825Y180115D01*
X9807Y180192D01*
X9784Y180268D01*
X9758Y180342D01*
X9728Y180416D01*
X9694Y180488D01*
X9658Y180558D01*
X9618Y180626D01*
X9574Y180692D01*
X9528Y180756D01*
X9478Y180818D01*
X9426Y180877D01*
X9370Y180933D01*
X9313Y180987D01*
X9252Y181038D01*
X9189Y181086D01*
X9124Y181131D01*
X9057Y181173D01*
X8988Y181211D01*
X8917Y181247D01*
X8844Y181278D01*
X8770Y181306D01*
X8695Y181331D01*
X8619Y181351D01*
X8542Y181369D01*
X8464Y181382D01*
X8385Y181391D01*
X8306Y181397D01*
X8227Y181399D01*
X7408Y181399D01*
X7408Y178125D01*
X2498Y184221D02*
X2498Y185040D01*
X9864Y187495D01*
X9864Y184221D02*
X4953Y185858D01*
X3725Y194149D02*
X13547Y194149D01*
X12319Y203171D02*
X4953Y200716D01*
X4953Y205626D02*
X12319Y203171D01*
X6795Y205012D02*
X6795Y201329D01*
X4953Y209589D02*
X4953Y211635D01*
X4953Y209589D02*
X4955Y209520D01*
X4961Y209452D01*
X4970Y209383D01*
X4984Y209316D01*
X5001Y209249D01*
X5022Y209183D01*
X5046Y209119D01*
X5075Y209056D01*
X5106Y208995D01*
X5141Y208936D01*
X5179Y208878D01*
X5221Y208823D01*
X5265Y208771D01*
X5313Y208721D01*
X5363Y208673D01*
X5415Y208629D01*
X5470Y208587D01*
X5528Y208549D01*
X5587Y208514D01*
X5648Y208483D01*
X5711Y208454D01*
X5775Y208430D01*
X5841Y208409D01*
X5908Y208392D01*
X5975Y208378D01*
X6044Y208369D01*
X6112Y208363D01*
X6181Y208361D01*
X8227Y208361D01*
X8306Y208363D01*
X8385Y208369D01*
X8464Y208378D01*
X8542Y208391D01*
X8619Y208409D01*
X8695Y208429D01*
X8770Y208454D01*
X8844Y208482D01*
X8917Y208513D01*
X8988Y208549D01*
X9057Y208587D01*
X9124Y208629D01*
X9189Y208674D01*
X9252Y208722D01*
X9313Y208773D01*
X9370Y208827D01*
X9426Y208883D01*
X9478Y208942D01*
X9528Y209004D01*
X9574Y209068D01*
X9618Y209134D01*
X9658Y209202D01*
X9694Y209272D01*
X9728Y209344D01*
X9758Y209418D01*
X9784Y209492D01*
X9807Y209568D01*
X9825Y209645D01*
X9841Y209722D01*
X9852Y209801D01*
X9860Y209879D01*
X9864Y209958D01*
X9864Y210038D01*
X9860Y210117D01*
X9852Y210195D01*
X9841Y210274D01*
X9825Y210351D01*
X9807Y210428D01*
X9784Y210504D01*
X9758Y210578D01*
X9728Y210652D01*
X9694Y210724D01*
X9658Y210794D01*
X9618Y210862D01*
X9574Y210928D01*
X9528Y210992D01*
X9478Y211054D01*
X9426Y211113D01*
X9370Y211169D01*
X9313Y211223D01*
X9252Y211274D01*
X9189Y211322D01*
X9124Y211367D01*
X9057Y211409D01*
X8988Y211447D01*
X8917Y211483D01*
X8844Y211514D01*
X8770Y211542D01*
X8695Y211567D01*
X8619Y211587D01*
X8542Y211605D01*
X8464Y211618D01*
X8385Y211627D01*
X8306Y211633D01*
X8227Y211635D01*
X7408Y211635D01*
X7408Y208361D01*
X4953Y214991D02*
X9864Y214991D01*
X9864Y217447D01*
X9045Y217447D01*
X8227Y219822D02*
X6590Y219822D01*
X8227Y219822D02*
X8306Y219824D01*
X8385Y219830D01*
X8464Y219839D01*
X8542Y219852D01*
X8619Y219870D01*
X8695Y219890D01*
X8770Y219915D01*
X8844Y219943D01*
X8917Y219974D01*
X8988Y220010D01*
X9057Y220048D01*
X9124Y220090D01*
X9189Y220135D01*
X9252Y220183D01*
X9313Y220234D01*
X9370Y220288D01*
X9426Y220344D01*
X9478Y220403D01*
X9528Y220465D01*
X9574Y220529D01*
X9618Y220595D01*
X9658Y220663D01*
X9694Y220733D01*
X9728Y220805D01*
X9758Y220879D01*
X9784Y220953D01*
X9807Y221029D01*
X9825Y221106D01*
X9841Y221183D01*
X9852Y221262D01*
X9860Y221340D01*
X9864Y221419D01*
X9864Y221499D01*
X9860Y221578D01*
X9852Y221656D01*
X9841Y221735D01*
X9825Y221812D01*
X9807Y221889D01*
X9784Y221965D01*
X9758Y222039D01*
X9728Y222113D01*
X9694Y222185D01*
X9658Y222255D01*
X9618Y222323D01*
X9574Y222389D01*
X9528Y222453D01*
X9478Y222515D01*
X9426Y222574D01*
X9370Y222630D01*
X9313Y222684D01*
X9252Y222735D01*
X9189Y222783D01*
X9124Y222828D01*
X9057Y222870D01*
X8988Y222908D01*
X8917Y222944D01*
X8844Y222975D01*
X8770Y223003D01*
X8695Y223028D01*
X8619Y223048D01*
X8542Y223066D01*
X8464Y223079D01*
X8385Y223088D01*
X8306Y223094D01*
X8227Y223096D01*
X6590Y223096D01*
X6511Y223094D01*
X6432Y223088D01*
X6353Y223079D01*
X6275Y223066D01*
X6198Y223048D01*
X6122Y223028D01*
X6047Y223003D01*
X5973Y222975D01*
X5900Y222944D01*
X5829Y222908D01*
X5760Y222870D01*
X5693Y222828D01*
X5628Y222783D01*
X5565Y222735D01*
X5504Y222684D01*
X5447Y222630D01*
X5391Y222574D01*
X5339Y222515D01*
X5289Y222453D01*
X5243Y222389D01*
X5199Y222323D01*
X5159Y222255D01*
X5123Y222185D01*
X5089Y222113D01*
X5059Y222039D01*
X5033Y221965D01*
X5010Y221889D01*
X4992Y221812D01*
X4976Y221735D01*
X4965Y221656D01*
X4957Y221578D01*
X4953Y221499D01*
X4953Y221419D01*
X4957Y221340D01*
X4965Y221262D01*
X4976Y221183D01*
X4992Y221106D01*
X5010Y221029D01*
X5033Y220953D01*
X5059Y220879D01*
X5089Y220805D01*
X5123Y220733D01*
X5159Y220663D01*
X5199Y220595D01*
X5243Y220529D01*
X5289Y220465D01*
X5339Y220403D01*
X5391Y220344D01*
X5447Y220288D01*
X5504Y220234D01*
X5565Y220183D01*
X5628Y220135D01*
X5693Y220090D01*
X5760Y220048D01*
X5829Y220010D01*
X5900Y219974D01*
X5973Y219943D01*
X6047Y219915D01*
X6122Y219890D01*
X6198Y219870D01*
X6275Y219852D01*
X6353Y219839D01*
X6432Y219830D01*
X6511Y219824D01*
X6590Y219822D01*
X4953Y226484D02*
X12319Y226484D01*
X4953Y230576D01*
X12319Y230576D01*
X12319Y234287D02*
X6999Y234287D01*
X6910Y234289D01*
X6821Y234295D01*
X6732Y234305D01*
X6644Y234318D01*
X6556Y234335D01*
X6469Y234357D01*
X6384Y234382D01*
X6299Y234410D01*
X6216Y234443D01*
X6134Y234479D01*
X6054Y234518D01*
X5976Y234561D01*
X5900Y234607D01*
X5825Y234657D01*
X5753Y234710D01*
X5684Y234766D01*
X5617Y234825D01*
X5552Y234886D01*
X5491Y234951D01*
X5432Y235018D01*
X5376Y235087D01*
X5323Y235159D01*
X5273Y235234D01*
X5227Y235310D01*
X5184Y235388D01*
X5145Y235468D01*
X5109Y235550D01*
X5076Y235633D01*
X5048Y235718D01*
X5023Y235803D01*
X5001Y235890D01*
X4984Y235978D01*
X4971Y236066D01*
X4961Y236155D01*
X4955Y236244D01*
X4953Y236333D01*
X4955Y236422D01*
X4961Y236511D01*
X4971Y236600D01*
X4984Y236688D01*
X5001Y236776D01*
X5023Y236863D01*
X5048Y236948D01*
X5076Y237033D01*
X5109Y237116D01*
X5145Y237198D01*
X5184Y237278D01*
X5227Y237356D01*
X5273Y237432D01*
X5323Y237507D01*
X5376Y237579D01*
X5432Y237648D01*
X5491Y237715D01*
X5552Y237780D01*
X5617Y237841D01*
X5684Y237900D01*
X5753Y237956D01*
X5825Y238009D01*
X5900Y238059D01*
X5976Y238105D01*
X6054Y238148D01*
X6134Y238187D01*
X6216Y238223D01*
X6299Y238256D01*
X6384Y238284D01*
X6469Y238309D01*
X6556Y238331D01*
X6644Y238348D01*
X6732Y238361D01*
X6821Y238371D01*
X6910Y238377D01*
X6999Y238379D01*
X12319Y238379D01*
D10*
X296700Y192020D02*
X312900Y192020D01*
X296700Y192020D02*
X296700Y163580D01*
X312900Y163580D01*
X312900Y192020D01*
X312900Y183020D02*
X312900Y172580D01*
X296700Y172580D02*
X296700Y173520D01*
X296700Y182080D02*
X296700Y183020D01*
X296700Y164520D02*
X296700Y163580D01*
X296700Y191080D02*
X296700Y192020D01*
X312900Y192020D02*
X312900Y191080D01*
X312900Y164520D02*
X312900Y163580D01*
D13*
X293050Y168300D03*
X293050Y177800D03*
X293050Y187300D03*
X316550Y187300D03*
X316550Y168300D03*
D12*
X295071Y194183D02*
X293434Y194183D01*
X295071Y194183D02*
X295149Y194185D01*
X295227Y194190D01*
X295304Y194200D01*
X295381Y194213D01*
X295457Y194229D01*
X295532Y194249D01*
X295606Y194273D01*
X295679Y194300D01*
X295751Y194331D01*
X295821Y194365D01*
X295890Y194402D01*
X295956Y194443D01*
X296021Y194487D01*
X296083Y194533D01*
X296143Y194583D01*
X296201Y194635D01*
X296256Y194690D01*
X296308Y194748D01*
X296358Y194808D01*
X296404Y194870D01*
X296448Y194935D01*
X296489Y195002D01*
X296526Y195070D01*
X296560Y195140D01*
X296591Y195212D01*
X296618Y195285D01*
X296642Y195359D01*
X296662Y195434D01*
X296678Y195510D01*
X296691Y195587D01*
X296701Y195664D01*
X296706Y195742D01*
X296708Y195820D01*
X296708Y199912D01*
X296706Y199990D01*
X296701Y200068D01*
X296691Y200145D01*
X296678Y200222D01*
X296662Y200298D01*
X296642Y200373D01*
X296618Y200447D01*
X296591Y200520D01*
X296560Y200592D01*
X296526Y200662D01*
X296489Y200731D01*
X296448Y200797D01*
X296404Y200862D01*
X296358Y200924D01*
X296308Y200984D01*
X296256Y201042D01*
X296201Y201097D01*
X296143Y201149D01*
X296083Y201199D01*
X296021Y201245D01*
X295956Y201289D01*
X295890Y201330D01*
X295821Y201367D01*
X295751Y201401D01*
X295679Y201432D01*
X295606Y201459D01*
X295532Y201483D01*
X295457Y201503D01*
X295381Y201519D01*
X295304Y201532D01*
X295227Y201542D01*
X295149Y201547D01*
X295071Y201549D01*
X293434Y201549D01*
X290345Y201549D02*
X290345Y194183D01*
X290345Y198275D02*
X286253Y198275D01*
X286253Y201549D02*
X286253Y194183D01*
X279678Y198275D02*
X278450Y198275D01*
X278450Y194183D01*
X280905Y194183D01*
X280983Y194185D01*
X281061Y194190D01*
X281138Y194200D01*
X281215Y194213D01*
X281291Y194229D01*
X281366Y194249D01*
X281440Y194273D01*
X281513Y194300D01*
X281585Y194331D01*
X281655Y194365D01*
X281724Y194402D01*
X281790Y194443D01*
X281855Y194487D01*
X281917Y194533D01*
X281977Y194583D01*
X282035Y194635D01*
X282090Y194690D01*
X282142Y194748D01*
X282192Y194808D01*
X282238Y194870D01*
X282282Y194935D01*
X282323Y195002D01*
X282360Y195070D01*
X282394Y195140D01*
X282425Y195212D01*
X282452Y195285D01*
X282476Y195359D01*
X282496Y195434D01*
X282512Y195510D01*
X282525Y195587D01*
X282535Y195664D01*
X282540Y195742D01*
X282542Y195820D01*
X282542Y199912D01*
X282540Y199990D01*
X282535Y200068D01*
X282525Y200145D01*
X282512Y200222D01*
X282496Y200298D01*
X282476Y200373D01*
X282452Y200447D01*
X282425Y200520D01*
X282394Y200592D01*
X282360Y200662D01*
X282323Y200731D01*
X282282Y200797D01*
X282238Y200862D01*
X282192Y200924D01*
X282142Y200984D01*
X282090Y201042D01*
X282035Y201097D01*
X281977Y201149D01*
X281917Y201199D01*
X281855Y201245D01*
X281790Y201289D01*
X281724Y201330D01*
X281655Y201367D01*
X281585Y201401D01*
X281513Y201432D01*
X281440Y201459D01*
X281366Y201483D01*
X281291Y201503D01*
X281215Y201519D01*
X281138Y201532D01*
X281061Y201542D01*
X280983Y201547D01*
X280905Y201549D01*
X278450Y201549D01*
X274983Y199912D02*
X272937Y201549D01*
X272937Y194183D01*
X274983Y194183D02*
X270891Y194183D01*
D10*
X300700Y114300D02*
X308900Y114300D01*
X308900Y101600D02*
X300700Y101600D01*
D14*
X297486Y107965D03*
X312218Y107965D03*
D12*
X314579Y96647D02*
X314579Y89281D01*
X314579Y96647D02*
X312533Y96647D01*
X312444Y96645D01*
X312355Y96639D01*
X312266Y96629D01*
X312178Y96616D01*
X312090Y96599D01*
X312003Y96577D01*
X311918Y96552D01*
X311833Y96524D01*
X311750Y96491D01*
X311668Y96455D01*
X311588Y96416D01*
X311510Y96373D01*
X311434Y96327D01*
X311359Y96277D01*
X311287Y96224D01*
X311218Y96168D01*
X311151Y96109D01*
X311086Y96048D01*
X311025Y95983D01*
X310966Y95916D01*
X310910Y95847D01*
X310857Y95775D01*
X310807Y95700D01*
X310761Y95624D01*
X310718Y95546D01*
X310679Y95466D01*
X310643Y95384D01*
X310610Y95301D01*
X310582Y95216D01*
X310557Y95131D01*
X310535Y95044D01*
X310518Y94956D01*
X310505Y94868D01*
X310495Y94779D01*
X310489Y94690D01*
X310487Y94601D01*
X310489Y94512D01*
X310495Y94423D01*
X310505Y94334D01*
X310518Y94246D01*
X310535Y94158D01*
X310557Y94071D01*
X310582Y93986D01*
X310610Y93901D01*
X310643Y93818D01*
X310679Y93736D01*
X310718Y93656D01*
X310761Y93578D01*
X310807Y93502D01*
X310857Y93427D01*
X310910Y93355D01*
X310966Y93286D01*
X311025Y93219D01*
X311086Y93154D01*
X311151Y93093D01*
X311218Y93034D01*
X311287Y92978D01*
X311359Y92925D01*
X311434Y92875D01*
X311510Y92829D01*
X311588Y92786D01*
X311668Y92747D01*
X311750Y92711D01*
X311833Y92678D01*
X311918Y92650D01*
X312003Y92625D01*
X312090Y92603D01*
X312178Y92586D01*
X312266Y92573D01*
X312355Y92563D01*
X312444Y92557D01*
X312533Y92555D01*
X314579Y92555D01*
X312124Y92555D02*
X310487Y89281D01*
X307315Y89281D02*
X305269Y89281D01*
X305180Y89283D01*
X305091Y89289D01*
X305002Y89299D01*
X304914Y89312D01*
X304826Y89329D01*
X304739Y89351D01*
X304654Y89376D01*
X304569Y89404D01*
X304486Y89437D01*
X304404Y89473D01*
X304324Y89512D01*
X304246Y89555D01*
X304170Y89601D01*
X304095Y89651D01*
X304023Y89704D01*
X303954Y89760D01*
X303887Y89819D01*
X303822Y89880D01*
X303761Y89945D01*
X303702Y90012D01*
X303646Y90081D01*
X303593Y90153D01*
X303543Y90228D01*
X303497Y90304D01*
X303454Y90382D01*
X303415Y90462D01*
X303379Y90544D01*
X303346Y90627D01*
X303318Y90712D01*
X303293Y90797D01*
X303271Y90884D01*
X303254Y90972D01*
X303241Y91060D01*
X303231Y91149D01*
X303225Y91238D01*
X303223Y91327D01*
X303225Y91416D01*
X303231Y91505D01*
X303241Y91594D01*
X303254Y91682D01*
X303271Y91770D01*
X303293Y91857D01*
X303318Y91942D01*
X303346Y92027D01*
X303379Y92110D01*
X303415Y92192D01*
X303454Y92272D01*
X303497Y92350D01*
X303543Y92426D01*
X303593Y92501D01*
X303646Y92573D01*
X303702Y92642D01*
X303761Y92709D01*
X303822Y92774D01*
X303887Y92835D01*
X303954Y92894D01*
X304023Y92950D01*
X304095Y93003D01*
X304170Y93053D01*
X304246Y93099D01*
X304324Y93142D01*
X304404Y93181D01*
X304486Y93217D01*
X304569Y93250D01*
X304654Y93278D01*
X304739Y93303D01*
X304826Y93325D01*
X304914Y93342D01*
X305002Y93355D01*
X305091Y93365D01*
X305180Y93371D01*
X305269Y93373D01*
X304860Y96647D02*
X307315Y96647D01*
X304860Y96647D02*
X304781Y96645D01*
X304702Y96639D01*
X304623Y96630D01*
X304545Y96617D01*
X304468Y96599D01*
X304392Y96579D01*
X304317Y96554D01*
X304243Y96526D01*
X304170Y96495D01*
X304099Y96459D01*
X304030Y96421D01*
X303963Y96379D01*
X303898Y96334D01*
X303835Y96286D01*
X303774Y96235D01*
X303717Y96181D01*
X303661Y96125D01*
X303609Y96066D01*
X303559Y96004D01*
X303513Y95940D01*
X303469Y95874D01*
X303429Y95806D01*
X303393Y95736D01*
X303359Y95664D01*
X303329Y95590D01*
X303303Y95516D01*
X303280Y95440D01*
X303262Y95363D01*
X303246Y95286D01*
X303235Y95207D01*
X303227Y95129D01*
X303223Y95050D01*
X303223Y94970D01*
X303227Y94891D01*
X303235Y94813D01*
X303246Y94734D01*
X303262Y94657D01*
X303280Y94580D01*
X303303Y94504D01*
X303329Y94430D01*
X303359Y94356D01*
X303393Y94284D01*
X303429Y94214D01*
X303469Y94146D01*
X303513Y94080D01*
X303559Y94016D01*
X303609Y93954D01*
X303661Y93895D01*
X303717Y93839D01*
X303774Y93785D01*
X303835Y93734D01*
X303898Y93686D01*
X303963Y93641D01*
X304030Y93599D01*
X304099Y93561D01*
X304170Y93525D01*
X304243Y93494D01*
X304317Y93466D01*
X304392Y93441D01*
X304468Y93421D01*
X304545Y93403D01*
X304623Y93390D01*
X304702Y93381D01*
X304781Y93375D01*
X304860Y93373D01*
X306497Y93373D01*
D10*
X351500Y139700D02*
X359700Y139700D01*
X359700Y127000D02*
X351500Y127000D01*
D14*
X348286Y133365D03*
X363018Y133365D03*
D15*
X374904Y127254D02*
X382016Y127254D01*
X382016Y129230D01*
X382014Y129317D01*
X382008Y129405D01*
X381999Y129492D01*
X381985Y129578D01*
X381968Y129664D01*
X381947Y129748D01*
X381922Y129832D01*
X381893Y129915D01*
X381861Y129996D01*
X381826Y130076D01*
X381787Y130154D01*
X381744Y130231D01*
X381698Y130305D01*
X381649Y130377D01*
X381597Y130447D01*
X381541Y130515D01*
X381483Y130580D01*
X381422Y130643D01*
X381358Y130702D01*
X381291Y130759D01*
X381223Y130813D01*
X381151Y130864D01*
X381078Y130911D01*
X381003Y130956D01*
X380925Y130997D01*
X380846Y131034D01*
X380766Y131068D01*
X380684Y131098D01*
X380601Y131125D01*
X380516Y131148D01*
X380431Y131167D01*
X380345Y131182D01*
X380258Y131194D01*
X380171Y131202D01*
X380084Y131206D01*
X379996Y131206D01*
X379909Y131202D01*
X379822Y131194D01*
X379735Y131182D01*
X379649Y131167D01*
X379564Y131148D01*
X379479Y131125D01*
X379396Y131098D01*
X379314Y131068D01*
X379234Y131034D01*
X379155Y130997D01*
X379077Y130956D01*
X379002Y130911D01*
X378929Y130864D01*
X378857Y130813D01*
X378789Y130759D01*
X378722Y130702D01*
X378658Y130643D01*
X378597Y130580D01*
X378539Y130515D01*
X378483Y130447D01*
X378431Y130377D01*
X378382Y130305D01*
X378336Y130231D01*
X378293Y130154D01*
X378254Y130076D01*
X378219Y129996D01*
X378187Y129915D01*
X378158Y129832D01*
X378133Y129748D01*
X378112Y129664D01*
X378095Y129578D01*
X378081Y129492D01*
X378072Y129405D01*
X378066Y129317D01*
X378064Y129230D01*
X378065Y129230D02*
X378065Y127254D01*
X378065Y129625D02*
X374904Y131205D01*
X376484Y134071D02*
X382016Y135652D01*
X376484Y134071D02*
X376484Y138023D01*
X374904Y136837D02*
X378065Y136837D01*
D11*
X257810Y190750D02*
X250190Y190750D01*
X250190Y177550D02*
X257560Y177550D01*
D16*
X261172Y184162D03*
X246694Y184162D03*
D12*
X229122Y179451D02*
X227485Y179451D01*
X229122Y179451D02*
X229200Y179453D01*
X229278Y179458D01*
X229355Y179468D01*
X229432Y179481D01*
X229508Y179497D01*
X229583Y179517D01*
X229657Y179541D01*
X229730Y179568D01*
X229802Y179599D01*
X229872Y179633D01*
X229941Y179670D01*
X230007Y179711D01*
X230072Y179755D01*
X230134Y179801D01*
X230194Y179851D01*
X230252Y179903D01*
X230307Y179958D01*
X230359Y180016D01*
X230409Y180076D01*
X230455Y180138D01*
X230499Y180203D01*
X230540Y180270D01*
X230577Y180338D01*
X230611Y180408D01*
X230642Y180480D01*
X230669Y180553D01*
X230693Y180627D01*
X230713Y180702D01*
X230729Y180778D01*
X230742Y180855D01*
X230752Y180932D01*
X230757Y181010D01*
X230759Y181088D01*
X230759Y185180D01*
X230757Y185258D01*
X230752Y185336D01*
X230742Y185413D01*
X230729Y185490D01*
X230713Y185566D01*
X230693Y185641D01*
X230669Y185715D01*
X230642Y185788D01*
X230611Y185860D01*
X230577Y185930D01*
X230540Y185999D01*
X230499Y186065D01*
X230455Y186130D01*
X230409Y186192D01*
X230359Y186252D01*
X230307Y186310D01*
X230252Y186365D01*
X230194Y186417D01*
X230134Y186467D01*
X230072Y186513D01*
X230007Y186557D01*
X229941Y186598D01*
X229872Y186635D01*
X229802Y186669D01*
X229730Y186700D01*
X229657Y186727D01*
X229583Y186751D01*
X229508Y186771D01*
X229432Y186787D01*
X229355Y186800D01*
X229278Y186810D01*
X229200Y186815D01*
X229122Y186817D01*
X227485Y186817D01*
X223003Y186817D02*
X224640Y181088D01*
X220548Y181088D01*
X221775Y182725D02*
X221775Y179451D01*
D11*
X300990Y139950D02*
X308610Y139950D01*
X308360Y126750D02*
X300990Y126750D01*
D16*
X311972Y133362D03*
X297494Y133362D03*
D15*
X303195Y145034D02*
X304776Y145034D01*
X304854Y145036D01*
X304931Y145042D01*
X305008Y145051D01*
X305084Y145064D01*
X305160Y145081D01*
X305235Y145102D01*
X305308Y145126D01*
X305381Y145154D01*
X305452Y145186D01*
X305521Y145221D01*
X305588Y145259D01*
X305654Y145300D01*
X305717Y145345D01*
X305778Y145393D01*
X305837Y145443D01*
X305893Y145497D01*
X305947Y145553D01*
X305997Y145612D01*
X306045Y145673D01*
X306090Y145736D01*
X306131Y145802D01*
X306169Y145869D01*
X306204Y145938D01*
X306236Y146009D01*
X306264Y146082D01*
X306288Y146155D01*
X306309Y146230D01*
X306326Y146306D01*
X306339Y146382D01*
X306348Y146459D01*
X306354Y146536D01*
X306356Y146614D01*
X306356Y150566D01*
X306354Y150644D01*
X306348Y150721D01*
X306339Y150798D01*
X306326Y150874D01*
X306309Y150950D01*
X306288Y151025D01*
X306264Y151098D01*
X306236Y151171D01*
X306204Y151242D01*
X306169Y151311D01*
X306131Y151378D01*
X306090Y151444D01*
X306045Y151507D01*
X305997Y151568D01*
X305947Y151627D01*
X305893Y151683D01*
X305837Y151737D01*
X305778Y151787D01*
X305717Y151835D01*
X305654Y151880D01*
X305588Y151921D01*
X305521Y151959D01*
X305452Y151994D01*
X305381Y152026D01*
X305308Y152054D01*
X305235Y152078D01*
X305160Y152099D01*
X305084Y152116D01*
X305008Y152129D01*
X304931Y152138D01*
X304854Y152144D01*
X304776Y152146D01*
X303195Y152146D01*
X300623Y150566D02*
X298648Y152146D01*
X298648Y145034D01*
X300623Y145034D02*
X296672Y145034D01*
X289814Y150368D02*
X289816Y150450D01*
X289822Y150532D01*
X289831Y150614D01*
X289844Y150695D01*
X289861Y150775D01*
X289882Y150855D01*
X289906Y150933D01*
X289934Y151010D01*
X289965Y151086D01*
X290000Y151161D01*
X290039Y151233D01*
X290080Y151304D01*
X290125Y151373D01*
X290173Y151439D01*
X290224Y151504D01*
X290278Y151566D01*
X290335Y151625D01*
X290394Y151682D01*
X290456Y151736D01*
X290521Y151787D01*
X290587Y151835D01*
X290656Y151880D01*
X290727Y151921D01*
X290799Y151960D01*
X290874Y151995D01*
X290950Y152026D01*
X291027Y152054D01*
X291105Y152078D01*
X291185Y152099D01*
X291265Y152116D01*
X291346Y152129D01*
X291428Y152138D01*
X291510Y152144D01*
X291592Y152146D01*
X291685Y152144D01*
X291777Y152138D01*
X291869Y152129D01*
X291961Y152116D01*
X292052Y152099D01*
X292142Y152079D01*
X292232Y152055D01*
X292320Y152027D01*
X292408Y151995D01*
X292493Y151961D01*
X292578Y151922D01*
X292660Y151881D01*
X292741Y151836D01*
X292821Y151787D01*
X292898Y151736D01*
X292973Y151682D01*
X293045Y151624D01*
X293116Y151564D01*
X293183Y151500D01*
X293248Y151435D01*
X293311Y151366D01*
X293370Y151295D01*
X293427Y151222D01*
X293481Y151146D01*
X293531Y151069D01*
X293579Y150989D01*
X293623Y150907D01*
X293663Y150824D01*
X293701Y150739D01*
X293735Y150653D01*
X293765Y150566D01*
X290407Y148985D02*
X290346Y149046D01*
X290288Y149109D01*
X290233Y149175D01*
X290180Y149243D01*
X290131Y149314D01*
X290086Y149386D01*
X290043Y149461D01*
X290004Y149537D01*
X289968Y149616D01*
X289936Y149695D01*
X289908Y149776D01*
X289883Y149859D01*
X289862Y149942D01*
X289845Y150026D01*
X289831Y150111D01*
X289822Y150196D01*
X289816Y150282D01*
X289814Y150368D01*
X290407Y148985D02*
X293765Y145034D01*
X289814Y145034D01*
D10*
X184150Y224500D02*
X184150Y232700D01*
X171450Y232700D02*
X171450Y224500D01*
D17*
X177815Y235914D03*
X177815Y221182D03*
D12*
X175641Y250571D02*
X183007Y250571D01*
X183007Y252617D01*
X183005Y252706D01*
X182999Y252795D01*
X182989Y252884D01*
X182976Y252972D01*
X182959Y253060D01*
X182937Y253147D01*
X182912Y253232D01*
X182884Y253317D01*
X182851Y253400D01*
X182815Y253482D01*
X182776Y253562D01*
X182733Y253640D01*
X182687Y253716D01*
X182637Y253791D01*
X182584Y253863D01*
X182528Y253932D01*
X182469Y253999D01*
X182408Y254064D01*
X182343Y254125D01*
X182276Y254184D01*
X182207Y254240D01*
X182135Y254293D01*
X182060Y254343D01*
X181984Y254389D01*
X181906Y254432D01*
X181826Y254471D01*
X181744Y254507D01*
X181661Y254540D01*
X181576Y254568D01*
X181491Y254593D01*
X181404Y254615D01*
X181316Y254632D01*
X181228Y254645D01*
X181139Y254655D01*
X181050Y254661D01*
X180961Y254663D01*
X180872Y254661D01*
X180783Y254655D01*
X180694Y254645D01*
X180606Y254632D01*
X180518Y254615D01*
X180431Y254593D01*
X180346Y254568D01*
X180261Y254540D01*
X180178Y254507D01*
X180096Y254471D01*
X180016Y254432D01*
X179938Y254389D01*
X179862Y254343D01*
X179787Y254293D01*
X179715Y254240D01*
X179646Y254184D01*
X179579Y254125D01*
X179514Y254064D01*
X179453Y253999D01*
X179394Y253932D01*
X179338Y253863D01*
X179285Y253791D01*
X179235Y253716D01*
X179189Y253640D01*
X179146Y253562D01*
X179107Y253482D01*
X179071Y253400D01*
X179038Y253317D01*
X179010Y253232D01*
X178985Y253147D01*
X178963Y253060D01*
X178946Y252972D01*
X178933Y252884D01*
X178923Y252795D01*
X178917Y252706D01*
X178915Y252617D01*
X178915Y250571D01*
X178915Y253026D02*
X175641Y254663D01*
X181370Y257835D02*
X183007Y259881D01*
X175641Y259881D01*
X175641Y257835D02*
X175641Y261927D01*
X175641Y265150D02*
X175641Y267196D01*
X175643Y267285D01*
X175649Y267374D01*
X175659Y267463D01*
X175672Y267551D01*
X175689Y267639D01*
X175711Y267726D01*
X175736Y267811D01*
X175764Y267896D01*
X175797Y267979D01*
X175833Y268061D01*
X175872Y268141D01*
X175915Y268219D01*
X175961Y268295D01*
X176011Y268370D01*
X176064Y268442D01*
X176120Y268511D01*
X176179Y268578D01*
X176240Y268643D01*
X176305Y268704D01*
X176372Y268763D01*
X176441Y268819D01*
X176513Y268872D01*
X176588Y268922D01*
X176664Y268968D01*
X176742Y269011D01*
X176822Y269050D01*
X176904Y269086D01*
X176987Y269119D01*
X177072Y269147D01*
X177157Y269172D01*
X177244Y269194D01*
X177332Y269211D01*
X177420Y269224D01*
X177509Y269234D01*
X177598Y269240D01*
X177687Y269242D01*
X177776Y269240D01*
X177865Y269234D01*
X177954Y269224D01*
X178042Y269211D01*
X178130Y269194D01*
X178217Y269172D01*
X178302Y269147D01*
X178387Y269119D01*
X178470Y269086D01*
X178552Y269050D01*
X178632Y269011D01*
X178710Y268968D01*
X178786Y268922D01*
X178861Y268872D01*
X178933Y268819D01*
X179002Y268763D01*
X179069Y268704D01*
X179134Y268643D01*
X179195Y268578D01*
X179254Y268511D01*
X179310Y268442D01*
X179363Y268370D01*
X179413Y268295D01*
X179459Y268219D01*
X179502Y268141D01*
X179541Y268061D01*
X179577Y267979D01*
X179610Y267896D01*
X179638Y267811D01*
X179663Y267726D01*
X179685Y267639D01*
X179702Y267551D01*
X179715Y267463D01*
X179725Y267374D01*
X179731Y267285D01*
X179733Y267196D01*
X183007Y267606D02*
X183007Y265150D01*
X183007Y267606D02*
X183005Y267685D01*
X182999Y267764D01*
X182990Y267843D01*
X182977Y267921D01*
X182959Y267998D01*
X182939Y268074D01*
X182914Y268149D01*
X182886Y268223D01*
X182855Y268296D01*
X182819Y268367D01*
X182781Y268436D01*
X182739Y268503D01*
X182694Y268568D01*
X182646Y268631D01*
X182595Y268692D01*
X182541Y268749D01*
X182485Y268805D01*
X182426Y268857D01*
X182364Y268907D01*
X182300Y268953D01*
X182234Y268997D01*
X182166Y269037D01*
X182096Y269073D01*
X182024Y269107D01*
X181950Y269137D01*
X181876Y269163D01*
X181800Y269186D01*
X181723Y269204D01*
X181646Y269220D01*
X181567Y269231D01*
X181489Y269239D01*
X181410Y269243D01*
X181330Y269243D01*
X181251Y269239D01*
X181173Y269231D01*
X181094Y269220D01*
X181017Y269204D01*
X180940Y269186D01*
X180864Y269163D01*
X180790Y269137D01*
X180716Y269107D01*
X180644Y269073D01*
X180574Y269037D01*
X180506Y268997D01*
X180440Y268953D01*
X180376Y268907D01*
X180314Y268857D01*
X180255Y268805D01*
X180199Y268749D01*
X180145Y268692D01*
X180094Y268631D01*
X180046Y268568D01*
X180001Y268503D01*
X179959Y268436D01*
X179921Y268367D01*
X179885Y268296D01*
X179854Y268223D01*
X179826Y268149D01*
X179801Y268074D01*
X179781Y267998D01*
X179763Y267921D01*
X179750Y267843D01*
X179741Y267764D01*
X179735Y267685D01*
X179733Y267606D01*
X179733Y265969D01*
D11*
X351790Y114550D02*
X359410Y114550D01*
X359160Y101350D02*
X351790Y101350D01*
D16*
X362772Y107962D03*
X348294Y107962D03*
D12*
X361649Y89027D02*
X363285Y89027D01*
X363363Y89029D01*
X363441Y89034D01*
X363518Y89044D01*
X363595Y89057D01*
X363671Y89073D01*
X363746Y89093D01*
X363820Y89117D01*
X363893Y89144D01*
X363965Y89175D01*
X364035Y89209D01*
X364104Y89246D01*
X364170Y89287D01*
X364235Y89331D01*
X364297Y89377D01*
X364357Y89427D01*
X364415Y89479D01*
X364470Y89534D01*
X364522Y89592D01*
X364572Y89652D01*
X364618Y89714D01*
X364662Y89779D01*
X364703Y89846D01*
X364740Y89914D01*
X364774Y89984D01*
X364805Y90056D01*
X364832Y90129D01*
X364856Y90203D01*
X364876Y90278D01*
X364892Y90354D01*
X364905Y90431D01*
X364915Y90508D01*
X364920Y90586D01*
X364922Y90664D01*
X364922Y94756D01*
X364920Y94834D01*
X364915Y94912D01*
X364905Y94989D01*
X364892Y95066D01*
X364876Y95142D01*
X364856Y95217D01*
X364832Y95291D01*
X364805Y95364D01*
X364774Y95436D01*
X364740Y95506D01*
X364703Y95575D01*
X364662Y95641D01*
X364618Y95706D01*
X364572Y95768D01*
X364522Y95828D01*
X364470Y95886D01*
X364415Y95941D01*
X364357Y95993D01*
X364297Y96043D01*
X364235Y96089D01*
X364170Y96133D01*
X364104Y96174D01*
X364035Y96211D01*
X363965Y96245D01*
X363893Y96276D01*
X363820Y96303D01*
X363746Y96327D01*
X363671Y96347D01*
X363595Y96363D01*
X363518Y96376D01*
X363441Y96386D01*
X363363Y96391D01*
X363285Y96393D01*
X361649Y96393D01*
X358803Y94756D02*
X356757Y96393D01*
X356757Y89027D01*
X358803Y89027D02*
X354711Y89027D01*
D11*
X213360Y126750D02*
X205740Y126750D01*
X205990Y139950D02*
X213360Y139950D01*
D16*
X202379Y133339D03*
X216857Y133339D03*
D15*
X202668Y145034D02*
X201087Y145034D01*
X202668Y145034D02*
X202746Y145036D01*
X202823Y145042D01*
X202900Y145051D01*
X202976Y145064D01*
X203052Y145081D01*
X203127Y145102D01*
X203200Y145126D01*
X203273Y145154D01*
X203344Y145186D01*
X203413Y145221D01*
X203480Y145259D01*
X203546Y145300D01*
X203609Y145345D01*
X203670Y145393D01*
X203729Y145443D01*
X203785Y145497D01*
X203839Y145553D01*
X203889Y145612D01*
X203937Y145673D01*
X203982Y145736D01*
X204023Y145802D01*
X204061Y145869D01*
X204096Y145938D01*
X204128Y146009D01*
X204156Y146082D01*
X204180Y146155D01*
X204201Y146230D01*
X204218Y146306D01*
X204231Y146382D01*
X204240Y146459D01*
X204246Y146536D01*
X204248Y146614D01*
X204248Y150566D01*
X204246Y150644D01*
X204240Y150721D01*
X204231Y150798D01*
X204218Y150874D01*
X204201Y150950D01*
X204180Y151025D01*
X204156Y151098D01*
X204128Y151171D01*
X204096Y151242D01*
X204061Y151311D01*
X204023Y151378D01*
X203982Y151444D01*
X203937Y151507D01*
X203889Y151568D01*
X203839Y151627D01*
X203785Y151683D01*
X203729Y151737D01*
X203670Y151787D01*
X203609Y151835D01*
X203546Y151880D01*
X203480Y151921D01*
X203413Y151959D01*
X203344Y151994D01*
X203273Y152026D01*
X203200Y152054D01*
X203127Y152078D01*
X203052Y152099D01*
X202976Y152116D01*
X202900Y152129D01*
X202823Y152138D01*
X202746Y152144D01*
X202668Y152146D01*
X201087Y152146D01*
X198515Y152146D02*
X198515Y151356D01*
X198515Y152146D02*
X194564Y152146D01*
X196540Y145034D01*
D10*
X234950Y224500D02*
X234950Y232700D01*
X222250Y232700D02*
X222250Y224500D01*
D17*
X228615Y235914D03*
X228615Y221182D03*
D12*
X227711Y251841D02*
X235077Y251841D01*
X235077Y253887D01*
X235075Y253976D01*
X235069Y254065D01*
X235059Y254154D01*
X235046Y254242D01*
X235029Y254330D01*
X235007Y254417D01*
X234982Y254502D01*
X234954Y254587D01*
X234921Y254670D01*
X234885Y254752D01*
X234846Y254832D01*
X234803Y254910D01*
X234757Y254986D01*
X234707Y255061D01*
X234654Y255133D01*
X234598Y255202D01*
X234539Y255269D01*
X234478Y255334D01*
X234413Y255395D01*
X234346Y255454D01*
X234277Y255510D01*
X234205Y255563D01*
X234130Y255613D01*
X234054Y255659D01*
X233976Y255702D01*
X233896Y255741D01*
X233814Y255777D01*
X233731Y255810D01*
X233646Y255838D01*
X233561Y255863D01*
X233474Y255885D01*
X233386Y255902D01*
X233298Y255915D01*
X233209Y255925D01*
X233120Y255931D01*
X233031Y255933D01*
X232942Y255931D01*
X232853Y255925D01*
X232764Y255915D01*
X232676Y255902D01*
X232588Y255885D01*
X232501Y255863D01*
X232416Y255838D01*
X232331Y255810D01*
X232248Y255777D01*
X232166Y255741D01*
X232086Y255702D01*
X232008Y255659D01*
X231932Y255613D01*
X231857Y255563D01*
X231785Y255510D01*
X231716Y255454D01*
X231649Y255395D01*
X231584Y255334D01*
X231523Y255269D01*
X231464Y255202D01*
X231408Y255133D01*
X231355Y255061D01*
X231305Y254986D01*
X231259Y254910D01*
X231216Y254832D01*
X231177Y254752D01*
X231141Y254670D01*
X231108Y254587D01*
X231080Y254502D01*
X231055Y254417D01*
X231033Y254330D01*
X231016Y254242D01*
X231003Y254154D01*
X230993Y254065D01*
X230987Y253976D01*
X230985Y253887D01*
X230985Y251841D01*
X230985Y254296D02*
X227711Y255933D01*
X231803Y259105D02*
X231803Y261560D01*
X231801Y261638D01*
X231796Y261716D01*
X231786Y261793D01*
X231773Y261870D01*
X231757Y261946D01*
X231737Y262021D01*
X231713Y262095D01*
X231686Y262168D01*
X231655Y262240D01*
X231621Y262310D01*
X231584Y262379D01*
X231543Y262445D01*
X231499Y262510D01*
X231453Y262572D01*
X231403Y262632D01*
X231351Y262690D01*
X231296Y262745D01*
X231238Y262797D01*
X231178Y262847D01*
X231116Y262893D01*
X231051Y262937D01*
X230985Y262978D01*
X230916Y263015D01*
X230846Y263049D01*
X230774Y263080D01*
X230701Y263107D01*
X230627Y263131D01*
X230552Y263151D01*
X230476Y263167D01*
X230399Y263180D01*
X230322Y263190D01*
X230244Y263195D01*
X230166Y263197D01*
X229757Y263197D01*
X229668Y263195D01*
X229579Y263189D01*
X229490Y263179D01*
X229402Y263166D01*
X229314Y263149D01*
X229227Y263127D01*
X229142Y263102D01*
X229057Y263074D01*
X228974Y263041D01*
X228892Y263005D01*
X228812Y262966D01*
X228734Y262923D01*
X228658Y262877D01*
X228583Y262827D01*
X228511Y262774D01*
X228442Y262718D01*
X228375Y262659D01*
X228310Y262598D01*
X228249Y262533D01*
X228190Y262466D01*
X228134Y262397D01*
X228081Y262325D01*
X228031Y262250D01*
X227985Y262174D01*
X227942Y262096D01*
X227903Y262016D01*
X227867Y261934D01*
X227834Y261851D01*
X227806Y261766D01*
X227781Y261681D01*
X227759Y261594D01*
X227742Y261506D01*
X227729Y261418D01*
X227719Y261329D01*
X227713Y261240D01*
X227711Y261151D01*
X227713Y261062D01*
X227719Y260973D01*
X227729Y260884D01*
X227742Y260796D01*
X227759Y260708D01*
X227781Y260621D01*
X227806Y260536D01*
X227834Y260451D01*
X227867Y260368D01*
X227903Y260286D01*
X227942Y260206D01*
X227985Y260128D01*
X228031Y260052D01*
X228081Y259977D01*
X228134Y259905D01*
X228190Y259836D01*
X228249Y259769D01*
X228310Y259704D01*
X228375Y259643D01*
X228442Y259584D01*
X228511Y259528D01*
X228583Y259475D01*
X228658Y259425D01*
X228734Y259379D01*
X228812Y259336D01*
X228892Y259297D01*
X228974Y259261D01*
X229057Y259228D01*
X229142Y259200D01*
X229227Y259175D01*
X229314Y259153D01*
X229402Y259136D01*
X229490Y259123D01*
X229579Y259113D01*
X229668Y259107D01*
X229757Y259105D01*
X231803Y259105D01*
X231917Y259107D01*
X232031Y259113D01*
X232145Y259123D01*
X232259Y259137D01*
X232372Y259155D01*
X232484Y259177D01*
X232595Y259202D01*
X232705Y259232D01*
X232815Y259265D01*
X232923Y259302D01*
X233029Y259343D01*
X233135Y259388D01*
X233238Y259436D01*
X233340Y259488D01*
X233440Y259544D01*
X233538Y259602D01*
X233634Y259665D01*
X233727Y259730D01*
X233819Y259799D01*
X233907Y259871D01*
X233994Y259946D01*
X234077Y260024D01*
X234158Y260105D01*
X234236Y260188D01*
X234311Y260275D01*
X234383Y260363D01*
X234452Y260455D01*
X234517Y260548D01*
X234579Y260644D01*
X234638Y260742D01*
X234694Y260842D01*
X234746Y260944D01*
X234794Y261047D01*
X234839Y261153D01*
X234880Y261259D01*
X234917Y261367D01*
X234950Y261477D01*
X234980Y261587D01*
X235005Y261698D01*
X235027Y261810D01*
X235045Y261923D01*
X235059Y262037D01*
X235069Y262151D01*
X235075Y262265D01*
X235077Y262379D01*
D10*
X44450Y181900D02*
X44450Y173700D01*
X57150Y173700D02*
X57150Y181900D01*
D17*
X50785Y170486D03*
X50785Y185218D03*
D15*
X47244Y143917D02*
X54356Y143917D01*
X54356Y145893D01*
X54354Y145980D01*
X54348Y146068D01*
X54339Y146155D01*
X54325Y146241D01*
X54308Y146327D01*
X54287Y146411D01*
X54262Y146495D01*
X54233Y146578D01*
X54201Y146659D01*
X54166Y146739D01*
X54127Y146817D01*
X54084Y146894D01*
X54038Y146968D01*
X53989Y147040D01*
X53937Y147110D01*
X53881Y147178D01*
X53823Y147243D01*
X53762Y147306D01*
X53698Y147365D01*
X53631Y147422D01*
X53563Y147476D01*
X53491Y147527D01*
X53418Y147574D01*
X53343Y147619D01*
X53265Y147660D01*
X53186Y147697D01*
X53106Y147731D01*
X53024Y147761D01*
X52941Y147788D01*
X52856Y147811D01*
X52771Y147830D01*
X52685Y147845D01*
X52598Y147857D01*
X52511Y147865D01*
X52424Y147869D01*
X52336Y147869D01*
X52249Y147865D01*
X52162Y147857D01*
X52075Y147845D01*
X51989Y147830D01*
X51904Y147811D01*
X51819Y147788D01*
X51736Y147761D01*
X51654Y147731D01*
X51574Y147697D01*
X51495Y147660D01*
X51417Y147619D01*
X51342Y147574D01*
X51269Y147527D01*
X51197Y147476D01*
X51129Y147422D01*
X51062Y147365D01*
X50998Y147306D01*
X50937Y147243D01*
X50879Y147178D01*
X50823Y147110D01*
X50771Y147040D01*
X50722Y146968D01*
X50676Y146894D01*
X50633Y146817D01*
X50594Y146739D01*
X50559Y146659D01*
X50527Y146578D01*
X50498Y146495D01*
X50473Y146411D01*
X50452Y146327D01*
X50435Y146241D01*
X50421Y146155D01*
X50412Y146068D01*
X50406Y145980D01*
X50404Y145893D01*
X50405Y145893D02*
X50405Y143917D01*
X50405Y146288D02*
X47244Y147869D01*
X49220Y150734D02*
X49307Y150736D01*
X49395Y150742D01*
X49482Y150751D01*
X49568Y150765D01*
X49654Y150782D01*
X49738Y150803D01*
X49822Y150828D01*
X49905Y150857D01*
X49986Y150889D01*
X50066Y150924D01*
X50144Y150963D01*
X50221Y151006D01*
X50295Y151052D01*
X50367Y151101D01*
X50437Y151153D01*
X50505Y151209D01*
X50570Y151267D01*
X50633Y151328D01*
X50692Y151392D01*
X50749Y151459D01*
X50803Y151527D01*
X50854Y151599D01*
X50901Y151672D01*
X50946Y151747D01*
X50987Y151825D01*
X51024Y151904D01*
X51058Y151984D01*
X51088Y152066D01*
X51115Y152149D01*
X51138Y152234D01*
X51157Y152319D01*
X51172Y152405D01*
X51184Y152492D01*
X51192Y152579D01*
X51196Y152666D01*
X51196Y152754D01*
X51192Y152841D01*
X51184Y152928D01*
X51172Y153015D01*
X51157Y153101D01*
X51138Y153186D01*
X51115Y153271D01*
X51088Y153354D01*
X51058Y153436D01*
X51024Y153516D01*
X50987Y153595D01*
X50946Y153673D01*
X50901Y153748D01*
X50854Y153821D01*
X50803Y153893D01*
X50749Y153961D01*
X50692Y154028D01*
X50633Y154092D01*
X50570Y154153D01*
X50505Y154211D01*
X50437Y154267D01*
X50367Y154319D01*
X50295Y154368D01*
X50221Y154414D01*
X50144Y154457D01*
X50066Y154496D01*
X49986Y154531D01*
X49905Y154563D01*
X49822Y154592D01*
X49738Y154617D01*
X49654Y154638D01*
X49568Y154655D01*
X49482Y154669D01*
X49395Y154678D01*
X49307Y154684D01*
X49220Y154686D01*
X49133Y154684D01*
X49045Y154678D01*
X48958Y154669D01*
X48872Y154655D01*
X48786Y154638D01*
X48702Y154617D01*
X48618Y154592D01*
X48535Y154563D01*
X48454Y154531D01*
X48374Y154496D01*
X48296Y154457D01*
X48219Y154414D01*
X48145Y154368D01*
X48073Y154319D01*
X48003Y154267D01*
X47935Y154211D01*
X47870Y154153D01*
X47807Y154092D01*
X47748Y154028D01*
X47691Y153961D01*
X47637Y153893D01*
X47586Y153821D01*
X47539Y153748D01*
X47494Y153673D01*
X47453Y153595D01*
X47416Y153516D01*
X47382Y153436D01*
X47352Y153354D01*
X47325Y153271D01*
X47302Y153186D01*
X47283Y153101D01*
X47268Y153015D01*
X47256Y152928D01*
X47248Y152841D01*
X47244Y152754D01*
X47244Y152666D01*
X47248Y152579D01*
X47256Y152492D01*
X47268Y152405D01*
X47283Y152319D01*
X47302Y152234D01*
X47325Y152149D01*
X47352Y152066D01*
X47382Y151984D01*
X47416Y151904D01*
X47453Y151825D01*
X47494Y151747D01*
X47539Y151672D01*
X47586Y151599D01*
X47637Y151527D01*
X47691Y151459D01*
X47748Y151392D01*
X47807Y151328D01*
X47870Y151267D01*
X47935Y151209D01*
X48003Y151153D01*
X48073Y151101D01*
X48145Y151052D01*
X48219Y151006D01*
X48296Y150963D01*
X48374Y150924D01*
X48454Y150889D01*
X48535Y150857D01*
X48618Y150828D01*
X48702Y150803D01*
X48786Y150782D01*
X48872Y150765D01*
X48958Y150751D01*
X49045Y150742D01*
X49133Y150736D01*
X49220Y150734D01*
X52776Y151130D02*
X52855Y151132D01*
X52933Y151138D01*
X53011Y151148D01*
X53089Y151161D01*
X53166Y151179D01*
X53242Y151200D01*
X53316Y151225D01*
X53390Y151254D01*
X53462Y151286D01*
X53532Y151322D01*
X53600Y151362D01*
X53666Y151405D01*
X53730Y151451D01*
X53792Y151500D01*
X53851Y151552D01*
X53907Y151607D01*
X53961Y151665D01*
X54011Y151725D01*
X54059Y151788D01*
X54103Y151853D01*
X54144Y151920D01*
X54182Y151989D01*
X54216Y152060D01*
X54247Y152133D01*
X54274Y152207D01*
X54297Y152282D01*
X54316Y152358D01*
X54332Y152436D01*
X54344Y152514D01*
X54352Y152592D01*
X54356Y152671D01*
X54356Y152749D01*
X54352Y152828D01*
X54344Y152906D01*
X54332Y152984D01*
X54316Y153062D01*
X54297Y153138D01*
X54274Y153213D01*
X54247Y153287D01*
X54216Y153360D01*
X54182Y153431D01*
X54144Y153500D01*
X54103Y153567D01*
X54059Y153632D01*
X54011Y153695D01*
X53961Y153755D01*
X53907Y153813D01*
X53851Y153868D01*
X53792Y153920D01*
X53730Y153969D01*
X53666Y154015D01*
X53600Y154058D01*
X53532Y154098D01*
X53462Y154134D01*
X53390Y154166D01*
X53316Y154195D01*
X53242Y154220D01*
X53166Y154241D01*
X53089Y154259D01*
X53011Y154272D01*
X52933Y154282D01*
X52855Y154288D01*
X52776Y154290D01*
X52697Y154288D01*
X52619Y154282D01*
X52541Y154272D01*
X52463Y154259D01*
X52386Y154241D01*
X52310Y154220D01*
X52236Y154195D01*
X52162Y154166D01*
X52090Y154134D01*
X52020Y154098D01*
X51952Y154058D01*
X51886Y154015D01*
X51822Y153969D01*
X51760Y153920D01*
X51701Y153868D01*
X51645Y153813D01*
X51591Y153755D01*
X51541Y153695D01*
X51493Y153632D01*
X51449Y153567D01*
X51408Y153500D01*
X51370Y153431D01*
X51336Y153360D01*
X51305Y153287D01*
X51278Y153213D01*
X51255Y153138D01*
X51236Y153062D01*
X51220Y152984D01*
X51208Y152906D01*
X51200Y152828D01*
X51196Y152749D01*
X51196Y152671D01*
X51200Y152592D01*
X51208Y152514D01*
X51220Y152436D01*
X51236Y152358D01*
X51255Y152282D01*
X51278Y152207D01*
X51305Y152133D01*
X51336Y152060D01*
X51370Y151989D01*
X51408Y151920D01*
X51449Y151853D01*
X51493Y151788D01*
X51541Y151725D01*
X51591Y151665D01*
X51645Y151607D01*
X51701Y151552D01*
X51760Y151500D01*
X51822Y151451D01*
X51886Y151405D01*
X51952Y151362D01*
X52020Y151322D01*
X52090Y151286D01*
X52162Y151254D01*
X52236Y151225D01*
X52310Y151200D01*
X52386Y151179D01*
X52463Y151161D01*
X52541Y151148D01*
X52619Y151138D01*
X52697Y151132D01*
X52776Y151130D01*
D10*
X205450Y101600D02*
X213650Y101600D01*
X213650Y114300D02*
X205450Y114300D01*
D14*
X216864Y107935D03*
X202132Y107935D03*
D15*
X226161Y92456D02*
X226161Y85344D01*
X226161Y92456D02*
X224185Y92456D01*
X224098Y92454D01*
X224010Y92448D01*
X223923Y92439D01*
X223837Y92425D01*
X223751Y92408D01*
X223667Y92387D01*
X223583Y92362D01*
X223500Y92333D01*
X223419Y92301D01*
X223339Y92266D01*
X223261Y92227D01*
X223184Y92184D01*
X223110Y92138D01*
X223038Y92089D01*
X222968Y92037D01*
X222900Y91981D01*
X222835Y91923D01*
X222772Y91862D01*
X222713Y91798D01*
X222656Y91731D01*
X222602Y91663D01*
X222551Y91591D01*
X222504Y91518D01*
X222459Y91443D01*
X222418Y91365D01*
X222381Y91286D01*
X222347Y91206D01*
X222317Y91124D01*
X222290Y91041D01*
X222267Y90956D01*
X222248Y90871D01*
X222233Y90785D01*
X222221Y90698D01*
X222213Y90611D01*
X222209Y90524D01*
X222209Y90436D01*
X222213Y90349D01*
X222221Y90262D01*
X222233Y90175D01*
X222248Y90089D01*
X222267Y90004D01*
X222290Y89919D01*
X222317Y89836D01*
X222347Y89754D01*
X222381Y89674D01*
X222418Y89595D01*
X222459Y89517D01*
X222504Y89442D01*
X222551Y89369D01*
X222602Y89297D01*
X222656Y89229D01*
X222713Y89162D01*
X222772Y89098D01*
X222835Y89037D01*
X222900Y88979D01*
X222968Y88923D01*
X223038Y88871D01*
X223110Y88822D01*
X223184Y88776D01*
X223261Y88733D01*
X223339Y88694D01*
X223419Y88659D01*
X223500Y88627D01*
X223583Y88598D01*
X223667Y88573D01*
X223751Y88552D01*
X223837Y88535D01*
X223923Y88521D01*
X224010Y88512D01*
X224098Y88506D01*
X224185Y88504D01*
X224185Y88505D02*
X226161Y88505D01*
X223790Y88505D02*
X222209Y85344D01*
X219343Y90876D02*
X217368Y92456D01*
X217368Y85344D01*
X219343Y85344D02*
X215392Y85344D01*
X212485Y90876D02*
X210510Y92456D01*
X210510Y85344D01*
X212485Y85344D02*
X208534Y85344D01*
D10*
X249900Y101600D02*
X258100Y101600D01*
X258100Y114300D02*
X249900Y114300D01*
D14*
X261314Y107935D03*
X246582Y107935D03*
D12*
X264162Y94869D02*
X264162Y87503D01*
X264162Y94869D02*
X262116Y94869D01*
X262027Y94867D01*
X261938Y94861D01*
X261849Y94851D01*
X261761Y94838D01*
X261673Y94821D01*
X261586Y94799D01*
X261501Y94774D01*
X261416Y94746D01*
X261333Y94713D01*
X261251Y94677D01*
X261171Y94638D01*
X261093Y94595D01*
X261017Y94549D01*
X260942Y94499D01*
X260870Y94446D01*
X260801Y94390D01*
X260734Y94331D01*
X260669Y94270D01*
X260608Y94205D01*
X260549Y94138D01*
X260493Y94069D01*
X260440Y93997D01*
X260390Y93922D01*
X260344Y93846D01*
X260301Y93768D01*
X260262Y93688D01*
X260226Y93606D01*
X260193Y93523D01*
X260165Y93438D01*
X260140Y93353D01*
X260118Y93266D01*
X260101Y93178D01*
X260088Y93090D01*
X260078Y93001D01*
X260072Y92912D01*
X260070Y92823D01*
X260072Y92734D01*
X260078Y92645D01*
X260088Y92556D01*
X260101Y92468D01*
X260118Y92380D01*
X260140Y92293D01*
X260165Y92208D01*
X260193Y92123D01*
X260226Y92040D01*
X260262Y91958D01*
X260301Y91878D01*
X260344Y91800D01*
X260390Y91724D01*
X260440Y91649D01*
X260493Y91577D01*
X260549Y91508D01*
X260608Y91441D01*
X260669Y91376D01*
X260734Y91315D01*
X260801Y91256D01*
X260870Y91200D01*
X260942Y91147D01*
X261017Y91097D01*
X261093Y91051D01*
X261171Y91008D01*
X261251Y90969D01*
X261333Y90933D01*
X261416Y90900D01*
X261501Y90872D01*
X261586Y90847D01*
X261673Y90825D01*
X261761Y90808D01*
X261849Y90795D01*
X261938Y90785D01*
X262027Y90779D01*
X262116Y90777D01*
X264162Y90777D01*
X261707Y90777D02*
X260070Y87503D01*
X256898Y93232D02*
X254852Y94869D01*
X254852Y87503D01*
X256898Y87503D02*
X252806Y87503D01*
X245491Y93028D02*
X245493Y93113D01*
X245499Y93198D01*
X245509Y93282D01*
X245522Y93366D01*
X245540Y93450D01*
X245561Y93532D01*
X245586Y93613D01*
X245615Y93693D01*
X245648Y93772D01*
X245684Y93849D01*
X245724Y93924D01*
X245767Y93998D01*
X245813Y94069D01*
X245863Y94138D01*
X245916Y94205D01*
X245972Y94269D01*
X246031Y94330D01*
X246092Y94389D01*
X246156Y94445D01*
X246223Y94498D01*
X246292Y94548D01*
X246363Y94594D01*
X246437Y94637D01*
X246512Y94677D01*
X246589Y94713D01*
X246668Y94746D01*
X246748Y94775D01*
X246829Y94800D01*
X246911Y94821D01*
X246995Y94839D01*
X247079Y94852D01*
X247163Y94862D01*
X247248Y94868D01*
X247333Y94870D01*
X247333Y94869D02*
X247429Y94867D01*
X247525Y94861D01*
X247620Y94851D01*
X247715Y94838D01*
X247810Y94820D01*
X247903Y94799D01*
X247996Y94774D01*
X248087Y94745D01*
X248178Y94713D01*
X248267Y94677D01*
X248354Y94637D01*
X248440Y94594D01*
X248524Y94548D01*
X248606Y94498D01*
X248686Y94444D01*
X248763Y94388D01*
X248838Y94328D01*
X248911Y94266D01*
X248981Y94200D01*
X249049Y94132D01*
X249114Y94061D01*
X249175Y93988D01*
X249234Y93912D01*
X249290Y93833D01*
X249342Y93753D01*
X249391Y93670D01*
X249437Y93586D01*
X249479Y93500D01*
X249517Y93412D01*
X249552Y93323D01*
X249584Y93232D01*
X246105Y91596D02*
X246045Y91655D01*
X245988Y91717D01*
X245933Y91781D01*
X245882Y91848D01*
X245833Y91917D01*
X245787Y91987D01*
X245744Y92060D01*
X245704Y92134D01*
X245668Y92210D01*
X245635Y92288D01*
X245605Y92367D01*
X245578Y92447D01*
X245555Y92528D01*
X245536Y92610D01*
X245520Y92692D01*
X245507Y92776D01*
X245498Y92860D01*
X245493Y92944D01*
X245491Y93028D01*
X246105Y91595D02*
X249583Y87503D01*
X245491Y87503D01*
D10*
X249900Y127000D02*
X258100Y127000D01*
X258100Y139700D02*
X249900Y139700D01*
D14*
X261314Y133335D03*
X246582Y133335D03*
D12*
X274193Y124458D02*
X281559Y124458D01*
X281559Y126504D01*
X281557Y126593D01*
X281551Y126682D01*
X281541Y126771D01*
X281528Y126859D01*
X281511Y126947D01*
X281489Y127034D01*
X281464Y127119D01*
X281436Y127204D01*
X281403Y127287D01*
X281367Y127369D01*
X281328Y127449D01*
X281285Y127527D01*
X281239Y127603D01*
X281189Y127678D01*
X281136Y127750D01*
X281080Y127819D01*
X281021Y127886D01*
X280960Y127951D01*
X280895Y128012D01*
X280828Y128071D01*
X280759Y128127D01*
X280687Y128180D01*
X280612Y128230D01*
X280536Y128276D01*
X280458Y128319D01*
X280378Y128358D01*
X280296Y128394D01*
X280213Y128427D01*
X280128Y128455D01*
X280043Y128480D01*
X279956Y128502D01*
X279868Y128519D01*
X279780Y128532D01*
X279691Y128542D01*
X279602Y128548D01*
X279513Y128550D01*
X279424Y128548D01*
X279335Y128542D01*
X279246Y128532D01*
X279158Y128519D01*
X279070Y128502D01*
X278983Y128480D01*
X278898Y128455D01*
X278813Y128427D01*
X278730Y128394D01*
X278648Y128358D01*
X278568Y128319D01*
X278490Y128276D01*
X278414Y128230D01*
X278339Y128180D01*
X278267Y128127D01*
X278198Y128071D01*
X278131Y128012D01*
X278066Y127951D01*
X278005Y127886D01*
X277946Y127819D01*
X277890Y127750D01*
X277837Y127678D01*
X277787Y127603D01*
X277741Y127527D01*
X277698Y127449D01*
X277659Y127369D01*
X277623Y127287D01*
X277590Y127204D01*
X277562Y127119D01*
X277537Y127034D01*
X277515Y126947D01*
X277498Y126859D01*
X277485Y126771D01*
X277475Y126682D01*
X277469Y126593D01*
X277467Y126504D01*
X277467Y124458D01*
X277467Y126913D02*
X274193Y128550D01*
X279922Y131722D02*
X281559Y133768D01*
X274193Y133768D01*
X274193Y131722D02*
X274193Y135814D01*
X275830Y139037D02*
X281559Y140674D01*
X275830Y139037D02*
X275830Y143129D01*
X277467Y141901D02*
X274193Y141901D01*
D10*
X158750Y224500D02*
X158750Y232700D01*
X146050Y232700D02*
X146050Y224500D01*
D17*
X152415Y235914D03*
X152415Y221182D03*
D12*
X153797Y251841D02*
X146431Y251841D01*
X153797Y251841D02*
X153797Y253887D01*
X153795Y253976D01*
X153789Y254065D01*
X153779Y254154D01*
X153766Y254242D01*
X153749Y254330D01*
X153727Y254417D01*
X153702Y254502D01*
X153674Y254587D01*
X153641Y254670D01*
X153605Y254752D01*
X153566Y254832D01*
X153523Y254910D01*
X153477Y254986D01*
X153427Y255061D01*
X153374Y255133D01*
X153318Y255202D01*
X153259Y255269D01*
X153198Y255334D01*
X153133Y255395D01*
X153066Y255454D01*
X152997Y255510D01*
X152925Y255563D01*
X152850Y255613D01*
X152774Y255659D01*
X152696Y255702D01*
X152616Y255741D01*
X152534Y255777D01*
X152451Y255810D01*
X152366Y255838D01*
X152281Y255863D01*
X152194Y255885D01*
X152106Y255902D01*
X152018Y255915D01*
X151929Y255925D01*
X151840Y255931D01*
X151751Y255933D01*
X151662Y255931D01*
X151573Y255925D01*
X151484Y255915D01*
X151396Y255902D01*
X151308Y255885D01*
X151221Y255863D01*
X151136Y255838D01*
X151051Y255810D01*
X150968Y255777D01*
X150886Y255741D01*
X150806Y255702D01*
X150728Y255659D01*
X150652Y255613D01*
X150577Y255563D01*
X150505Y255510D01*
X150436Y255454D01*
X150369Y255395D01*
X150304Y255334D01*
X150243Y255269D01*
X150184Y255202D01*
X150128Y255133D01*
X150075Y255061D01*
X150025Y254986D01*
X149979Y254910D01*
X149936Y254832D01*
X149897Y254752D01*
X149861Y254670D01*
X149828Y254587D01*
X149800Y254502D01*
X149775Y254417D01*
X149753Y254330D01*
X149736Y254242D01*
X149723Y254154D01*
X149713Y254065D01*
X149707Y253976D01*
X149705Y253887D01*
X149705Y251841D01*
X149705Y254296D02*
X146431Y255933D01*
X152160Y259105D02*
X153797Y261151D01*
X146431Y261151D01*
X146431Y259105D02*
X146431Y263197D01*
D10*
X209550Y232700D02*
X209550Y224500D01*
X196850Y224500D02*
X196850Y232700D01*
D17*
X203215Y235914D03*
X203215Y221182D03*
D12*
X201041Y251841D02*
X208407Y251841D01*
X208407Y253887D01*
X208405Y253976D01*
X208399Y254065D01*
X208389Y254154D01*
X208376Y254242D01*
X208359Y254330D01*
X208337Y254417D01*
X208312Y254502D01*
X208284Y254587D01*
X208251Y254670D01*
X208215Y254752D01*
X208176Y254832D01*
X208133Y254910D01*
X208087Y254986D01*
X208037Y255061D01*
X207984Y255133D01*
X207928Y255202D01*
X207869Y255269D01*
X207808Y255334D01*
X207743Y255395D01*
X207676Y255454D01*
X207607Y255510D01*
X207535Y255563D01*
X207460Y255613D01*
X207384Y255659D01*
X207306Y255702D01*
X207226Y255741D01*
X207144Y255777D01*
X207061Y255810D01*
X206976Y255838D01*
X206891Y255863D01*
X206804Y255885D01*
X206716Y255902D01*
X206628Y255915D01*
X206539Y255925D01*
X206450Y255931D01*
X206361Y255933D01*
X206272Y255931D01*
X206183Y255925D01*
X206094Y255915D01*
X206006Y255902D01*
X205918Y255885D01*
X205831Y255863D01*
X205746Y255838D01*
X205661Y255810D01*
X205578Y255777D01*
X205496Y255741D01*
X205416Y255702D01*
X205338Y255659D01*
X205262Y255613D01*
X205187Y255563D01*
X205115Y255510D01*
X205046Y255454D01*
X204979Y255395D01*
X204914Y255334D01*
X204853Y255269D01*
X204794Y255202D01*
X204738Y255133D01*
X204685Y255061D01*
X204635Y254986D01*
X204589Y254910D01*
X204546Y254832D01*
X204507Y254752D01*
X204471Y254670D01*
X204438Y254587D01*
X204410Y254502D01*
X204385Y254417D01*
X204363Y254330D01*
X204346Y254242D01*
X204333Y254154D01*
X204323Y254065D01*
X204317Y253976D01*
X204315Y253887D01*
X204315Y251841D01*
X204315Y254296D02*
X201041Y255933D01*
X201041Y259105D02*
X201041Y261560D01*
X201043Y261640D01*
X201049Y261720D01*
X201059Y261800D01*
X201072Y261879D01*
X201090Y261958D01*
X201111Y262035D01*
X201137Y262111D01*
X201166Y262186D01*
X201198Y262260D01*
X201234Y262332D01*
X201274Y262402D01*
X201317Y262469D01*
X201363Y262535D01*
X201413Y262598D01*
X201465Y262659D01*
X201520Y262718D01*
X201579Y262773D01*
X201639Y262825D01*
X201703Y262875D01*
X201769Y262921D01*
X201836Y262964D01*
X201906Y263004D01*
X201978Y263040D01*
X202052Y263072D01*
X202126Y263101D01*
X202203Y263127D01*
X202280Y263148D01*
X202359Y263166D01*
X202438Y263179D01*
X202518Y263189D01*
X202598Y263195D01*
X202678Y263197D01*
X203496Y263197D01*
X203574Y263195D01*
X203652Y263190D01*
X203729Y263180D01*
X203806Y263167D01*
X203882Y263151D01*
X203957Y263131D01*
X204031Y263107D01*
X204104Y263080D01*
X204176Y263049D01*
X204246Y263015D01*
X204315Y262978D01*
X204381Y262937D01*
X204446Y262893D01*
X204508Y262847D01*
X204568Y262797D01*
X204626Y262745D01*
X204681Y262690D01*
X204733Y262632D01*
X204783Y262572D01*
X204829Y262510D01*
X204873Y262445D01*
X204914Y262379D01*
X204951Y262310D01*
X204985Y262240D01*
X205016Y262168D01*
X205043Y262095D01*
X205067Y262021D01*
X205087Y261946D01*
X205103Y261870D01*
X205116Y261793D01*
X205126Y261716D01*
X205131Y261638D01*
X205133Y261560D01*
X205133Y259105D01*
X208407Y259105D01*
X208407Y263197D01*
D11*
X120400Y232410D02*
X120400Y224790D01*
X133600Y224790D02*
X133600Y232160D01*
D18*
X126989Y235772D03*
X126989Y221294D03*
D12*
X121031Y256018D02*
X121031Y257655D01*
X121031Y256018D02*
X121033Y255940D01*
X121038Y255862D01*
X121048Y255785D01*
X121061Y255708D01*
X121077Y255632D01*
X121097Y255557D01*
X121121Y255483D01*
X121148Y255410D01*
X121179Y255338D01*
X121213Y255268D01*
X121250Y255200D01*
X121291Y255133D01*
X121335Y255068D01*
X121381Y255006D01*
X121431Y254946D01*
X121483Y254888D01*
X121538Y254833D01*
X121596Y254781D01*
X121656Y254731D01*
X121718Y254685D01*
X121783Y254641D01*
X121850Y254600D01*
X121918Y254563D01*
X121988Y254529D01*
X122060Y254498D01*
X122133Y254471D01*
X122207Y254447D01*
X122282Y254427D01*
X122358Y254411D01*
X122435Y254398D01*
X122512Y254388D01*
X122590Y254383D01*
X122668Y254381D01*
X126760Y254381D01*
X126838Y254383D01*
X126916Y254388D01*
X126993Y254398D01*
X127070Y254411D01*
X127146Y254427D01*
X127221Y254447D01*
X127295Y254471D01*
X127368Y254498D01*
X127440Y254529D01*
X127510Y254563D01*
X127579Y254600D01*
X127645Y254641D01*
X127710Y254685D01*
X127772Y254731D01*
X127832Y254781D01*
X127890Y254833D01*
X127945Y254888D01*
X127997Y254946D01*
X128047Y255006D01*
X128093Y255068D01*
X128137Y255133D01*
X128178Y255200D01*
X128215Y255268D01*
X128249Y255338D01*
X128280Y255410D01*
X128307Y255483D01*
X128331Y255557D01*
X128351Y255632D01*
X128367Y255708D01*
X128380Y255785D01*
X128390Y255862D01*
X128395Y255940D01*
X128397Y256018D01*
X128397Y257655D01*
X123077Y260500D02*
X123166Y260502D01*
X123255Y260508D01*
X123344Y260518D01*
X123432Y260531D01*
X123520Y260548D01*
X123607Y260570D01*
X123692Y260595D01*
X123777Y260623D01*
X123860Y260656D01*
X123942Y260692D01*
X124022Y260731D01*
X124100Y260774D01*
X124176Y260820D01*
X124251Y260870D01*
X124323Y260923D01*
X124392Y260979D01*
X124459Y261038D01*
X124524Y261099D01*
X124585Y261164D01*
X124644Y261231D01*
X124700Y261300D01*
X124753Y261372D01*
X124803Y261447D01*
X124849Y261523D01*
X124892Y261601D01*
X124931Y261681D01*
X124967Y261763D01*
X125000Y261846D01*
X125028Y261931D01*
X125053Y262016D01*
X125075Y262103D01*
X125092Y262191D01*
X125105Y262279D01*
X125115Y262368D01*
X125121Y262457D01*
X125123Y262546D01*
X125121Y262635D01*
X125115Y262724D01*
X125105Y262813D01*
X125092Y262901D01*
X125075Y262989D01*
X125053Y263076D01*
X125028Y263161D01*
X125000Y263246D01*
X124967Y263329D01*
X124931Y263411D01*
X124892Y263491D01*
X124849Y263569D01*
X124803Y263645D01*
X124753Y263720D01*
X124700Y263792D01*
X124644Y263861D01*
X124585Y263928D01*
X124524Y263993D01*
X124459Y264054D01*
X124392Y264113D01*
X124323Y264169D01*
X124251Y264222D01*
X124176Y264272D01*
X124100Y264318D01*
X124022Y264361D01*
X123942Y264400D01*
X123860Y264436D01*
X123777Y264469D01*
X123692Y264497D01*
X123607Y264522D01*
X123520Y264544D01*
X123432Y264561D01*
X123344Y264574D01*
X123255Y264584D01*
X123166Y264590D01*
X123077Y264592D01*
X122988Y264590D01*
X122899Y264584D01*
X122810Y264574D01*
X122722Y264561D01*
X122634Y264544D01*
X122547Y264522D01*
X122462Y264497D01*
X122377Y264469D01*
X122294Y264436D01*
X122212Y264400D01*
X122132Y264361D01*
X122054Y264318D01*
X121978Y264272D01*
X121903Y264222D01*
X121831Y264169D01*
X121762Y264113D01*
X121695Y264054D01*
X121630Y263993D01*
X121569Y263928D01*
X121510Y263861D01*
X121454Y263792D01*
X121401Y263720D01*
X121351Y263645D01*
X121305Y263569D01*
X121262Y263491D01*
X121223Y263411D01*
X121187Y263329D01*
X121154Y263246D01*
X121126Y263161D01*
X121101Y263076D01*
X121079Y262989D01*
X121062Y262901D01*
X121049Y262813D01*
X121039Y262724D01*
X121033Y262635D01*
X121031Y262546D01*
X121033Y262457D01*
X121039Y262368D01*
X121049Y262279D01*
X121062Y262191D01*
X121079Y262103D01*
X121101Y262016D01*
X121126Y261931D01*
X121154Y261846D01*
X121187Y261763D01*
X121223Y261681D01*
X121262Y261601D01*
X121305Y261523D01*
X121351Y261447D01*
X121401Y261372D01*
X121454Y261300D01*
X121510Y261231D01*
X121569Y261164D01*
X121630Y261099D01*
X121695Y261038D01*
X121762Y260979D01*
X121831Y260923D01*
X121903Y260870D01*
X121978Y260820D01*
X122054Y260774D01*
X122132Y260731D01*
X122212Y260692D01*
X122294Y260656D01*
X122377Y260623D01*
X122462Y260595D01*
X122547Y260570D01*
X122634Y260548D01*
X122722Y260531D01*
X122810Y260518D01*
X122899Y260508D01*
X122988Y260502D01*
X123077Y260500D01*
X126760Y260909D02*
X126839Y260911D01*
X126918Y260917D01*
X126997Y260926D01*
X127075Y260939D01*
X127152Y260957D01*
X127228Y260977D01*
X127303Y261002D01*
X127377Y261030D01*
X127450Y261061D01*
X127521Y261097D01*
X127590Y261135D01*
X127657Y261177D01*
X127722Y261222D01*
X127785Y261270D01*
X127846Y261321D01*
X127903Y261375D01*
X127959Y261431D01*
X128011Y261490D01*
X128061Y261552D01*
X128107Y261616D01*
X128151Y261682D01*
X128191Y261750D01*
X128227Y261820D01*
X128261Y261892D01*
X128291Y261966D01*
X128317Y262040D01*
X128340Y262116D01*
X128358Y262193D01*
X128374Y262270D01*
X128385Y262349D01*
X128393Y262427D01*
X128397Y262506D01*
X128397Y262586D01*
X128393Y262665D01*
X128385Y262743D01*
X128374Y262822D01*
X128358Y262899D01*
X128340Y262976D01*
X128317Y263052D01*
X128291Y263126D01*
X128261Y263200D01*
X128227Y263272D01*
X128191Y263342D01*
X128151Y263410D01*
X128107Y263476D01*
X128061Y263540D01*
X128011Y263602D01*
X127959Y263661D01*
X127903Y263717D01*
X127846Y263771D01*
X127785Y263822D01*
X127722Y263870D01*
X127657Y263915D01*
X127590Y263957D01*
X127521Y263995D01*
X127450Y264031D01*
X127377Y264062D01*
X127303Y264090D01*
X127228Y264115D01*
X127152Y264135D01*
X127075Y264153D01*
X126997Y264166D01*
X126918Y264175D01*
X126839Y264181D01*
X126760Y264183D01*
X126681Y264181D01*
X126602Y264175D01*
X126523Y264166D01*
X126445Y264153D01*
X126368Y264135D01*
X126292Y264115D01*
X126217Y264090D01*
X126143Y264062D01*
X126070Y264031D01*
X125999Y263995D01*
X125930Y263957D01*
X125863Y263915D01*
X125798Y263870D01*
X125735Y263822D01*
X125674Y263771D01*
X125617Y263717D01*
X125561Y263661D01*
X125509Y263602D01*
X125459Y263540D01*
X125413Y263476D01*
X125369Y263410D01*
X125329Y263342D01*
X125293Y263272D01*
X125259Y263200D01*
X125229Y263126D01*
X125203Y263052D01*
X125180Y262976D01*
X125162Y262899D01*
X125146Y262822D01*
X125135Y262743D01*
X125127Y262665D01*
X125123Y262586D01*
X125123Y262506D01*
X125127Y262427D01*
X125135Y262349D01*
X125146Y262270D01*
X125162Y262193D01*
X125180Y262116D01*
X125203Y262040D01*
X125229Y261966D01*
X125259Y261892D01*
X125293Y261820D01*
X125329Y261750D01*
X125369Y261682D01*
X125413Y261616D01*
X125459Y261552D01*
X125509Y261490D01*
X125561Y261431D01*
X125617Y261375D01*
X125674Y261321D01*
X125735Y261270D01*
X125798Y261222D01*
X125863Y261177D01*
X125930Y261135D01*
X125999Y261097D01*
X126070Y261061D01*
X126143Y261030D01*
X126217Y261002D01*
X126292Y260977D01*
X126368Y260957D01*
X126445Y260939D01*
X126523Y260926D01*
X126602Y260917D01*
X126681Y260911D01*
X126760Y260909D01*
D19*
X127000Y69850D02*
X177800Y69850D01*
X127000Y69850D02*
X114300Y69850D01*
X114300Y57150D01*
X114300Y19050D01*
X177800Y19050D01*
X177800Y69850D01*
D11*
X110222Y74902D02*
X110222Y78796D01*
X110222Y74902D02*
X107950Y71981D01*
X110222Y74902D02*
X112494Y71981D01*
X110222Y74902D02*
X106652Y76200D01*
X110222Y74902D02*
X113792Y76200D01*
D19*
X127000Y69850D02*
X127000Y57150D01*
X114300Y57150D01*
D12*
X158369Y51618D02*
X158369Y47442D01*
X158369Y51618D02*
X158367Y51719D01*
X158361Y51820D01*
X158351Y51921D01*
X158338Y52021D01*
X158320Y52121D01*
X158299Y52220D01*
X158273Y52318D01*
X158244Y52415D01*
X158212Y52511D01*
X158175Y52605D01*
X158135Y52698D01*
X158091Y52790D01*
X158044Y52879D01*
X157993Y52967D01*
X157939Y53053D01*
X157882Y53136D01*
X157822Y53218D01*
X157758Y53296D01*
X157692Y53373D01*
X157622Y53446D01*
X157550Y53517D01*
X157475Y53585D01*
X157397Y53650D01*
X157317Y53712D01*
X157235Y53771D01*
X157150Y53827D01*
X157064Y53879D01*
X156975Y53928D01*
X156884Y53974D01*
X156792Y54015D01*
X156698Y54054D01*
X156603Y54088D01*
X156507Y54119D01*
X156409Y54146D01*
X156311Y54170D01*
X156211Y54189D01*
X156111Y54205D01*
X156011Y54217D01*
X155910Y54225D01*
X155809Y54229D01*
X155707Y54229D01*
X155606Y54225D01*
X155505Y54217D01*
X155405Y54205D01*
X155305Y54189D01*
X155205Y54170D01*
X155107Y54146D01*
X155009Y54119D01*
X154913Y54088D01*
X154818Y54054D01*
X154724Y54015D01*
X154632Y53974D01*
X154541Y53928D01*
X154453Y53879D01*
X154366Y53827D01*
X154281Y53771D01*
X154199Y53712D01*
X154119Y53650D01*
X154041Y53585D01*
X153966Y53517D01*
X153894Y53446D01*
X153824Y53373D01*
X153758Y53296D01*
X153694Y53218D01*
X153634Y53136D01*
X153577Y53053D01*
X153523Y52967D01*
X153472Y52879D01*
X153425Y52790D01*
X153381Y52698D01*
X153341Y52605D01*
X153304Y52511D01*
X153272Y52415D01*
X153243Y52318D01*
X153217Y52220D01*
X153196Y52121D01*
X153178Y52021D01*
X153165Y51921D01*
X153155Y51820D01*
X153149Y51719D01*
X153147Y51618D01*
X153148Y51618D02*
X153148Y47442D01*
X153147Y47442D02*
X153149Y47341D01*
X153155Y47240D01*
X153165Y47139D01*
X153178Y47039D01*
X153196Y46939D01*
X153217Y46840D01*
X153243Y46742D01*
X153272Y46645D01*
X153304Y46549D01*
X153341Y46455D01*
X153381Y46362D01*
X153425Y46270D01*
X153472Y46181D01*
X153523Y46093D01*
X153577Y46007D01*
X153634Y45924D01*
X153694Y45842D01*
X153758Y45764D01*
X153824Y45687D01*
X153894Y45614D01*
X153966Y45543D01*
X154041Y45475D01*
X154119Y45410D01*
X154199Y45348D01*
X154281Y45289D01*
X154366Y45233D01*
X154453Y45181D01*
X154541Y45132D01*
X154632Y45086D01*
X154724Y45045D01*
X154818Y45006D01*
X154913Y44972D01*
X155009Y44941D01*
X155107Y44914D01*
X155205Y44890D01*
X155305Y44871D01*
X155405Y44855D01*
X155505Y44843D01*
X155606Y44835D01*
X155707Y44831D01*
X155809Y44831D01*
X155910Y44835D01*
X156011Y44843D01*
X156111Y44855D01*
X156211Y44871D01*
X156311Y44890D01*
X156409Y44914D01*
X156507Y44941D01*
X156603Y44972D01*
X156698Y45006D01*
X156792Y45045D01*
X156884Y45086D01*
X156975Y45132D01*
X157063Y45181D01*
X157150Y45233D01*
X157235Y45289D01*
X157317Y45348D01*
X157397Y45410D01*
X157475Y45475D01*
X157550Y45543D01*
X157622Y45614D01*
X157692Y45687D01*
X157758Y45764D01*
X157822Y45842D01*
X157882Y45924D01*
X157939Y46007D01*
X157993Y46093D01*
X158044Y46181D01*
X158091Y46270D01*
X158135Y46362D01*
X158175Y46455D01*
X158212Y46549D01*
X158244Y46645D01*
X158273Y46742D01*
X158299Y46840D01*
X158320Y46939D01*
X158338Y47039D01*
X158351Y47139D01*
X158361Y47240D01*
X158367Y47341D01*
X158369Y47442D01*
X154192Y46919D02*
X152104Y44831D01*
X149437Y52141D02*
X146827Y54229D01*
X146827Y44831D01*
X149437Y44831D02*
X144216Y44831D01*
D19*
X355600Y69850D02*
X406400Y69850D01*
X355600Y69850D02*
X342900Y69850D01*
X342900Y57150D01*
X342900Y19050D01*
X406400Y19050D01*
X406400Y69850D01*
D11*
X338822Y74902D02*
X338822Y78796D01*
X338822Y74902D02*
X336550Y71981D01*
X338822Y74902D02*
X341094Y71981D01*
X338822Y74902D02*
X335252Y76200D01*
X338822Y74902D02*
X342392Y76200D01*
D19*
X355600Y69850D02*
X355600Y57150D01*
X342900Y57150D01*
D12*
X380619Y51618D02*
X380619Y47442D01*
X380619Y51618D02*
X380617Y51719D01*
X380611Y51820D01*
X380601Y51921D01*
X380588Y52021D01*
X380570Y52121D01*
X380549Y52220D01*
X380523Y52318D01*
X380494Y52415D01*
X380462Y52511D01*
X380425Y52605D01*
X380385Y52698D01*
X380341Y52790D01*
X380294Y52879D01*
X380243Y52967D01*
X380189Y53053D01*
X380132Y53136D01*
X380072Y53218D01*
X380008Y53296D01*
X379942Y53373D01*
X379872Y53446D01*
X379800Y53517D01*
X379725Y53585D01*
X379647Y53650D01*
X379567Y53712D01*
X379485Y53771D01*
X379400Y53827D01*
X379314Y53879D01*
X379225Y53928D01*
X379134Y53974D01*
X379042Y54015D01*
X378948Y54054D01*
X378853Y54088D01*
X378757Y54119D01*
X378659Y54146D01*
X378561Y54170D01*
X378461Y54189D01*
X378361Y54205D01*
X378261Y54217D01*
X378160Y54225D01*
X378059Y54229D01*
X377957Y54229D01*
X377856Y54225D01*
X377755Y54217D01*
X377655Y54205D01*
X377555Y54189D01*
X377455Y54170D01*
X377357Y54146D01*
X377259Y54119D01*
X377163Y54088D01*
X377068Y54054D01*
X376974Y54015D01*
X376882Y53974D01*
X376791Y53928D01*
X376703Y53879D01*
X376616Y53827D01*
X376531Y53771D01*
X376449Y53712D01*
X376369Y53650D01*
X376291Y53585D01*
X376216Y53517D01*
X376144Y53446D01*
X376074Y53373D01*
X376008Y53296D01*
X375944Y53218D01*
X375884Y53136D01*
X375827Y53053D01*
X375773Y52967D01*
X375722Y52879D01*
X375675Y52790D01*
X375631Y52698D01*
X375591Y52605D01*
X375554Y52511D01*
X375522Y52415D01*
X375493Y52318D01*
X375467Y52220D01*
X375446Y52121D01*
X375428Y52021D01*
X375415Y51921D01*
X375405Y51820D01*
X375399Y51719D01*
X375397Y51618D01*
X375398Y51618D02*
X375398Y47442D01*
X375397Y47442D02*
X375399Y47341D01*
X375405Y47240D01*
X375415Y47139D01*
X375428Y47039D01*
X375446Y46939D01*
X375467Y46840D01*
X375493Y46742D01*
X375522Y46645D01*
X375554Y46549D01*
X375591Y46455D01*
X375631Y46362D01*
X375675Y46270D01*
X375722Y46181D01*
X375773Y46093D01*
X375827Y46007D01*
X375884Y45924D01*
X375944Y45842D01*
X376008Y45764D01*
X376074Y45687D01*
X376144Y45614D01*
X376216Y45543D01*
X376291Y45475D01*
X376369Y45410D01*
X376449Y45348D01*
X376531Y45289D01*
X376616Y45233D01*
X376703Y45181D01*
X376791Y45132D01*
X376882Y45086D01*
X376974Y45045D01*
X377068Y45006D01*
X377163Y44972D01*
X377259Y44941D01*
X377357Y44914D01*
X377455Y44890D01*
X377555Y44871D01*
X377655Y44855D01*
X377755Y44843D01*
X377856Y44835D01*
X377957Y44831D01*
X378059Y44831D01*
X378160Y44835D01*
X378261Y44843D01*
X378361Y44855D01*
X378461Y44871D01*
X378561Y44890D01*
X378659Y44914D01*
X378757Y44941D01*
X378853Y44972D01*
X378948Y45006D01*
X379042Y45045D01*
X379134Y45086D01*
X379225Y45132D01*
X379313Y45181D01*
X379400Y45233D01*
X379485Y45289D01*
X379567Y45348D01*
X379647Y45410D01*
X379725Y45475D01*
X379800Y45543D01*
X379872Y45614D01*
X379942Y45687D01*
X380008Y45764D01*
X380072Y45842D01*
X380132Y45924D01*
X380189Y46007D01*
X380243Y46093D01*
X380294Y46181D01*
X380341Y46270D01*
X380385Y46362D01*
X380425Y46455D01*
X380462Y46549D01*
X380494Y46645D01*
X380523Y46742D01*
X380549Y46840D01*
X380570Y46939D01*
X380588Y47039D01*
X380601Y47139D01*
X380611Y47240D01*
X380617Y47341D01*
X380619Y47442D01*
X376442Y46919D02*
X374354Y44831D01*
X366466Y51880D02*
X366468Y51975D01*
X366474Y52069D01*
X366483Y52163D01*
X366496Y52257D01*
X366513Y52350D01*
X366534Y52442D01*
X366559Y52534D01*
X366587Y52624D01*
X366619Y52713D01*
X366654Y52801D01*
X366693Y52887D01*
X366735Y52972D01*
X366781Y53055D01*
X366830Y53136D01*
X366882Y53215D01*
X366937Y53292D01*
X366996Y53366D01*
X367057Y53438D01*
X367121Y53508D01*
X367188Y53575D01*
X367258Y53639D01*
X367330Y53700D01*
X367404Y53759D01*
X367481Y53814D01*
X367560Y53866D01*
X367641Y53915D01*
X367724Y53961D01*
X367809Y54003D01*
X367895Y54042D01*
X367983Y54077D01*
X368072Y54109D01*
X368162Y54137D01*
X368254Y54162D01*
X368346Y54183D01*
X368439Y54200D01*
X368533Y54213D01*
X368627Y54222D01*
X368721Y54228D01*
X368816Y54230D01*
X368816Y54229D02*
X368924Y54227D01*
X369033Y54221D01*
X369141Y54211D01*
X369248Y54198D01*
X369355Y54180D01*
X369462Y54159D01*
X369567Y54134D01*
X369672Y54105D01*
X369775Y54073D01*
X369877Y54036D01*
X369978Y53996D01*
X370077Y53953D01*
X370175Y53906D01*
X370271Y53855D01*
X370365Y53801D01*
X370457Y53744D01*
X370547Y53683D01*
X370635Y53619D01*
X370720Y53553D01*
X370803Y53483D01*
X370883Y53410D01*
X370961Y53334D01*
X371036Y53256D01*
X371108Y53175D01*
X371177Y53091D01*
X371243Y53005D01*
X371306Y52917D01*
X371365Y52826D01*
X371422Y52734D01*
X371475Y52639D01*
X371524Y52542D01*
X371570Y52444D01*
X371613Y52345D01*
X371652Y52243D01*
X371687Y52141D01*
X367249Y50052D02*
X367180Y50121D01*
X367114Y50192D01*
X367050Y50265D01*
X366989Y50341D01*
X366931Y50420D01*
X366877Y50500D01*
X366825Y50583D01*
X366777Y50667D01*
X366731Y50753D01*
X366690Y50841D01*
X366651Y50931D01*
X366616Y51022D01*
X366585Y51114D01*
X366557Y51207D01*
X366533Y51301D01*
X366513Y51396D01*
X366496Y51492D01*
X366483Y51589D01*
X366474Y51686D01*
X366468Y51783D01*
X366466Y51880D01*
X367249Y50052D02*
X371687Y44831D01*
X366466Y44831D01*
D19*
X406400Y177800D02*
X406400Y228600D01*
X406400Y177800D02*
X406400Y165100D01*
X419100Y165100D01*
X457200Y165100D01*
X457200Y228600D01*
X406400Y228600D01*
D11*
X402646Y161022D02*
X398752Y161022D01*
X395831Y163294D01*
X398752Y161022D02*
X395831Y158750D01*
X398752Y161022D02*
X400050Y164592D01*
X398752Y161022D02*
X400050Y157452D01*
D19*
X406400Y177800D02*
X419100Y177800D01*
X419100Y165100D01*
D12*
X439984Y208732D02*
X439984Y212908D01*
X439982Y213009D01*
X439976Y213110D01*
X439966Y213211D01*
X439953Y213311D01*
X439935Y213411D01*
X439914Y213510D01*
X439888Y213608D01*
X439859Y213705D01*
X439827Y213801D01*
X439790Y213895D01*
X439750Y213988D01*
X439706Y214080D01*
X439659Y214169D01*
X439608Y214257D01*
X439554Y214343D01*
X439497Y214426D01*
X439437Y214508D01*
X439373Y214586D01*
X439307Y214663D01*
X439237Y214736D01*
X439165Y214807D01*
X439090Y214875D01*
X439012Y214940D01*
X438932Y215002D01*
X438850Y215061D01*
X438765Y215117D01*
X438679Y215169D01*
X438590Y215218D01*
X438499Y215264D01*
X438407Y215305D01*
X438313Y215344D01*
X438218Y215378D01*
X438122Y215409D01*
X438024Y215436D01*
X437926Y215460D01*
X437826Y215479D01*
X437726Y215495D01*
X437626Y215507D01*
X437525Y215515D01*
X437424Y215519D01*
X437322Y215519D01*
X437221Y215515D01*
X437120Y215507D01*
X437020Y215495D01*
X436920Y215479D01*
X436820Y215460D01*
X436722Y215436D01*
X436624Y215409D01*
X436528Y215378D01*
X436433Y215344D01*
X436339Y215305D01*
X436247Y215264D01*
X436156Y215218D01*
X436068Y215169D01*
X435981Y215117D01*
X435896Y215061D01*
X435814Y215002D01*
X435734Y214940D01*
X435656Y214875D01*
X435581Y214807D01*
X435509Y214736D01*
X435439Y214663D01*
X435373Y214586D01*
X435309Y214508D01*
X435249Y214426D01*
X435192Y214343D01*
X435138Y214257D01*
X435087Y214169D01*
X435040Y214080D01*
X434996Y213988D01*
X434956Y213895D01*
X434919Y213801D01*
X434887Y213705D01*
X434858Y213608D01*
X434832Y213510D01*
X434811Y213411D01*
X434793Y213311D01*
X434780Y213211D01*
X434770Y213110D01*
X434764Y213009D01*
X434762Y212908D01*
X434763Y212908D02*
X434763Y208732D01*
X434762Y208732D02*
X434764Y208631D01*
X434770Y208530D01*
X434780Y208429D01*
X434793Y208329D01*
X434811Y208229D01*
X434832Y208130D01*
X434858Y208032D01*
X434887Y207935D01*
X434919Y207839D01*
X434956Y207745D01*
X434996Y207652D01*
X435040Y207560D01*
X435087Y207471D01*
X435138Y207383D01*
X435192Y207297D01*
X435249Y207214D01*
X435309Y207132D01*
X435373Y207054D01*
X435439Y206977D01*
X435509Y206904D01*
X435581Y206833D01*
X435656Y206765D01*
X435734Y206700D01*
X435814Y206638D01*
X435896Y206579D01*
X435981Y206523D01*
X436068Y206471D01*
X436156Y206422D01*
X436247Y206376D01*
X436339Y206335D01*
X436433Y206296D01*
X436528Y206262D01*
X436624Y206231D01*
X436722Y206204D01*
X436820Y206180D01*
X436920Y206161D01*
X437020Y206145D01*
X437120Y206133D01*
X437221Y206125D01*
X437322Y206121D01*
X437424Y206121D01*
X437525Y206125D01*
X437626Y206133D01*
X437726Y206145D01*
X437826Y206161D01*
X437926Y206180D01*
X438024Y206204D01*
X438122Y206231D01*
X438218Y206262D01*
X438313Y206296D01*
X438407Y206335D01*
X438499Y206376D01*
X438590Y206422D01*
X438678Y206471D01*
X438765Y206523D01*
X438850Y206579D01*
X438932Y206638D01*
X439012Y206700D01*
X439090Y206765D01*
X439165Y206833D01*
X439237Y206904D01*
X439307Y206977D01*
X439373Y207054D01*
X439437Y207132D01*
X439497Y207214D01*
X439554Y207297D01*
X439608Y207383D01*
X439659Y207471D01*
X439706Y207560D01*
X439750Y207652D01*
X439790Y207745D01*
X439827Y207839D01*
X439859Y207935D01*
X439888Y208032D01*
X439914Y208130D01*
X439935Y208229D01*
X439953Y208329D01*
X439966Y208429D01*
X439976Y208530D01*
X439982Y208631D01*
X439984Y208732D01*
X435807Y208209D02*
X433719Y206121D01*
X431052Y208209D02*
X428964Y215519D01*
X431052Y208209D02*
X425831Y208209D01*
X427397Y210298D02*
X427397Y206121D01*
D19*
X364250Y218200D02*
X334250Y218200D01*
X334250Y188200D01*
X364250Y188200D01*
X364250Y218200D01*
X352250Y218200D01*
X364250Y218200D02*
X364250Y215200D01*
X338250Y218200D02*
X334250Y218200D01*
X334250Y215200D01*
X364250Y191200D02*
X364250Y188200D01*
X352250Y188200D01*
X338250Y188200D02*
X334250Y188200D01*
X334250Y191200D01*
D20*
X373250Y209200D02*
X373252Y209263D01*
X373258Y209325D01*
X373268Y209387D01*
X373281Y209449D01*
X373299Y209509D01*
X373320Y209568D01*
X373345Y209626D01*
X373374Y209682D01*
X373406Y209736D01*
X373441Y209788D01*
X373479Y209837D01*
X373521Y209885D01*
X373565Y209929D01*
X373613Y209971D01*
X373662Y210009D01*
X373714Y210044D01*
X373768Y210076D01*
X373824Y210105D01*
X373882Y210130D01*
X373941Y210151D01*
X374001Y210169D01*
X374063Y210182D01*
X374125Y210192D01*
X374187Y210198D01*
X374250Y210200D01*
X374313Y210198D01*
X374375Y210192D01*
X374437Y210182D01*
X374499Y210169D01*
X374559Y210151D01*
X374618Y210130D01*
X374676Y210105D01*
X374732Y210076D01*
X374786Y210044D01*
X374838Y210009D01*
X374887Y209971D01*
X374935Y209929D01*
X374979Y209885D01*
X375021Y209837D01*
X375059Y209788D01*
X375094Y209736D01*
X375126Y209682D01*
X375155Y209626D01*
X375180Y209568D01*
X375201Y209509D01*
X375219Y209449D01*
X375232Y209387D01*
X375242Y209325D01*
X375248Y209263D01*
X375250Y209200D01*
X375248Y209137D01*
X375242Y209075D01*
X375232Y209013D01*
X375219Y208951D01*
X375201Y208891D01*
X375180Y208832D01*
X375155Y208774D01*
X375126Y208718D01*
X375094Y208664D01*
X375059Y208612D01*
X375021Y208563D01*
X374979Y208515D01*
X374935Y208471D01*
X374887Y208429D01*
X374838Y208391D01*
X374786Y208356D01*
X374732Y208324D01*
X374676Y208295D01*
X374618Y208270D01*
X374559Y208249D01*
X374499Y208231D01*
X374437Y208218D01*
X374375Y208208D01*
X374313Y208202D01*
X374250Y208200D01*
X374187Y208202D01*
X374125Y208208D01*
X374063Y208218D01*
X374001Y208231D01*
X373941Y208249D01*
X373882Y208270D01*
X373824Y208295D01*
X373768Y208324D01*
X373714Y208356D01*
X373662Y208391D01*
X373613Y208429D01*
X373565Y208471D01*
X373521Y208515D01*
X373479Y208563D01*
X373441Y208612D01*
X373406Y208664D01*
X373374Y208718D01*
X373345Y208774D01*
X373320Y208832D01*
X373299Y208891D01*
X373281Y208951D01*
X373268Y209013D01*
X373258Y209075D01*
X373252Y209137D01*
X373250Y209200D01*
X373252Y209263D01*
X373258Y209325D01*
X373268Y209387D01*
X373281Y209449D01*
X373299Y209509D01*
X373320Y209568D01*
X373345Y209626D01*
X373374Y209682D01*
X373406Y209736D01*
X373441Y209788D01*
X373479Y209837D01*
X373521Y209885D01*
X373565Y209929D01*
X373613Y209971D01*
X373662Y210009D01*
X373714Y210044D01*
X373768Y210076D01*
X373824Y210105D01*
X373882Y210130D01*
X373941Y210151D01*
X374001Y210169D01*
X374063Y210182D01*
X374125Y210192D01*
X374187Y210198D01*
X374250Y210200D01*
X374313Y210198D01*
X374375Y210192D01*
X374437Y210182D01*
X374499Y210169D01*
X374559Y210151D01*
X374618Y210130D01*
X374676Y210105D01*
X374732Y210076D01*
X374786Y210044D01*
X374838Y210009D01*
X374887Y209971D01*
X374935Y209929D01*
X374979Y209885D01*
X375021Y209837D01*
X375059Y209788D01*
X375094Y209736D01*
X375126Y209682D01*
X375155Y209626D01*
X375180Y209568D01*
X375201Y209509D01*
X375219Y209449D01*
X375232Y209387D01*
X375242Y209325D01*
X375248Y209263D01*
X375250Y209200D01*
X375248Y209137D01*
X375242Y209075D01*
X375232Y209013D01*
X375219Y208951D01*
X375201Y208891D01*
X375180Y208832D01*
X375155Y208774D01*
X375126Y208718D01*
X375094Y208664D01*
X375059Y208612D01*
X375021Y208563D01*
X374979Y208515D01*
X374935Y208471D01*
X374887Y208429D01*
X374838Y208391D01*
X374786Y208356D01*
X374732Y208324D01*
X374676Y208295D01*
X374618Y208270D01*
X374559Y208249D01*
X374499Y208231D01*
X374437Y208218D01*
X374375Y208208D01*
X374313Y208202D01*
X374250Y208200D01*
X374187Y208202D01*
X374125Y208208D01*
X374063Y208218D01*
X374001Y208231D01*
X373941Y208249D01*
X373882Y208270D01*
X373824Y208295D01*
X373768Y208324D01*
X373714Y208356D01*
X373662Y208391D01*
X373613Y208429D01*
X373565Y208471D01*
X373521Y208515D01*
X373479Y208563D01*
X373441Y208612D01*
X373406Y208664D01*
X373374Y208718D01*
X373345Y208774D01*
X373320Y208832D01*
X373299Y208891D01*
X373281Y208951D01*
X373268Y209013D01*
X373258Y209075D01*
X373252Y209137D01*
X373250Y209200D01*
D11*
X378404Y184658D02*
X386842Y184658D01*
X378404Y184658D02*
X378291Y184660D01*
X378178Y184666D01*
X378065Y184676D01*
X377952Y184690D01*
X377840Y184707D01*
X377729Y184729D01*
X377619Y184754D01*
X377509Y184784D01*
X377401Y184817D01*
X377294Y184854D01*
X377188Y184894D01*
X377084Y184939D01*
X376981Y184987D01*
X376880Y185038D01*
X376781Y185093D01*
X376684Y185151D01*
X376589Y185213D01*
X376496Y185278D01*
X376406Y185346D01*
X376318Y185417D01*
X376232Y185492D01*
X376149Y185569D01*
X376069Y185649D01*
X375992Y185732D01*
X375917Y185818D01*
X375846Y185906D01*
X375778Y185996D01*
X375713Y186089D01*
X375651Y186184D01*
X375593Y186281D01*
X375538Y186380D01*
X375487Y186481D01*
X375439Y186584D01*
X375394Y186688D01*
X375354Y186794D01*
X375317Y186901D01*
X375284Y187009D01*
X375254Y187119D01*
X375229Y187229D01*
X375207Y187340D01*
X375190Y187452D01*
X375176Y187565D01*
X375166Y187678D01*
X375160Y187791D01*
X375158Y187904D01*
X375160Y188017D01*
X375166Y188130D01*
X375176Y188243D01*
X375190Y188356D01*
X375207Y188468D01*
X375229Y188579D01*
X375254Y188689D01*
X375284Y188799D01*
X375317Y188907D01*
X375354Y189014D01*
X375394Y189120D01*
X375439Y189224D01*
X375487Y189327D01*
X375538Y189428D01*
X375593Y189527D01*
X375651Y189624D01*
X375713Y189719D01*
X375778Y189812D01*
X375846Y189902D01*
X375917Y189990D01*
X375992Y190076D01*
X376069Y190159D01*
X376149Y190239D01*
X376232Y190316D01*
X376318Y190391D01*
X376406Y190462D01*
X376496Y190530D01*
X376589Y190595D01*
X376684Y190657D01*
X376781Y190715D01*
X376880Y190770D01*
X376981Y190821D01*
X377084Y190869D01*
X377188Y190914D01*
X377294Y190954D01*
X377401Y190991D01*
X377509Y191024D01*
X377619Y191054D01*
X377729Y191079D01*
X377840Y191101D01*
X377952Y191118D01*
X378065Y191132D01*
X378178Y191142D01*
X378291Y191148D01*
X378404Y191150D01*
X378404Y191149D02*
X386842Y191149D01*
X386842Y199065D02*
X377754Y196469D01*
X377754Y202960D01*
X380351Y201013D02*
X375158Y201013D01*
X359410Y165350D02*
X351790Y165350D01*
X351790Y152150D02*
X359160Y152150D01*
D16*
X362772Y158762D03*
X348294Y158762D03*
D12*
X370995Y170561D02*
X372632Y170561D01*
X372710Y170563D01*
X372788Y170568D01*
X372865Y170578D01*
X372942Y170591D01*
X373018Y170607D01*
X373093Y170627D01*
X373167Y170651D01*
X373240Y170678D01*
X373312Y170709D01*
X373382Y170743D01*
X373451Y170780D01*
X373517Y170821D01*
X373582Y170865D01*
X373644Y170911D01*
X373704Y170961D01*
X373762Y171013D01*
X373817Y171068D01*
X373869Y171126D01*
X373919Y171186D01*
X373965Y171248D01*
X374009Y171313D01*
X374050Y171380D01*
X374087Y171448D01*
X374121Y171518D01*
X374152Y171590D01*
X374179Y171663D01*
X374203Y171737D01*
X374223Y171812D01*
X374239Y171888D01*
X374252Y171965D01*
X374262Y172042D01*
X374267Y172120D01*
X374269Y172198D01*
X374269Y176290D01*
X374267Y176368D01*
X374262Y176446D01*
X374252Y176523D01*
X374239Y176600D01*
X374223Y176676D01*
X374203Y176751D01*
X374179Y176825D01*
X374152Y176898D01*
X374121Y176970D01*
X374087Y177040D01*
X374050Y177109D01*
X374009Y177175D01*
X373965Y177240D01*
X373919Y177302D01*
X373869Y177362D01*
X373817Y177420D01*
X373762Y177475D01*
X373704Y177527D01*
X373644Y177577D01*
X373582Y177623D01*
X373517Y177667D01*
X373451Y177708D01*
X373382Y177745D01*
X373312Y177779D01*
X373240Y177810D01*
X373167Y177837D01*
X373093Y177861D01*
X373018Y177881D01*
X372942Y177897D01*
X372865Y177910D01*
X372788Y177920D01*
X372710Y177925D01*
X372632Y177927D01*
X370995Y177927D01*
X366513Y173835D02*
X364058Y173835D01*
X366513Y173835D02*
X366591Y173837D01*
X366669Y173842D01*
X366746Y173852D01*
X366823Y173865D01*
X366899Y173881D01*
X366974Y173901D01*
X367048Y173925D01*
X367121Y173952D01*
X367193Y173983D01*
X367263Y174017D01*
X367332Y174054D01*
X367398Y174095D01*
X367463Y174139D01*
X367525Y174185D01*
X367585Y174235D01*
X367643Y174287D01*
X367698Y174342D01*
X367750Y174400D01*
X367800Y174460D01*
X367846Y174522D01*
X367890Y174587D01*
X367931Y174654D01*
X367968Y174722D01*
X368002Y174792D01*
X368033Y174864D01*
X368060Y174937D01*
X368084Y175011D01*
X368104Y175086D01*
X368120Y175162D01*
X368133Y175239D01*
X368143Y175316D01*
X368148Y175394D01*
X368150Y175472D01*
X368150Y175881D01*
X368148Y175970D01*
X368142Y176059D01*
X368132Y176148D01*
X368119Y176236D01*
X368102Y176324D01*
X368080Y176411D01*
X368055Y176496D01*
X368027Y176581D01*
X367994Y176664D01*
X367958Y176746D01*
X367919Y176826D01*
X367876Y176904D01*
X367830Y176980D01*
X367780Y177055D01*
X367727Y177127D01*
X367671Y177196D01*
X367612Y177263D01*
X367551Y177328D01*
X367486Y177389D01*
X367419Y177448D01*
X367350Y177504D01*
X367278Y177557D01*
X367203Y177607D01*
X367127Y177653D01*
X367049Y177696D01*
X366969Y177735D01*
X366887Y177771D01*
X366804Y177804D01*
X366719Y177832D01*
X366634Y177857D01*
X366547Y177879D01*
X366459Y177896D01*
X366371Y177909D01*
X366282Y177919D01*
X366193Y177925D01*
X366104Y177927D01*
X366015Y177925D01*
X365926Y177919D01*
X365837Y177909D01*
X365749Y177896D01*
X365661Y177879D01*
X365574Y177857D01*
X365489Y177832D01*
X365404Y177804D01*
X365321Y177771D01*
X365239Y177735D01*
X365159Y177696D01*
X365081Y177653D01*
X365005Y177607D01*
X364930Y177557D01*
X364858Y177504D01*
X364789Y177448D01*
X364722Y177389D01*
X364657Y177328D01*
X364596Y177263D01*
X364537Y177196D01*
X364481Y177127D01*
X364428Y177055D01*
X364378Y176980D01*
X364332Y176904D01*
X364289Y176826D01*
X364250Y176746D01*
X364214Y176664D01*
X364181Y176581D01*
X364153Y176496D01*
X364128Y176411D01*
X364106Y176324D01*
X364089Y176236D01*
X364076Y176148D01*
X364066Y176059D01*
X364060Y175970D01*
X364058Y175881D01*
X364058Y173835D01*
X364057Y173835D02*
X364059Y173723D01*
X364065Y173612D01*
X364074Y173500D01*
X364087Y173389D01*
X364105Y173279D01*
X364125Y173169D01*
X364150Y173060D01*
X364178Y172952D01*
X364210Y172845D01*
X364246Y172739D01*
X364285Y172634D01*
X364328Y172531D01*
X364374Y172429D01*
X364424Y172329D01*
X364477Y172230D01*
X364534Y172134D01*
X364593Y172039D01*
X364656Y171947D01*
X364722Y171857D01*
X364791Y171769D01*
X364863Y171683D01*
X364938Y171600D01*
X365016Y171520D01*
X365096Y171442D01*
X365179Y171367D01*
X365265Y171295D01*
X365353Y171226D01*
X365443Y171160D01*
X365535Y171097D01*
X365630Y171038D01*
X365726Y170981D01*
X365825Y170928D01*
X365925Y170878D01*
X366027Y170832D01*
X366130Y170789D01*
X366235Y170750D01*
X366341Y170714D01*
X366448Y170682D01*
X366556Y170654D01*
X366665Y170629D01*
X366775Y170609D01*
X366885Y170591D01*
X366996Y170578D01*
X367108Y170569D01*
X367219Y170563D01*
X367331Y170561D01*
D10*
X296200Y222250D02*
X288000Y222250D01*
X288000Y209550D02*
X296200Y209550D01*
D14*
X284786Y215915D03*
X299518Y215915D03*
D12*
X292989Y228981D02*
X292989Y236347D01*
X290943Y236347D01*
X290854Y236345D01*
X290765Y236339D01*
X290676Y236329D01*
X290588Y236316D01*
X290500Y236299D01*
X290413Y236277D01*
X290328Y236252D01*
X290243Y236224D01*
X290160Y236191D01*
X290078Y236155D01*
X289998Y236116D01*
X289920Y236073D01*
X289844Y236027D01*
X289769Y235977D01*
X289697Y235924D01*
X289628Y235868D01*
X289561Y235809D01*
X289496Y235748D01*
X289435Y235683D01*
X289376Y235616D01*
X289320Y235547D01*
X289267Y235475D01*
X289217Y235400D01*
X289171Y235324D01*
X289128Y235246D01*
X289089Y235166D01*
X289053Y235084D01*
X289020Y235001D01*
X288992Y234916D01*
X288967Y234831D01*
X288945Y234744D01*
X288928Y234656D01*
X288915Y234568D01*
X288905Y234479D01*
X288899Y234390D01*
X288897Y234301D01*
X288899Y234212D01*
X288905Y234123D01*
X288915Y234034D01*
X288928Y233946D01*
X288945Y233858D01*
X288967Y233771D01*
X288992Y233686D01*
X289020Y233601D01*
X289053Y233518D01*
X289089Y233436D01*
X289128Y233356D01*
X289171Y233278D01*
X289217Y233202D01*
X289267Y233127D01*
X289320Y233055D01*
X289376Y232986D01*
X289435Y232919D01*
X289496Y232854D01*
X289561Y232793D01*
X289628Y232734D01*
X289697Y232678D01*
X289769Y232625D01*
X289844Y232575D01*
X289920Y232529D01*
X289998Y232486D01*
X290078Y232447D01*
X290160Y232411D01*
X290243Y232378D01*
X290328Y232350D01*
X290413Y232325D01*
X290500Y232303D01*
X290588Y232286D01*
X290676Y232273D01*
X290765Y232263D01*
X290854Y232257D01*
X290943Y232255D01*
X292989Y232255D01*
X290534Y232255D02*
X288897Y228981D01*
X285725Y234710D02*
X283679Y236347D01*
X283679Y228981D01*
X285725Y228981D02*
X281633Y228981D01*
X278410Y235529D02*
X278410Y236347D01*
X274318Y236347D01*
X276364Y228981D01*
D10*
X95250Y181900D02*
X95250Y173700D01*
X107950Y173700D02*
X107950Y181900D01*
D17*
X101585Y170486D03*
X101585Y185218D03*
D12*
X105029Y135888D02*
X97663Y135888D01*
X105029Y135888D02*
X105029Y137934D01*
X105027Y138023D01*
X105021Y138112D01*
X105011Y138201D01*
X104998Y138289D01*
X104981Y138377D01*
X104959Y138464D01*
X104934Y138549D01*
X104906Y138634D01*
X104873Y138717D01*
X104837Y138799D01*
X104798Y138879D01*
X104755Y138957D01*
X104709Y139033D01*
X104659Y139108D01*
X104606Y139180D01*
X104550Y139249D01*
X104491Y139316D01*
X104430Y139381D01*
X104365Y139442D01*
X104298Y139501D01*
X104229Y139557D01*
X104157Y139610D01*
X104082Y139660D01*
X104006Y139706D01*
X103928Y139749D01*
X103848Y139788D01*
X103766Y139824D01*
X103683Y139857D01*
X103598Y139885D01*
X103513Y139910D01*
X103426Y139932D01*
X103338Y139949D01*
X103250Y139962D01*
X103161Y139972D01*
X103072Y139978D01*
X102983Y139980D01*
X102894Y139978D01*
X102805Y139972D01*
X102716Y139962D01*
X102628Y139949D01*
X102540Y139932D01*
X102453Y139910D01*
X102368Y139885D01*
X102283Y139857D01*
X102200Y139824D01*
X102118Y139788D01*
X102038Y139749D01*
X101960Y139706D01*
X101884Y139660D01*
X101809Y139610D01*
X101737Y139557D01*
X101668Y139501D01*
X101601Y139442D01*
X101536Y139381D01*
X101475Y139316D01*
X101416Y139249D01*
X101360Y139180D01*
X101307Y139108D01*
X101257Y139033D01*
X101211Y138957D01*
X101168Y138879D01*
X101129Y138799D01*
X101093Y138717D01*
X101060Y138634D01*
X101032Y138549D01*
X101007Y138464D01*
X100985Y138377D01*
X100968Y138289D01*
X100955Y138201D01*
X100945Y138112D01*
X100939Y138023D01*
X100937Y137934D01*
X100937Y135888D01*
X100937Y138343D02*
X97663Y139980D01*
X103392Y143152D02*
X105029Y145198D01*
X97663Y145198D01*
X97663Y143152D02*
X97663Y147244D01*
X99709Y150467D02*
X99798Y150469D01*
X99887Y150475D01*
X99976Y150485D01*
X100064Y150498D01*
X100152Y150515D01*
X100239Y150537D01*
X100324Y150562D01*
X100409Y150590D01*
X100492Y150623D01*
X100574Y150659D01*
X100654Y150698D01*
X100732Y150741D01*
X100808Y150787D01*
X100883Y150837D01*
X100955Y150890D01*
X101024Y150946D01*
X101091Y151005D01*
X101156Y151066D01*
X101217Y151131D01*
X101276Y151198D01*
X101332Y151267D01*
X101385Y151339D01*
X101435Y151414D01*
X101481Y151490D01*
X101524Y151568D01*
X101563Y151648D01*
X101599Y151730D01*
X101632Y151813D01*
X101660Y151898D01*
X101685Y151983D01*
X101707Y152070D01*
X101724Y152158D01*
X101737Y152246D01*
X101747Y152335D01*
X101753Y152424D01*
X101755Y152513D01*
X101753Y152602D01*
X101747Y152691D01*
X101737Y152780D01*
X101724Y152868D01*
X101707Y152956D01*
X101685Y153043D01*
X101660Y153128D01*
X101632Y153213D01*
X101599Y153296D01*
X101563Y153378D01*
X101524Y153458D01*
X101481Y153536D01*
X101435Y153612D01*
X101385Y153687D01*
X101332Y153759D01*
X101276Y153828D01*
X101217Y153895D01*
X101156Y153960D01*
X101091Y154021D01*
X101024Y154080D01*
X100955Y154136D01*
X100883Y154189D01*
X100808Y154239D01*
X100732Y154285D01*
X100654Y154328D01*
X100574Y154367D01*
X100492Y154403D01*
X100409Y154436D01*
X100324Y154464D01*
X100239Y154489D01*
X100152Y154511D01*
X100064Y154528D01*
X99976Y154541D01*
X99887Y154551D01*
X99798Y154557D01*
X99709Y154559D01*
X99620Y154557D01*
X99531Y154551D01*
X99442Y154541D01*
X99354Y154528D01*
X99266Y154511D01*
X99179Y154489D01*
X99094Y154464D01*
X99009Y154436D01*
X98926Y154403D01*
X98844Y154367D01*
X98764Y154328D01*
X98686Y154285D01*
X98610Y154239D01*
X98535Y154189D01*
X98463Y154136D01*
X98394Y154080D01*
X98327Y154021D01*
X98262Y153960D01*
X98201Y153895D01*
X98142Y153828D01*
X98086Y153759D01*
X98033Y153687D01*
X97983Y153612D01*
X97937Y153536D01*
X97894Y153458D01*
X97855Y153378D01*
X97819Y153296D01*
X97786Y153213D01*
X97758Y153128D01*
X97733Y153043D01*
X97711Y152956D01*
X97694Y152868D01*
X97681Y152780D01*
X97671Y152691D01*
X97665Y152602D01*
X97663Y152513D01*
X97665Y152424D01*
X97671Y152335D01*
X97681Y152246D01*
X97694Y152158D01*
X97711Y152070D01*
X97733Y151983D01*
X97758Y151898D01*
X97786Y151813D01*
X97819Y151730D01*
X97855Y151648D01*
X97894Y151568D01*
X97937Y151490D01*
X97983Y151414D01*
X98033Y151339D01*
X98086Y151267D01*
X98142Y151198D01*
X98201Y151131D01*
X98262Y151066D01*
X98327Y151005D01*
X98394Y150946D01*
X98463Y150890D01*
X98535Y150837D01*
X98610Y150787D01*
X98686Y150741D01*
X98764Y150698D01*
X98844Y150659D01*
X98926Y150623D01*
X99009Y150590D01*
X99094Y150562D01*
X99179Y150537D01*
X99266Y150515D01*
X99354Y150498D01*
X99442Y150485D01*
X99531Y150475D01*
X99620Y150469D01*
X99709Y150467D01*
X103392Y150876D02*
X103471Y150878D01*
X103550Y150884D01*
X103629Y150893D01*
X103707Y150906D01*
X103784Y150924D01*
X103860Y150944D01*
X103935Y150969D01*
X104009Y150997D01*
X104082Y151028D01*
X104153Y151064D01*
X104222Y151102D01*
X104289Y151144D01*
X104354Y151189D01*
X104417Y151237D01*
X104478Y151288D01*
X104535Y151342D01*
X104591Y151398D01*
X104643Y151457D01*
X104693Y151519D01*
X104739Y151583D01*
X104783Y151649D01*
X104823Y151717D01*
X104859Y151787D01*
X104893Y151859D01*
X104923Y151933D01*
X104949Y152007D01*
X104972Y152083D01*
X104990Y152160D01*
X105006Y152237D01*
X105017Y152316D01*
X105025Y152394D01*
X105029Y152473D01*
X105029Y152553D01*
X105025Y152632D01*
X105017Y152710D01*
X105006Y152789D01*
X104990Y152866D01*
X104972Y152943D01*
X104949Y153019D01*
X104923Y153093D01*
X104893Y153167D01*
X104859Y153239D01*
X104823Y153309D01*
X104783Y153377D01*
X104739Y153443D01*
X104693Y153507D01*
X104643Y153569D01*
X104591Y153628D01*
X104535Y153684D01*
X104478Y153738D01*
X104417Y153789D01*
X104354Y153837D01*
X104289Y153882D01*
X104222Y153924D01*
X104153Y153962D01*
X104082Y153998D01*
X104009Y154029D01*
X103935Y154057D01*
X103860Y154082D01*
X103784Y154102D01*
X103707Y154120D01*
X103629Y154133D01*
X103550Y154142D01*
X103471Y154148D01*
X103392Y154150D01*
X103313Y154148D01*
X103234Y154142D01*
X103155Y154133D01*
X103077Y154120D01*
X103000Y154102D01*
X102924Y154082D01*
X102849Y154057D01*
X102775Y154029D01*
X102702Y153998D01*
X102631Y153962D01*
X102562Y153924D01*
X102495Y153882D01*
X102430Y153837D01*
X102367Y153789D01*
X102306Y153738D01*
X102249Y153684D01*
X102193Y153628D01*
X102141Y153569D01*
X102091Y153507D01*
X102045Y153443D01*
X102001Y153377D01*
X101961Y153309D01*
X101925Y153239D01*
X101891Y153167D01*
X101861Y153093D01*
X101835Y153019D01*
X101812Y152943D01*
X101794Y152866D01*
X101778Y152789D01*
X101767Y152710D01*
X101759Y152632D01*
X101755Y152553D01*
X101755Y152473D01*
X101759Y152394D01*
X101767Y152316D01*
X101778Y152237D01*
X101794Y152160D01*
X101812Y152083D01*
X101835Y152007D01*
X101861Y151933D01*
X101891Y151859D01*
X101925Y151787D01*
X101961Y151717D01*
X102001Y151649D01*
X102045Y151583D01*
X102091Y151519D01*
X102141Y151457D01*
X102193Y151398D01*
X102249Y151342D01*
X102306Y151288D01*
X102367Y151237D01*
X102430Y151189D01*
X102495Y151144D01*
X102562Y151102D01*
X102631Y151064D01*
X102702Y151028D01*
X102775Y150997D01*
X102849Y150969D01*
X102924Y150944D01*
X103000Y150924D01*
X103077Y150906D01*
X103155Y150893D01*
X103234Y150884D01*
X103313Y150878D01*
X103392Y150876D01*
D10*
X69850Y173700D02*
X69850Y181900D01*
X82550Y181900D02*
X82550Y173700D01*
D17*
X76185Y170486D03*
X76185Y185218D03*
D12*
X79629Y134618D02*
X72263Y134618D01*
X79629Y134618D02*
X79629Y136664D01*
X79627Y136753D01*
X79621Y136842D01*
X79611Y136931D01*
X79598Y137019D01*
X79581Y137107D01*
X79559Y137194D01*
X79534Y137279D01*
X79506Y137364D01*
X79473Y137447D01*
X79437Y137529D01*
X79398Y137609D01*
X79355Y137687D01*
X79309Y137763D01*
X79259Y137838D01*
X79206Y137910D01*
X79150Y137979D01*
X79091Y138046D01*
X79030Y138111D01*
X78965Y138172D01*
X78898Y138231D01*
X78829Y138287D01*
X78757Y138340D01*
X78682Y138390D01*
X78606Y138436D01*
X78528Y138479D01*
X78448Y138518D01*
X78366Y138554D01*
X78283Y138587D01*
X78198Y138615D01*
X78113Y138640D01*
X78026Y138662D01*
X77938Y138679D01*
X77850Y138692D01*
X77761Y138702D01*
X77672Y138708D01*
X77583Y138710D01*
X77494Y138708D01*
X77405Y138702D01*
X77316Y138692D01*
X77228Y138679D01*
X77140Y138662D01*
X77053Y138640D01*
X76968Y138615D01*
X76883Y138587D01*
X76800Y138554D01*
X76718Y138518D01*
X76638Y138479D01*
X76560Y138436D01*
X76484Y138390D01*
X76409Y138340D01*
X76337Y138287D01*
X76268Y138231D01*
X76201Y138172D01*
X76136Y138111D01*
X76075Y138046D01*
X76016Y137979D01*
X75960Y137910D01*
X75907Y137838D01*
X75857Y137763D01*
X75811Y137687D01*
X75768Y137609D01*
X75729Y137529D01*
X75693Y137447D01*
X75660Y137364D01*
X75632Y137279D01*
X75607Y137194D01*
X75585Y137107D01*
X75568Y137019D01*
X75555Y136931D01*
X75545Y136842D01*
X75539Y136753D01*
X75537Y136664D01*
X75537Y134618D01*
X75537Y137073D02*
X72263Y138710D01*
X77992Y141882D02*
X79629Y143928D01*
X72263Y143928D01*
X72263Y141882D02*
X72263Y145974D01*
X75537Y150834D02*
X75537Y153289D01*
X75537Y150834D02*
X75539Y150756D01*
X75544Y150678D01*
X75554Y150601D01*
X75567Y150524D01*
X75583Y150448D01*
X75603Y150373D01*
X75627Y150299D01*
X75654Y150226D01*
X75685Y150154D01*
X75719Y150084D01*
X75756Y150015D01*
X75797Y149949D01*
X75841Y149884D01*
X75887Y149822D01*
X75937Y149762D01*
X75989Y149704D01*
X76044Y149649D01*
X76102Y149597D01*
X76162Y149547D01*
X76224Y149501D01*
X76289Y149457D01*
X76356Y149416D01*
X76424Y149379D01*
X76494Y149345D01*
X76566Y149314D01*
X76639Y149287D01*
X76713Y149263D01*
X76788Y149243D01*
X76864Y149227D01*
X76941Y149214D01*
X77018Y149204D01*
X77096Y149199D01*
X77174Y149197D01*
X77583Y149197D01*
X77672Y149199D01*
X77761Y149205D01*
X77850Y149215D01*
X77938Y149228D01*
X78026Y149245D01*
X78113Y149267D01*
X78198Y149292D01*
X78283Y149320D01*
X78366Y149353D01*
X78448Y149389D01*
X78528Y149428D01*
X78606Y149471D01*
X78682Y149517D01*
X78757Y149567D01*
X78829Y149620D01*
X78898Y149676D01*
X78965Y149735D01*
X79030Y149796D01*
X79091Y149861D01*
X79150Y149928D01*
X79206Y149997D01*
X79259Y150069D01*
X79309Y150144D01*
X79355Y150220D01*
X79398Y150298D01*
X79437Y150378D01*
X79473Y150460D01*
X79506Y150543D01*
X79534Y150628D01*
X79559Y150713D01*
X79581Y150800D01*
X79598Y150888D01*
X79611Y150976D01*
X79621Y151065D01*
X79627Y151154D01*
X79629Y151243D01*
X79627Y151332D01*
X79621Y151421D01*
X79611Y151510D01*
X79598Y151598D01*
X79581Y151686D01*
X79559Y151773D01*
X79534Y151858D01*
X79506Y151943D01*
X79473Y152026D01*
X79437Y152108D01*
X79398Y152188D01*
X79355Y152266D01*
X79309Y152342D01*
X79259Y152417D01*
X79206Y152489D01*
X79150Y152558D01*
X79091Y152625D01*
X79030Y152690D01*
X78965Y152751D01*
X78898Y152810D01*
X78829Y152866D01*
X78757Y152919D01*
X78682Y152969D01*
X78606Y153015D01*
X78528Y153058D01*
X78448Y153097D01*
X78366Y153133D01*
X78283Y153166D01*
X78198Y153194D01*
X78113Y153219D01*
X78026Y153241D01*
X77938Y153258D01*
X77850Y153271D01*
X77761Y153281D01*
X77672Y153287D01*
X77583Y153289D01*
X75537Y153289D01*
X75425Y153287D01*
X75314Y153281D01*
X75202Y153272D01*
X75091Y153259D01*
X74981Y153241D01*
X74871Y153221D01*
X74762Y153196D01*
X74654Y153168D01*
X74547Y153136D01*
X74441Y153100D01*
X74336Y153061D01*
X74233Y153018D01*
X74131Y152972D01*
X74031Y152922D01*
X73932Y152869D01*
X73836Y152812D01*
X73741Y152753D01*
X73649Y152690D01*
X73559Y152624D01*
X73471Y152555D01*
X73385Y152483D01*
X73302Y152408D01*
X73222Y152330D01*
X73144Y152250D01*
X73069Y152167D01*
X72997Y152081D01*
X72928Y151993D01*
X72862Y151903D01*
X72799Y151811D01*
X72740Y151716D01*
X72683Y151620D01*
X72630Y151521D01*
X72580Y151421D01*
X72534Y151319D01*
X72491Y151216D01*
X72452Y151111D01*
X72416Y151005D01*
X72384Y150898D01*
X72356Y150790D01*
X72331Y150681D01*
X72311Y150571D01*
X72293Y150461D01*
X72280Y150350D01*
X72271Y150238D01*
X72265Y150127D01*
X72263Y150015D01*
D10*
X120650Y173700D02*
X120650Y181900D01*
X133350Y181900D02*
X133350Y173700D01*
D17*
X126985Y170486D03*
X126985Y185218D03*
D12*
X124079Y130808D02*
X116713Y130808D01*
X124079Y130808D02*
X124079Y132854D01*
X124077Y132943D01*
X124071Y133032D01*
X124061Y133121D01*
X124048Y133209D01*
X124031Y133297D01*
X124009Y133384D01*
X123984Y133469D01*
X123956Y133554D01*
X123923Y133637D01*
X123887Y133719D01*
X123848Y133799D01*
X123805Y133877D01*
X123759Y133953D01*
X123709Y134028D01*
X123656Y134100D01*
X123600Y134169D01*
X123541Y134236D01*
X123480Y134301D01*
X123415Y134362D01*
X123348Y134421D01*
X123279Y134477D01*
X123207Y134530D01*
X123132Y134580D01*
X123056Y134626D01*
X122978Y134669D01*
X122898Y134708D01*
X122816Y134744D01*
X122733Y134777D01*
X122648Y134805D01*
X122563Y134830D01*
X122476Y134852D01*
X122388Y134869D01*
X122300Y134882D01*
X122211Y134892D01*
X122122Y134898D01*
X122033Y134900D01*
X121944Y134898D01*
X121855Y134892D01*
X121766Y134882D01*
X121678Y134869D01*
X121590Y134852D01*
X121503Y134830D01*
X121418Y134805D01*
X121333Y134777D01*
X121250Y134744D01*
X121168Y134708D01*
X121088Y134669D01*
X121010Y134626D01*
X120934Y134580D01*
X120859Y134530D01*
X120787Y134477D01*
X120718Y134421D01*
X120651Y134362D01*
X120586Y134301D01*
X120525Y134236D01*
X120466Y134169D01*
X120410Y134100D01*
X120357Y134028D01*
X120307Y133953D01*
X120261Y133877D01*
X120218Y133799D01*
X120179Y133719D01*
X120143Y133637D01*
X120110Y133554D01*
X120082Y133469D01*
X120057Y133384D01*
X120035Y133297D01*
X120018Y133209D01*
X120005Y133121D01*
X119995Y133032D01*
X119989Y132943D01*
X119987Y132854D01*
X119987Y130808D01*
X119987Y133263D02*
X116713Y134900D01*
X122238Y142164D02*
X122323Y142162D01*
X122408Y142156D01*
X122492Y142146D01*
X122576Y142133D01*
X122660Y142115D01*
X122742Y142094D01*
X122823Y142069D01*
X122903Y142040D01*
X122982Y142007D01*
X123059Y141971D01*
X123134Y141931D01*
X123208Y141888D01*
X123279Y141842D01*
X123348Y141792D01*
X123415Y141739D01*
X123479Y141683D01*
X123540Y141624D01*
X123599Y141563D01*
X123655Y141499D01*
X123708Y141432D01*
X123758Y141363D01*
X123804Y141292D01*
X123847Y141218D01*
X123887Y141143D01*
X123923Y141066D01*
X123956Y140987D01*
X123985Y140907D01*
X124010Y140826D01*
X124031Y140744D01*
X124049Y140660D01*
X124062Y140576D01*
X124072Y140492D01*
X124078Y140407D01*
X124080Y140322D01*
X124079Y140322D02*
X124077Y140226D01*
X124071Y140130D01*
X124061Y140035D01*
X124048Y139940D01*
X124030Y139845D01*
X124009Y139752D01*
X123984Y139659D01*
X123955Y139568D01*
X123923Y139477D01*
X123887Y139388D01*
X123847Y139301D01*
X123804Y139215D01*
X123758Y139131D01*
X123708Y139049D01*
X123654Y138969D01*
X123598Y138892D01*
X123538Y138817D01*
X123476Y138744D01*
X123410Y138674D01*
X123342Y138606D01*
X123271Y138541D01*
X123198Y138480D01*
X123122Y138421D01*
X123043Y138365D01*
X122963Y138313D01*
X122880Y138264D01*
X122796Y138218D01*
X122710Y138176D01*
X122622Y138138D01*
X122533Y138103D01*
X122442Y138071D01*
X120806Y141550D02*
X120865Y141610D01*
X120927Y141667D01*
X120991Y141722D01*
X121058Y141773D01*
X121127Y141822D01*
X121197Y141868D01*
X121270Y141911D01*
X121344Y141951D01*
X121420Y141987D01*
X121498Y142020D01*
X121577Y142050D01*
X121657Y142077D01*
X121738Y142100D01*
X121820Y142119D01*
X121902Y142135D01*
X121986Y142148D01*
X122070Y142157D01*
X122154Y142162D01*
X122238Y142164D01*
X120805Y141550D02*
X116713Y138072D01*
X116713Y142164D01*
X120396Y145387D02*
X120549Y145389D01*
X120702Y145395D01*
X120854Y145404D01*
X121007Y145418D01*
X121159Y145435D01*
X121310Y145456D01*
X121461Y145481D01*
X121611Y145510D01*
X121761Y145542D01*
X121909Y145579D01*
X122057Y145619D01*
X122204Y145662D01*
X122349Y145710D01*
X122493Y145761D01*
X122636Y145815D01*
X122778Y145874D01*
X122917Y145935D01*
X123056Y146001D01*
X123126Y146027D01*
X123196Y146057D01*
X123263Y146090D01*
X123329Y146126D01*
X123393Y146165D01*
X123455Y146208D01*
X123514Y146254D01*
X123572Y146302D01*
X123626Y146353D01*
X123679Y146407D01*
X123728Y146464D01*
X123775Y146523D01*
X123818Y146584D01*
X123859Y146647D01*
X123896Y146712D01*
X123931Y146779D01*
X123961Y146848D01*
X123989Y146918D01*
X124012Y146989D01*
X124033Y147061D01*
X124049Y147134D01*
X124062Y147208D01*
X124072Y147283D01*
X124077Y147358D01*
X124079Y147433D01*
X124077Y147508D01*
X124072Y147583D01*
X124062Y147658D01*
X124049Y147732D01*
X124033Y147805D01*
X124012Y147877D01*
X123989Y147948D01*
X123961Y148018D01*
X123931Y148087D01*
X123896Y148154D01*
X123859Y148219D01*
X123818Y148282D01*
X123775Y148343D01*
X123728Y148402D01*
X123679Y148459D01*
X123626Y148513D01*
X123572Y148564D01*
X123514Y148613D01*
X123455Y148658D01*
X123393Y148701D01*
X123329Y148740D01*
X123263Y148777D01*
X123195Y148809D01*
X123126Y148839D01*
X123056Y148865D01*
X122918Y148930D01*
X122778Y148992D01*
X122636Y149050D01*
X122493Y149105D01*
X122349Y149156D01*
X122204Y149204D01*
X122057Y149247D01*
X121910Y149287D01*
X121761Y149324D01*
X121611Y149356D01*
X121461Y149385D01*
X121310Y149410D01*
X121159Y149431D01*
X121007Y149448D01*
X120854Y149462D01*
X120702Y149471D01*
X120549Y149477D01*
X120396Y149479D01*
X120396Y145386D02*
X120243Y145388D01*
X120090Y145394D01*
X119937Y145403D01*
X119785Y145417D01*
X119633Y145434D01*
X119482Y145455D01*
X119331Y145480D01*
X119180Y145509D01*
X119031Y145541D01*
X118882Y145578D01*
X118735Y145618D01*
X118588Y145661D01*
X118443Y145709D01*
X118298Y145760D01*
X118156Y145815D01*
X118014Y145873D01*
X117874Y145935D01*
X117736Y146000D01*
X117736Y146001D02*
X117665Y146027D01*
X117596Y146057D01*
X117529Y146090D01*
X117463Y146126D01*
X117399Y146165D01*
X117337Y146208D01*
X117278Y146254D01*
X117220Y146302D01*
X117166Y146353D01*
X117113Y146407D01*
X117064Y146464D01*
X117017Y146523D01*
X116974Y146584D01*
X116933Y146647D01*
X116896Y146712D01*
X116861Y146779D01*
X116831Y146848D01*
X116803Y146918D01*
X116780Y146989D01*
X116759Y147061D01*
X116743Y147134D01*
X116730Y147208D01*
X116720Y147283D01*
X116715Y147358D01*
X116713Y147433D01*
X117736Y148865D02*
X117874Y148930D01*
X118014Y148992D01*
X118156Y149050D01*
X118299Y149105D01*
X118443Y149156D01*
X118588Y149204D01*
X118735Y149247D01*
X118883Y149287D01*
X119031Y149324D01*
X119181Y149356D01*
X119331Y149385D01*
X119482Y149410D01*
X119633Y149431D01*
X119785Y149448D01*
X119938Y149462D01*
X120090Y149471D01*
X120243Y149477D01*
X120396Y149479D01*
X117736Y148865D02*
X117666Y148839D01*
X117596Y148809D01*
X117529Y148777D01*
X117463Y148740D01*
X117399Y148701D01*
X117337Y148658D01*
X117278Y148612D01*
X117220Y148564D01*
X117166Y148513D01*
X117113Y148459D01*
X117064Y148402D01*
X117017Y148343D01*
X116974Y148282D01*
X116933Y148219D01*
X116896Y148154D01*
X116861Y148087D01*
X116831Y148018D01*
X116803Y147948D01*
X116780Y147877D01*
X116759Y147805D01*
X116743Y147732D01*
X116730Y147658D01*
X116720Y147583D01*
X116715Y147508D01*
X116713Y147433D01*
X118350Y145796D02*
X122442Y149070D01*
D10*
X146050Y173700D02*
X146050Y181900D01*
X158750Y181900D02*
X158750Y173700D01*
D17*
X152385Y170486D03*
X152385Y185218D03*
D12*
X140589Y135888D02*
X133223Y135888D01*
X140589Y135888D02*
X140589Y137934D01*
X140587Y138023D01*
X140581Y138112D01*
X140571Y138201D01*
X140558Y138289D01*
X140541Y138377D01*
X140519Y138464D01*
X140494Y138549D01*
X140466Y138634D01*
X140433Y138717D01*
X140397Y138799D01*
X140358Y138879D01*
X140315Y138957D01*
X140269Y139033D01*
X140219Y139108D01*
X140166Y139180D01*
X140110Y139249D01*
X140051Y139316D01*
X139990Y139381D01*
X139925Y139442D01*
X139858Y139501D01*
X139789Y139557D01*
X139717Y139610D01*
X139642Y139660D01*
X139566Y139706D01*
X139488Y139749D01*
X139408Y139788D01*
X139326Y139824D01*
X139243Y139857D01*
X139158Y139885D01*
X139073Y139910D01*
X138986Y139932D01*
X138898Y139949D01*
X138810Y139962D01*
X138721Y139972D01*
X138632Y139978D01*
X138543Y139980D01*
X138454Y139978D01*
X138365Y139972D01*
X138276Y139962D01*
X138188Y139949D01*
X138100Y139932D01*
X138013Y139910D01*
X137928Y139885D01*
X137843Y139857D01*
X137760Y139824D01*
X137678Y139788D01*
X137598Y139749D01*
X137520Y139706D01*
X137444Y139660D01*
X137369Y139610D01*
X137297Y139557D01*
X137228Y139501D01*
X137161Y139442D01*
X137096Y139381D01*
X137035Y139316D01*
X136976Y139249D01*
X136920Y139180D01*
X136867Y139108D01*
X136817Y139033D01*
X136771Y138957D01*
X136728Y138879D01*
X136689Y138799D01*
X136653Y138717D01*
X136620Y138634D01*
X136592Y138549D01*
X136567Y138464D01*
X136545Y138377D01*
X136528Y138289D01*
X136515Y138201D01*
X136505Y138112D01*
X136499Y138023D01*
X136497Y137934D01*
X136497Y135888D01*
X136497Y138343D02*
X133223Y139980D01*
X138748Y147244D02*
X138833Y147242D01*
X138918Y147236D01*
X139002Y147226D01*
X139086Y147213D01*
X139170Y147195D01*
X139252Y147174D01*
X139333Y147149D01*
X139413Y147120D01*
X139492Y147087D01*
X139569Y147051D01*
X139644Y147011D01*
X139718Y146968D01*
X139789Y146922D01*
X139858Y146872D01*
X139925Y146819D01*
X139989Y146763D01*
X140050Y146704D01*
X140109Y146643D01*
X140165Y146579D01*
X140218Y146512D01*
X140268Y146443D01*
X140314Y146372D01*
X140357Y146298D01*
X140397Y146223D01*
X140433Y146146D01*
X140466Y146067D01*
X140495Y145987D01*
X140520Y145906D01*
X140541Y145824D01*
X140559Y145740D01*
X140572Y145656D01*
X140582Y145572D01*
X140588Y145487D01*
X140590Y145402D01*
X140589Y145402D02*
X140587Y145306D01*
X140581Y145210D01*
X140571Y145115D01*
X140558Y145020D01*
X140540Y144925D01*
X140519Y144832D01*
X140494Y144739D01*
X140465Y144648D01*
X140433Y144557D01*
X140397Y144468D01*
X140357Y144381D01*
X140314Y144295D01*
X140268Y144211D01*
X140218Y144129D01*
X140164Y144049D01*
X140108Y143972D01*
X140048Y143897D01*
X139986Y143824D01*
X139920Y143754D01*
X139852Y143686D01*
X139781Y143621D01*
X139708Y143560D01*
X139632Y143501D01*
X139553Y143445D01*
X139473Y143393D01*
X139390Y143344D01*
X139306Y143298D01*
X139220Y143256D01*
X139132Y143218D01*
X139043Y143183D01*
X138952Y143151D01*
X137316Y146630D02*
X137375Y146690D01*
X137437Y146747D01*
X137501Y146802D01*
X137568Y146853D01*
X137637Y146902D01*
X137707Y146948D01*
X137780Y146991D01*
X137854Y147031D01*
X137930Y147067D01*
X138008Y147100D01*
X138087Y147130D01*
X138167Y147157D01*
X138248Y147180D01*
X138330Y147199D01*
X138412Y147215D01*
X138496Y147228D01*
X138580Y147237D01*
X138664Y147242D01*
X138748Y147244D01*
X137315Y146630D02*
X133223Y143152D01*
X133223Y147244D01*
X138952Y150467D02*
X140589Y152513D01*
X133223Y152513D01*
X133223Y150467D02*
X133223Y154559D01*
D11*
X402590Y139950D02*
X410210Y139950D01*
X409960Y126750D02*
X402590Y126750D01*
D16*
X413572Y133362D03*
X399094Y133362D03*
D12*
X409095Y146431D02*
X410732Y146431D01*
X410810Y146433D01*
X410888Y146438D01*
X410965Y146448D01*
X411042Y146461D01*
X411118Y146477D01*
X411193Y146497D01*
X411267Y146521D01*
X411340Y146548D01*
X411412Y146579D01*
X411482Y146613D01*
X411551Y146650D01*
X411617Y146691D01*
X411682Y146735D01*
X411744Y146781D01*
X411804Y146831D01*
X411862Y146883D01*
X411917Y146938D01*
X411969Y146996D01*
X412019Y147056D01*
X412065Y147118D01*
X412109Y147183D01*
X412150Y147250D01*
X412187Y147318D01*
X412221Y147388D01*
X412252Y147460D01*
X412279Y147533D01*
X412303Y147607D01*
X412323Y147682D01*
X412339Y147758D01*
X412352Y147835D01*
X412362Y147912D01*
X412367Y147990D01*
X412369Y148068D01*
X412369Y152160D01*
X412367Y152238D01*
X412362Y152316D01*
X412352Y152393D01*
X412339Y152470D01*
X412323Y152546D01*
X412303Y152621D01*
X412279Y152695D01*
X412252Y152768D01*
X412221Y152840D01*
X412187Y152910D01*
X412150Y152979D01*
X412109Y153045D01*
X412065Y153110D01*
X412019Y153172D01*
X411969Y153232D01*
X411917Y153290D01*
X411862Y153345D01*
X411804Y153397D01*
X411744Y153447D01*
X411682Y153493D01*
X411617Y153537D01*
X411551Y153578D01*
X411482Y153615D01*
X411412Y153649D01*
X411340Y153680D01*
X411267Y153707D01*
X411193Y153731D01*
X411118Y153751D01*
X411042Y153767D01*
X410965Y153780D01*
X410888Y153790D01*
X410810Y153795D01*
X410732Y153797D01*
X409095Y153797D01*
X406250Y152160D02*
X404204Y153797D01*
X404204Y146431D01*
X406250Y146431D02*
X402158Y146431D01*
X398934Y150114D02*
X398932Y150267D01*
X398926Y150420D01*
X398917Y150572D01*
X398903Y150725D01*
X398886Y150877D01*
X398865Y151028D01*
X398840Y151179D01*
X398811Y151329D01*
X398779Y151479D01*
X398742Y151627D01*
X398702Y151775D01*
X398659Y151922D01*
X398611Y152067D01*
X398560Y152211D01*
X398506Y152354D01*
X398447Y152496D01*
X398386Y152635D01*
X398320Y152774D01*
X398321Y152774D02*
X398295Y152844D01*
X398265Y152913D01*
X398233Y152981D01*
X398196Y153047D01*
X398157Y153111D01*
X398114Y153173D01*
X398069Y153232D01*
X398020Y153290D01*
X397969Y153344D01*
X397915Y153397D01*
X397858Y153446D01*
X397799Y153493D01*
X397738Y153536D01*
X397675Y153577D01*
X397610Y153614D01*
X397543Y153649D01*
X397474Y153679D01*
X397404Y153707D01*
X397333Y153730D01*
X397261Y153751D01*
X397188Y153767D01*
X397114Y153780D01*
X397039Y153790D01*
X396964Y153795D01*
X396889Y153797D01*
X396814Y153795D01*
X396739Y153790D01*
X396664Y153780D01*
X396590Y153767D01*
X396517Y153751D01*
X396445Y153730D01*
X396374Y153707D01*
X396304Y153679D01*
X396235Y153649D01*
X396168Y153614D01*
X396103Y153577D01*
X396040Y153536D01*
X395979Y153493D01*
X395920Y153446D01*
X395863Y153397D01*
X395809Y153344D01*
X395758Y153290D01*
X395710Y153232D01*
X395664Y153173D01*
X395621Y153111D01*
X395582Y153047D01*
X395546Y152981D01*
X395513Y152914D01*
X395483Y152844D01*
X395457Y152774D01*
X395392Y152636D01*
X395330Y152496D01*
X395272Y152354D01*
X395217Y152211D01*
X395166Y152067D01*
X395118Y151922D01*
X395075Y151775D01*
X395035Y151628D01*
X394998Y151479D01*
X394966Y151329D01*
X394937Y151179D01*
X394912Y151028D01*
X394891Y150877D01*
X394874Y150725D01*
X394860Y150572D01*
X394851Y150420D01*
X394845Y150267D01*
X394843Y150114D01*
X398935Y150114D02*
X398933Y149961D01*
X398927Y149808D01*
X398918Y149655D01*
X398904Y149503D01*
X398887Y149351D01*
X398866Y149200D01*
X398841Y149049D01*
X398812Y148898D01*
X398780Y148749D01*
X398743Y148600D01*
X398703Y148453D01*
X398660Y148306D01*
X398612Y148161D01*
X398561Y148016D01*
X398506Y147874D01*
X398448Y147732D01*
X398386Y147592D01*
X398321Y147454D01*
X398295Y147384D01*
X398265Y147314D01*
X398233Y147247D01*
X398196Y147181D01*
X398157Y147117D01*
X398114Y147055D01*
X398068Y146996D01*
X398020Y146938D01*
X397969Y146884D01*
X397915Y146831D01*
X397858Y146782D01*
X397799Y146735D01*
X397738Y146692D01*
X397675Y146651D01*
X397610Y146614D01*
X397543Y146579D01*
X397474Y146549D01*
X397404Y146521D01*
X397333Y146498D01*
X397261Y146477D01*
X397188Y146461D01*
X397114Y146448D01*
X397039Y146438D01*
X396964Y146433D01*
X396889Y146431D01*
X395457Y147454D02*
X395392Y147592D01*
X395330Y147732D01*
X395272Y147874D01*
X395217Y148017D01*
X395166Y148161D01*
X395118Y148306D01*
X395075Y148453D01*
X395035Y148601D01*
X394998Y148749D01*
X394966Y148899D01*
X394937Y149049D01*
X394912Y149200D01*
X394891Y149351D01*
X394874Y149503D01*
X394860Y149656D01*
X394851Y149808D01*
X394845Y149961D01*
X394843Y150114D01*
X395457Y147454D02*
X395483Y147383D01*
X395513Y147314D01*
X395546Y147247D01*
X395582Y147181D01*
X395621Y147117D01*
X395664Y147055D01*
X395710Y146996D01*
X395758Y146938D01*
X395809Y146884D01*
X395863Y146831D01*
X395920Y146782D01*
X395979Y146735D01*
X396040Y146692D01*
X396103Y146651D01*
X396168Y146614D01*
X396235Y146579D01*
X396304Y146549D01*
X396374Y146521D01*
X396445Y146498D01*
X396517Y146477D01*
X396590Y146461D01*
X396664Y146448D01*
X396739Y146438D01*
X396814Y146433D01*
X396889Y146431D01*
X398526Y148068D02*
X395252Y152160D01*
D11*
X402590Y114550D02*
X410210Y114550D01*
X409960Y101350D02*
X402590Y101350D01*
D16*
X413572Y107962D03*
X399094Y107962D03*
D12*
X408334Y87503D02*
X409971Y87503D01*
X410049Y87505D01*
X410127Y87510D01*
X410204Y87520D01*
X410281Y87533D01*
X410357Y87549D01*
X410432Y87569D01*
X410506Y87593D01*
X410579Y87620D01*
X410651Y87651D01*
X410721Y87685D01*
X410790Y87722D01*
X410856Y87763D01*
X410921Y87807D01*
X410983Y87853D01*
X411043Y87903D01*
X411101Y87955D01*
X411156Y88010D01*
X411208Y88068D01*
X411258Y88128D01*
X411304Y88190D01*
X411348Y88255D01*
X411389Y88322D01*
X411426Y88390D01*
X411460Y88460D01*
X411491Y88532D01*
X411518Y88605D01*
X411542Y88679D01*
X411562Y88754D01*
X411578Y88830D01*
X411591Y88907D01*
X411601Y88984D01*
X411606Y89062D01*
X411608Y89140D01*
X411608Y93232D01*
X411606Y93310D01*
X411601Y93388D01*
X411591Y93465D01*
X411578Y93542D01*
X411562Y93618D01*
X411542Y93693D01*
X411518Y93767D01*
X411491Y93840D01*
X411460Y93912D01*
X411426Y93982D01*
X411389Y94051D01*
X411348Y94117D01*
X411304Y94182D01*
X411258Y94244D01*
X411208Y94304D01*
X411156Y94362D01*
X411101Y94417D01*
X411043Y94469D01*
X410983Y94519D01*
X410921Y94565D01*
X410856Y94609D01*
X410790Y94650D01*
X410721Y94687D01*
X410651Y94721D01*
X410579Y94752D01*
X410506Y94779D01*
X410432Y94803D01*
X410357Y94823D01*
X410281Y94839D01*
X410204Y94852D01*
X410127Y94862D01*
X410049Y94867D01*
X409971Y94869D01*
X408334Y94869D01*
X405488Y93232D02*
X403442Y94869D01*
X403442Y87503D01*
X405488Y87503D02*
X401396Y87503D01*
X398173Y93232D02*
X396127Y94869D01*
X396127Y87503D01*
X398173Y87503D02*
X394081Y87503D01*
D11*
X453390Y114550D02*
X461010Y114550D01*
X460760Y101350D02*
X453390Y101350D01*
D16*
X464372Y107962D03*
X449894Y107962D03*
D12*
X459134Y87503D02*
X460771Y87503D01*
X460849Y87505D01*
X460927Y87510D01*
X461004Y87520D01*
X461081Y87533D01*
X461157Y87549D01*
X461232Y87569D01*
X461306Y87593D01*
X461379Y87620D01*
X461451Y87651D01*
X461521Y87685D01*
X461590Y87722D01*
X461656Y87763D01*
X461721Y87807D01*
X461783Y87853D01*
X461843Y87903D01*
X461901Y87955D01*
X461956Y88010D01*
X462008Y88068D01*
X462058Y88128D01*
X462104Y88190D01*
X462148Y88255D01*
X462189Y88322D01*
X462226Y88390D01*
X462260Y88460D01*
X462291Y88532D01*
X462318Y88605D01*
X462342Y88679D01*
X462362Y88754D01*
X462378Y88830D01*
X462391Y88907D01*
X462401Y88984D01*
X462406Y89062D01*
X462408Y89140D01*
X462408Y93232D01*
X462406Y93310D01*
X462401Y93388D01*
X462391Y93465D01*
X462378Y93542D01*
X462362Y93618D01*
X462342Y93693D01*
X462318Y93767D01*
X462291Y93840D01*
X462260Y93912D01*
X462226Y93982D01*
X462189Y94051D01*
X462148Y94117D01*
X462104Y94182D01*
X462058Y94244D01*
X462008Y94304D01*
X461956Y94362D01*
X461901Y94417D01*
X461843Y94469D01*
X461783Y94519D01*
X461721Y94565D01*
X461656Y94609D01*
X461590Y94650D01*
X461521Y94687D01*
X461451Y94721D01*
X461379Y94752D01*
X461306Y94779D01*
X461232Y94803D01*
X461157Y94823D01*
X461081Y94839D01*
X461004Y94852D01*
X460927Y94862D01*
X460849Y94867D01*
X460771Y94869D01*
X459134Y94869D01*
X456288Y93232D02*
X454242Y94869D01*
X454242Y87503D01*
X456288Y87503D02*
X452196Y87503D01*
X448973Y87503D02*
X446927Y87503D01*
X446838Y87505D01*
X446749Y87511D01*
X446660Y87521D01*
X446572Y87534D01*
X446484Y87551D01*
X446397Y87573D01*
X446312Y87598D01*
X446227Y87626D01*
X446144Y87659D01*
X446062Y87695D01*
X445982Y87734D01*
X445904Y87777D01*
X445828Y87823D01*
X445753Y87873D01*
X445681Y87926D01*
X445612Y87982D01*
X445545Y88041D01*
X445480Y88102D01*
X445419Y88167D01*
X445360Y88234D01*
X445304Y88303D01*
X445251Y88375D01*
X445201Y88450D01*
X445155Y88526D01*
X445112Y88604D01*
X445073Y88684D01*
X445037Y88766D01*
X445004Y88849D01*
X444976Y88934D01*
X444951Y89019D01*
X444929Y89106D01*
X444912Y89194D01*
X444899Y89282D01*
X444889Y89371D01*
X444883Y89460D01*
X444881Y89549D01*
X444883Y89638D01*
X444889Y89727D01*
X444899Y89816D01*
X444912Y89904D01*
X444929Y89992D01*
X444951Y90079D01*
X444976Y90164D01*
X445004Y90249D01*
X445037Y90332D01*
X445073Y90414D01*
X445112Y90494D01*
X445155Y90572D01*
X445201Y90648D01*
X445251Y90723D01*
X445304Y90795D01*
X445360Y90864D01*
X445419Y90931D01*
X445480Y90996D01*
X445545Y91057D01*
X445612Y91116D01*
X445681Y91172D01*
X445753Y91225D01*
X445828Y91275D01*
X445904Y91321D01*
X445982Y91364D01*
X446062Y91403D01*
X446144Y91439D01*
X446227Y91472D01*
X446312Y91500D01*
X446397Y91525D01*
X446484Y91547D01*
X446572Y91564D01*
X446660Y91577D01*
X446749Y91587D01*
X446838Y91593D01*
X446927Y91595D01*
X446518Y94869D02*
X448973Y94869D01*
X446518Y94869D02*
X446439Y94867D01*
X446360Y94861D01*
X446281Y94852D01*
X446203Y94839D01*
X446126Y94821D01*
X446050Y94801D01*
X445975Y94776D01*
X445901Y94748D01*
X445828Y94717D01*
X445757Y94681D01*
X445688Y94643D01*
X445621Y94601D01*
X445556Y94556D01*
X445493Y94508D01*
X445432Y94457D01*
X445375Y94403D01*
X445319Y94347D01*
X445267Y94288D01*
X445217Y94226D01*
X445171Y94162D01*
X445127Y94096D01*
X445087Y94028D01*
X445051Y93958D01*
X445017Y93886D01*
X444987Y93812D01*
X444961Y93738D01*
X444938Y93662D01*
X444920Y93585D01*
X444904Y93508D01*
X444893Y93429D01*
X444885Y93351D01*
X444881Y93272D01*
X444881Y93192D01*
X444885Y93113D01*
X444893Y93035D01*
X444904Y92956D01*
X444920Y92879D01*
X444938Y92802D01*
X444961Y92726D01*
X444987Y92652D01*
X445017Y92578D01*
X445051Y92506D01*
X445087Y92436D01*
X445127Y92368D01*
X445171Y92302D01*
X445217Y92238D01*
X445267Y92176D01*
X445319Y92117D01*
X445375Y92061D01*
X445432Y92007D01*
X445493Y91956D01*
X445556Y91908D01*
X445621Y91863D01*
X445688Y91821D01*
X445757Y91783D01*
X445828Y91747D01*
X445901Y91716D01*
X445975Y91688D01*
X446050Y91663D01*
X446126Y91643D01*
X446203Y91625D01*
X446281Y91612D01*
X446360Y91603D01*
X446439Y91597D01*
X446518Y91595D01*
X448155Y91595D01*
D11*
X257810Y152150D02*
X250190Y152150D01*
X250440Y165350D02*
X257810Y165350D01*
D16*
X246829Y158739D03*
X261307Y158739D03*
D12*
X230392Y151511D02*
X228755Y151511D01*
X230392Y151511D02*
X230470Y151513D01*
X230548Y151518D01*
X230625Y151528D01*
X230702Y151541D01*
X230778Y151557D01*
X230853Y151577D01*
X230927Y151601D01*
X231000Y151628D01*
X231072Y151659D01*
X231142Y151693D01*
X231211Y151730D01*
X231277Y151771D01*
X231342Y151815D01*
X231404Y151861D01*
X231464Y151911D01*
X231522Y151963D01*
X231577Y152018D01*
X231629Y152076D01*
X231679Y152136D01*
X231725Y152198D01*
X231769Y152263D01*
X231810Y152330D01*
X231847Y152398D01*
X231881Y152468D01*
X231912Y152540D01*
X231939Y152613D01*
X231963Y152687D01*
X231983Y152762D01*
X231999Y152838D01*
X232012Y152915D01*
X232022Y152992D01*
X232027Y153070D01*
X232029Y153148D01*
X232029Y157240D01*
X232027Y157318D01*
X232022Y157396D01*
X232012Y157473D01*
X231999Y157550D01*
X231983Y157626D01*
X231963Y157701D01*
X231939Y157775D01*
X231912Y157848D01*
X231881Y157920D01*
X231847Y157990D01*
X231810Y158059D01*
X231769Y158125D01*
X231725Y158190D01*
X231679Y158252D01*
X231629Y158312D01*
X231577Y158370D01*
X231522Y158425D01*
X231464Y158477D01*
X231404Y158527D01*
X231342Y158573D01*
X231277Y158617D01*
X231211Y158658D01*
X231142Y158695D01*
X231072Y158729D01*
X231000Y158760D01*
X230927Y158787D01*
X230853Y158811D01*
X230778Y158831D01*
X230702Y158847D01*
X230625Y158860D01*
X230548Y158870D01*
X230470Y158875D01*
X230392Y158877D01*
X228755Y158877D01*
X225910Y157240D02*
X223864Y158877D01*
X223864Y151511D01*
X225910Y151511D02*
X221818Y151511D01*
X218595Y155603D02*
X216139Y155603D01*
X216059Y155601D01*
X215979Y155595D01*
X215899Y155585D01*
X215820Y155572D01*
X215741Y155554D01*
X215664Y155533D01*
X215588Y155507D01*
X215513Y155478D01*
X215439Y155446D01*
X215367Y155410D01*
X215297Y155370D01*
X215230Y155327D01*
X215164Y155281D01*
X215101Y155231D01*
X215040Y155179D01*
X214981Y155124D01*
X214926Y155065D01*
X214874Y155005D01*
X214824Y154941D01*
X214778Y154875D01*
X214735Y154808D01*
X214695Y154738D01*
X214659Y154666D01*
X214627Y154592D01*
X214598Y154518D01*
X214572Y154441D01*
X214551Y154364D01*
X214533Y154285D01*
X214520Y154206D01*
X214510Y154126D01*
X214504Y154046D01*
X214502Y153966D01*
X214503Y153966D02*
X214503Y153557D01*
X214505Y153468D01*
X214511Y153379D01*
X214521Y153290D01*
X214534Y153202D01*
X214551Y153114D01*
X214573Y153027D01*
X214598Y152942D01*
X214626Y152857D01*
X214659Y152774D01*
X214695Y152692D01*
X214734Y152612D01*
X214777Y152534D01*
X214823Y152458D01*
X214873Y152383D01*
X214926Y152311D01*
X214982Y152242D01*
X215041Y152175D01*
X215102Y152110D01*
X215167Y152049D01*
X215234Y151990D01*
X215303Y151934D01*
X215375Y151881D01*
X215450Y151831D01*
X215526Y151785D01*
X215604Y151742D01*
X215684Y151703D01*
X215766Y151667D01*
X215849Y151634D01*
X215934Y151606D01*
X216019Y151581D01*
X216106Y151559D01*
X216194Y151542D01*
X216282Y151529D01*
X216371Y151519D01*
X216460Y151513D01*
X216549Y151511D01*
X216638Y151513D01*
X216727Y151519D01*
X216816Y151529D01*
X216904Y151542D01*
X216992Y151559D01*
X217079Y151581D01*
X217164Y151606D01*
X217249Y151634D01*
X217332Y151667D01*
X217414Y151703D01*
X217494Y151742D01*
X217572Y151785D01*
X217648Y151831D01*
X217723Y151881D01*
X217795Y151934D01*
X217864Y151990D01*
X217931Y152049D01*
X217996Y152110D01*
X218057Y152175D01*
X218116Y152242D01*
X218172Y152311D01*
X218225Y152383D01*
X218275Y152458D01*
X218321Y152534D01*
X218364Y152612D01*
X218403Y152692D01*
X218439Y152774D01*
X218472Y152857D01*
X218500Y152942D01*
X218525Y153027D01*
X218547Y153114D01*
X218564Y153202D01*
X218577Y153290D01*
X218587Y153379D01*
X218593Y153468D01*
X218595Y153557D01*
X218595Y155603D01*
X218593Y155715D01*
X218587Y155826D01*
X218578Y155938D01*
X218565Y156049D01*
X218547Y156159D01*
X218527Y156269D01*
X218502Y156378D01*
X218474Y156486D01*
X218442Y156593D01*
X218406Y156699D01*
X218367Y156804D01*
X218324Y156907D01*
X218278Y157009D01*
X218228Y157109D01*
X218175Y157208D01*
X218118Y157304D01*
X218059Y157399D01*
X217996Y157491D01*
X217930Y157581D01*
X217861Y157669D01*
X217789Y157755D01*
X217714Y157838D01*
X217636Y157918D01*
X217556Y157996D01*
X217473Y158071D01*
X217387Y158143D01*
X217299Y158212D01*
X217209Y158278D01*
X217117Y158341D01*
X217022Y158400D01*
X216926Y158457D01*
X216827Y158510D01*
X216727Y158560D01*
X216625Y158606D01*
X216522Y158649D01*
X216417Y158688D01*
X216311Y158724D01*
X216204Y158756D01*
X216096Y158784D01*
X215987Y158809D01*
X215877Y158829D01*
X215767Y158847D01*
X215656Y158860D01*
X215544Y158869D01*
X215433Y158875D01*
X215321Y158877D01*
D10*
X95250Y224500D02*
X95250Y232700D01*
X107950Y232700D02*
X107950Y224500D01*
D17*
X101585Y221286D03*
X101585Y236018D03*
D12*
X104521Y249301D02*
X111887Y249301D01*
X111887Y251347D01*
X111885Y251436D01*
X111879Y251525D01*
X111869Y251614D01*
X111856Y251702D01*
X111839Y251790D01*
X111817Y251877D01*
X111792Y251962D01*
X111764Y252047D01*
X111731Y252130D01*
X111695Y252212D01*
X111656Y252292D01*
X111613Y252370D01*
X111567Y252446D01*
X111517Y252521D01*
X111464Y252593D01*
X111408Y252662D01*
X111349Y252729D01*
X111288Y252794D01*
X111223Y252855D01*
X111156Y252914D01*
X111087Y252970D01*
X111015Y253023D01*
X110940Y253073D01*
X110864Y253119D01*
X110786Y253162D01*
X110706Y253201D01*
X110624Y253237D01*
X110541Y253270D01*
X110456Y253298D01*
X110371Y253323D01*
X110284Y253345D01*
X110196Y253362D01*
X110108Y253375D01*
X110019Y253385D01*
X109930Y253391D01*
X109841Y253393D01*
X109752Y253391D01*
X109663Y253385D01*
X109574Y253375D01*
X109486Y253362D01*
X109398Y253345D01*
X109311Y253323D01*
X109226Y253298D01*
X109141Y253270D01*
X109058Y253237D01*
X108976Y253201D01*
X108896Y253162D01*
X108818Y253119D01*
X108742Y253073D01*
X108667Y253023D01*
X108595Y252970D01*
X108526Y252914D01*
X108459Y252855D01*
X108394Y252794D01*
X108333Y252729D01*
X108274Y252662D01*
X108218Y252593D01*
X108165Y252521D01*
X108115Y252446D01*
X108069Y252370D01*
X108026Y252292D01*
X107987Y252212D01*
X107951Y252130D01*
X107918Y252047D01*
X107890Y251962D01*
X107865Y251877D01*
X107843Y251790D01*
X107826Y251702D01*
X107813Y251614D01*
X107803Y251525D01*
X107797Y251436D01*
X107795Y251347D01*
X107795Y249301D01*
X107795Y251756D02*
X104521Y253393D01*
X111069Y256565D02*
X111887Y256565D01*
X111887Y260657D01*
X104521Y258611D01*
D10*
X44450Y232700D02*
X44450Y224500D01*
X57150Y224500D02*
X57150Y232700D01*
D17*
X50785Y221286D03*
X50785Y236018D03*
D12*
X54991Y251841D02*
X62357Y251841D01*
X62357Y253887D01*
X62355Y253976D01*
X62349Y254065D01*
X62339Y254154D01*
X62326Y254242D01*
X62309Y254330D01*
X62287Y254417D01*
X62262Y254502D01*
X62234Y254587D01*
X62201Y254670D01*
X62165Y254752D01*
X62126Y254832D01*
X62083Y254910D01*
X62037Y254986D01*
X61987Y255061D01*
X61934Y255133D01*
X61878Y255202D01*
X61819Y255269D01*
X61758Y255334D01*
X61693Y255395D01*
X61626Y255454D01*
X61557Y255510D01*
X61485Y255563D01*
X61410Y255613D01*
X61334Y255659D01*
X61256Y255702D01*
X61176Y255741D01*
X61094Y255777D01*
X61011Y255810D01*
X60926Y255838D01*
X60841Y255863D01*
X60754Y255885D01*
X60666Y255902D01*
X60578Y255915D01*
X60489Y255925D01*
X60400Y255931D01*
X60311Y255933D01*
X60222Y255931D01*
X60133Y255925D01*
X60044Y255915D01*
X59956Y255902D01*
X59868Y255885D01*
X59781Y255863D01*
X59696Y255838D01*
X59611Y255810D01*
X59528Y255777D01*
X59446Y255741D01*
X59366Y255702D01*
X59288Y255659D01*
X59212Y255613D01*
X59137Y255563D01*
X59065Y255510D01*
X58996Y255454D01*
X58929Y255395D01*
X58864Y255334D01*
X58803Y255269D01*
X58744Y255202D01*
X58688Y255133D01*
X58635Y255061D01*
X58585Y254986D01*
X58539Y254910D01*
X58496Y254832D01*
X58457Y254752D01*
X58421Y254670D01*
X58388Y254587D01*
X58360Y254502D01*
X58335Y254417D01*
X58313Y254330D01*
X58296Y254242D01*
X58283Y254154D01*
X58273Y254065D01*
X58267Y253976D01*
X58265Y253887D01*
X58265Y251841D01*
X58265Y254296D02*
X54991Y255933D01*
X60516Y263198D02*
X60601Y263196D01*
X60686Y263190D01*
X60770Y263180D01*
X60854Y263167D01*
X60938Y263149D01*
X61020Y263128D01*
X61101Y263103D01*
X61181Y263074D01*
X61260Y263041D01*
X61337Y263005D01*
X61412Y262965D01*
X61486Y262922D01*
X61557Y262876D01*
X61626Y262826D01*
X61693Y262773D01*
X61757Y262717D01*
X61818Y262658D01*
X61877Y262597D01*
X61933Y262533D01*
X61986Y262466D01*
X62036Y262397D01*
X62082Y262326D01*
X62125Y262252D01*
X62165Y262177D01*
X62201Y262100D01*
X62234Y262021D01*
X62263Y261941D01*
X62288Y261860D01*
X62309Y261778D01*
X62327Y261694D01*
X62340Y261610D01*
X62350Y261526D01*
X62356Y261441D01*
X62358Y261356D01*
X62357Y261356D02*
X62355Y261260D01*
X62349Y261164D01*
X62339Y261069D01*
X62326Y260974D01*
X62308Y260879D01*
X62287Y260786D01*
X62262Y260693D01*
X62233Y260602D01*
X62201Y260511D01*
X62165Y260422D01*
X62125Y260335D01*
X62082Y260249D01*
X62036Y260165D01*
X61986Y260083D01*
X61932Y260003D01*
X61876Y259926D01*
X61816Y259851D01*
X61754Y259778D01*
X61688Y259708D01*
X61620Y259640D01*
X61549Y259575D01*
X61476Y259514D01*
X61400Y259455D01*
X61321Y259399D01*
X61241Y259347D01*
X61158Y259298D01*
X61074Y259252D01*
X60988Y259210D01*
X60900Y259172D01*
X60811Y259137D01*
X60720Y259105D01*
X59084Y262583D02*
X59143Y262643D01*
X59205Y262700D01*
X59269Y262755D01*
X59336Y262806D01*
X59405Y262855D01*
X59475Y262901D01*
X59548Y262944D01*
X59622Y262984D01*
X59698Y263020D01*
X59776Y263053D01*
X59855Y263083D01*
X59935Y263110D01*
X60016Y263133D01*
X60098Y263152D01*
X60180Y263168D01*
X60264Y263181D01*
X60348Y263190D01*
X60432Y263195D01*
X60516Y263197D01*
X59083Y262583D02*
X54991Y259105D01*
X54991Y263197D01*
X54991Y266420D02*
X54991Y268466D01*
X54993Y268555D01*
X54999Y268644D01*
X55009Y268733D01*
X55022Y268821D01*
X55039Y268909D01*
X55061Y268996D01*
X55086Y269081D01*
X55114Y269166D01*
X55147Y269249D01*
X55183Y269331D01*
X55222Y269411D01*
X55265Y269489D01*
X55311Y269565D01*
X55361Y269640D01*
X55414Y269712D01*
X55470Y269781D01*
X55529Y269848D01*
X55590Y269913D01*
X55655Y269974D01*
X55722Y270033D01*
X55791Y270089D01*
X55863Y270142D01*
X55938Y270192D01*
X56014Y270238D01*
X56092Y270281D01*
X56172Y270320D01*
X56254Y270356D01*
X56337Y270389D01*
X56422Y270417D01*
X56507Y270442D01*
X56594Y270464D01*
X56682Y270481D01*
X56770Y270494D01*
X56859Y270504D01*
X56948Y270510D01*
X57037Y270512D01*
X57126Y270510D01*
X57215Y270504D01*
X57304Y270494D01*
X57392Y270481D01*
X57480Y270464D01*
X57567Y270442D01*
X57652Y270417D01*
X57737Y270389D01*
X57820Y270356D01*
X57902Y270320D01*
X57982Y270281D01*
X58060Y270238D01*
X58136Y270192D01*
X58211Y270142D01*
X58283Y270089D01*
X58352Y270033D01*
X58419Y269974D01*
X58484Y269913D01*
X58545Y269848D01*
X58604Y269781D01*
X58660Y269712D01*
X58713Y269640D01*
X58763Y269565D01*
X58809Y269489D01*
X58852Y269411D01*
X58891Y269331D01*
X58927Y269249D01*
X58960Y269166D01*
X58988Y269081D01*
X59013Y268996D01*
X59035Y268909D01*
X59052Y268821D01*
X59065Y268733D01*
X59075Y268644D01*
X59081Y268555D01*
X59083Y268466D01*
X62357Y268876D02*
X62357Y266420D01*
X62357Y268876D02*
X62355Y268955D01*
X62349Y269034D01*
X62340Y269113D01*
X62327Y269191D01*
X62309Y269268D01*
X62289Y269344D01*
X62264Y269419D01*
X62236Y269493D01*
X62205Y269566D01*
X62169Y269637D01*
X62131Y269706D01*
X62089Y269773D01*
X62044Y269838D01*
X61996Y269901D01*
X61945Y269962D01*
X61891Y270019D01*
X61835Y270075D01*
X61776Y270127D01*
X61714Y270177D01*
X61650Y270223D01*
X61584Y270267D01*
X61516Y270307D01*
X61446Y270343D01*
X61374Y270377D01*
X61300Y270407D01*
X61226Y270433D01*
X61150Y270456D01*
X61073Y270474D01*
X60996Y270490D01*
X60917Y270501D01*
X60839Y270509D01*
X60760Y270513D01*
X60680Y270513D01*
X60601Y270509D01*
X60523Y270501D01*
X60444Y270490D01*
X60367Y270474D01*
X60290Y270456D01*
X60214Y270433D01*
X60140Y270407D01*
X60066Y270377D01*
X59994Y270343D01*
X59924Y270307D01*
X59856Y270267D01*
X59790Y270223D01*
X59726Y270177D01*
X59664Y270127D01*
X59605Y270075D01*
X59549Y270019D01*
X59495Y269962D01*
X59444Y269901D01*
X59396Y269838D01*
X59351Y269773D01*
X59309Y269706D01*
X59271Y269637D01*
X59235Y269566D01*
X59204Y269493D01*
X59176Y269419D01*
X59151Y269344D01*
X59131Y269268D01*
X59113Y269191D01*
X59100Y269113D01*
X59091Y269034D01*
X59085Y268955D01*
X59083Y268876D01*
X59083Y267239D01*
D10*
X69850Y232700D02*
X69850Y224500D01*
X82550Y224500D02*
X82550Y232700D01*
D17*
X76185Y221286D03*
X76185Y236018D03*
D12*
X79121Y251841D02*
X86487Y251841D01*
X86487Y253887D01*
X86485Y253976D01*
X86479Y254065D01*
X86469Y254154D01*
X86456Y254242D01*
X86439Y254330D01*
X86417Y254417D01*
X86392Y254502D01*
X86364Y254587D01*
X86331Y254670D01*
X86295Y254752D01*
X86256Y254832D01*
X86213Y254910D01*
X86167Y254986D01*
X86117Y255061D01*
X86064Y255133D01*
X86008Y255202D01*
X85949Y255269D01*
X85888Y255334D01*
X85823Y255395D01*
X85756Y255454D01*
X85687Y255510D01*
X85615Y255563D01*
X85540Y255613D01*
X85464Y255659D01*
X85386Y255702D01*
X85306Y255741D01*
X85224Y255777D01*
X85141Y255810D01*
X85056Y255838D01*
X84971Y255863D01*
X84884Y255885D01*
X84796Y255902D01*
X84708Y255915D01*
X84619Y255925D01*
X84530Y255931D01*
X84441Y255933D01*
X84352Y255931D01*
X84263Y255925D01*
X84174Y255915D01*
X84086Y255902D01*
X83998Y255885D01*
X83911Y255863D01*
X83826Y255838D01*
X83741Y255810D01*
X83658Y255777D01*
X83576Y255741D01*
X83496Y255702D01*
X83418Y255659D01*
X83342Y255613D01*
X83267Y255563D01*
X83195Y255510D01*
X83126Y255454D01*
X83059Y255395D01*
X82994Y255334D01*
X82933Y255269D01*
X82874Y255202D01*
X82818Y255133D01*
X82765Y255061D01*
X82715Y254986D01*
X82669Y254910D01*
X82626Y254832D01*
X82587Y254752D01*
X82551Y254670D01*
X82518Y254587D01*
X82490Y254502D01*
X82465Y254417D01*
X82443Y254330D01*
X82426Y254242D01*
X82413Y254154D01*
X82403Y254065D01*
X82397Y253976D01*
X82395Y253887D01*
X82395Y251841D01*
X82395Y254296D02*
X79121Y255933D01*
X84646Y263198D02*
X84731Y263196D01*
X84816Y263190D01*
X84900Y263180D01*
X84984Y263167D01*
X85068Y263149D01*
X85150Y263128D01*
X85231Y263103D01*
X85311Y263074D01*
X85390Y263041D01*
X85467Y263005D01*
X85542Y262965D01*
X85616Y262922D01*
X85687Y262876D01*
X85756Y262826D01*
X85823Y262773D01*
X85887Y262717D01*
X85948Y262658D01*
X86007Y262597D01*
X86063Y262533D01*
X86116Y262466D01*
X86166Y262397D01*
X86212Y262326D01*
X86255Y262252D01*
X86295Y262177D01*
X86331Y262100D01*
X86364Y262021D01*
X86393Y261941D01*
X86418Y261860D01*
X86439Y261778D01*
X86457Y261694D01*
X86470Y261610D01*
X86480Y261526D01*
X86486Y261441D01*
X86488Y261356D01*
X86487Y261356D02*
X86485Y261260D01*
X86479Y261164D01*
X86469Y261069D01*
X86456Y260974D01*
X86438Y260879D01*
X86417Y260786D01*
X86392Y260693D01*
X86363Y260602D01*
X86331Y260511D01*
X86295Y260422D01*
X86255Y260335D01*
X86212Y260249D01*
X86166Y260165D01*
X86116Y260083D01*
X86062Y260003D01*
X86006Y259926D01*
X85946Y259851D01*
X85884Y259778D01*
X85818Y259708D01*
X85750Y259640D01*
X85679Y259575D01*
X85606Y259514D01*
X85530Y259455D01*
X85451Y259399D01*
X85371Y259347D01*
X85288Y259298D01*
X85204Y259252D01*
X85118Y259210D01*
X85030Y259172D01*
X84941Y259137D01*
X84850Y259105D01*
X83214Y262583D02*
X83273Y262643D01*
X83335Y262700D01*
X83399Y262755D01*
X83466Y262806D01*
X83535Y262855D01*
X83605Y262901D01*
X83678Y262944D01*
X83752Y262984D01*
X83828Y263020D01*
X83906Y263053D01*
X83985Y263083D01*
X84065Y263110D01*
X84146Y263133D01*
X84228Y263152D01*
X84310Y263168D01*
X84394Y263181D01*
X84478Y263190D01*
X84562Y263195D01*
X84646Y263197D01*
X83213Y262583D02*
X79121Y259105D01*
X79121Y263197D01*
X80758Y266420D02*
X86487Y268057D01*
X80758Y266420D02*
X80758Y270512D01*
X82395Y269285D02*
X79121Y269285D01*
D19*
X179944Y190210D02*
X179946Y190313D01*
X179952Y190416D01*
X179961Y190519D01*
X179974Y190622D01*
X179991Y190724D01*
X180012Y190825D01*
X180036Y190925D01*
X180064Y191025D01*
X180095Y191123D01*
X180131Y191220D01*
X180169Y191316D01*
X180211Y191410D01*
X180257Y191503D01*
X180306Y191594D01*
X180358Y191683D01*
X180413Y191770D01*
X180472Y191855D01*
X180534Y191938D01*
X180598Y192019D01*
X180666Y192097D01*
X180736Y192173D01*
X180809Y192246D01*
X180885Y192316D01*
X180963Y192384D01*
X181044Y192448D01*
X181127Y192510D01*
X181212Y192569D01*
X181299Y192624D01*
X181388Y192676D01*
X181479Y192725D01*
X181572Y192771D01*
X181666Y192813D01*
X181762Y192851D01*
X181859Y192887D01*
X181957Y192918D01*
X182057Y192946D01*
X182157Y192970D01*
X182258Y192991D01*
X182360Y193008D01*
X182463Y193021D01*
X182566Y193030D01*
X182669Y193036D01*
X182772Y193038D01*
X179944Y190210D02*
X179944Y163866D01*
X179946Y163763D01*
X179952Y163660D01*
X179961Y163557D01*
X179974Y163454D01*
X179991Y163352D01*
X180012Y163251D01*
X180036Y163151D01*
X180064Y163051D01*
X180095Y162953D01*
X180131Y162856D01*
X180169Y162760D01*
X180211Y162666D01*
X180257Y162573D01*
X180306Y162482D01*
X180358Y162393D01*
X180413Y162306D01*
X180472Y162221D01*
X180534Y162138D01*
X180598Y162057D01*
X180666Y161979D01*
X180736Y161903D01*
X180809Y161830D01*
X180885Y161760D01*
X180963Y161692D01*
X181044Y161628D01*
X181127Y161566D01*
X181212Y161507D01*
X181299Y161452D01*
X181388Y161400D01*
X181479Y161351D01*
X181572Y161305D01*
X181666Y161263D01*
X181762Y161225D01*
X181859Y161189D01*
X181957Y161158D01*
X182057Y161130D01*
X182157Y161106D01*
X182258Y161085D01*
X182360Y161068D01*
X182463Y161055D01*
X182566Y161046D01*
X182669Y161040D01*
X182772Y161038D01*
X191708Y161038D01*
X191800Y161040D01*
X191893Y161046D01*
X191985Y161055D01*
X192076Y161068D01*
X192167Y161086D01*
X192257Y161106D01*
X192346Y161131D01*
X192434Y161159D01*
X192521Y161191D01*
X192606Y161226D01*
X192690Y161265D01*
X192772Y161307D01*
X192853Y161353D01*
X192931Y161402D01*
X193007Y161454D01*
X193081Y161509D01*
X193153Y161568D01*
X193222Y161629D01*
X193289Y161693D01*
X193353Y161760D01*
X193414Y161829D01*
X193473Y161901D01*
X193528Y161975D01*
X193580Y162051D01*
X193629Y162129D01*
X193675Y162210D01*
X193717Y162292D01*
X193756Y162376D01*
X193791Y162461D01*
X193823Y162548D01*
X193851Y162636D01*
X193876Y162725D01*
X193896Y162815D01*
X193914Y162906D01*
X193927Y162997D01*
X193936Y163089D01*
X193942Y163182D01*
X193944Y163274D01*
X193944Y189876D01*
X193942Y189986D01*
X193936Y190097D01*
X193927Y190207D01*
X193913Y190316D01*
X193896Y190425D01*
X193875Y190533D01*
X193850Y190641D01*
X193822Y190748D01*
X193789Y190853D01*
X193753Y190957D01*
X193714Y191061D01*
X193671Y191162D01*
X193624Y191262D01*
X193574Y191360D01*
X193520Y191457D01*
X193464Y191552D01*
X193403Y191644D01*
X193340Y191735D01*
X193274Y191823D01*
X193204Y191908D01*
X193132Y191992D01*
X193057Y192073D01*
X192979Y192151D01*
X192898Y192226D01*
X192814Y192298D01*
X192729Y192368D01*
X192641Y192434D01*
X192550Y192497D01*
X192458Y192558D01*
X192363Y192614D01*
X192266Y192668D01*
X192168Y192718D01*
X192068Y192765D01*
X191967Y192808D01*
X191863Y192847D01*
X191759Y192883D01*
X191654Y192916D01*
X191547Y192944D01*
X191439Y192969D01*
X191331Y192990D01*
X191222Y193007D01*
X191113Y193021D01*
X191003Y193030D01*
X190892Y193036D01*
X190782Y193038D01*
X182772Y193038D01*
X190944Y187038D02*
X190944Y166038D01*
X190944Y187038D02*
X190942Y187145D01*
X190936Y187252D01*
X190927Y187359D01*
X190913Y187465D01*
X190896Y187571D01*
X190875Y187676D01*
X190851Y187780D01*
X190822Y187883D01*
X190790Y187985D01*
X190755Y188086D01*
X190715Y188186D01*
X190673Y188284D01*
X190626Y188381D01*
X190577Y188476D01*
X190524Y188569D01*
X190467Y188660D01*
X190408Y188749D01*
X190345Y188836D01*
X190280Y188920D01*
X190211Y189002D01*
X190139Y189082D01*
X190065Y189159D01*
X189988Y189233D01*
X189908Y189305D01*
X189826Y189374D01*
X189742Y189439D01*
X189655Y189502D01*
X189566Y189561D01*
X189475Y189618D01*
X189382Y189671D01*
X189287Y189720D01*
X189190Y189767D01*
X189092Y189809D01*
X188992Y189849D01*
X188891Y189884D01*
X188789Y189916D01*
X188686Y189945D01*
X188582Y189969D01*
X188477Y189990D01*
X188371Y190007D01*
X188265Y190021D01*
X188158Y190030D01*
X188051Y190036D01*
X187944Y190038D01*
X185944Y190038D01*
X185837Y190036D01*
X185730Y190030D01*
X185623Y190021D01*
X185517Y190007D01*
X185411Y189990D01*
X185306Y189969D01*
X185202Y189945D01*
X185099Y189916D01*
X184997Y189884D01*
X184896Y189849D01*
X184796Y189810D01*
X184698Y189767D01*
X184601Y189721D01*
X184506Y189671D01*
X184413Y189618D01*
X184322Y189562D01*
X184233Y189502D01*
X184146Y189440D01*
X184062Y189374D01*
X183979Y189305D01*
X183900Y189234D01*
X183823Y189159D01*
X183748Y189082D01*
X183677Y189003D01*
X183608Y188920D01*
X183542Y188836D01*
X183480Y188749D01*
X183420Y188660D01*
X183364Y188569D01*
X183311Y188476D01*
X183261Y188381D01*
X183215Y188284D01*
X183172Y188186D01*
X183133Y188086D01*
X183098Y187985D01*
X183066Y187883D01*
X183037Y187780D01*
X183013Y187676D01*
X182992Y187571D01*
X182975Y187465D01*
X182961Y187359D01*
X182952Y187252D01*
X182946Y187145D01*
X182944Y187038D01*
X182944Y167038D01*
X182926Y166940D01*
X182912Y166840D01*
X182902Y166741D01*
X182896Y166641D01*
X182894Y166541D01*
X182896Y166441D01*
X182902Y166341D01*
X182911Y166241D01*
X182925Y166142D01*
X182942Y166043D01*
X182964Y165945D01*
X182989Y165848D01*
X183018Y165753D01*
X183051Y165658D01*
X183087Y165565D01*
X183127Y165473D01*
X183171Y165383D01*
X183218Y165294D01*
X183268Y165208D01*
X183322Y165124D01*
X183379Y165041D01*
X183440Y164961D01*
X183503Y164884D01*
X183570Y164809D01*
X183639Y164737D01*
X183711Y164667D01*
X183786Y164601D01*
X183863Y164537D01*
X183943Y164477D01*
X184025Y164419D01*
X184109Y164365D01*
X184196Y164314D01*
X184284Y164267D01*
X184374Y164223D01*
X184466Y164183D01*
X184559Y164147D01*
X184653Y164114D01*
X184749Y164084D01*
X184846Y164059D01*
X184944Y164038D01*
X187944Y164038D01*
X188043Y164020D01*
X188142Y164006D01*
X188242Y163996D01*
X188342Y163990D01*
X188442Y163988D01*
X188542Y163990D01*
X188642Y163996D01*
X188741Y164005D01*
X188841Y164019D01*
X188939Y164036D01*
X189037Y164058D01*
X189134Y164083D01*
X189230Y164112D01*
X189325Y164145D01*
X189418Y164181D01*
X189510Y164221D01*
X189600Y164265D01*
X189688Y164312D01*
X189775Y164362D01*
X189859Y164416D01*
X189941Y164473D01*
X190021Y164534D01*
X190099Y164597D01*
X190173Y164664D01*
X190246Y164733D01*
X190315Y164805D01*
X190382Y164880D01*
X190445Y164957D01*
X190506Y165037D01*
X190563Y165119D01*
X190617Y165203D01*
X190668Y165290D01*
X190715Y165378D01*
X190759Y165468D01*
X190799Y165560D01*
X190836Y165653D01*
X190869Y165747D01*
X190898Y165843D01*
X190923Y165940D01*
X190945Y166038D01*
D12*
X202855Y172663D02*
X207293Y169530D01*
X202855Y172663D02*
X207293Y175795D01*
X202855Y172663D02*
X197895Y172663D01*
X207294Y182068D02*
X207292Y182163D01*
X207286Y182257D01*
X207277Y182351D01*
X207264Y182445D01*
X207247Y182538D01*
X207226Y182630D01*
X207201Y182722D01*
X207173Y182812D01*
X207141Y182901D01*
X207106Y182989D01*
X207067Y183075D01*
X207025Y183160D01*
X206979Y183243D01*
X206930Y183324D01*
X206878Y183403D01*
X206823Y183480D01*
X206764Y183554D01*
X206703Y183626D01*
X206639Y183696D01*
X206572Y183763D01*
X206502Y183827D01*
X206430Y183888D01*
X206356Y183947D01*
X206279Y184002D01*
X206200Y184054D01*
X206119Y184103D01*
X206036Y184149D01*
X205951Y184191D01*
X205865Y184230D01*
X205777Y184265D01*
X205688Y184297D01*
X205598Y184325D01*
X205506Y184350D01*
X205414Y184371D01*
X205321Y184388D01*
X205227Y184401D01*
X205133Y184410D01*
X205039Y184416D01*
X204944Y184418D01*
X207293Y182068D02*
X207291Y181960D01*
X207285Y181851D01*
X207275Y181743D01*
X207262Y181636D01*
X207244Y181529D01*
X207223Y181422D01*
X207198Y181317D01*
X207169Y181212D01*
X207137Y181109D01*
X207100Y181007D01*
X207060Y180906D01*
X207017Y180807D01*
X206970Y180709D01*
X206919Y180613D01*
X206865Y180519D01*
X206808Y180427D01*
X206747Y180337D01*
X206683Y180249D01*
X206617Y180164D01*
X206547Y180081D01*
X206474Y180001D01*
X206398Y179923D01*
X206320Y179848D01*
X206239Y179776D01*
X206155Y179707D01*
X206069Y179641D01*
X205981Y179578D01*
X205890Y179519D01*
X205798Y179462D01*
X205703Y179409D01*
X205607Y179360D01*
X205508Y179314D01*
X205409Y179271D01*
X205307Y179232D01*
X205205Y179197D01*
X203116Y183634D02*
X203185Y183703D01*
X203256Y183769D01*
X203329Y183833D01*
X203405Y183894D01*
X203484Y183952D01*
X203564Y184006D01*
X203647Y184058D01*
X203731Y184106D01*
X203817Y184152D01*
X203905Y184193D01*
X203995Y184232D01*
X204086Y184267D01*
X204178Y184298D01*
X204271Y184326D01*
X204365Y184350D01*
X204460Y184370D01*
X204556Y184387D01*
X204653Y184400D01*
X204750Y184409D01*
X204847Y184415D01*
X204944Y184417D01*
X203116Y183634D02*
X197895Y179196D01*
X197895Y184417D01*
D11*
X168910Y114550D02*
X161290Y114550D01*
X161290Y101350D02*
X168660Y101350D01*
D16*
X172272Y107962D03*
X157794Y107962D03*
D10*
X137470Y103632D02*
X136003Y103632D01*
X137470Y103632D02*
X137544Y103634D01*
X137619Y103640D01*
X137692Y103649D01*
X137766Y103662D01*
X137838Y103679D01*
X137909Y103699D01*
X137980Y103723D01*
X138049Y103751D01*
X138117Y103782D01*
X138182Y103816D01*
X138247Y103854D01*
X138309Y103895D01*
X138369Y103939D01*
X138426Y103986D01*
X138481Y104036D01*
X138534Y104089D01*
X138584Y104144D01*
X138631Y104201D01*
X138675Y104261D01*
X138716Y104323D01*
X138754Y104388D01*
X138788Y104454D01*
X138819Y104521D01*
X138847Y104590D01*
X138871Y104661D01*
X138891Y104732D01*
X138908Y104805D01*
X138921Y104878D01*
X138930Y104952D01*
X138936Y105026D01*
X138938Y105100D01*
X138938Y108768D01*
X138936Y108842D01*
X138930Y108917D01*
X138921Y108990D01*
X138908Y109063D01*
X138891Y109136D01*
X138871Y109207D01*
X138847Y109278D01*
X138819Y109347D01*
X138788Y109414D01*
X138754Y109480D01*
X138716Y109545D01*
X138675Y109607D01*
X138631Y109667D01*
X138584Y109724D01*
X138534Y109779D01*
X138481Y109832D01*
X138426Y109882D01*
X138369Y109929D01*
X138309Y109973D01*
X138247Y110014D01*
X138182Y110052D01*
X138117Y110086D01*
X138049Y110117D01*
X137980Y110145D01*
X137910Y110169D01*
X137838Y110189D01*
X137766Y110206D01*
X137692Y110219D01*
X137619Y110228D01*
X137544Y110234D01*
X137470Y110236D01*
X136003Y110236D01*
X130789Y110236D02*
X130710Y110234D01*
X130632Y110229D01*
X130554Y110219D01*
X130477Y110206D01*
X130400Y110189D01*
X130324Y110169D01*
X130249Y110145D01*
X130175Y110118D01*
X130103Y110087D01*
X130032Y110052D01*
X129964Y110015D01*
X129896Y109974D01*
X129831Y109930D01*
X129768Y109883D01*
X129708Y109833D01*
X129650Y109780D01*
X129594Y109724D01*
X129541Y109666D01*
X129491Y109606D01*
X129444Y109543D01*
X129400Y109478D01*
X129359Y109411D01*
X129322Y109342D01*
X129287Y109271D01*
X129256Y109199D01*
X129229Y109125D01*
X129205Y109050D01*
X129185Y108974D01*
X129168Y108897D01*
X129155Y108820D01*
X129145Y108742D01*
X129140Y108664D01*
X129138Y108585D01*
X130789Y110236D02*
X130878Y110234D01*
X130967Y110229D01*
X131055Y110219D01*
X131143Y110206D01*
X131230Y110190D01*
X131317Y110169D01*
X131402Y110145D01*
X131487Y110118D01*
X131570Y110087D01*
X131652Y110052D01*
X131733Y110014D01*
X131812Y109973D01*
X131888Y109929D01*
X131964Y109881D01*
X132037Y109830D01*
X132107Y109777D01*
X132176Y109720D01*
X132242Y109660D01*
X132305Y109598D01*
X132366Y109533D01*
X132424Y109466D01*
X132479Y109396D01*
X132532Y109324D01*
X132581Y109250D01*
X132627Y109174D01*
X132669Y109096D01*
X132709Y109016D01*
X132745Y108935D01*
X132778Y108852D01*
X132807Y108768D01*
X129688Y107301D02*
X129632Y107357D01*
X129578Y107416D01*
X129527Y107477D01*
X129478Y107541D01*
X129433Y107606D01*
X129390Y107674D01*
X129351Y107743D01*
X129314Y107814D01*
X129281Y107887D01*
X129252Y107961D01*
X129225Y108036D01*
X129202Y108112D01*
X129183Y108190D01*
X129167Y108268D01*
X129154Y108346D01*
X129145Y108426D01*
X129140Y108505D01*
X129138Y108585D01*
X129688Y107301D02*
X132807Y103632D01*
X129138Y103632D01*
D11*
X160020Y139950D02*
X167640Y139950D01*
X167390Y126750D02*
X160020Y126750D01*
D16*
X171002Y133362D03*
X156524Y133362D03*
D10*
X137470Y121412D02*
X136003Y121412D01*
X137470Y121412D02*
X137544Y121414D01*
X137619Y121420D01*
X137692Y121429D01*
X137766Y121442D01*
X137838Y121459D01*
X137909Y121479D01*
X137980Y121503D01*
X138049Y121531D01*
X138117Y121562D01*
X138182Y121596D01*
X138247Y121634D01*
X138309Y121675D01*
X138369Y121719D01*
X138426Y121766D01*
X138481Y121816D01*
X138534Y121869D01*
X138584Y121924D01*
X138631Y121981D01*
X138675Y122041D01*
X138716Y122103D01*
X138754Y122168D01*
X138788Y122234D01*
X138819Y122301D01*
X138847Y122370D01*
X138871Y122441D01*
X138891Y122512D01*
X138908Y122585D01*
X138921Y122658D01*
X138930Y122732D01*
X138936Y122806D01*
X138938Y122880D01*
X138938Y126548D01*
X138936Y126622D01*
X138930Y126697D01*
X138921Y126770D01*
X138908Y126843D01*
X138891Y126916D01*
X138871Y126987D01*
X138847Y127058D01*
X138819Y127127D01*
X138788Y127194D01*
X138754Y127260D01*
X138716Y127325D01*
X138675Y127387D01*
X138631Y127447D01*
X138584Y127504D01*
X138534Y127559D01*
X138481Y127612D01*
X138426Y127662D01*
X138369Y127709D01*
X138309Y127753D01*
X138247Y127794D01*
X138182Y127832D01*
X138117Y127866D01*
X138049Y127897D01*
X137980Y127925D01*
X137910Y127949D01*
X137838Y127969D01*
X137766Y127986D01*
X137692Y127999D01*
X137619Y128008D01*
X137544Y128014D01*
X137470Y128016D01*
X136003Y128016D01*
X132807Y121412D02*
X130972Y121412D01*
X130887Y121414D01*
X130803Y121420D01*
X130719Y121430D01*
X130635Y121443D01*
X130552Y121461D01*
X130470Y121482D01*
X130389Y121507D01*
X130309Y121536D01*
X130231Y121568D01*
X130155Y121604D01*
X130080Y121644D01*
X130007Y121687D01*
X129936Y121733D01*
X129867Y121782D01*
X129800Y121835D01*
X129736Y121891D01*
X129675Y121949D01*
X129617Y122010D01*
X129561Y122074D01*
X129508Y122141D01*
X129459Y122210D01*
X129413Y122281D01*
X129370Y122354D01*
X129330Y122429D01*
X129294Y122505D01*
X129262Y122583D01*
X129233Y122663D01*
X129208Y122744D01*
X129187Y122826D01*
X129169Y122909D01*
X129156Y122993D01*
X129146Y123077D01*
X129140Y123161D01*
X129138Y123246D01*
X129140Y123331D01*
X129146Y123415D01*
X129156Y123499D01*
X129169Y123583D01*
X129187Y123666D01*
X129208Y123748D01*
X129233Y123829D01*
X129262Y123909D01*
X129294Y123987D01*
X129330Y124063D01*
X129370Y124138D01*
X129413Y124211D01*
X129459Y124282D01*
X129508Y124351D01*
X129561Y124418D01*
X129617Y124482D01*
X129675Y124543D01*
X129736Y124601D01*
X129800Y124657D01*
X129867Y124710D01*
X129936Y124759D01*
X130007Y124805D01*
X130080Y124848D01*
X130155Y124888D01*
X130231Y124924D01*
X130309Y124956D01*
X130389Y124985D01*
X130470Y125010D01*
X130552Y125031D01*
X130635Y125049D01*
X130719Y125062D01*
X130803Y125072D01*
X130887Y125078D01*
X130972Y125080D01*
X130605Y128016D02*
X132807Y128016D01*
X130605Y128016D02*
X130529Y128014D01*
X130454Y128008D01*
X130379Y127999D01*
X130305Y127985D01*
X130231Y127968D01*
X130159Y127946D01*
X130087Y127922D01*
X130017Y127893D01*
X129949Y127861D01*
X129882Y127826D01*
X129817Y127787D01*
X129754Y127744D01*
X129694Y127699D01*
X129636Y127651D01*
X129580Y127599D01*
X129528Y127545D01*
X129478Y127488D01*
X129431Y127429D01*
X129387Y127368D01*
X129346Y127304D01*
X129309Y127238D01*
X129275Y127170D01*
X129245Y127101D01*
X129218Y127030D01*
X129195Y126958D01*
X129176Y126885D01*
X129161Y126811D01*
X129149Y126736D01*
X129141Y126661D01*
X129137Y126586D01*
X129137Y126510D01*
X129141Y126435D01*
X129149Y126360D01*
X129161Y126285D01*
X129176Y126211D01*
X129195Y126138D01*
X129218Y126066D01*
X129245Y125995D01*
X129275Y125926D01*
X129309Y125858D01*
X129346Y125792D01*
X129387Y125728D01*
X129431Y125667D01*
X129478Y125608D01*
X129528Y125551D01*
X129580Y125497D01*
X129636Y125445D01*
X129694Y125397D01*
X129754Y125352D01*
X129817Y125309D01*
X129882Y125270D01*
X129949Y125235D01*
X130017Y125203D01*
X130087Y125174D01*
X130159Y125150D01*
X130231Y125128D01*
X130305Y125111D01*
X130379Y125097D01*
X130454Y125088D01*
X130529Y125082D01*
X130605Y125080D01*
X130605Y125081D02*
X132073Y125081D01*
X260858Y224754D02*
X260858Y232954D01*
X248158Y232954D02*
X248158Y224754D01*
D17*
X254523Y236168D03*
X254523Y221436D03*
D12*
X251079Y253365D02*
X258445Y253365D01*
X258445Y255411D01*
X258443Y255500D01*
X258437Y255589D01*
X258427Y255678D01*
X258414Y255766D01*
X258397Y255854D01*
X258375Y255941D01*
X258350Y256026D01*
X258322Y256111D01*
X258289Y256194D01*
X258253Y256276D01*
X258214Y256356D01*
X258171Y256434D01*
X258125Y256510D01*
X258075Y256585D01*
X258022Y256657D01*
X257966Y256726D01*
X257907Y256793D01*
X257846Y256858D01*
X257781Y256919D01*
X257714Y256978D01*
X257645Y257034D01*
X257573Y257087D01*
X257498Y257137D01*
X257422Y257183D01*
X257344Y257226D01*
X257264Y257265D01*
X257182Y257301D01*
X257099Y257334D01*
X257014Y257362D01*
X256929Y257387D01*
X256842Y257409D01*
X256754Y257426D01*
X256666Y257439D01*
X256577Y257449D01*
X256488Y257455D01*
X256399Y257457D01*
X256310Y257455D01*
X256221Y257449D01*
X256132Y257439D01*
X256044Y257426D01*
X255956Y257409D01*
X255869Y257387D01*
X255784Y257362D01*
X255699Y257334D01*
X255616Y257301D01*
X255534Y257265D01*
X255454Y257226D01*
X255376Y257183D01*
X255300Y257137D01*
X255225Y257087D01*
X255153Y257034D01*
X255084Y256978D01*
X255017Y256919D01*
X254952Y256858D01*
X254891Y256793D01*
X254832Y256726D01*
X254776Y256657D01*
X254723Y256585D01*
X254673Y256510D01*
X254627Y256434D01*
X254584Y256356D01*
X254545Y256276D01*
X254509Y256194D01*
X254476Y256111D01*
X254448Y256026D01*
X254423Y255941D01*
X254401Y255854D01*
X254384Y255766D01*
X254371Y255678D01*
X254361Y255589D01*
X254355Y255500D01*
X254353Y255411D01*
X254353Y253365D01*
X254353Y255820D02*
X251079Y257457D01*
X256604Y264722D02*
X256689Y264720D01*
X256774Y264714D01*
X256858Y264704D01*
X256942Y264691D01*
X257026Y264673D01*
X257108Y264652D01*
X257189Y264627D01*
X257269Y264598D01*
X257348Y264565D01*
X257425Y264529D01*
X257500Y264489D01*
X257574Y264446D01*
X257645Y264400D01*
X257714Y264350D01*
X257781Y264297D01*
X257845Y264241D01*
X257906Y264182D01*
X257965Y264121D01*
X258021Y264057D01*
X258074Y263990D01*
X258124Y263921D01*
X258170Y263850D01*
X258213Y263776D01*
X258253Y263701D01*
X258289Y263624D01*
X258322Y263545D01*
X258351Y263465D01*
X258376Y263384D01*
X258397Y263302D01*
X258415Y263218D01*
X258428Y263134D01*
X258438Y263050D01*
X258444Y262965D01*
X258446Y262880D01*
X258445Y262880D02*
X258443Y262784D01*
X258437Y262688D01*
X258427Y262593D01*
X258414Y262498D01*
X258396Y262403D01*
X258375Y262310D01*
X258350Y262217D01*
X258321Y262126D01*
X258289Y262035D01*
X258253Y261946D01*
X258213Y261859D01*
X258170Y261773D01*
X258124Y261689D01*
X258074Y261607D01*
X258020Y261527D01*
X257964Y261450D01*
X257904Y261375D01*
X257842Y261302D01*
X257776Y261232D01*
X257708Y261164D01*
X257637Y261099D01*
X257564Y261038D01*
X257488Y260979D01*
X257409Y260923D01*
X257329Y260871D01*
X257246Y260822D01*
X257162Y260776D01*
X257076Y260734D01*
X256988Y260696D01*
X256899Y260661D01*
X256808Y260629D01*
X255172Y264107D02*
X255231Y264167D01*
X255293Y264224D01*
X255357Y264279D01*
X255424Y264330D01*
X255493Y264379D01*
X255563Y264425D01*
X255636Y264468D01*
X255710Y264508D01*
X255786Y264544D01*
X255864Y264577D01*
X255943Y264607D01*
X256023Y264634D01*
X256104Y264657D01*
X256186Y264676D01*
X256268Y264692D01*
X256352Y264705D01*
X256436Y264714D01*
X256520Y264719D01*
X256604Y264721D01*
X255171Y264107D02*
X251079Y260629D01*
X251079Y264721D01*
M02*
