G04 EAGLE Gerber RS-274X export*
G75*
%MOMM*%
%FSLAX34Y34*%
%LPD*%
%INTop Solder Mask*%
%IPPOS*%
%AMOC8*
5,1,8,0,0,1.08239X$1,22.5*%
G01*
%ADD10C,1.651000*%
%ADD11R,1.327000X1.327000*%
%ADD12R,0.527000X1.477000*%
%ADD13R,2.227000X1.727000*%
%ADD14R,1.927000X2.027000*%
%ADD15R,2.027000X2.027000*%
%ADD16C,0.203669*%
%ADD17C,0.210238*%
%ADD18R,0.728900X2.179400*%
%ADD19R,0.527000X0.727000*%
%ADD20R,0.727000X0.527000*%
%ADD21R,1.427000X1.627000*%
%ADD22R,0.887000X2.727000*%
%ADD23C,1.127000*%
%ADD24R,1.027000X1.027000*%
%ADD25P,1.787026X8X22.500000*%
%ADD26R,1.027000X1.327000*%
%ADD27C,5.461000*%
%ADD28C,0.214650*%
%ADD29R,1.527000X1.527000*%
%ADD30R,0.762000X1.143000*%
%ADD31R,2.362200X1.346200*%
%ADD32R,2.327000X3.727000*%
%ADD33C,1.102000*%
%ADD34C,1.477000*%


D10*
X474980Y273050D02*
X490220Y273050D01*
X490220Y247650D02*
X474980Y247650D01*
D11*
X345440Y27600D03*
X345440Y48600D03*
D12*
X223520Y252730D03*
X230020Y252730D03*
X217020Y252730D03*
X236520Y252730D03*
X210520Y252730D03*
D13*
X254520Y253980D03*
X192520Y253980D03*
D14*
X261520Y279480D03*
X185520Y279480D03*
D15*
X235520Y279480D03*
X211520Y279480D03*
D16*
X307367Y102117D02*
X307367Y89783D01*
X302833Y89783D01*
X302833Y102117D01*
X307367Y102117D01*
X307367Y91718D02*
X302833Y91718D01*
X302833Y93653D02*
X307367Y93653D01*
X307367Y95588D02*
X302833Y95588D01*
X302833Y97523D02*
X307367Y97523D01*
X307367Y99458D02*
X302833Y99458D01*
X302833Y101393D02*
X307367Y101393D01*
D17*
X307334Y113816D02*
X307334Y126084D01*
X307334Y113816D02*
X302866Y113816D01*
X302866Y126084D01*
X307334Y126084D01*
X307334Y115813D02*
X302866Y115813D01*
X302866Y117810D02*
X307334Y117810D01*
X307334Y119807D02*
X302866Y119807D01*
X302866Y121804D02*
X307334Y121804D01*
X307334Y123801D02*
X302866Y123801D01*
X302866Y125798D02*
X307334Y125798D01*
X319834Y102084D02*
X319834Y89816D01*
X315366Y89816D01*
X315366Y102084D01*
X319834Y102084D01*
X319834Y91813D02*
X315366Y91813D01*
X315366Y93810D02*
X319834Y93810D01*
X319834Y95807D02*
X315366Y95807D01*
X315366Y97804D02*
X319834Y97804D01*
X319834Y99801D02*
X315366Y99801D01*
X315366Y101798D02*
X319834Y101798D01*
X332334Y102084D02*
X332334Y89816D01*
X327866Y89816D01*
X327866Y102084D01*
X332334Y102084D01*
X332334Y91813D02*
X327866Y91813D01*
X327866Y93810D02*
X332334Y93810D01*
X332334Y95807D02*
X327866Y95807D01*
X327866Y97804D02*
X332334Y97804D01*
X332334Y99801D02*
X327866Y99801D01*
X327866Y101798D02*
X332334Y101798D01*
X344834Y102084D02*
X344834Y89816D01*
X340366Y89816D01*
X340366Y102084D01*
X344834Y102084D01*
X344834Y91813D02*
X340366Y91813D01*
X340366Y93810D02*
X344834Y93810D01*
X344834Y95807D02*
X340366Y95807D01*
X340366Y97804D02*
X344834Y97804D01*
X344834Y99801D02*
X340366Y99801D01*
X340366Y101798D02*
X344834Y101798D01*
X344834Y113816D02*
X344834Y126084D01*
X344834Y113816D02*
X340366Y113816D01*
X340366Y126084D01*
X344834Y126084D01*
X344834Y115813D02*
X340366Y115813D01*
X340366Y117810D02*
X344834Y117810D01*
X344834Y119807D02*
X340366Y119807D01*
X340366Y121804D02*
X344834Y121804D01*
X344834Y123801D02*
X340366Y123801D01*
X340366Y125798D02*
X344834Y125798D01*
X332334Y126084D02*
X332334Y113816D01*
X327866Y113816D01*
X327866Y126084D01*
X332334Y126084D01*
X332334Y115813D02*
X327866Y115813D01*
X327866Y117810D02*
X332334Y117810D01*
X332334Y119807D02*
X327866Y119807D01*
X327866Y121804D02*
X332334Y121804D01*
X332334Y123801D02*
X327866Y123801D01*
X327866Y125798D02*
X332334Y125798D01*
X319834Y126084D02*
X319834Y113816D01*
X315366Y113816D01*
X315366Y126084D01*
X319834Y126084D01*
X319834Y115813D02*
X315366Y115813D01*
X315366Y117810D02*
X319834Y117810D01*
X319834Y119807D02*
X315366Y119807D01*
X315366Y121804D02*
X319834Y121804D01*
X319834Y123801D02*
X315366Y123801D01*
X315366Y125798D02*
X319834Y125798D01*
D18*
X184150Y99514D03*
X196850Y99514D03*
X209550Y99514D03*
X222250Y99514D03*
X234950Y99514D03*
X247650Y99514D03*
X260350Y99514D03*
X273050Y99514D03*
X273050Y192586D03*
X260350Y192586D03*
X247650Y192586D03*
X234950Y192586D03*
X222250Y192586D03*
X209550Y192586D03*
X196850Y192586D03*
X184150Y192586D03*
D11*
X302260Y27600D03*
X302260Y48600D03*
X323850Y27600D03*
X323850Y48600D03*
D19*
X39700Y188450D03*
X50700Y188450D03*
X58700Y188450D03*
X74700Y188450D03*
X78700Y197450D03*
X82700Y188450D03*
X86700Y197450D03*
X90700Y188450D03*
X94700Y197450D03*
X98700Y188450D03*
X102700Y197450D03*
X106700Y188450D03*
X110700Y197450D03*
X114700Y188450D03*
D20*
X148700Y186950D03*
X148700Y194950D03*
X148700Y202950D03*
X148700Y210950D03*
X139700Y214950D03*
X148700Y218950D03*
X139700Y222950D03*
X148700Y226950D03*
X139700Y230950D03*
X148700Y234950D03*
X139700Y238950D03*
X148700Y242950D03*
X139700Y246950D03*
X148700Y250950D03*
X139700Y254950D03*
X148700Y258950D03*
X148700Y266950D03*
X148700Y274950D03*
X148700Y282950D03*
D19*
X138700Y281450D03*
X130700Y281450D03*
X126700Y272450D03*
X122700Y281450D03*
X118700Y272450D03*
X114700Y281450D03*
X110700Y272450D03*
X106700Y281450D03*
X102700Y272450D03*
X94700Y272450D03*
X90700Y281450D03*
X86700Y272450D03*
X82700Y281450D03*
X78700Y272450D03*
X74700Y281450D03*
X70700Y272450D03*
X62700Y272450D03*
X58700Y281450D03*
X54700Y272450D03*
X50700Y281450D03*
X46700Y272450D03*
X39700Y281450D03*
D20*
X82700Y214950D03*
X82700Y222950D03*
X82700Y230950D03*
X82700Y238950D03*
X82700Y246950D03*
X82700Y254950D03*
D21*
X181000Y222250D03*
X200000Y222250D03*
X231800Y222250D03*
X250800Y222250D03*
D22*
X50800Y142150D03*
X63500Y142150D03*
X76200Y142150D03*
X88900Y142150D03*
X101600Y142150D03*
X50800Y99150D03*
X63500Y99150D03*
X76200Y99150D03*
X88900Y99150D03*
X101600Y99150D03*
D23*
X57150Y120650D03*
X95250Y120650D03*
D24*
X105230Y30100D03*
X105230Y46100D03*
X146230Y46100D03*
X146230Y30100D03*
D21*
X391770Y154940D03*
X372770Y154940D03*
X372770Y207010D03*
X391770Y207010D03*
D25*
X298450Y247650D03*
X298450Y273050D03*
X323850Y247650D03*
X323850Y273050D03*
X349250Y247650D03*
X349250Y273050D03*
X374650Y247650D03*
X374650Y273050D03*
X400050Y247650D03*
X400050Y273050D03*
X425450Y247650D03*
X425450Y273050D03*
D26*
X373750Y24100D03*
X388250Y24100D03*
X388250Y52100D03*
X373750Y52100D03*
D27*
X44450Y44450D03*
X457200Y44450D03*
X250825Y44450D03*
D28*
X305428Y189028D02*
X309452Y189028D01*
X305428Y189028D02*
X305428Y191652D01*
X309452Y191652D01*
X309452Y189028D01*
X309452Y191068D02*
X305428Y191068D01*
X305428Y184028D02*
X309452Y184028D01*
X305428Y184028D02*
X305428Y186652D01*
X309452Y186652D01*
X309452Y184028D01*
X309452Y186068D02*
X305428Y186068D01*
X305428Y179028D02*
X309452Y179028D01*
X305428Y179028D02*
X305428Y181652D01*
X309452Y181652D01*
X309452Y179028D01*
X309452Y181068D02*
X305428Y181068D01*
X305428Y174028D02*
X309452Y174028D01*
X305428Y174028D02*
X305428Y176652D01*
X309452Y176652D01*
X309452Y174028D01*
X309452Y176068D02*
X305428Y176068D01*
X305428Y169028D02*
X309452Y169028D01*
X305428Y169028D02*
X305428Y171652D01*
X309452Y171652D01*
X309452Y169028D01*
X309452Y171068D02*
X305428Y171068D01*
X316352Y169752D02*
X316352Y165728D01*
X313728Y165728D01*
X313728Y169752D01*
X316352Y169752D01*
X316352Y167768D02*
X313728Y167768D01*
X321352Y169752D02*
X321352Y165728D01*
X318728Y165728D01*
X318728Y169752D01*
X321352Y169752D01*
X321352Y167768D02*
X318728Y167768D01*
X326352Y169752D02*
X326352Y165728D01*
X323728Y165728D01*
X323728Y169752D01*
X326352Y169752D01*
X326352Y167768D02*
X323728Y167768D01*
X330628Y171652D02*
X334652Y171652D01*
X334652Y169028D01*
X330628Y169028D01*
X330628Y171652D01*
X330628Y171068D02*
X334652Y171068D01*
X334652Y176652D02*
X330628Y176652D01*
X334652Y176652D02*
X334652Y174028D01*
X330628Y174028D01*
X330628Y176652D01*
X330628Y176068D02*
X334652Y176068D01*
X334652Y181652D02*
X330628Y181652D01*
X334652Y181652D02*
X334652Y179028D01*
X330628Y179028D01*
X330628Y181652D01*
X330628Y181068D02*
X334652Y181068D01*
X334652Y186652D02*
X330628Y186652D01*
X334652Y186652D02*
X334652Y184028D01*
X330628Y184028D01*
X330628Y186652D01*
X330628Y186068D02*
X334652Y186068D01*
X334652Y191652D02*
X330628Y191652D01*
X334652Y191652D02*
X334652Y189028D01*
X330628Y189028D01*
X330628Y191652D01*
X330628Y191068D02*
X334652Y191068D01*
X323728Y190928D02*
X323728Y194952D01*
X326352Y194952D01*
X326352Y190928D01*
X323728Y190928D01*
X323728Y192968D02*
X326352Y192968D01*
X318728Y194952D02*
X318728Y190928D01*
X318728Y194952D02*
X321352Y194952D01*
X321352Y190928D01*
X318728Y190928D01*
X318728Y192968D02*
X321352Y192968D01*
X313728Y194952D02*
X313728Y190928D01*
X313728Y194952D02*
X316352Y194952D01*
X316352Y190928D01*
X313728Y190928D01*
X313728Y192968D02*
X316352Y192968D01*
D21*
X372770Y181610D03*
X391770Y181610D03*
D29*
X476970Y175260D03*
X439970Y175260D03*
D30*
X455930Y218280D03*
X465430Y198280D03*
X446430Y198280D03*
D21*
X372770Y129540D03*
X391770Y129540D03*
D31*
X486918Y98806D03*
X486918Y121920D03*
X486918Y145034D03*
D32*
X424940Y121920D03*
D33*
X424180Y173990D03*
D34*
X107950Y65278D03*
X412750Y57150D03*
D33*
X424180Y196850D03*
D34*
X129540Y88900D03*
X416560Y73660D03*
M02*
