G04 EAGLE Gerber RS-274X export*
G75*
%MOMM*%
%FSLAX34Y34*%
%LPD*%
%INInner Layer 3*%
%IPPOS*%
%AMOC8*
5,1,8,0,0,1.08239X$1,22.5*%
G01*
%ADD10C,1.524000*%
%ADD11C,3.516000*%
%ADD12C,0.457200*%
%ADD13C,0.452400*%
%ADD14C,0.975000*%
%ADD15C,1.350000*%

G36*
X505010Y2041D02*
X505010Y2041D01*
X505068Y2039D01*
X505150Y2061D01*
X505234Y2073D01*
X505287Y2096D01*
X505343Y2111D01*
X505416Y2154D01*
X505493Y2189D01*
X505538Y2227D01*
X505588Y2256D01*
X505646Y2318D01*
X505710Y2372D01*
X505742Y2421D01*
X505782Y2464D01*
X505821Y2539D01*
X505868Y2609D01*
X505885Y2665D01*
X505912Y2717D01*
X505923Y2785D01*
X505953Y2880D01*
X505956Y2980D01*
X505967Y3048D01*
X505967Y289052D01*
X505959Y289110D01*
X505961Y289168D01*
X505939Y289250D01*
X505927Y289334D01*
X505904Y289387D01*
X505889Y289443D01*
X505846Y289516D01*
X505811Y289593D01*
X505773Y289638D01*
X505744Y289688D01*
X505682Y289746D01*
X505628Y289810D01*
X505579Y289842D01*
X505536Y289882D01*
X505461Y289921D01*
X505391Y289968D01*
X505335Y289985D01*
X505283Y290012D01*
X505215Y290023D01*
X505120Y290053D01*
X505020Y290056D01*
X504952Y290067D01*
X123293Y290067D01*
X123235Y290059D01*
X123177Y290061D01*
X123095Y290039D01*
X123011Y290027D01*
X122958Y290004D01*
X122902Y289989D01*
X122829Y289946D01*
X122752Y289911D01*
X122707Y289873D01*
X122657Y289844D01*
X122599Y289782D01*
X122535Y289728D01*
X122503Y289679D01*
X122463Y289636D01*
X122424Y289561D01*
X122377Y289491D01*
X122360Y289435D01*
X122333Y289383D01*
X122322Y289315D01*
X122292Y289220D01*
X122289Y289120D01*
X122278Y289052D01*
X122278Y286192D01*
X120208Y284122D01*
X117282Y284122D01*
X115212Y286192D01*
X115212Y289052D01*
X115204Y289110D01*
X115206Y289168D01*
X115184Y289250D01*
X115172Y289334D01*
X115149Y289387D01*
X115134Y289443D01*
X115091Y289516D01*
X115056Y289593D01*
X115018Y289638D01*
X114989Y289688D01*
X114927Y289746D01*
X114873Y289810D01*
X114824Y289842D01*
X114781Y289882D01*
X114706Y289921D01*
X114636Y289968D01*
X114580Y289985D01*
X114528Y290012D01*
X114460Y290023D01*
X114365Y290053D01*
X114265Y290056D01*
X114197Y290067D01*
X83288Y290067D01*
X83230Y290059D01*
X83172Y290061D01*
X83090Y290039D01*
X83006Y290027D01*
X82953Y290004D01*
X82897Y289989D01*
X82824Y289946D01*
X82747Y289911D01*
X82702Y289873D01*
X82652Y289844D01*
X82594Y289782D01*
X82530Y289728D01*
X82498Y289679D01*
X82458Y289636D01*
X82419Y289561D01*
X82372Y289491D01*
X82355Y289435D01*
X82328Y289383D01*
X82317Y289315D01*
X82287Y289220D01*
X82284Y289120D01*
X82273Y289052D01*
X82273Y286192D01*
X80203Y284122D01*
X77277Y284122D01*
X75207Y286192D01*
X75207Y289052D01*
X75199Y289110D01*
X75201Y289168D01*
X75179Y289250D01*
X75167Y289334D01*
X75144Y289387D01*
X75129Y289443D01*
X75086Y289516D01*
X75051Y289593D01*
X75013Y289638D01*
X74984Y289688D01*
X74922Y289746D01*
X74868Y289810D01*
X74819Y289842D01*
X74776Y289882D01*
X74701Y289921D01*
X74631Y289968D01*
X74575Y289985D01*
X74523Y290012D01*
X74455Y290023D01*
X74360Y290053D01*
X74260Y290056D01*
X74192Y290067D01*
X38481Y290067D01*
X38423Y290059D01*
X38365Y290061D01*
X38283Y290039D01*
X38199Y290027D01*
X38146Y290004D01*
X38090Y289989D01*
X38017Y289946D01*
X37940Y289911D01*
X37895Y289873D01*
X37845Y289844D01*
X37787Y289782D01*
X37723Y289728D01*
X37691Y289679D01*
X37651Y289636D01*
X37612Y289561D01*
X37565Y289491D01*
X37548Y289435D01*
X37521Y289383D01*
X37510Y289315D01*
X37480Y289220D01*
X37477Y289120D01*
X37466Y289052D01*
X37466Y172457D01*
X37093Y172084D01*
X3048Y172084D01*
X2990Y172076D01*
X2932Y172078D01*
X2850Y172056D01*
X2766Y172044D01*
X2713Y172021D01*
X2657Y172006D01*
X2584Y171963D01*
X2507Y171928D01*
X2462Y171890D01*
X2412Y171861D01*
X2354Y171799D01*
X2290Y171745D01*
X2258Y171696D01*
X2218Y171653D01*
X2179Y171578D01*
X2132Y171508D01*
X2115Y171452D01*
X2088Y171400D01*
X2077Y171332D01*
X2047Y171237D01*
X2044Y171137D01*
X2033Y171069D01*
X2033Y3048D01*
X2041Y2990D01*
X2039Y2932D01*
X2061Y2850D01*
X2073Y2766D01*
X2096Y2713D01*
X2111Y2657D01*
X2154Y2584D01*
X2189Y2507D01*
X2227Y2462D01*
X2256Y2412D01*
X2318Y2354D01*
X2372Y2290D01*
X2421Y2258D01*
X2464Y2218D01*
X2539Y2179D01*
X2609Y2132D01*
X2665Y2115D01*
X2717Y2088D01*
X2785Y2077D01*
X2880Y2047D01*
X2980Y2044D01*
X3048Y2033D01*
X504952Y2033D01*
X505010Y2041D01*
G37*
%LPC*%
G36*
X40700Y25599D02*
X40700Y25599D01*
X33772Y28469D01*
X28469Y33772D01*
X25599Y40700D01*
X25599Y48200D01*
X28469Y55128D01*
X33772Y60431D01*
X40700Y63301D01*
X48200Y63301D01*
X55128Y60431D01*
X60431Y55128D01*
X63301Y48200D01*
X63301Y40700D01*
X60431Y33772D01*
X55128Y28469D01*
X48200Y25599D01*
X40700Y25599D01*
G37*
%LPD*%
%LPC*%
G36*
X247075Y25599D02*
X247075Y25599D01*
X240147Y28469D01*
X234844Y33772D01*
X231974Y40700D01*
X231974Y48200D01*
X234844Y55128D01*
X240147Y60431D01*
X247075Y63301D01*
X254575Y63301D01*
X261503Y60431D01*
X266806Y55128D01*
X269676Y48200D01*
X269676Y40700D01*
X266806Y33772D01*
X261503Y28469D01*
X254575Y25599D01*
X247075Y25599D01*
G37*
%LPD*%
%LPC*%
G36*
X453450Y25599D02*
X453450Y25599D01*
X446522Y28469D01*
X441219Y33772D01*
X438349Y40700D01*
X438349Y48200D01*
X441219Y55128D01*
X446522Y60431D01*
X453450Y63301D01*
X460950Y63301D01*
X467878Y60431D01*
X473181Y55128D01*
X476051Y48200D01*
X476051Y40700D01*
X473181Y33772D01*
X467878Y28469D01*
X460950Y25599D01*
X453450Y25599D01*
G37*
%LPD*%
%LPC*%
G36*
X296682Y238759D02*
X296682Y238759D01*
X293414Y240113D01*
X290913Y242614D01*
X289559Y245882D01*
X289559Y249418D01*
X290913Y252686D01*
X293414Y255187D01*
X296682Y256541D01*
X300218Y256541D01*
X303486Y255187D01*
X305987Y252686D01*
X307341Y249418D01*
X307341Y245882D01*
X305987Y242614D01*
X303486Y240113D01*
X300218Y238759D01*
X296682Y238759D01*
G37*
%LPD*%
%LPC*%
G36*
X480832Y264159D02*
X480832Y264159D01*
X477564Y265513D01*
X475063Y268014D01*
X473709Y271282D01*
X473709Y274818D01*
X475063Y278086D01*
X477564Y280587D01*
X480832Y281941D01*
X484368Y281941D01*
X487636Y280587D01*
X490137Y278086D01*
X491491Y274818D01*
X491491Y271282D01*
X490137Y268014D01*
X487636Y265513D01*
X484368Y264159D01*
X480832Y264159D01*
G37*
%LPD*%
%LPC*%
G36*
X398282Y264159D02*
X398282Y264159D01*
X395014Y265513D01*
X392513Y268014D01*
X391159Y271282D01*
X391159Y274818D01*
X392513Y278086D01*
X395014Y280587D01*
X398282Y281941D01*
X401818Y281941D01*
X405086Y280587D01*
X407587Y278086D01*
X408941Y274818D01*
X408941Y271282D01*
X407587Y268014D01*
X405086Y265513D01*
X401818Y264159D01*
X398282Y264159D01*
G37*
%LPD*%
%LPC*%
G36*
X372882Y264159D02*
X372882Y264159D01*
X369614Y265513D01*
X367113Y268014D01*
X365759Y271282D01*
X365759Y274818D01*
X367113Y278086D01*
X369614Y280587D01*
X372882Y281941D01*
X376418Y281941D01*
X379686Y280587D01*
X382187Y278086D01*
X383541Y274818D01*
X383541Y271282D01*
X382187Y268014D01*
X379686Y265513D01*
X376418Y264159D01*
X372882Y264159D01*
G37*
%LPD*%
%LPC*%
G36*
X347482Y264159D02*
X347482Y264159D01*
X344214Y265513D01*
X341713Y268014D01*
X340359Y271282D01*
X340359Y274818D01*
X341713Y278086D01*
X344214Y280587D01*
X347482Y281941D01*
X351018Y281941D01*
X354286Y280587D01*
X356787Y278086D01*
X358141Y274818D01*
X358141Y271282D01*
X356787Y268014D01*
X354286Y265513D01*
X351018Y264159D01*
X347482Y264159D01*
G37*
%LPD*%
%LPC*%
G36*
X322082Y264159D02*
X322082Y264159D01*
X318814Y265513D01*
X316313Y268014D01*
X314959Y271282D01*
X314959Y274818D01*
X316313Y278086D01*
X318814Y280587D01*
X322082Y281941D01*
X325618Y281941D01*
X328886Y280587D01*
X331387Y278086D01*
X332741Y274818D01*
X332741Y271282D01*
X331387Y268014D01*
X328886Y265513D01*
X325618Y264159D01*
X322082Y264159D01*
G37*
%LPD*%
%LPC*%
G36*
X296682Y264159D02*
X296682Y264159D01*
X293414Y265513D01*
X290913Y268014D01*
X289559Y271282D01*
X289559Y274818D01*
X290913Y278086D01*
X293414Y280587D01*
X296682Y281941D01*
X300218Y281941D01*
X303486Y280587D01*
X305987Y278086D01*
X307341Y274818D01*
X307341Y271282D01*
X305987Y268014D01*
X303486Y265513D01*
X300218Y264159D01*
X296682Y264159D01*
G37*
%LPD*%
%LPC*%
G36*
X480832Y238759D02*
X480832Y238759D01*
X477564Y240113D01*
X475063Y242614D01*
X473709Y245882D01*
X473709Y249418D01*
X475063Y252686D01*
X477564Y255187D01*
X480832Y256541D01*
X484368Y256541D01*
X487636Y255187D01*
X490137Y252686D01*
X491491Y249418D01*
X491491Y245882D01*
X490137Y242614D01*
X487636Y240113D01*
X484368Y238759D01*
X480832Y238759D01*
G37*
%LPD*%
%LPC*%
G36*
X398282Y238759D02*
X398282Y238759D01*
X395014Y240113D01*
X392513Y242614D01*
X391159Y245882D01*
X391159Y249418D01*
X392513Y252686D01*
X395014Y255187D01*
X398282Y256541D01*
X401818Y256541D01*
X405086Y255187D01*
X407587Y252686D01*
X408941Y249418D01*
X408941Y245882D01*
X407587Y242614D01*
X405086Y240113D01*
X401818Y238759D01*
X398282Y238759D01*
G37*
%LPD*%
%LPC*%
G36*
X372882Y238759D02*
X372882Y238759D01*
X369614Y240113D01*
X367113Y242614D01*
X365759Y245882D01*
X365759Y249418D01*
X367113Y252686D01*
X369614Y255187D01*
X372882Y256541D01*
X376418Y256541D01*
X379686Y255187D01*
X382187Y252686D01*
X383541Y249418D01*
X383541Y245882D01*
X382187Y242614D01*
X379686Y240113D01*
X376418Y238759D01*
X372882Y238759D01*
G37*
%LPD*%
%LPC*%
G36*
X347482Y238759D02*
X347482Y238759D01*
X344214Y240113D01*
X341713Y242614D01*
X340359Y245882D01*
X340359Y249418D01*
X341713Y252686D01*
X344214Y255187D01*
X347482Y256541D01*
X351018Y256541D01*
X354286Y255187D01*
X356787Y252686D01*
X358141Y249418D01*
X358141Y245882D01*
X356787Y242614D01*
X354286Y240113D01*
X351018Y238759D01*
X347482Y238759D01*
G37*
%LPD*%
%LPC*%
G36*
X322082Y238759D02*
X322082Y238759D01*
X318814Y240113D01*
X316313Y242614D01*
X314959Y245882D01*
X314959Y249418D01*
X316313Y252686D01*
X318814Y255187D01*
X322082Y256541D01*
X325618Y256541D01*
X328886Y255187D01*
X331387Y252686D01*
X332741Y249418D01*
X332741Y245882D01*
X331387Y242614D01*
X328886Y240113D01*
X325618Y238759D01*
X322082Y238759D01*
G37*
%LPD*%
%LPC*%
G36*
X171511Y188237D02*
X171511Y188237D01*
X169441Y190307D01*
X169441Y193233D01*
X169669Y193461D01*
X169687Y193484D01*
X169709Y193503D01*
X169772Y193598D01*
X169840Y193688D01*
X169850Y193715D01*
X169866Y193740D01*
X169901Y193848D01*
X169941Y193954D01*
X169943Y193983D01*
X169952Y194011D01*
X169955Y194124D01*
X169965Y194237D01*
X169959Y194266D01*
X169960Y194295D01*
X169931Y194405D01*
X169909Y194516D01*
X169895Y194542D01*
X169888Y194570D01*
X169830Y194667D01*
X169778Y194768D01*
X169757Y194789D01*
X169742Y194815D01*
X169660Y194892D01*
X169582Y194974D01*
X169557Y194989D01*
X169535Y195009D01*
X169434Y195061D01*
X169337Y195118D01*
X169308Y195125D01*
X169282Y195139D01*
X169205Y195152D01*
X169061Y195188D01*
X168999Y195186D01*
X168951Y195194D01*
X168053Y195194D01*
X165984Y197263D01*
X165984Y200190D01*
X167006Y201212D01*
X167041Y201259D01*
X167084Y201299D01*
X167126Y201372D01*
X167177Y201439D01*
X167198Y201494D01*
X167227Y201544D01*
X167248Y201626D01*
X167278Y201705D01*
X167283Y201763D01*
X167297Y201820D01*
X167295Y201904D01*
X167302Y201988D01*
X167290Y202046D01*
X167288Y202104D01*
X167262Y202184D01*
X167246Y202267D01*
X167219Y202319D01*
X167201Y202375D01*
X167161Y202431D01*
X167115Y202519D01*
X167046Y202592D01*
X167006Y202648D01*
X165377Y204277D01*
X165377Y207203D01*
X165633Y207459D01*
X165651Y207483D01*
X165673Y207502D01*
X165736Y207596D01*
X165804Y207686D01*
X165814Y207714D01*
X165831Y207738D01*
X165865Y207846D01*
X165905Y207952D01*
X165908Y207981D01*
X165916Y208009D01*
X165919Y208123D01*
X165929Y208235D01*
X165923Y208264D01*
X165924Y208293D01*
X165895Y208403D01*
X165873Y208514D01*
X165859Y208540D01*
X165852Y208568D01*
X165794Y208666D01*
X165742Y208766D01*
X165722Y208788D01*
X165707Y208813D01*
X165624Y208890D01*
X165546Y208972D01*
X165521Y208987D01*
X165499Y209007D01*
X165399Y209059D01*
X165301Y209116D01*
X165272Y209123D01*
X165246Y209137D01*
X165169Y209150D01*
X165025Y209186D01*
X164963Y209184D01*
X164915Y209192D01*
X164272Y209192D01*
X162202Y211262D01*
X162202Y214188D01*
X164272Y216258D01*
X167198Y216258D01*
X169268Y214188D01*
X169268Y211262D01*
X169012Y211006D01*
X168994Y210982D01*
X168972Y210963D01*
X168909Y210869D01*
X168841Y210779D01*
X168831Y210751D01*
X168814Y210727D01*
X168780Y210619D01*
X168740Y210513D01*
X168737Y210484D01*
X168729Y210456D01*
X168726Y210342D01*
X168716Y210230D01*
X168722Y210201D01*
X168721Y210172D01*
X168750Y210062D01*
X168772Y209951D01*
X168786Y209925D01*
X168793Y209897D01*
X168851Y209799D01*
X168903Y209699D01*
X168923Y209677D01*
X168938Y209652D01*
X169021Y209575D01*
X169099Y209493D01*
X169124Y209478D01*
X169146Y209458D01*
X169246Y209406D01*
X169344Y209349D01*
X169373Y209342D01*
X169399Y209328D01*
X169476Y209315D01*
X169620Y209279D01*
X169682Y209281D01*
X169730Y209273D01*
X170373Y209273D01*
X172443Y207203D01*
X172443Y204277D01*
X171421Y203255D01*
X171386Y203208D01*
X171343Y203168D01*
X171300Y203095D01*
X171250Y203028D01*
X171229Y202973D01*
X171199Y202922D01*
X171179Y202841D01*
X171149Y202762D01*
X171144Y202703D01*
X171129Y202647D01*
X171132Y202563D01*
X171125Y202479D01*
X171137Y202421D01*
X171138Y202363D01*
X171164Y202282D01*
X171181Y202200D01*
X171208Y202148D01*
X171226Y202092D01*
X171266Y202036D01*
X171312Y201947D01*
X171381Y201875D01*
X171421Y201819D01*
X173050Y200190D01*
X173050Y197263D01*
X172822Y197036D01*
X172804Y197012D01*
X172782Y196993D01*
X172719Y196899D01*
X172651Y196809D01*
X172641Y196781D01*
X172624Y196757D01*
X172590Y196649D01*
X172550Y196543D01*
X172547Y196514D01*
X172539Y196486D01*
X172536Y196373D01*
X172526Y196260D01*
X172532Y196231D01*
X172531Y196202D01*
X172560Y196092D01*
X172582Y195981D01*
X172596Y195955D01*
X172603Y195927D01*
X172661Y195829D01*
X172713Y195729D01*
X172733Y195707D01*
X172748Y195682D01*
X172831Y195605D01*
X172909Y195523D01*
X172934Y195508D01*
X172956Y195488D01*
X173056Y195436D01*
X173154Y195379D01*
X173183Y195372D01*
X173209Y195358D01*
X173286Y195345D01*
X173430Y195309D01*
X173492Y195311D01*
X173540Y195303D01*
X174437Y195303D01*
X176507Y193233D01*
X176507Y190307D01*
X174437Y188237D01*
X171511Y188237D01*
G37*
%LPD*%
%LPC*%
G36*
X55751Y113617D02*
X55751Y113617D01*
X53166Y114688D01*
X51188Y116666D01*
X50117Y119251D01*
X50117Y122049D01*
X51188Y124634D01*
X53166Y126612D01*
X55751Y127683D01*
X58549Y127683D01*
X61134Y126612D01*
X63112Y124634D01*
X64183Y122049D01*
X64183Y119251D01*
X63112Y116666D01*
X61134Y114688D01*
X58549Y113617D01*
X55751Y113617D01*
G37*
%LPD*%
%LPC*%
G36*
X93851Y113617D02*
X93851Y113617D01*
X91266Y114688D01*
X89288Y116666D01*
X88217Y119251D01*
X88217Y122049D01*
X89288Y124634D01*
X91266Y126612D01*
X93851Y127683D01*
X96649Y127683D01*
X99234Y126612D01*
X101212Y124634D01*
X102283Y122049D01*
X102283Y119251D01*
X101212Y116666D01*
X99234Y114688D01*
X96649Y113617D01*
X93851Y113617D01*
G37*
%LPD*%
%LPC*%
G36*
X93777Y66293D02*
X93777Y66293D01*
X91693Y68377D01*
X91693Y71628D01*
X91685Y71686D01*
X91687Y71744D01*
X91665Y71826D01*
X91653Y71910D01*
X91630Y71963D01*
X91615Y72019D01*
X91572Y72092D01*
X91537Y72169D01*
X91499Y72214D01*
X91470Y72264D01*
X91408Y72322D01*
X91354Y72386D01*
X91305Y72418D01*
X91262Y72458D01*
X91187Y72497D01*
X91117Y72544D01*
X91061Y72561D01*
X91009Y72588D01*
X90941Y72599D01*
X90846Y72629D01*
X90746Y72632D01*
X90678Y72643D01*
X87427Y72643D01*
X85343Y74727D01*
X85343Y77673D01*
X87427Y79757D01*
X90373Y79757D01*
X92457Y77673D01*
X92457Y74422D01*
X92465Y74364D01*
X92463Y74306D01*
X92485Y74224D01*
X92497Y74140D01*
X92520Y74087D01*
X92535Y74031D01*
X92578Y73958D01*
X92613Y73881D01*
X92651Y73836D01*
X92680Y73786D01*
X92742Y73728D01*
X92796Y73664D01*
X92845Y73632D01*
X92888Y73592D01*
X92963Y73553D01*
X93033Y73506D01*
X93089Y73489D01*
X93141Y73462D01*
X93209Y73451D01*
X93304Y73421D01*
X93404Y73418D01*
X93472Y73407D01*
X96723Y73407D01*
X98807Y71323D01*
X98807Y68377D01*
X96723Y66293D01*
X93777Y66293D01*
G37*
%LPD*%
%LPC*%
G36*
X120447Y148843D02*
X120447Y148843D01*
X118363Y150927D01*
X118363Y153873D01*
X120447Y155957D01*
X123393Y155957D01*
X124377Y154973D01*
X124424Y154938D01*
X124464Y154895D01*
X124537Y154853D01*
X124604Y154802D01*
X124659Y154781D01*
X124709Y154752D01*
X124791Y154731D01*
X124870Y154701D01*
X124928Y154696D01*
X124985Y154682D01*
X125069Y154684D01*
X125153Y154677D01*
X125211Y154689D01*
X125269Y154691D01*
X125349Y154716D01*
X125432Y154733D01*
X125484Y154760D01*
X125540Y154778D01*
X125596Y154818D01*
X125684Y154864D01*
X125757Y154933D01*
X125813Y154973D01*
X126797Y155957D01*
X129743Y155957D01*
X131827Y153873D01*
X131827Y150927D01*
X129743Y148843D01*
X126797Y148843D01*
X125813Y149827D01*
X125766Y149862D01*
X125726Y149905D01*
X125653Y149947D01*
X125586Y149998D01*
X125531Y150019D01*
X125481Y150048D01*
X125399Y150069D01*
X125320Y150099D01*
X125262Y150104D01*
X125205Y150118D01*
X125121Y150116D01*
X125037Y150123D01*
X124979Y150111D01*
X124921Y150109D01*
X124841Y150083D01*
X124758Y150067D01*
X124706Y150040D01*
X124650Y150022D01*
X124594Y149982D01*
X124506Y149936D01*
X124433Y149867D01*
X124377Y149827D01*
X123393Y148843D01*
X120447Y148843D01*
G37*
%LPD*%
%LPC*%
G36*
X303327Y146938D02*
X303327Y146938D01*
X301243Y149022D01*
X301243Y150368D01*
X301235Y150426D01*
X301237Y150484D01*
X301215Y150566D01*
X301203Y150650D01*
X301180Y150703D01*
X301165Y150759D01*
X301122Y150832D01*
X301087Y150909D01*
X301049Y150954D01*
X301020Y151004D01*
X300958Y151062D01*
X300904Y151126D01*
X300855Y151158D01*
X300812Y151198D01*
X300737Y151237D01*
X300667Y151284D01*
X300611Y151301D01*
X300559Y151328D01*
X300491Y151339D01*
X300396Y151369D01*
X300296Y151372D01*
X300228Y151383D01*
X298882Y151383D01*
X296798Y153467D01*
X296798Y156413D01*
X298882Y158497D01*
X301828Y158497D01*
X303912Y156413D01*
X303912Y155067D01*
X303920Y155009D01*
X303918Y154951D01*
X303940Y154869D01*
X303952Y154785D01*
X303975Y154732D01*
X303990Y154676D01*
X304033Y154603D01*
X304068Y154526D01*
X304106Y154481D01*
X304135Y154431D01*
X304197Y154373D01*
X304251Y154309D01*
X304300Y154277D01*
X304343Y154237D01*
X304418Y154198D01*
X304488Y154151D01*
X304544Y154134D01*
X304596Y154107D01*
X304664Y154096D01*
X304759Y154066D01*
X304859Y154063D01*
X304927Y154052D01*
X306273Y154052D01*
X308357Y151968D01*
X308357Y149022D01*
X306273Y146938D01*
X303327Y146938D01*
G37*
%LPD*%
%LPC*%
G36*
X427481Y275081D02*
X427481Y275081D01*
X427481Y283016D01*
X427829Y282961D01*
X429350Y282466D01*
X430775Y281740D01*
X432069Y280800D01*
X433200Y279669D01*
X434140Y278375D01*
X434866Y276950D01*
X435361Y275429D01*
X435416Y275081D01*
X427481Y275081D01*
G37*
%LPD*%
%LPC*%
G36*
X427481Y249681D02*
X427481Y249681D01*
X427481Y257616D01*
X427829Y257561D01*
X429350Y257066D01*
X430775Y256340D01*
X432069Y255400D01*
X433200Y254269D01*
X434140Y252975D01*
X434866Y251550D01*
X435361Y250029D01*
X435416Y249681D01*
X427481Y249681D01*
G37*
%LPD*%
%LPC*%
G36*
X415484Y275081D02*
X415484Y275081D01*
X415539Y275429D01*
X416034Y276950D01*
X416760Y278375D01*
X417700Y279669D01*
X418831Y280800D01*
X420125Y281740D01*
X421550Y282466D01*
X423071Y282961D01*
X423419Y283016D01*
X423419Y275081D01*
X415484Y275081D01*
G37*
%LPD*%
%LPC*%
G36*
X427481Y245619D02*
X427481Y245619D01*
X435416Y245619D01*
X435361Y245271D01*
X434866Y243750D01*
X434140Y242325D01*
X433200Y241031D01*
X432069Y239900D01*
X430775Y238960D01*
X429350Y238234D01*
X427829Y237739D01*
X427481Y237684D01*
X427481Y245619D01*
G37*
%LPD*%
%LPC*%
G36*
X427481Y271019D02*
X427481Y271019D01*
X435416Y271019D01*
X435361Y270671D01*
X434866Y269150D01*
X434140Y267725D01*
X433200Y266431D01*
X432069Y265300D01*
X430775Y264360D01*
X429350Y263634D01*
X427829Y263139D01*
X427481Y263084D01*
X427481Y271019D01*
G37*
%LPD*%
%LPC*%
G36*
X415484Y249681D02*
X415484Y249681D01*
X415539Y250029D01*
X416034Y251550D01*
X416760Y252975D01*
X417700Y254269D01*
X418831Y255400D01*
X420125Y256340D01*
X421550Y257066D01*
X423071Y257561D01*
X423419Y257616D01*
X423419Y249681D01*
X415484Y249681D01*
G37*
%LPD*%
%LPC*%
G36*
X423071Y237739D02*
X423071Y237739D01*
X421550Y238234D01*
X420125Y238960D01*
X418831Y239900D01*
X417700Y241031D01*
X416760Y242325D01*
X416034Y243750D01*
X415539Y245271D01*
X415484Y245619D01*
X423419Y245619D01*
X423419Y237684D01*
X423071Y237739D01*
G37*
%LPD*%
%LPC*%
G36*
X423071Y263139D02*
X423071Y263139D01*
X421550Y263634D01*
X420125Y264360D01*
X418831Y265300D01*
X417700Y266431D01*
X416760Y267725D01*
X416034Y269150D01*
X415539Y270671D01*
X415484Y271019D01*
X423419Y271019D01*
X423419Y263084D01*
X423071Y263139D01*
G37*
%LPD*%
%LPC*%
G36*
X144577Y53593D02*
X144577Y53593D01*
X142493Y55677D01*
X142493Y58623D01*
X144577Y60707D01*
X147523Y60707D01*
X149607Y58623D01*
X149607Y55677D01*
X147523Y53593D01*
X144577Y53593D01*
G37*
%LPD*%
%LPC*%
G36*
X312217Y44703D02*
X312217Y44703D01*
X310133Y46787D01*
X310133Y49733D01*
X312217Y51817D01*
X315163Y51817D01*
X317247Y49733D01*
X317247Y46787D01*
X315163Y44703D01*
X312217Y44703D01*
G37*
%LPD*%
%LPC*%
G36*
X129972Y251078D02*
X129972Y251078D01*
X127888Y253162D01*
X127888Y256108D01*
X129972Y258192D01*
X132918Y258192D01*
X135002Y256108D01*
X135002Y253162D01*
X132918Y251078D01*
X129972Y251078D01*
G37*
%LPD*%
%LPC*%
G36*
X295707Y33908D02*
X295707Y33908D01*
X293623Y35992D01*
X293623Y38938D01*
X295707Y41022D01*
X298653Y41022D01*
X300737Y38938D01*
X300737Y35992D01*
X298653Y33908D01*
X295707Y33908D01*
G37*
%LPD*%
%LPC*%
G36*
X333553Y32384D02*
X333553Y32384D01*
X331469Y34468D01*
X331469Y37414D01*
X333553Y39498D01*
X336499Y39498D01*
X338583Y37414D01*
X338583Y34468D01*
X336499Y32384D01*
X333553Y32384D01*
G37*
%LPD*%
%LPC*%
G36*
X171247Y268858D02*
X171247Y268858D01*
X169163Y270942D01*
X169163Y273888D01*
X171247Y275972D01*
X174193Y275972D01*
X176277Y273888D01*
X176277Y270942D01*
X174193Y268858D01*
X171247Y268858D01*
G37*
%LPD*%
%LPC*%
G36*
X100762Y261873D02*
X100762Y261873D01*
X98678Y263957D01*
X98678Y266903D01*
X100762Y268987D01*
X103708Y268987D01*
X105792Y266903D01*
X105792Y263957D01*
X103708Y261873D01*
X100762Y261873D01*
G37*
%LPD*%
%LPC*%
G36*
X138862Y257428D02*
X138862Y257428D01*
X136778Y259512D01*
X136778Y262458D01*
X138862Y264542D01*
X141808Y264542D01*
X143892Y262458D01*
X143892Y259512D01*
X141808Y257428D01*
X138862Y257428D01*
G37*
%LPD*%
%LPC*%
G36*
X121082Y244728D02*
X121082Y244728D01*
X118998Y246812D01*
X118998Y249758D01*
X121082Y251842D01*
X124028Y251842D01*
X126112Y249758D01*
X126112Y246812D01*
X124028Y244728D01*
X121082Y244728D01*
G37*
%LPD*%
%LPC*%
G36*
X88697Y239648D02*
X88697Y239648D01*
X86613Y241732D01*
X86613Y244678D01*
X88697Y246762D01*
X91643Y246762D01*
X93727Y244678D01*
X93727Y241732D01*
X91643Y239648D01*
X88697Y239648D01*
G37*
%LPD*%
%LPC*%
G36*
X297612Y227583D02*
X297612Y227583D01*
X295528Y229667D01*
X295528Y232613D01*
X297612Y234697D01*
X300558Y234697D01*
X302642Y232613D01*
X302642Y229667D01*
X300558Y227583D01*
X297612Y227583D01*
G37*
%LPD*%
%LPC*%
G36*
X338887Y226313D02*
X338887Y226313D01*
X336803Y228397D01*
X336803Y231343D01*
X338887Y233427D01*
X341833Y233427D01*
X343917Y231343D01*
X343917Y228397D01*
X341833Y226313D01*
X338887Y226313D01*
G37*
%LPD*%
%LPC*%
G36*
X107747Y204088D02*
X107747Y204088D01*
X105663Y206172D01*
X105663Y209118D01*
X107747Y211202D01*
X110693Y211202D01*
X112777Y209118D01*
X112777Y206172D01*
X110693Y204088D01*
X107747Y204088D01*
G37*
%LPD*%
%LPC*%
G36*
X62662Y204088D02*
X62662Y204088D01*
X60578Y206172D01*
X60578Y209118D01*
X62662Y211202D01*
X65608Y211202D01*
X67692Y209118D01*
X67692Y206172D01*
X65608Y204088D01*
X62662Y204088D01*
G37*
%LPD*%
%LPC*%
G36*
X390322Y202437D02*
X390322Y202437D01*
X388238Y204521D01*
X388238Y207467D01*
X390322Y209551D01*
X393268Y209551D01*
X395352Y207467D01*
X395352Y204521D01*
X393268Y202437D01*
X390322Y202437D01*
G37*
%LPD*%
%LPC*%
G36*
X96952Y200278D02*
X96952Y200278D01*
X94868Y202362D01*
X94868Y205308D01*
X96952Y207392D01*
X99898Y207392D01*
X101982Y205308D01*
X101982Y202362D01*
X99898Y200278D01*
X96952Y200278D01*
G37*
%LPD*%
%LPC*%
G36*
X53772Y199008D02*
X53772Y199008D01*
X51688Y201092D01*
X51688Y204038D01*
X53772Y206122D01*
X56718Y206122D01*
X58802Y204038D01*
X58802Y201092D01*
X56718Y199008D01*
X53772Y199008D01*
G37*
%LPD*%
%LPC*%
G36*
X42342Y196468D02*
X42342Y196468D01*
X40258Y198552D01*
X40258Y201498D01*
X42342Y203582D01*
X45288Y203582D01*
X47372Y201498D01*
X47372Y198552D01*
X45288Y196468D01*
X42342Y196468D01*
G37*
%LPD*%
%LPC*%
G36*
X390322Y189483D02*
X390322Y189483D01*
X388238Y191567D01*
X388238Y194513D01*
X390322Y196597D01*
X393268Y196597D01*
X395352Y194513D01*
X395352Y191567D01*
X393268Y189483D01*
X390322Y189483D01*
G37*
%LPD*%
%LPC*%
G36*
X163627Y174243D02*
X163627Y174243D01*
X161543Y176327D01*
X161543Y179273D01*
X163627Y181357D01*
X166573Y181357D01*
X168657Y179273D01*
X168657Y176327D01*
X166573Y174243D01*
X163627Y174243D01*
G37*
%LPD*%
%LPC*%
G36*
X306502Y160908D02*
X306502Y160908D01*
X304418Y162992D01*
X304418Y165938D01*
X306502Y168022D01*
X309448Y168022D01*
X311532Y165938D01*
X311532Y162992D01*
X309448Y160908D01*
X306502Y160908D01*
G37*
%LPD*%
%LPC*%
G36*
X59487Y155828D02*
X59487Y155828D01*
X57403Y157912D01*
X57403Y160858D01*
X59487Y162942D01*
X62433Y162942D01*
X64517Y160858D01*
X64517Y157912D01*
X62433Y155828D01*
X59487Y155828D01*
G37*
%LPD*%
%LPC*%
G36*
X284912Y151383D02*
X284912Y151383D01*
X282828Y153467D01*
X282828Y156413D01*
X284912Y158497D01*
X287858Y158497D01*
X289942Y156413D01*
X289942Y153467D01*
X287858Y151383D01*
X284912Y151383D01*
G37*
%LPD*%
%LPC*%
G36*
X329997Y150748D02*
X329997Y150748D01*
X327913Y152832D01*
X327913Y155778D01*
X329997Y157862D01*
X332943Y157862D01*
X335027Y155778D01*
X335027Y152832D01*
X332943Y150748D01*
X329997Y150748D01*
G37*
%LPD*%
%LPC*%
G36*
X107747Y146938D02*
X107747Y146938D01*
X105663Y149022D01*
X105663Y151968D01*
X107747Y154052D01*
X110693Y154052D01*
X112777Y151968D01*
X112777Y149022D01*
X110693Y146938D01*
X107747Y146938D01*
G37*
%LPD*%
%LPC*%
G36*
X183957Y143773D02*
X183957Y143773D01*
X181873Y145857D01*
X181873Y148803D01*
X183957Y150887D01*
X186903Y150887D01*
X188987Y148803D01*
X188987Y145857D01*
X186903Y143773D01*
X183957Y143773D01*
G37*
%LPD*%
%LPC*%
G36*
X243002Y141223D02*
X243002Y141223D01*
X240918Y143307D01*
X240918Y146253D01*
X243002Y148337D01*
X245948Y148337D01*
X248032Y146253D01*
X248032Y143307D01*
X245948Y141223D01*
X243002Y141223D01*
G37*
%LPD*%
%LPC*%
G36*
X284912Y139953D02*
X284912Y139953D01*
X282828Y142037D01*
X282828Y144983D01*
X284912Y147067D01*
X287858Y147067D01*
X289942Y144983D01*
X289942Y142037D01*
X287858Y139953D01*
X284912Y139953D01*
G37*
%LPD*%
%LPC*%
G36*
X430327Y132333D02*
X430327Y132333D01*
X428243Y134417D01*
X428243Y137363D01*
X430327Y139447D01*
X433273Y139447D01*
X435357Y137363D01*
X435357Y134417D01*
X433273Y132333D01*
X430327Y132333D01*
G37*
%LPD*%
%LPC*%
G36*
X131877Y129793D02*
X131877Y129793D01*
X129793Y131877D01*
X129793Y134823D01*
X131877Y136907D01*
X134823Y136907D01*
X136907Y134823D01*
X136907Y131877D01*
X134823Y129793D01*
X131877Y129793D01*
G37*
%LPD*%
%LPC*%
G36*
X458267Y128523D02*
X458267Y128523D01*
X456183Y130607D01*
X456183Y133553D01*
X458267Y135637D01*
X461213Y135637D01*
X463297Y133553D01*
X463297Y130607D01*
X461213Y128523D01*
X458267Y128523D01*
G37*
%LPD*%
%LPC*%
G36*
X446837Y128523D02*
X446837Y128523D01*
X444753Y130607D01*
X444753Y133553D01*
X446837Y135637D01*
X449783Y135637D01*
X451867Y133553D01*
X451867Y130607D01*
X449783Y128523D01*
X446837Y128523D01*
G37*
%LPD*%
%LPC*%
G36*
X70917Y118998D02*
X70917Y118998D01*
X68833Y121082D01*
X68833Y124028D01*
X70917Y126112D01*
X73863Y126112D01*
X75947Y124028D01*
X75947Y121082D01*
X73863Y118998D01*
X70917Y118998D01*
G37*
%LPD*%
%LPC*%
G36*
X257607Y118363D02*
X257607Y118363D01*
X255523Y120447D01*
X255523Y123393D01*
X257607Y125477D01*
X260553Y125477D01*
X262637Y123393D01*
X262637Y120447D01*
X260553Y118363D01*
X257607Y118363D01*
G37*
%LPD*%
%LPC*%
G36*
X430327Y104393D02*
X430327Y104393D01*
X428243Y106477D01*
X428243Y109423D01*
X430327Y111507D01*
X433273Y111507D01*
X435357Y109423D01*
X435357Y106477D01*
X433273Y104393D01*
X430327Y104393D01*
G37*
%LPD*%
%LPC*%
G36*
X290627Y85343D02*
X290627Y85343D01*
X288543Y87427D01*
X288543Y90373D01*
X290627Y92457D01*
X293573Y92457D01*
X295657Y90373D01*
X295657Y87427D01*
X293573Y85343D01*
X290627Y85343D01*
G37*
%LPD*%
%LPC*%
G36*
X195377Y81533D02*
X195377Y81533D01*
X193293Y83617D01*
X193293Y86563D01*
X195377Y88647D01*
X198323Y88647D01*
X200407Y86563D01*
X200407Y83617D01*
X198323Y81533D01*
X195377Y81533D01*
G37*
%LPD*%
%LPC*%
G36*
X49327Y78993D02*
X49327Y78993D01*
X47243Y81077D01*
X47243Y84023D01*
X49327Y86107D01*
X52273Y86107D01*
X54357Y84023D01*
X54357Y81077D01*
X52273Y78993D01*
X49327Y78993D01*
G37*
%LPD*%
%LPC*%
G36*
X309677Y59181D02*
X309677Y59181D01*
X307593Y61265D01*
X307593Y64211D01*
X309677Y66295D01*
X312623Y66295D01*
X314707Y64211D01*
X314707Y61265D01*
X312623Y59181D01*
X309677Y59181D01*
G37*
%LPD*%
%LPC*%
G36*
X335077Y54228D02*
X335077Y54228D01*
X332993Y56312D01*
X332993Y59258D01*
X335077Y61342D01*
X338023Y61342D01*
X340107Y59258D01*
X340107Y56312D01*
X338023Y54228D01*
X335077Y54228D01*
G37*
%LPD*%
%LPC*%
G36*
X67117Y278407D02*
X67117Y278407D01*
X65047Y280477D01*
X65047Y283403D01*
X67117Y285473D01*
X70043Y285473D01*
X72113Y283403D01*
X72113Y280477D01*
X70043Y278407D01*
X67117Y278407D01*
G37*
%LPD*%
%LPC*%
G36*
X95057Y275867D02*
X95057Y275867D01*
X92987Y277937D01*
X92987Y280863D01*
X95057Y282933D01*
X97983Y282933D01*
X100053Y280863D01*
X100053Y277937D01*
X97983Y275867D01*
X95057Y275867D01*
G37*
%LPD*%
%LPC*%
G36*
X277937Y269517D02*
X277937Y269517D01*
X275867Y271587D01*
X275867Y274513D01*
X277937Y276583D01*
X280863Y276583D01*
X282933Y274513D01*
X282933Y271587D01*
X280863Y269517D01*
X277937Y269517D01*
G37*
%LPD*%
%LPC*%
G36*
X161097Y269517D02*
X161097Y269517D01*
X159027Y271587D01*
X159027Y274513D01*
X161097Y276583D01*
X164023Y276583D01*
X166093Y274513D01*
X166093Y271587D01*
X164023Y269517D01*
X161097Y269517D01*
G37*
%LPD*%
%LPC*%
G36*
X351597Y116863D02*
X351597Y116863D01*
X349527Y118933D01*
X349527Y121859D01*
X351597Y123929D01*
X354523Y123929D01*
X356593Y121859D01*
X356593Y118933D01*
X354523Y116863D01*
X351597Y116863D01*
G37*
%LPD*%
%LPC*%
G36*
X280442Y172997D02*
X280442Y172997D01*
X278372Y175067D01*
X278372Y177993D01*
X280442Y180063D01*
X283368Y180063D01*
X285438Y177993D01*
X285438Y175067D01*
X283368Y172997D01*
X280442Y172997D01*
G37*
%LPD*%
%LPC*%
G36*
X346517Y104417D02*
X346517Y104417D01*
X344447Y106487D01*
X344447Y109413D01*
X346517Y111483D01*
X349443Y111483D01*
X351513Y109413D01*
X351513Y106487D01*
X349443Y104417D01*
X346517Y104417D01*
G37*
%LPD*%
%LPC*%
G36*
X283781Y98067D02*
X283781Y98067D01*
X281711Y100137D01*
X281711Y103063D01*
X283781Y105133D01*
X286707Y105133D01*
X288777Y103063D01*
X288777Y100137D01*
X286707Y98067D01*
X283781Y98067D01*
G37*
%LPD*%
%LPC*%
G36*
X392237Y89177D02*
X392237Y89177D01*
X390167Y91247D01*
X390167Y94173D01*
X392237Y96243D01*
X395163Y96243D01*
X397233Y94173D01*
X397233Y91247D01*
X395163Y89177D01*
X392237Y89177D01*
G37*
%LPD*%
%LPC*%
G36*
X266507Y167917D02*
X266507Y167917D01*
X264437Y169987D01*
X264437Y172913D01*
X266507Y174983D01*
X269433Y174983D01*
X271503Y172913D01*
X271503Y169987D01*
X269433Y167917D01*
X266507Y167917D01*
G37*
%LPD*%
%LPC*%
G36*
X331561Y216177D02*
X331561Y216177D01*
X329491Y218247D01*
X329491Y221173D01*
X331561Y223243D01*
X334487Y223243D01*
X336557Y221173D01*
X336557Y218247D01*
X334487Y216177D01*
X331561Y216177D01*
G37*
%LPD*%
%LPC*%
G36*
X415732Y148867D02*
X415732Y148867D01*
X413662Y150937D01*
X413662Y153863D01*
X415732Y155933D01*
X418658Y155933D01*
X420728Y153863D01*
X420728Y150937D01*
X418658Y148867D01*
X415732Y148867D01*
G37*
%LPD*%
%LPC*%
G36*
X373187Y79017D02*
X373187Y79017D01*
X371117Y81087D01*
X371117Y84013D01*
X373187Y86083D01*
X376113Y86083D01*
X378183Y84013D01*
X378183Y81087D01*
X376113Y79017D01*
X373187Y79017D01*
G37*
%LPD*%
%LPC*%
G36*
X134427Y270787D02*
X134427Y270787D01*
X132357Y272857D01*
X132357Y275783D01*
X134427Y277853D01*
X137353Y277853D01*
X139423Y275783D01*
X139423Y272857D01*
X137353Y270787D01*
X134427Y270787D01*
G37*
%LPD*%
%LPC*%
G36*
X56957Y178331D02*
X56957Y178331D01*
X54887Y180401D01*
X54887Y183327D01*
X56957Y185397D01*
X59883Y185397D01*
X61953Y183327D01*
X61953Y180401D01*
X59883Y178331D01*
X56957Y178331D01*
G37*
%LPD*%
%LPC*%
G36*
X157287Y254912D02*
X157287Y254912D01*
X155217Y256982D01*
X155217Y259908D01*
X157287Y261978D01*
X160213Y261978D01*
X162283Y259908D01*
X162283Y256982D01*
X160213Y254912D01*
X157287Y254912D01*
G37*
%LPD*%
%LPC*%
G36*
X72832Y261897D02*
X72832Y261897D01*
X70762Y263967D01*
X70762Y266893D01*
X72832Y268963D01*
X75758Y268963D01*
X77828Y266893D01*
X77828Y263967D01*
X75758Y261897D01*
X72832Y261897D01*
G37*
%LPD*%
%LPC*%
G36*
X164907Y230147D02*
X164907Y230147D01*
X162837Y232217D01*
X162837Y235143D01*
X164907Y237213D01*
X167833Y237213D01*
X169903Y235143D01*
X169903Y232217D01*
X167833Y230147D01*
X164907Y230147D01*
G37*
%LPD*%
%LPC*%
G36*
X308417Y195857D02*
X308417Y195857D01*
X306347Y197927D01*
X306347Y200853D01*
X308417Y202923D01*
X311343Y202923D01*
X313413Y200853D01*
X313413Y197927D01*
X311343Y195857D01*
X308417Y195857D01*
G37*
%LPD*%
%LPC*%
G36*
X191704Y204239D02*
X191704Y204239D01*
X189634Y206309D01*
X189634Y209235D01*
X191704Y211305D01*
X194630Y211305D01*
X196700Y209235D01*
X196700Y206309D01*
X194630Y204239D01*
X191704Y204239D01*
G37*
%LPD*%
%LPC*%
G36*
X185227Y118387D02*
X185227Y118387D01*
X183157Y120457D01*
X183157Y123383D01*
X185227Y125453D01*
X188153Y125453D01*
X190223Y123383D01*
X190223Y120457D01*
X188153Y118387D01*
X185227Y118387D01*
G37*
%LPD*%
%LPC*%
G36*
X425449Y273049D02*
X425449Y273049D01*
X425449Y273051D01*
X425451Y273051D01*
X425451Y273049D01*
X425449Y273049D01*
G37*
%LPD*%
%LPC*%
G36*
X425449Y247649D02*
X425449Y247649D01*
X425449Y247651D01*
X425451Y247651D01*
X425451Y247649D01*
X425449Y247649D01*
G37*
%LPD*%
D10*
X482600Y273050D03*
X482600Y247650D03*
X298450Y247650D03*
X298450Y273050D03*
X323850Y247650D03*
X323850Y273050D03*
X349250Y247650D03*
X349250Y273050D03*
X374650Y247650D03*
X374650Y273050D03*
X400050Y247650D03*
X400050Y273050D03*
X425450Y247650D03*
X425450Y273050D03*
D11*
X44450Y44450D03*
X457200Y44450D03*
X250825Y44450D03*
D12*
X317500Y149606D03*
X34290Y166370D03*
D13*
X49530Y260350D03*
X285750Y82550D03*
X488950Y184150D03*
D14*
X424180Y173990D03*
D12*
X330200Y139700D03*
X355600Y177800D03*
D13*
X161290Y283210D03*
X279400Y285750D03*
D12*
X172720Y285750D03*
X190500Y238760D03*
X266700Y234950D03*
D13*
X322580Y208280D03*
D12*
X281940Y167640D03*
X252730Y145419D03*
D13*
X95250Y260350D03*
D12*
X76200Y76200D03*
X40640Y140970D03*
D13*
X222250Y165100D03*
D12*
X335280Y16510D03*
X393700Y38100D03*
D13*
X406400Y12700D03*
D12*
X342900Y171450D03*
D15*
X107950Y65278D03*
X412750Y57150D03*
D14*
X424180Y196850D03*
D12*
X292100Y57150D03*
D15*
X129540Y88900D03*
X416560Y73660D03*
D13*
X41910Y260350D03*
D12*
X182880Y20320D03*
X213360Y22860D03*
X289560Y21590D03*
X290830Y134620D03*
X405130Y231140D03*
X17780Y166370D03*
D13*
X260350Y207010D03*
X367030Y132080D03*
X226060Y77470D03*
D12*
X87630Y19050D03*
X12700Y12700D03*
D13*
X494030Y13970D03*
X488950Y223520D03*
D12*
X27940Y86360D03*
D13*
X274320Y82550D03*
D12*
X76200Y99150D03*
D13*
X177292Y205740D03*
D12*
X125730Y116840D03*
D13*
X134620Y200660D03*
X416560Y93980D03*
D12*
X209550Y151130D03*
X153670Y151130D03*
X175260Y80010D03*
X467360Y85090D03*
X132080Y265430D03*
X76200Y168300D03*
X331470Y154305D03*
X391795Y205994D03*
X259080Y121920D03*
D13*
X172974Y191770D03*
D12*
X131445Y254635D03*
X122555Y248285D03*
X244475Y144780D03*
X300355Y154940D03*
D13*
X166370Y233680D03*
D12*
X336550Y57785D03*
X292100Y88900D03*
X335026Y35941D03*
X286385Y143510D03*
X286385Y154940D03*
X311150Y62738D03*
D13*
X285244Y101600D03*
D12*
X307975Y164465D03*
X140335Y260985D03*
D13*
X347980Y107950D03*
D12*
X391795Y193040D03*
X196850Y85090D03*
X50800Y82550D03*
D13*
X333024Y219710D03*
D12*
X340360Y229870D03*
D13*
X374650Y82550D03*
D12*
X448310Y132080D03*
X459740Y132080D03*
X431800Y135890D03*
X431800Y107950D03*
D13*
X118745Y287655D03*
X193167Y207772D03*
X78740Y287655D03*
D12*
X72390Y122555D03*
X185430Y147330D03*
D13*
X186690Y121920D03*
X353060Y120396D03*
X393700Y92710D03*
D12*
X128270Y152400D03*
X133350Y133350D03*
D13*
X158750Y258445D03*
D12*
X172720Y272415D03*
X297180Y37465D03*
X313690Y48260D03*
X43815Y200025D03*
X60960Y159385D03*
X109220Y207645D03*
X109220Y150495D03*
X88900Y76200D03*
X146050Y57150D03*
D13*
X309880Y199390D03*
X267970Y171450D03*
X68580Y281940D03*
X162560Y273050D03*
X279400Y273050D03*
X74295Y265430D03*
X135890Y274320D03*
X58420Y181864D03*
D12*
X102235Y265430D03*
X90170Y243205D03*
D13*
X96520Y279400D03*
D12*
X299085Y231140D03*
X98425Y203835D03*
D13*
X165735Y212725D03*
D12*
X165100Y177800D03*
X121920Y152400D03*
X304800Y150495D03*
D13*
X417195Y152400D03*
D12*
X55245Y202565D03*
X64135Y207645D03*
X95250Y69850D03*
D13*
X168910Y205740D03*
X169517Y198727D03*
X281905Y176530D03*
M02*
