G04 EAGLE Gerber RS-274X export*
G75*
%MOMM*%
%FSLAX34Y34*%
%LPD*%
%INBottom Solder Mask*%
%IPPOS*%
%AMOC8*
5,1,8,0,0,1.08239X$1,22.5*%
G01*
%ADD10C,1.651000*%
%ADD11R,1.327000X0.660400*%
%ADD12R,1.327000X0.677000*%
%ADD13R,1.427000X1.627000*%
%ADD14R,1.627000X1.427000*%
%ADD15C,1.127000*%
%ADD16R,0.660400X2.108200*%
%ADD17R,2.108200X0.660400*%
%ADD18P,1.787026X8X22.500000*%
%ADD19R,0.427000X0.977000*%
%ADD20R,0.977000X0.427000*%
%ADD21R,1.397000X0.927000*%
%ADD22C,5.461000*%
%ADD23R,2.027000X1.227000*%
%ADD24C,1.102000*%
%ADD25C,1.477000*%


D10*
X474980Y273050D02*
X490220Y273050D01*
X490220Y247650D02*
X474980Y247650D01*
D11*
X291800Y168300D03*
X291800Y177800D03*
X291800Y187300D03*
D12*
X317800Y187300D03*
X317800Y168300D03*
D13*
X314300Y107950D03*
X295300Y107950D03*
X365100Y133350D03*
X346100Y133350D03*
X263500Y184150D03*
X244500Y184150D03*
X314300Y133350D03*
X295300Y133350D03*
D14*
X177800Y219100D03*
X177800Y238100D03*
D13*
X365100Y107950D03*
X346100Y107950D03*
X200050Y133350D03*
X219050Y133350D03*
D14*
X228600Y219100D03*
X228600Y238100D03*
X50800Y187300D03*
X50800Y168300D03*
D13*
X200050Y107950D03*
X219050Y107950D03*
X244500Y107950D03*
X263500Y107950D03*
X244500Y133350D03*
X263500Y133350D03*
D14*
X152400Y219100D03*
X152400Y238100D03*
X203200Y219100D03*
X203200Y238100D03*
X127000Y238100D03*
X127000Y219100D03*
D15*
X57150Y120650D03*
X95250Y120650D03*
D16*
X127000Y69850D03*
X139700Y69850D03*
X152400Y69850D03*
X165100Y69850D03*
X165100Y20320D03*
X152400Y20320D03*
X139700Y20320D03*
X127000Y20320D03*
X355600Y69850D03*
X368300Y69850D03*
X381000Y69850D03*
X393700Y69850D03*
X393700Y20320D03*
X381000Y20320D03*
X368300Y20320D03*
X355600Y20320D03*
D17*
X406400Y177800D03*
X406400Y190500D03*
X406400Y203200D03*
X406400Y215900D03*
X455930Y215900D03*
X455930Y203200D03*
X455930Y190500D03*
X455930Y177800D03*
D18*
X298450Y247650D03*
X298450Y273050D03*
X323850Y247650D03*
X323850Y273050D03*
X349250Y247650D03*
X349250Y273050D03*
X374650Y247650D03*
X374650Y273050D03*
X400050Y247650D03*
X400050Y273050D03*
X425450Y247650D03*
X425450Y273050D03*
D19*
X342750Y217700D03*
X342750Y188700D03*
D20*
X335750Y210700D03*
X335750Y205700D03*
X335750Y200700D03*
X335750Y195700D03*
D21*
X362750Y208200D03*
X362750Y198200D03*
D19*
X347750Y188700D03*
X347750Y217700D03*
D13*
X365100Y158750D03*
X346100Y158750D03*
X301600Y215900D03*
X282600Y215900D03*
D14*
X101600Y187300D03*
X101600Y168300D03*
X76200Y187300D03*
X76200Y168300D03*
X127000Y187300D03*
X127000Y168300D03*
X152400Y187300D03*
X152400Y168300D03*
D22*
X44450Y44450D03*
X457200Y44450D03*
X250825Y44450D03*
D13*
X415900Y133350D03*
X396900Y133350D03*
X415900Y107950D03*
X396900Y107950D03*
X466700Y107950D03*
X447700Y107950D03*
X244500Y158750D03*
X263500Y158750D03*
D14*
X101600Y238100D03*
X101600Y219100D03*
X50800Y238100D03*
X50800Y219100D03*
X76200Y238100D03*
X76200Y219100D03*
D23*
X186944Y189038D03*
X186944Y165038D03*
D13*
X174600Y107950D03*
X155600Y107950D03*
X173330Y133350D03*
X154330Y133350D03*
D14*
X254508Y219354D03*
X254508Y238354D03*
D24*
X424180Y173990D03*
D25*
X107950Y65278D03*
X412750Y57150D03*
D24*
X424180Y196850D03*
D25*
X129540Y88900D03*
X416560Y73660D03*
M02*
