G04 EAGLE Gerber RS-274X export*
G75*
%MOMM*%
%FSLAX34Y34*%
%LPD*%
%INTop Silkscreen*%
%IPPOS*%
%AMOC8*
5,1,8,0,0,1.08239X$1,22.5*%
G01*
%ADD10C,0.152400*%
%ADD11C,0.076200*%
%ADD12R,0.508000X0.508000*%
%ADD13C,0.127000*%
%ADD14C,0.101600*%
%ADD15R,0.150000X0.300000*%
%ADD16R,0.300000X0.300000*%
%ADD17R,1.350000X0.600000*%
%ADD18C,0.300000*%
%ADD19C,0.200000*%
%ADD20C,0.500000*%
%ADD21C,0.120000*%
%ADD22C,0.025400*%
%ADD23R,0.400000X0.600000*%
%ADD24R,0.600000X0.400000*%
%ADD25C,0.203200*%
%ADD26R,0.650000X1.400000*%
%ADD27C,0.177800*%
%ADD28C,0.508000*%
%ADD29C,0.050800*%
%ADD30C,0.100000*%
%ADD31R,0.750100X1.450100*%
%ADD32R,0.750000X0.850000*%
%ADD33R,0.200000X1.000000*%
%ADD34R,0.457200X0.584200*%
%ADD35R,1.854200X3.200400*%
%ADD36R,1.854200X0.863600*%

G36*
X21298Y80033D02*
X21298Y80033D01*
X21397Y80047D01*
X21408Y80053D01*
X21421Y80055D01*
X21507Y80106D01*
X21594Y80153D01*
X21603Y80163D01*
X21614Y80170D01*
X21677Y80247D01*
X21743Y80322D01*
X21747Y80334D01*
X21755Y80344D01*
X21787Y80438D01*
X21823Y80531D01*
X21823Y80544D01*
X21827Y80556D01*
X21824Y80655D01*
X21825Y80755D01*
X21821Y80769D01*
X21821Y80781D01*
X21803Y80824D01*
X21767Y80934D01*
X16767Y90934D01*
X16741Y90969D01*
X16722Y91010D01*
X16674Y91059D01*
X16633Y91113D01*
X16596Y91138D01*
X16564Y91169D01*
X16502Y91198D01*
X16445Y91235D01*
X16401Y91245D01*
X16361Y91264D01*
X16293Y91269D01*
X16226Y91284D01*
X16181Y91278D01*
X16137Y91281D01*
X16071Y91262D01*
X16003Y91253D01*
X15964Y91232D01*
X15921Y91220D01*
X15866Y91179D01*
X15806Y91147D01*
X15776Y91113D01*
X15740Y91087D01*
X15691Y91016D01*
X15657Y90978D01*
X15649Y90957D01*
X15633Y90934D01*
X10633Y80934D01*
X10605Y80838D01*
X10573Y80744D01*
X10573Y80731D01*
X10569Y80718D01*
X10576Y80619D01*
X10579Y80519D01*
X10584Y80508D01*
X10585Y80495D01*
X10626Y80404D01*
X10664Y80312D01*
X10672Y80302D01*
X10678Y80290D01*
X10748Y80219D01*
X10815Y80146D01*
X10827Y80140D01*
X10836Y80131D01*
X10926Y80089D01*
X11015Y80043D01*
X11029Y80041D01*
X11039Y80036D01*
X11086Y80033D01*
X11200Y80016D01*
X21200Y80016D01*
X21298Y80033D01*
G37*
G36*
X456515Y172253D02*
X456515Y172253D01*
X456586Y172251D01*
X456656Y172270D01*
X456727Y172278D01*
X456782Y172303D01*
X456861Y172323D01*
X456964Y172384D01*
X457033Y172415D01*
X460033Y174415D01*
X460120Y174492D01*
X460210Y174565D01*
X460225Y174587D01*
X460245Y174605D01*
X460307Y174702D01*
X460374Y174797D01*
X460382Y174823D01*
X460397Y174845D01*
X460429Y174956D01*
X460467Y175066D01*
X460468Y175093D01*
X460475Y175118D01*
X460475Y175234D01*
X460481Y175350D01*
X460475Y175376D01*
X460475Y175403D01*
X460443Y175514D01*
X460417Y175627D01*
X460404Y175650D01*
X460396Y175676D01*
X460334Y175774D01*
X460278Y175875D01*
X460260Y175891D01*
X460245Y175916D01*
X460037Y176101D01*
X460033Y176105D01*
X457033Y178105D01*
X456969Y178136D01*
X456909Y178176D01*
X456841Y178197D01*
X456777Y178228D01*
X456706Y178240D01*
X456638Y178261D01*
X456567Y178263D01*
X456497Y178275D01*
X456425Y178267D01*
X456354Y178269D01*
X456285Y178251D01*
X456214Y178242D01*
X456148Y178215D01*
X456079Y178197D01*
X456018Y178160D01*
X455952Y178133D01*
X455896Y178088D01*
X455834Y178052D01*
X455785Y178000D01*
X455730Y177955D01*
X455689Y177897D01*
X455640Y177844D01*
X455607Y177781D01*
X455566Y177723D01*
X455543Y177655D01*
X455510Y177591D01*
X455500Y177532D01*
X455473Y177454D01*
X455467Y177335D01*
X455455Y177260D01*
X455455Y173260D01*
X455465Y173189D01*
X455465Y173117D01*
X455485Y173049D01*
X455495Y172979D01*
X455524Y172913D01*
X455544Y172844D01*
X455582Y172784D01*
X455611Y172719D01*
X455657Y172664D01*
X455695Y172604D01*
X455749Y172556D01*
X455795Y172502D01*
X455854Y172462D01*
X455908Y172415D01*
X455972Y172384D01*
X456031Y172345D01*
X456100Y172323D01*
X456164Y172292D01*
X456234Y172280D01*
X456302Y172259D01*
X456374Y172257D01*
X456445Y172245D01*
X456515Y172253D01*
G37*
D10*
X459006Y273812D02*
X459006Y284649D01*
X464425Y279231D02*
X453588Y279231D01*
D11*
X290999Y222631D02*
X288671Y222631D01*
X290999Y222631D02*
X291094Y222633D01*
X291189Y222639D01*
X291283Y222648D01*
X291377Y222662D01*
X291471Y222679D01*
X291563Y222700D01*
X291655Y222725D01*
X291745Y222754D01*
X291835Y222786D01*
X291923Y222822D01*
X292009Y222862D01*
X292094Y222904D01*
X292177Y222951D01*
X292258Y223001D01*
X292336Y223054D01*
X292413Y223110D01*
X292487Y223169D01*
X292559Y223231D01*
X292628Y223296D01*
X292695Y223364D01*
X292758Y223434D01*
X292819Y223508D01*
X292877Y223583D01*
X292931Y223661D01*
X292983Y223741D01*
X293031Y223823D01*
X293075Y223906D01*
X293117Y223992D01*
X293154Y224079D01*
X293188Y224168D01*
X293219Y224258D01*
X293246Y224349D01*
X293269Y224441D01*
X293288Y224534D01*
X293303Y224628D01*
X293315Y224722D01*
X293323Y224817D01*
X293327Y224912D01*
X293327Y225006D01*
X293323Y225101D01*
X293315Y225196D01*
X293303Y225290D01*
X293288Y225384D01*
X293269Y225477D01*
X293246Y225569D01*
X293219Y225660D01*
X293188Y225750D01*
X293154Y225839D01*
X293117Y225926D01*
X293075Y226012D01*
X293031Y226095D01*
X292983Y226177D01*
X292931Y226257D01*
X292877Y226335D01*
X292819Y226410D01*
X292758Y226484D01*
X292695Y226554D01*
X292628Y226622D01*
X292559Y226687D01*
X292487Y226749D01*
X292413Y226808D01*
X292336Y226864D01*
X292258Y226917D01*
X292177Y226967D01*
X292094Y227014D01*
X292009Y227056D01*
X291923Y227096D01*
X291835Y227132D01*
X291745Y227164D01*
X291655Y227193D01*
X291563Y227218D01*
X291471Y227239D01*
X291377Y227256D01*
X291283Y227270D01*
X291189Y227279D01*
X291094Y227285D01*
X290999Y227287D01*
X291465Y231013D02*
X288671Y231013D01*
X291465Y231013D02*
X291550Y231011D01*
X291634Y231005D01*
X291719Y230996D01*
X291802Y230982D01*
X291885Y230965D01*
X291968Y230944D01*
X292049Y230919D01*
X292129Y230891D01*
X292207Y230859D01*
X292284Y230823D01*
X292360Y230784D01*
X292433Y230742D01*
X292504Y230696D01*
X292574Y230647D01*
X292641Y230595D01*
X292705Y230540D01*
X292767Y230482D01*
X292827Y230422D01*
X292883Y230358D01*
X292937Y230293D01*
X292987Y230224D01*
X293034Y230154D01*
X293078Y230082D01*
X293119Y230007D01*
X293156Y229931D01*
X293190Y229853D01*
X293220Y229774D01*
X293247Y229693D01*
X293270Y229612D01*
X293289Y229529D01*
X293304Y229446D01*
X293316Y229362D01*
X293324Y229277D01*
X293328Y229192D01*
X293328Y229108D01*
X293324Y229023D01*
X293316Y228938D01*
X293304Y228854D01*
X293289Y228771D01*
X293270Y228688D01*
X293247Y228607D01*
X293220Y228526D01*
X293190Y228447D01*
X293156Y228369D01*
X293119Y228293D01*
X293078Y228219D01*
X293034Y228146D01*
X292987Y228076D01*
X292937Y228007D01*
X292883Y227942D01*
X292827Y227878D01*
X292767Y227818D01*
X292705Y227760D01*
X292641Y227705D01*
X292574Y227653D01*
X292504Y227604D01*
X292433Y227558D01*
X292360Y227516D01*
X292284Y227477D01*
X292207Y227441D01*
X292129Y227409D01*
X292049Y227381D01*
X291968Y227356D01*
X291885Y227335D01*
X291802Y227318D01*
X291719Y227304D01*
X291634Y227295D01*
X291550Y227289D01*
X291465Y227287D01*
X291465Y227288D02*
X289602Y227288D01*
X296435Y231013D02*
X299229Y222631D01*
X302023Y231013D01*
X305130Y222631D02*
X307458Y222631D01*
X307553Y222633D01*
X307648Y222639D01*
X307742Y222648D01*
X307836Y222662D01*
X307930Y222679D01*
X308022Y222700D01*
X308114Y222725D01*
X308204Y222754D01*
X308294Y222786D01*
X308382Y222822D01*
X308468Y222862D01*
X308553Y222904D01*
X308636Y222951D01*
X308717Y223001D01*
X308795Y223054D01*
X308872Y223110D01*
X308946Y223169D01*
X309018Y223231D01*
X309087Y223296D01*
X309154Y223364D01*
X309217Y223434D01*
X309278Y223508D01*
X309336Y223583D01*
X309390Y223661D01*
X309442Y223741D01*
X309490Y223823D01*
X309534Y223906D01*
X309576Y223992D01*
X309613Y224079D01*
X309647Y224168D01*
X309678Y224258D01*
X309705Y224349D01*
X309728Y224441D01*
X309747Y224534D01*
X309762Y224628D01*
X309774Y224722D01*
X309782Y224817D01*
X309786Y224912D01*
X309786Y225006D01*
X309782Y225101D01*
X309774Y225196D01*
X309762Y225290D01*
X309747Y225384D01*
X309728Y225477D01*
X309705Y225569D01*
X309678Y225660D01*
X309647Y225750D01*
X309613Y225839D01*
X309576Y225926D01*
X309534Y226012D01*
X309490Y226095D01*
X309442Y226177D01*
X309390Y226257D01*
X309336Y226335D01*
X309278Y226410D01*
X309217Y226484D01*
X309154Y226554D01*
X309087Y226622D01*
X309018Y226687D01*
X308946Y226749D01*
X308872Y226808D01*
X308795Y226864D01*
X308717Y226917D01*
X308636Y226967D01*
X308553Y227014D01*
X308468Y227056D01*
X308382Y227096D01*
X308294Y227132D01*
X308204Y227164D01*
X308114Y227193D01*
X308022Y227218D01*
X307930Y227239D01*
X307836Y227256D01*
X307742Y227270D01*
X307648Y227279D01*
X307553Y227285D01*
X307458Y227287D01*
X307924Y231013D02*
X305130Y231013D01*
X307924Y231013D02*
X308009Y231011D01*
X308093Y231005D01*
X308178Y230996D01*
X308261Y230982D01*
X308344Y230965D01*
X308427Y230944D01*
X308508Y230919D01*
X308588Y230891D01*
X308666Y230859D01*
X308743Y230823D01*
X308819Y230784D01*
X308892Y230742D01*
X308963Y230696D01*
X309033Y230647D01*
X309100Y230595D01*
X309164Y230540D01*
X309226Y230482D01*
X309286Y230422D01*
X309342Y230358D01*
X309396Y230293D01*
X309446Y230224D01*
X309493Y230154D01*
X309537Y230082D01*
X309578Y230007D01*
X309615Y229931D01*
X309649Y229853D01*
X309679Y229774D01*
X309706Y229693D01*
X309729Y229612D01*
X309748Y229529D01*
X309763Y229446D01*
X309775Y229362D01*
X309783Y229277D01*
X309787Y229192D01*
X309787Y229108D01*
X309783Y229023D01*
X309775Y228938D01*
X309763Y228854D01*
X309748Y228771D01*
X309729Y228688D01*
X309706Y228607D01*
X309679Y228526D01*
X309649Y228447D01*
X309615Y228369D01*
X309578Y228293D01*
X309537Y228219D01*
X309493Y228146D01*
X309446Y228076D01*
X309396Y228007D01*
X309342Y227942D01*
X309286Y227878D01*
X309226Y227818D01*
X309164Y227760D01*
X309100Y227705D01*
X309033Y227653D01*
X308963Y227604D01*
X308892Y227558D01*
X308819Y227516D01*
X308743Y227477D01*
X308666Y227441D01*
X308588Y227409D01*
X308508Y227381D01*
X308427Y227356D01*
X308344Y227335D01*
X308261Y227318D01*
X308178Y227304D01*
X308093Y227295D01*
X308009Y227289D01*
X307924Y227287D01*
X307924Y227288D02*
X306061Y227288D01*
X320269Y222631D02*
X320355Y222633D01*
X320441Y222639D01*
X320526Y222649D01*
X320611Y222663D01*
X320696Y222680D01*
X320779Y222702D01*
X320861Y222728D01*
X320942Y222757D01*
X321022Y222790D01*
X321099Y222826D01*
X321176Y222866D01*
X321250Y222910D01*
X321322Y222957D01*
X321392Y223007D01*
X321459Y223061D01*
X321524Y223117D01*
X321586Y223177D01*
X321646Y223239D01*
X321702Y223304D01*
X321756Y223371D01*
X321806Y223441D01*
X321853Y223513D01*
X321897Y223587D01*
X321937Y223664D01*
X321973Y223742D01*
X322006Y223821D01*
X322035Y223902D01*
X322061Y223984D01*
X322083Y224067D01*
X322100Y224152D01*
X322114Y224237D01*
X322124Y224322D01*
X322130Y224408D01*
X322132Y224494D01*
X320269Y222631D02*
X320145Y222633D01*
X320021Y222639D01*
X319897Y222649D01*
X319773Y222662D01*
X319650Y222680D01*
X319528Y222701D01*
X319406Y222727D01*
X319285Y222756D01*
X319165Y222789D01*
X319047Y222826D01*
X318929Y222866D01*
X318813Y222910D01*
X318698Y222958D01*
X318585Y223009D01*
X318474Y223064D01*
X318364Y223123D01*
X318256Y223185D01*
X318150Y223250D01*
X318047Y223319D01*
X317945Y223390D01*
X317846Y223465D01*
X317750Y223543D01*
X317655Y223624D01*
X317564Y223708D01*
X317475Y223795D01*
X317707Y229150D02*
X317709Y229234D01*
X317714Y229317D01*
X317724Y229400D01*
X317737Y229483D01*
X317754Y229565D01*
X317774Y229646D01*
X317798Y229726D01*
X317826Y229805D01*
X317857Y229882D01*
X317891Y229958D01*
X317929Y230033D01*
X317971Y230106D01*
X318015Y230176D01*
X318063Y230245D01*
X318113Y230312D01*
X318167Y230376D01*
X318223Y230437D01*
X318283Y230497D01*
X318344Y230553D01*
X318408Y230607D01*
X318475Y230657D01*
X318544Y230705D01*
X318614Y230749D01*
X318687Y230791D01*
X318762Y230829D01*
X318838Y230863D01*
X318915Y230894D01*
X318994Y230922D01*
X319074Y230946D01*
X319155Y230966D01*
X319237Y230983D01*
X319320Y230996D01*
X319403Y231006D01*
X319486Y231011D01*
X319570Y231013D01*
X319570Y231014D02*
X319682Y231012D01*
X319795Y231007D01*
X319907Y230998D01*
X320018Y230985D01*
X320130Y230969D01*
X320240Y230949D01*
X320350Y230926D01*
X320459Y230899D01*
X320567Y230869D01*
X320675Y230835D01*
X320781Y230798D01*
X320885Y230757D01*
X320989Y230713D01*
X321091Y230666D01*
X321191Y230615D01*
X321290Y230561D01*
X321387Y230504D01*
X321482Y230444D01*
X321575Y230381D01*
X321666Y230315D01*
X318638Y227520D02*
X318566Y227565D01*
X318495Y227613D01*
X318427Y227665D01*
X318361Y227719D01*
X318298Y227776D01*
X318237Y227836D01*
X318179Y227899D01*
X318124Y227965D01*
X318072Y228032D01*
X318024Y228102D01*
X317978Y228174D01*
X317936Y228249D01*
X317897Y228325D01*
X317861Y228402D01*
X317829Y228481D01*
X317801Y228562D01*
X317776Y228644D01*
X317755Y228727D01*
X317738Y228810D01*
X317724Y228895D01*
X317715Y228979D01*
X317709Y229065D01*
X317707Y229150D01*
X321200Y226124D02*
X321272Y226079D01*
X321343Y226031D01*
X321411Y225979D01*
X321477Y225925D01*
X321540Y225868D01*
X321601Y225808D01*
X321659Y225745D01*
X321714Y225679D01*
X321766Y225612D01*
X321814Y225542D01*
X321860Y225470D01*
X321902Y225395D01*
X321941Y225319D01*
X321977Y225242D01*
X322009Y225163D01*
X322037Y225082D01*
X322062Y225000D01*
X322083Y224917D01*
X322100Y224834D01*
X322114Y224749D01*
X322123Y224665D01*
X322129Y224579D01*
X322131Y224494D01*
X321200Y226124D02*
X318639Y227521D01*
X327268Y222631D02*
X329131Y222631D01*
X327268Y222631D02*
X327184Y222633D01*
X327101Y222638D01*
X327018Y222648D01*
X326935Y222661D01*
X326853Y222678D01*
X326772Y222698D01*
X326692Y222722D01*
X326613Y222750D01*
X326536Y222781D01*
X326460Y222815D01*
X326385Y222853D01*
X326312Y222895D01*
X326242Y222939D01*
X326173Y222987D01*
X326106Y223037D01*
X326042Y223091D01*
X325981Y223147D01*
X325921Y223207D01*
X325865Y223268D01*
X325811Y223332D01*
X325761Y223399D01*
X325713Y223468D01*
X325669Y223538D01*
X325627Y223611D01*
X325589Y223686D01*
X325555Y223762D01*
X325524Y223839D01*
X325496Y223918D01*
X325472Y223998D01*
X325452Y224079D01*
X325435Y224161D01*
X325422Y224244D01*
X325412Y224327D01*
X325407Y224410D01*
X325405Y224494D01*
X325405Y229150D01*
X325407Y229236D01*
X325413Y229322D01*
X325423Y229407D01*
X325437Y229492D01*
X325454Y229577D01*
X325476Y229660D01*
X325502Y229742D01*
X325531Y229823D01*
X325564Y229902D01*
X325600Y229980D01*
X325640Y230057D01*
X325684Y230131D01*
X325731Y230203D01*
X325781Y230273D01*
X325835Y230340D01*
X325891Y230405D01*
X325951Y230467D01*
X326013Y230527D01*
X326078Y230583D01*
X326145Y230637D01*
X326215Y230687D01*
X326287Y230734D01*
X326361Y230778D01*
X326438Y230818D01*
X326515Y230854D01*
X326595Y230887D01*
X326676Y230916D01*
X326758Y230942D01*
X326841Y230964D01*
X326926Y230981D01*
X327011Y230995D01*
X327096Y231005D01*
X327182Y231011D01*
X327268Y231013D01*
X329131Y231013D01*
X332579Y231013D02*
X332579Y222631D01*
X336304Y222631D01*
X346329Y222631D02*
X346415Y222633D01*
X346501Y222639D01*
X346586Y222649D01*
X346671Y222663D01*
X346756Y222680D01*
X346839Y222702D01*
X346921Y222728D01*
X347002Y222757D01*
X347082Y222790D01*
X347159Y222826D01*
X347236Y222866D01*
X347310Y222910D01*
X347382Y222957D01*
X347452Y223007D01*
X347519Y223061D01*
X347584Y223117D01*
X347646Y223177D01*
X347706Y223239D01*
X347762Y223304D01*
X347816Y223371D01*
X347866Y223441D01*
X347913Y223513D01*
X347957Y223587D01*
X347997Y223664D01*
X348033Y223742D01*
X348066Y223821D01*
X348095Y223902D01*
X348121Y223984D01*
X348143Y224067D01*
X348160Y224152D01*
X348174Y224237D01*
X348184Y224322D01*
X348190Y224408D01*
X348192Y224494D01*
X346329Y222631D02*
X346205Y222633D01*
X346081Y222639D01*
X345957Y222649D01*
X345833Y222662D01*
X345710Y222680D01*
X345588Y222701D01*
X345466Y222727D01*
X345345Y222756D01*
X345225Y222789D01*
X345107Y222826D01*
X344989Y222866D01*
X344873Y222910D01*
X344758Y222958D01*
X344645Y223009D01*
X344534Y223064D01*
X344424Y223123D01*
X344316Y223185D01*
X344210Y223250D01*
X344107Y223319D01*
X344005Y223390D01*
X343906Y223465D01*
X343810Y223543D01*
X343715Y223624D01*
X343624Y223708D01*
X343535Y223795D01*
X343767Y229150D02*
X343769Y229234D01*
X343774Y229317D01*
X343784Y229400D01*
X343797Y229483D01*
X343814Y229565D01*
X343834Y229646D01*
X343858Y229726D01*
X343886Y229805D01*
X343917Y229882D01*
X343951Y229958D01*
X343989Y230033D01*
X344031Y230106D01*
X344075Y230176D01*
X344123Y230245D01*
X344173Y230312D01*
X344227Y230376D01*
X344283Y230437D01*
X344343Y230497D01*
X344404Y230553D01*
X344468Y230607D01*
X344535Y230657D01*
X344604Y230705D01*
X344674Y230749D01*
X344747Y230791D01*
X344822Y230829D01*
X344898Y230863D01*
X344975Y230894D01*
X345054Y230922D01*
X345134Y230946D01*
X345215Y230966D01*
X345297Y230983D01*
X345380Y230996D01*
X345463Y231006D01*
X345546Y231011D01*
X345630Y231013D01*
X345630Y231014D02*
X345742Y231012D01*
X345855Y231007D01*
X345967Y230998D01*
X346078Y230985D01*
X346190Y230969D01*
X346300Y230949D01*
X346410Y230926D01*
X346519Y230899D01*
X346627Y230869D01*
X346735Y230835D01*
X346841Y230798D01*
X346945Y230757D01*
X347049Y230713D01*
X347151Y230666D01*
X347251Y230615D01*
X347350Y230561D01*
X347447Y230504D01*
X347542Y230444D01*
X347635Y230381D01*
X347726Y230315D01*
X344698Y227520D02*
X344626Y227565D01*
X344555Y227613D01*
X344487Y227665D01*
X344421Y227719D01*
X344358Y227776D01*
X344297Y227836D01*
X344239Y227899D01*
X344184Y227965D01*
X344132Y228032D01*
X344084Y228102D01*
X344038Y228174D01*
X343996Y228249D01*
X343957Y228325D01*
X343921Y228402D01*
X343889Y228481D01*
X343861Y228562D01*
X343836Y228644D01*
X343815Y228727D01*
X343798Y228810D01*
X343784Y228895D01*
X343775Y228979D01*
X343769Y229065D01*
X343767Y229150D01*
X347261Y226124D02*
X347333Y226079D01*
X347404Y226031D01*
X347472Y225979D01*
X347538Y225925D01*
X347601Y225868D01*
X347662Y225808D01*
X347720Y225745D01*
X347775Y225679D01*
X347827Y225612D01*
X347875Y225542D01*
X347921Y225470D01*
X347963Y225395D01*
X348002Y225319D01*
X348038Y225242D01*
X348070Y225163D01*
X348098Y225082D01*
X348123Y225000D01*
X348144Y224917D01*
X348161Y224834D01*
X348175Y224749D01*
X348184Y224665D01*
X348190Y224579D01*
X348192Y224494D01*
X347260Y226124D02*
X344699Y227521D01*
X351765Y231013D02*
X351765Y222631D01*
X351765Y231013D02*
X354093Y231013D01*
X354187Y231011D01*
X354280Y231005D01*
X354374Y230996D01*
X354466Y230983D01*
X354559Y230966D01*
X354650Y230945D01*
X354741Y230921D01*
X354830Y230893D01*
X354919Y230862D01*
X355005Y230827D01*
X355091Y230788D01*
X355175Y230746D01*
X355257Y230701D01*
X355337Y230653D01*
X355415Y230601D01*
X355492Y230546D01*
X355565Y230488D01*
X355637Y230428D01*
X355706Y230364D01*
X355772Y230298D01*
X355836Y230229D01*
X355896Y230157D01*
X355954Y230084D01*
X356009Y230007D01*
X356061Y229929D01*
X356109Y229849D01*
X356154Y229767D01*
X356196Y229683D01*
X356235Y229597D01*
X356270Y229511D01*
X356301Y229422D01*
X356329Y229333D01*
X356353Y229242D01*
X356374Y229151D01*
X356391Y229058D01*
X356404Y228966D01*
X356413Y228872D01*
X356419Y228779D01*
X356421Y228685D01*
X356421Y224959D01*
X356419Y224865D01*
X356413Y224772D01*
X356404Y224678D01*
X356391Y224586D01*
X356374Y224493D01*
X356353Y224402D01*
X356329Y224311D01*
X356301Y224222D01*
X356270Y224133D01*
X356235Y224047D01*
X356196Y223961D01*
X356154Y223877D01*
X356109Y223795D01*
X356061Y223715D01*
X356009Y223637D01*
X355954Y223560D01*
X355896Y223487D01*
X355836Y223415D01*
X355772Y223346D01*
X355706Y223280D01*
X355637Y223216D01*
X355565Y223156D01*
X355492Y223098D01*
X355415Y223043D01*
X355337Y222991D01*
X355257Y222943D01*
X355175Y222898D01*
X355091Y222856D01*
X355005Y222817D01*
X354919Y222782D01*
X354830Y222751D01*
X354741Y222723D01*
X354650Y222699D01*
X354559Y222678D01*
X354466Y222661D01*
X354374Y222648D01*
X354280Y222639D01*
X354187Y222633D01*
X354093Y222631D01*
X351765Y222631D01*
X359803Y222631D02*
X362597Y231013D01*
X365391Y222631D01*
X364692Y224727D02*
X360501Y224727D01*
X372747Y221234D02*
X372747Y232410D01*
X380842Y231013D02*
X380842Y224959D01*
X380843Y224959D02*
X380845Y224864D01*
X380851Y224769D01*
X380860Y224675D01*
X380874Y224581D01*
X380891Y224487D01*
X380912Y224395D01*
X380937Y224303D01*
X380966Y224213D01*
X380998Y224123D01*
X381034Y224035D01*
X381074Y223949D01*
X381116Y223864D01*
X381163Y223781D01*
X381213Y223700D01*
X381266Y223622D01*
X381322Y223545D01*
X381381Y223471D01*
X381443Y223399D01*
X381508Y223330D01*
X381576Y223263D01*
X381646Y223200D01*
X381720Y223139D01*
X381795Y223081D01*
X381873Y223027D01*
X381953Y222975D01*
X382035Y222927D01*
X382118Y222883D01*
X382204Y222841D01*
X382291Y222804D01*
X382380Y222770D01*
X382470Y222739D01*
X382561Y222712D01*
X382653Y222689D01*
X382746Y222670D01*
X382840Y222655D01*
X382934Y222643D01*
X383029Y222635D01*
X383124Y222631D01*
X383218Y222631D01*
X383313Y222635D01*
X383408Y222643D01*
X383502Y222655D01*
X383596Y222670D01*
X383689Y222689D01*
X383781Y222712D01*
X383872Y222739D01*
X383962Y222770D01*
X384051Y222804D01*
X384138Y222841D01*
X384224Y222883D01*
X384307Y222927D01*
X384389Y222975D01*
X384469Y223027D01*
X384547Y223081D01*
X384622Y223139D01*
X384696Y223200D01*
X384766Y223263D01*
X384834Y223330D01*
X384899Y223399D01*
X384961Y223471D01*
X385020Y223545D01*
X385076Y223622D01*
X385129Y223700D01*
X385179Y223781D01*
X385226Y223864D01*
X385268Y223949D01*
X385308Y224035D01*
X385344Y224123D01*
X385376Y224213D01*
X385405Y224303D01*
X385430Y224395D01*
X385451Y224487D01*
X385468Y224581D01*
X385482Y224675D01*
X385491Y224769D01*
X385497Y224864D01*
X385499Y224959D01*
X385499Y231013D01*
X393729Y224494D02*
X393727Y224408D01*
X393721Y224322D01*
X393711Y224237D01*
X393697Y224152D01*
X393680Y224067D01*
X393658Y223984D01*
X393632Y223902D01*
X393603Y223821D01*
X393570Y223742D01*
X393534Y223664D01*
X393494Y223587D01*
X393450Y223513D01*
X393403Y223441D01*
X393353Y223371D01*
X393299Y223304D01*
X393243Y223239D01*
X393183Y223177D01*
X393121Y223117D01*
X393056Y223061D01*
X392989Y223007D01*
X392919Y222957D01*
X392847Y222910D01*
X392773Y222866D01*
X392696Y222826D01*
X392619Y222790D01*
X392539Y222757D01*
X392458Y222728D01*
X392376Y222702D01*
X392293Y222680D01*
X392208Y222663D01*
X392123Y222649D01*
X392038Y222639D01*
X391952Y222633D01*
X391866Y222631D01*
X391742Y222633D01*
X391618Y222639D01*
X391494Y222649D01*
X391370Y222662D01*
X391247Y222680D01*
X391125Y222701D01*
X391003Y222727D01*
X390882Y222756D01*
X390762Y222789D01*
X390644Y222826D01*
X390526Y222866D01*
X390410Y222910D01*
X390295Y222958D01*
X390182Y223009D01*
X390071Y223064D01*
X389961Y223123D01*
X389853Y223185D01*
X389747Y223250D01*
X389644Y223319D01*
X389542Y223390D01*
X389443Y223465D01*
X389347Y223543D01*
X389252Y223624D01*
X389161Y223708D01*
X389072Y223795D01*
X389304Y229150D02*
X389306Y229234D01*
X389311Y229317D01*
X389321Y229400D01*
X389334Y229483D01*
X389351Y229565D01*
X389371Y229646D01*
X389395Y229726D01*
X389423Y229805D01*
X389454Y229882D01*
X389488Y229958D01*
X389526Y230033D01*
X389568Y230106D01*
X389612Y230176D01*
X389660Y230245D01*
X389710Y230312D01*
X389764Y230376D01*
X389820Y230437D01*
X389880Y230497D01*
X389941Y230553D01*
X390005Y230607D01*
X390072Y230657D01*
X390141Y230705D01*
X390211Y230749D01*
X390284Y230791D01*
X390359Y230829D01*
X390435Y230863D01*
X390512Y230894D01*
X390591Y230922D01*
X390671Y230946D01*
X390752Y230966D01*
X390834Y230983D01*
X390917Y230996D01*
X391000Y231006D01*
X391083Y231011D01*
X391167Y231013D01*
X391167Y231014D02*
X391279Y231012D01*
X391392Y231007D01*
X391504Y230998D01*
X391615Y230985D01*
X391727Y230969D01*
X391837Y230949D01*
X391947Y230926D01*
X392056Y230899D01*
X392164Y230869D01*
X392272Y230835D01*
X392378Y230798D01*
X392482Y230757D01*
X392586Y230713D01*
X392688Y230666D01*
X392788Y230615D01*
X392887Y230561D01*
X392984Y230504D01*
X393079Y230444D01*
X393172Y230381D01*
X393263Y230315D01*
X390235Y227520D02*
X390163Y227565D01*
X390092Y227613D01*
X390024Y227665D01*
X389958Y227719D01*
X389895Y227776D01*
X389834Y227836D01*
X389776Y227899D01*
X389721Y227965D01*
X389669Y228032D01*
X389621Y228102D01*
X389575Y228174D01*
X389533Y228249D01*
X389494Y228325D01*
X389458Y228402D01*
X389426Y228481D01*
X389398Y228562D01*
X389373Y228644D01*
X389352Y228727D01*
X389335Y228810D01*
X389321Y228895D01*
X389312Y228979D01*
X389306Y229065D01*
X389304Y229150D01*
X392798Y226124D02*
X392870Y226079D01*
X392941Y226031D01*
X393009Y225979D01*
X393075Y225925D01*
X393138Y225868D01*
X393199Y225808D01*
X393257Y225745D01*
X393312Y225679D01*
X393364Y225612D01*
X393412Y225542D01*
X393458Y225470D01*
X393500Y225395D01*
X393539Y225319D01*
X393575Y225242D01*
X393607Y225163D01*
X393635Y225082D01*
X393660Y225000D01*
X393681Y224917D01*
X393698Y224834D01*
X393712Y224749D01*
X393721Y224665D01*
X393727Y224579D01*
X393729Y224494D01*
X392797Y226124D02*
X390236Y227521D01*
X397356Y231013D02*
X397356Y222631D01*
X397356Y231013D02*
X399684Y231013D01*
X399779Y231011D01*
X399874Y231005D01*
X399968Y230996D01*
X400062Y230982D01*
X400156Y230965D01*
X400248Y230944D01*
X400340Y230919D01*
X400430Y230890D01*
X400520Y230858D01*
X400608Y230822D01*
X400694Y230782D01*
X400779Y230740D01*
X400862Y230693D01*
X400943Y230643D01*
X401021Y230590D01*
X401098Y230534D01*
X401172Y230475D01*
X401244Y230413D01*
X401313Y230348D01*
X401380Y230280D01*
X401443Y230210D01*
X401504Y230136D01*
X401562Y230061D01*
X401616Y229983D01*
X401668Y229903D01*
X401716Y229821D01*
X401760Y229738D01*
X401802Y229652D01*
X401839Y229565D01*
X401873Y229476D01*
X401904Y229386D01*
X401931Y229295D01*
X401954Y229203D01*
X401973Y229110D01*
X401988Y229016D01*
X402000Y228922D01*
X402008Y228827D01*
X402012Y228732D01*
X402012Y228638D01*
X402008Y228543D01*
X402000Y228448D01*
X401988Y228354D01*
X401973Y228260D01*
X401954Y228167D01*
X401931Y228075D01*
X401904Y227984D01*
X401873Y227894D01*
X401839Y227805D01*
X401802Y227718D01*
X401760Y227632D01*
X401716Y227549D01*
X401668Y227467D01*
X401616Y227387D01*
X401562Y227309D01*
X401504Y227234D01*
X401443Y227160D01*
X401380Y227090D01*
X401313Y227022D01*
X401244Y226957D01*
X401172Y226895D01*
X401098Y226836D01*
X401021Y226780D01*
X400943Y226727D01*
X400862Y226677D01*
X400779Y226630D01*
X400694Y226588D01*
X400608Y226548D01*
X400520Y226512D01*
X400430Y226480D01*
X400340Y226451D01*
X400248Y226426D01*
X400156Y226405D01*
X400062Y226388D01*
X399968Y226374D01*
X399874Y226365D01*
X399779Y226359D01*
X399684Y226357D01*
X399684Y226356D02*
X397356Y226356D01*
X400150Y226356D02*
X402012Y222631D01*
X413454Y227288D02*
X414851Y227288D01*
X414851Y222631D01*
X412057Y222631D01*
X411973Y222633D01*
X411890Y222638D01*
X411807Y222648D01*
X411724Y222661D01*
X411642Y222678D01*
X411561Y222698D01*
X411481Y222722D01*
X411402Y222750D01*
X411325Y222781D01*
X411249Y222815D01*
X411174Y222853D01*
X411101Y222895D01*
X411031Y222939D01*
X410962Y222987D01*
X410895Y223037D01*
X410831Y223091D01*
X410770Y223147D01*
X410710Y223207D01*
X410654Y223268D01*
X410600Y223332D01*
X410550Y223399D01*
X410502Y223468D01*
X410458Y223538D01*
X410416Y223611D01*
X410378Y223686D01*
X410344Y223762D01*
X410313Y223839D01*
X410285Y223918D01*
X410261Y223998D01*
X410241Y224079D01*
X410224Y224161D01*
X410211Y224244D01*
X410201Y224327D01*
X410196Y224410D01*
X410194Y224494D01*
X410195Y224494D02*
X410195Y229150D01*
X410194Y229150D02*
X410196Y229236D01*
X410202Y229322D01*
X410212Y229407D01*
X410226Y229492D01*
X410243Y229577D01*
X410265Y229660D01*
X410291Y229742D01*
X410320Y229823D01*
X410353Y229902D01*
X410389Y229980D01*
X410429Y230057D01*
X410473Y230131D01*
X410520Y230203D01*
X410570Y230273D01*
X410624Y230340D01*
X410680Y230405D01*
X410740Y230467D01*
X410802Y230527D01*
X410867Y230583D01*
X410934Y230637D01*
X411004Y230687D01*
X411076Y230734D01*
X411150Y230778D01*
X411227Y230818D01*
X411304Y230854D01*
X411384Y230887D01*
X411465Y230916D01*
X411547Y230942D01*
X411630Y230964D01*
X411715Y230981D01*
X411800Y230995D01*
X411885Y231005D01*
X411971Y231011D01*
X412057Y231013D01*
X414851Y231013D01*
X418973Y231013D02*
X418973Y222631D01*
X423629Y222631D02*
X418973Y231013D01*
X423629Y231013D02*
X423629Y222631D01*
X427751Y222631D02*
X427751Y231013D01*
X430079Y231013D01*
X430173Y231011D01*
X430266Y231005D01*
X430360Y230996D01*
X430452Y230983D01*
X430545Y230966D01*
X430636Y230945D01*
X430727Y230921D01*
X430816Y230893D01*
X430905Y230862D01*
X430991Y230827D01*
X431077Y230788D01*
X431161Y230746D01*
X431243Y230701D01*
X431323Y230653D01*
X431401Y230601D01*
X431478Y230546D01*
X431551Y230488D01*
X431623Y230428D01*
X431692Y230364D01*
X431758Y230298D01*
X431822Y230229D01*
X431882Y230157D01*
X431940Y230084D01*
X431995Y230007D01*
X432047Y229929D01*
X432095Y229849D01*
X432140Y229767D01*
X432182Y229683D01*
X432221Y229597D01*
X432256Y229511D01*
X432287Y229422D01*
X432315Y229333D01*
X432339Y229242D01*
X432360Y229151D01*
X432377Y229058D01*
X432390Y228966D01*
X432399Y228872D01*
X432405Y228779D01*
X432407Y228685D01*
X432408Y228685D02*
X432408Y224959D01*
X432407Y224959D02*
X432405Y224865D01*
X432399Y224772D01*
X432390Y224678D01*
X432377Y224586D01*
X432360Y224493D01*
X432339Y224402D01*
X432315Y224311D01*
X432287Y224222D01*
X432256Y224133D01*
X432221Y224047D01*
X432182Y223961D01*
X432140Y223877D01*
X432095Y223795D01*
X432047Y223715D01*
X431995Y223637D01*
X431940Y223560D01*
X431882Y223487D01*
X431822Y223415D01*
X431758Y223346D01*
X431692Y223280D01*
X431623Y223216D01*
X431551Y223156D01*
X431478Y223098D01*
X431401Y223043D01*
X431323Y222991D01*
X431243Y222943D01*
X431161Y222898D01*
X431077Y222856D01*
X430991Y222817D01*
X430905Y222782D01*
X430816Y222751D01*
X430727Y222723D01*
X430636Y222699D01*
X430545Y222678D01*
X430452Y222661D01*
X430360Y222648D01*
X430266Y222639D01*
X430173Y222633D01*
X430079Y222631D01*
X427751Y222631D01*
D10*
X495300Y266700D02*
X495300Y279400D01*
X495300Y266700D02*
X488950Y260350D01*
X476250Y260350D01*
X469900Y266700D01*
X476250Y285750D02*
X488950Y285750D01*
X495300Y279400D01*
X476250Y285750D02*
X469900Y279400D01*
X469900Y266700D01*
X488950Y260350D02*
X495300Y254000D01*
X495300Y241300D01*
X488950Y234950D01*
X476250Y234950D01*
X469900Y241300D01*
X469900Y254000D01*
X476250Y260350D01*
D12*
X482600Y273050D03*
X482600Y247650D03*
D13*
X460883Y236499D02*
X449453Y236499D01*
X460883Y236499D02*
X460883Y241579D01*
X460883Y246888D02*
X449453Y246888D01*
X460883Y245618D02*
X460883Y248158D01*
X449453Y248158D02*
X449453Y245618D01*
X449453Y253429D02*
X460883Y253429D01*
X449453Y253429D02*
X449453Y256604D01*
X449455Y256715D01*
X449461Y256825D01*
X449470Y256936D01*
X449484Y257046D01*
X449501Y257155D01*
X449522Y257264D01*
X449547Y257372D01*
X449576Y257479D01*
X449608Y257585D01*
X449644Y257690D01*
X449684Y257793D01*
X449727Y257895D01*
X449774Y257996D01*
X449825Y258095D01*
X449878Y258192D01*
X449935Y258286D01*
X449996Y258379D01*
X450059Y258470D01*
X450126Y258559D01*
X450196Y258645D01*
X450269Y258728D01*
X450344Y258810D01*
X450422Y258888D01*
X450504Y258963D01*
X450587Y259036D01*
X450673Y259106D01*
X450762Y259173D01*
X450853Y259236D01*
X450946Y259297D01*
X451041Y259354D01*
X451137Y259407D01*
X451236Y259458D01*
X451337Y259505D01*
X451439Y259548D01*
X451542Y259588D01*
X451647Y259624D01*
X451753Y259656D01*
X451860Y259685D01*
X451968Y259710D01*
X452077Y259731D01*
X452186Y259748D01*
X452296Y259762D01*
X452407Y259771D01*
X452517Y259777D01*
X452628Y259779D01*
X452739Y259777D01*
X452849Y259771D01*
X452960Y259762D01*
X453070Y259748D01*
X453179Y259731D01*
X453288Y259710D01*
X453396Y259685D01*
X453503Y259656D01*
X453609Y259624D01*
X453714Y259588D01*
X453817Y259548D01*
X453919Y259505D01*
X454020Y259458D01*
X454119Y259407D01*
X454216Y259354D01*
X454310Y259297D01*
X454403Y259236D01*
X454494Y259173D01*
X454583Y259106D01*
X454669Y259036D01*
X454752Y258963D01*
X454834Y258888D01*
X454912Y258810D01*
X454987Y258728D01*
X455060Y258645D01*
X455130Y258559D01*
X455197Y258470D01*
X455260Y258379D01*
X455321Y258286D01*
X455378Y258192D01*
X455431Y258095D01*
X455482Y257996D01*
X455529Y257895D01*
X455572Y257793D01*
X455612Y257690D01*
X455648Y257585D01*
X455680Y257479D01*
X455709Y257372D01*
X455734Y257264D01*
X455755Y257155D01*
X455772Y257046D01*
X455786Y256936D01*
X455795Y256825D01*
X455801Y256715D01*
X455803Y256604D01*
X455803Y253429D01*
X457708Y264287D02*
X452628Y264287D01*
X452517Y264289D01*
X452407Y264295D01*
X452296Y264304D01*
X452186Y264318D01*
X452077Y264335D01*
X451968Y264356D01*
X451860Y264381D01*
X451753Y264410D01*
X451647Y264442D01*
X451542Y264478D01*
X451439Y264518D01*
X451337Y264561D01*
X451236Y264608D01*
X451137Y264659D01*
X451041Y264712D01*
X450946Y264769D01*
X450853Y264830D01*
X450762Y264893D01*
X450673Y264960D01*
X450587Y265030D01*
X450504Y265103D01*
X450422Y265178D01*
X450344Y265256D01*
X450269Y265338D01*
X450196Y265421D01*
X450126Y265507D01*
X450059Y265596D01*
X449996Y265687D01*
X449935Y265780D01*
X449878Y265875D01*
X449825Y265971D01*
X449774Y266070D01*
X449727Y266171D01*
X449684Y266273D01*
X449644Y266376D01*
X449608Y266481D01*
X449576Y266587D01*
X449547Y266694D01*
X449522Y266802D01*
X449501Y266911D01*
X449484Y267020D01*
X449470Y267130D01*
X449461Y267241D01*
X449455Y267351D01*
X449453Y267462D01*
X449455Y267573D01*
X449461Y267683D01*
X449470Y267794D01*
X449484Y267904D01*
X449501Y268013D01*
X449522Y268122D01*
X449547Y268230D01*
X449576Y268337D01*
X449608Y268443D01*
X449644Y268548D01*
X449684Y268651D01*
X449727Y268753D01*
X449774Y268854D01*
X449825Y268953D01*
X449878Y269050D01*
X449935Y269144D01*
X449996Y269237D01*
X450059Y269328D01*
X450126Y269417D01*
X450196Y269503D01*
X450269Y269586D01*
X450344Y269668D01*
X450422Y269746D01*
X450504Y269821D01*
X450587Y269894D01*
X450673Y269964D01*
X450762Y270031D01*
X450853Y270094D01*
X450946Y270155D01*
X451041Y270212D01*
X451137Y270265D01*
X451236Y270316D01*
X451337Y270363D01*
X451439Y270406D01*
X451542Y270446D01*
X451647Y270482D01*
X451753Y270514D01*
X451860Y270543D01*
X451968Y270568D01*
X452077Y270589D01*
X452186Y270606D01*
X452296Y270620D01*
X452407Y270629D01*
X452517Y270635D01*
X452628Y270637D01*
X457708Y270637D01*
X457819Y270635D01*
X457929Y270629D01*
X458040Y270620D01*
X458150Y270606D01*
X458259Y270589D01*
X458368Y270568D01*
X458476Y270543D01*
X458583Y270514D01*
X458689Y270482D01*
X458794Y270446D01*
X458897Y270406D01*
X458999Y270363D01*
X459100Y270316D01*
X459199Y270265D01*
X459296Y270212D01*
X459390Y270155D01*
X459483Y270094D01*
X459574Y270031D01*
X459663Y269964D01*
X459749Y269894D01*
X459832Y269821D01*
X459914Y269746D01*
X459992Y269668D01*
X460067Y269586D01*
X460140Y269503D01*
X460210Y269417D01*
X460277Y269328D01*
X460340Y269237D01*
X460401Y269144D01*
X460458Y269049D01*
X460511Y268953D01*
X460562Y268854D01*
X460609Y268753D01*
X460652Y268651D01*
X460692Y268548D01*
X460728Y268443D01*
X460760Y268337D01*
X460789Y268230D01*
X460814Y268122D01*
X460835Y268013D01*
X460852Y267904D01*
X460866Y267794D01*
X460875Y267683D01*
X460881Y267573D01*
X460883Y267462D01*
X460881Y267351D01*
X460875Y267241D01*
X460866Y267130D01*
X460852Y267020D01*
X460835Y266911D01*
X460814Y266802D01*
X460789Y266694D01*
X460760Y266587D01*
X460728Y266481D01*
X460692Y266376D01*
X460652Y266273D01*
X460609Y266171D01*
X460562Y266070D01*
X460511Y265971D01*
X460458Y265874D01*
X460401Y265780D01*
X460340Y265687D01*
X460277Y265596D01*
X460210Y265507D01*
X460140Y265421D01*
X460067Y265338D01*
X459992Y265256D01*
X459914Y265178D01*
X459832Y265103D01*
X459749Y265030D01*
X459663Y264960D01*
X459574Y264893D01*
X459483Y264830D01*
X459390Y264769D01*
X459296Y264712D01*
X459199Y264659D01*
X459100Y264608D01*
X458999Y264561D01*
X458897Y264518D01*
X458794Y264478D01*
X458689Y264442D01*
X458583Y264410D01*
X458476Y264381D01*
X458368Y264356D01*
X458259Y264335D01*
X458150Y264318D01*
X458040Y264304D01*
X457929Y264295D01*
X457819Y264289D01*
X457708Y264287D01*
D14*
X351690Y42600D02*
X351690Y33600D01*
X339190Y33600D02*
X339190Y42850D01*
D15*
X351440Y36600D03*
X339440Y36600D03*
D16*
X345440Y36600D03*
D17*
X345440Y30600D03*
X345440Y45600D03*
D11*
X338965Y60833D02*
X337328Y60833D01*
X337250Y60835D01*
X337172Y60840D01*
X337095Y60850D01*
X337018Y60863D01*
X336942Y60879D01*
X336867Y60899D01*
X336793Y60923D01*
X336720Y60950D01*
X336648Y60981D01*
X336578Y61015D01*
X336510Y61052D01*
X336443Y61093D01*
X336378Y61137D01*
X336316Y61183D01*
X336256Y61233D01*
X336198Y61285D01*
X336143Y61340D01*
X336091Y61398D01*
X336041Y61458D01*
X335995Y61520D01*
X335951Y61585D01*
X335910Y61652D01*
X335873Y61720D01*
X335839Y61790D01*
X335808Y61862D01*
X335781Y61935D01*
X335757Y62009D01*
X335737Y62084D01*
X335721Y62160D01*
X335708Y62237D01*
X335698Y62314D01*
X335693Y62392D01*
X335691Y62470D01*
X335691Y66562D01*
X335693Y66642D01*
X335699Y66722D01*
X335709Y66802D01*
X335722Y66881D01*
X335740Y66960D01*
X335761Y67037D01*
X335787Y67113D01*
X335816Y67188D01*
X335848Y67262D01*
X335884Y67334D01*
X335924Y67404D01*
X335967Y67471D01*
X336013Y67537D01*
X336063Y67600D01*
X336115Y67661D01*
X336170Y67720D01*
X336229Y67775D01*
X336289Y67827D01*
X336353Y67877D01*
X336419Y67923D01*
X336486Y67966D01*
X336556Y68006D01*
X336628Y68042D01*
X336702Y68074D01*
X336776Y68103D01*
X336853Y68129D01*
X336930Y68150D01*
X337009Y68168D01*
X337088Y68181D01*
X337168Y68191D01*
X337248Y68197D01*
X337328Y68199D01*
X338965Y68199D01*
X342054Y68199D02*
X342054Y60833D01*
X342054Y64925D02*
X346146Y64925D01*
X346146Y68199D02*
X346146Y60833D01*
X352721Y64925D02*
X353949Y64925D01*
X353949Y60833D01*
X351494Y60833D01*
X351416Y60835D01*
X351338Y60840D01*
X351261Y60850D01*
X351184Y60863D01*
X351108Y60879D01*
X351033Y60899D01*
X350959Y60923D01*
X350886Y60950D01*
X350814Y60981D01*
X350744Y61015D01*
X350676Y61052D01*
X350609Y61093D01*
X350544Y61137D01*
X350482Y61183D01*
X350422Y61233D01*
X350364Y61285D01*
X350309Y61340D01*
X350257Y61398D01*
X350207Y61458D01*
X350161Y61520D01*
X350117Y61585D01*
X350076Y61652D01*
X350039Y61720D01*
X350005Y61790D01*
X349974Y61862D01*
X349947Y61935D01*
X349923Y62009D01*
X349903Y62084D01*
X349887Y62160D01*
X349874Y62237D01*
X349864Y62314D01*
X349859Y62392D01*
X349857Y62470D01*
X349857Y66562D01*
X349859Y66642D01*
X349865Y66722D01*
X349875Y66802D01*
X349888Y66881D01*
X349906Y66960D01*
X349927Y67037D01*
X349953Y67113D01*
X349982Y67188D01*
X350014Y67262D01*
X350050Y67334D01*
X350090Y67404D01*
X350133Y67471D01*
X350179Y67537D01*
X350229Y67600D01*
X350281Y67661D01*
X350336Y67720D01*
X350395Y67775D01*
X350455Y67827D01*
X350519Y67877D01*
X350585Y67923D01*
X350652Y67966D01*
X350722Y68006D01*
X350794Y68042D01*
X350868Y68074D01*
X350942Y68103D01*
X351019Y68129D01*
X351096Y68150D01*
X351175Y68168D01*
X351254Y68181D01*
X351334Y68191D01*
X351414Y68197D01*
X351494Y68199D01*
X353949Y68199D01*
D13*
X261020Y250480D02*
X186020Y250480D01*
X186020Y293980D01*
X186020Y307090D01*
X261020Y307090D01*
X261020Y293980D01*
X261020Y250480D01*
X261020Y293980D02*
X186020Y293980D01*
X261020Y267730D02*
X261020Y264230D01*
X186020Y264230D02*
X186020Y267730D01*
X261020Y291230D02*
X261020Y293980D01*
X186020Y293980D01*
X186020Y291230D01*
X240720Y250480D02*
X241820Y250480D01*
X206320Y250480D02*
X205220Y250480D01*
D18*
X236520Y239730D02*
X236522Y239793D01*
X236528Y239855D01*
X236538Y239917D01*
X236551Y239979D01*
X236569Y240039D01*
X236590Y240098D01*
X236615Y240156D01*
X236644Y240212D01*
X236676Y240266D01*
X236711Y240318D01*
X236749Y240367D01*
X236791Y240415D01*
X236835Y240459D01*
X236883Y240501D01*
X236932Y240539D01*
X236984Y240574D01*
X237038Y240606D01*
X237094Y240635D01*
X237152Y240660D01*
X237211Y240681D01*
X237271Y240699D01*
X237333Y240712D01*
X237395Y240722D01*
X237457Y240728D01*
X237520Y240730D01*
X237583Y240728D01*
X237645Y240722D01*
X237707Y240712D01*
X237769Y240699D01*
X237829Y240681D01*
X237888Y240660D01*
X237946Y240635D01*
X238002Y240606D01*
X238056Y240574D01*
X238108Y240539D01*
X238157Y240501D01*
X238205Y240459D01*
X238249Y240415D01*
X238291Y240367D01*
X238329Y240318D01*
X238364Y240266D01*
X238396Y240212D01*
X238425Y240156D01*
X238450Y240098D01*
X238471Y240039D01*
X238489Y239979D01*
X238502Y239917D01*
X238512Y239855D01*
X238518Y239793D01*
X238520Y239730D01*
X238518Y239667D01*
X238512Y239605D01*
X238502Y239543D01*
X238489Y239481D01*
X238471Y239421D01*
X238450Y239362D01*
X238425Y239304D01*
X238396Y239248D01*
X238364Y239194D01*
X238329Y239142D01*
X238291Y239093D01*
X238249Y239045D01*
X238205Y239001D01*
X238157Y238959D01*
X238108Y238921D01*
X238056Y238886D01*
X238002Y238854D01*
X237946Y238825D01*
X237888Y238800D01*
X237829Y238779D01*
X237769Y238761D01*
X237707Y238748D01*
X237645Y238738D01*
X237583Y238732D01*
X237520Y238730D01*
X237457Y238732D01*
X237395Y238738D01*
X237333Y238748D01*
X237271Y238761D01*
X237211Y238779D01*
X237152Y238800D01*
X237094Y238825D01*
X237038Y238854D01*
X236984Y238886D01*
X236932Y238921D01*
X236883Y238959D01*
X236835Y239001D01*
X236791Y239045D01*
X236749Y239093D01*
X236711Y239142D01*
X236676Y239194D01*
X236644Y239248D01*
X236615Y239304D01*
X236590Y239362D01*
X236569Y239421D01*
X236551Y239481D01*
X236538Y239543D01*
X236528Y239605D01*
X236522Y239667D01*
X236520Y239730D01*
X236522Y239793D01*
X236528Y239855D01*
X236538Y239917D01*
X236551Y239979D01*
X236569Y240039D01*
X236590Y240098D01*
X236615Y240156D01*
X236644Y240212D01*
X236676Y240266D01*
X236711Y240318D01*
X236749Y240367D01*
X236791Y240415D01*
X236835Y240459D01*
X236883Y240501D01*
X236932Y240539D01*
X236984Y240574D01*
X237038Y240606D01*
X237094Y240635D01*
X237152Y240660D01*
X237211Y240681D01*
X237271Y240699D01*
X237333Y240712D01*
X237395Y240722D01*
X237457Y240728D01*
X237520Y240730D01*
X237583Y240728D01*
X237645Y240722D01*
X237707Y240712D01*
X237769Y240699D01*
X237829Y240681D01*
X237888Y240660D01*
X237946Y240635D01*
X238002Y240606D01*
X238056Y240574D01*
X238108Y240539D01*
X238157Y240501D01*
X238205Y240459D01*
X238249Y240415D01*
X238291Y240367D01*
X238329Y240318D01*
X238364Y240266D01*
X238396Y240212D01*
X238425Y240156D01*
X238450Y240098D01*
X238471Y240039D01*
X238489Y239979D01*
X238502Y239917D01*
X238512Y239855D01*
X238518Y239793D01*
X238520Y239730D01*
X238518Y239667D01*
X238512Y239605D01*
X238502Y239543D01*
X238489Y239481D01*
X238471Y239421D01*
X238450Y239362D01*
X238425Y239304D01*
X238396Y239248D01*
X238364Y239194D01*
X238329Y239142D01*
X238291Y239093D01*
X238249Y239045D01*
X238205Y239001D01*
X238157Y238959D01*
X238108Y238921D01*
X238056Y238886D01*
X238002Y238854D01*
X237946Y238825D01*
X237888Y238800D01*
X237829Y238779D01*
X237769Y238761D01*
X237707Y238748D01*
X237645Y238738D01*
X237583Y238732D01*
X237520Y238730D01*
X237457Y238732D01*
X237395Y238738D01*
X237333Y238748D01*
X237271Y238761D01*
X237211Y238779D01*
X237152Y238800D01*
X237094Y238825D01*
X237038Y238854D01*
X236984Y238886D01*
X236932Y238921D01*
X236883Y238959D01*
X236835Y239001D01*
X236791Y239045D01*
X236749Y239093D01*
X236711Y239142D01*
X236676Y239194D01*
X236644Y239248D01*
X236615Y239304D01*
X236590Y239362D01*
X236569Y239421D01*
X236551Y239481D01*
X236538Y239543D01*
X236528Y239605D01*
X236522Y239667D01*
X236520Y239730D01*
D11*
X271026Y239649D02*
X271026Y232463D01*
X271024Y232373D01*
X271018Y232284D01*
X271008Y232195D01*
X270995Y232106D01*
X270977Y232019D01*
X270956Y231932D01*
X270931Y231846D01*
X270902Y231761D01*
X270870Y231677D01*
X270834Y231595D01*
X270794Y231515D01*
X270751Y231436D01*
X270704Y231360D01*
X270655Y231285D01*
X270602Y231213D01*
X270546Y231143D01*
X270487Y231076D01*
X270425Y231011D01*
X270360Y230949D01*
X270293Y230890D01*
X270223Y230834D01*
X270151Y230781D01*
X270076Y230732D01*
X269999Y230685D01*
X269921Y230642D01*
X269841Y230602D01*
X269759Y230566D01*
X269675Y230534D01*
X269590Y230505D01*
X269504Y230480D01*
X269417Y230459D01*
X269329Y230441D01*
X269241Y230428D01*
X269152Y230418D01*
X269063Y230412D01*
X268973Y230410D01*
X267946Y230410D01*
X275158Y237596D02*
X277724Y239649D01*
X277724Y230410D01*
X275158Y230410D02*
X280290Y230410D01*
D13*
X298850Y92950D02*
X348850Y92950D01*
X348850Y122950D01*
X298850Y122950D01*
X298850Y92950D01*
X298850Y122950D01*
X348850Y122950D02*
X348850Y92950D01*
D19*
X304120Y81680D02*
X304122Y81743D01*
X304128Y81805D01*
X304138Y81867D01*
X304151Y81929D01*
X304169Y81989D01*
X304190Y82048D01*
X304215Y82106D01*
X304244Y82162D01*
X304276Y82216D01*
X304311Y82268D01*
X304349Y82317D01*
X304391Y82365D01*
X304435Y82409D01*
X304483Y82451D01*
X304532Y82489D01*
X304584Y82524D01*
X304638Y82556D01*
X304694Y82585D01*
X304752Y82610D01*
X304811Y82631D01*
X304871Y82649D01*
X304933Y82662D01*
X304995Y82672D01*
X305057Y82678D01*
X305120Y82680D01*
X305183Y82678D01*
X305245Y82672D01*
X305307Y82662D01*
X305369Y82649D01*
X305429Y82631D01*
X305488Y82610D01*
X305546Y82585D01*
X305602Y82556D01*
X305656Y82524D01*
X305708Y82489D01*
X305757Y82451D01*
X305805Y82409D01*
X305849Y82365D01*
X305891Y82317D01*
X305929Y82268D01*
X305964Y82216D01*
X305996Y82162D01*
X306025Y82106D01*
X306050Y82048D01*
X306071Y81989D01*
X306089Y81929D01*
X306102Y81867D01*
X306112Y81805D01*
X306118Y81743D01*
X306120Y81680D01*
X306118Y81617D01*
X306112Y81555D01*
X306102Y81493D01*
X306089Y81431D01*
X306071Y81371D01*
X306050Y81312D01*
X306025Y81254D01*
X305996Y81198D01*
X305964Y81144D01*
X305929Y81092D01*
X305891Y81043D01*
X305849Y80995D01*
X305805Y80951D01*
X305757Y80909D01*
X305708Y80871D01*
X305656Y80836D01*
X305602Y80804D01*
X305546Y80775D01*
X305488Y80750D01*
X305429Y80729D01*
X305369Y80711D01*
X305307Y80698D01*
X305245Y80688D01*
X305183Y80682D01*
X305120Y80680D01*
X305057Y80682D01*
X304995Y80688D01*
X304933Y80698D01*
X304871Y80711D01*
X304811Y80729D01*
X304752Y80750D01*
X304694Y80775D01*
X304638Y80804D01*
X304584Y80836D01*
X304532Y80871D01*
X304483Y80909D01*
X304435Y80951D01*
X304391Y80995D01*
X304349Y81043D01*
X304311Y81092D01*
X304276Y81144D01*
X304244Y81198D01*
X304215Y81254D01*
X304190Y81312D01*
X304169Y81371D01*
X304151Y81431D01*
X304138Y81493D01*
X304128Y81555D01*
X304122Y81617D01*
X304120Y81680D01*
X304120Y96680D02*
X304122Y96743D01*
X304128Y96805D01*
X304138Y96867D01*
X304151Y96929D01*
X304169Y96989D01*
X304190Y97048D01*
X304215Y97106D01*
X304244Y97162D01*
X304276Y97216D01*
X304311Y97268D01*
X304349Y97317D01*
X304391Y97365D01*
X304435Y97409D01*
X304483Y97451D01*
X304532Y97489D01*
X304584Y97524D01*
X304638Y97556D01*
X304694Y97585D01*
X304752Y97610D01*
X304811Y97631D01*
X304871Y97649D01*
X304933Y97662D01*
X304995Y97672D01*
X305057Y97678D01*
X305120Y97680D01*
X305183Y97678D01*
X305245Y97672D01*
X305307Y97662D01*
X305369Y97649D01*
X305429Y97631D01*
X305488Y97610D01*
X305546Y97585D01*
X305602Y97556D01*
X305656Y97524D01*
X305708Y97489D01*
X305757Y97451D01*
X305805Y97409D01*
X305849Y97365D01*
X305891Y97317D01*
X305929Y97268D01*
X305964Y97216D01*
X305996Y97162D01*
X306025Y97106D01*
X306050Y97048D01*
X306071Y96989D01*
X306089Y96929D01*
X306102Y96867D01*
X306112Y96805D01*
X306118Y96743D01*
X306120Y96680D01*
X306118Y96617D01*
X306112Y96555D01*
X306102Y96493D01*
X306089Y96431D01*
X306071Y96371D01*
X306050Y96312D01*
X306025Y96254D01*
X305996Y96198D01*
X305964Y96144D01*
X305929Y96092D01*
X305891Y96043D01*
X305849Y95995D01*
X305805Y95951D01*
X305757Y95909D01*
X305708Y95871D01*
X305656Y95836D01*
X305602Y95804D01*
X305546Y95775D01*
X305488Y95750D01*
X305429Y95729D01*
X305369Y95711D01*
X305307Y95698D01*
X305245Y95688D01*
X305183Y95682D01*
X305120Y95680D01*
X305057Y95682D01*
X304995Y95688D01*
X304933Y95698D01*
X304871Y95711D01*
X304811Y95729D01*
X304752Y95750D01*
X304694Y95775D01*
X304638Y95804D01*
X304584Y95836D01*
X304532Y95871D01*
X304483Y95909D01*
X304435Y95951D01*
X304391Y95995D01*
X304349Y96043D01*
X304311Y96092D01*
X304276Y96144D01*
X304244Y96198D01*
X304215Y96254D01*
X304190Y96312D01*
X304169Y96371D01*
X304151Y96431D01*
X304138Y96493D01*
X304128Y96555D01*
X304122Y96617D01*
X304120Y96680D01*
D11*
X352894Y104500D02*
X358220Y104500D01*
X358309Y104502D01*
X358398Y104508D01*
X358487Y104518D01*
X358576Y104531D01*
X358663Y104549D01*
X358750Y104570D01*
X358836Y104595D01*
X358920Y104624D01*
X359004Y104656D01*
X359086Y104692D01*
X359166Y104731D01*
X359244Y104774D01*
X359320Y104821D01*
X359395Y104870D01*
X359467Y104923D01*
X359536Y104979D01*
X359604Y105038D01*
X359668Y105100D01*
X359730Y105164D01*
X359789Y105232D01*
X359845Y105301D01*
X359898Y105373D01*
X359947Y105448D01*
X359994Y105524D01*
X360037Y105602D01*
X360076Y105682D01*
X360112Y105764D01*
X360144Y105848D01*
X360173Y105932D01*
X360198Y106018D01*
X360219Y106105D01*
X360237Y106192D01*
X360250Y106281D01*
X360260Y106370D01*
X360266Y106459D01*
X360268Y106548D01*
X360266Y106637D01*
X360260Y106726D01*
X360250Y106815D01*
X360237Y106904D01*
X360219Y106991D01*
X360198Y107078D01*
X360173Y107164D01*
X360144Y107248D01*
X360112Y107332D01*
X360076Y107414D01*
X360037Y107494D01*
X359994Y107572D01*
X359947Y107648D01*
X359898Y107723D01*
X359845Y107795D01*
X359789Y107864D01*
X359730Y107932D01*
X359668Y107996D01*
X359604Y108058D01*
X359536Y108117D01*
X359467Y108173D01*
X359395Y108226D01*
X359320Y108275D01*
X359244Y108322D01*
X359166Y108365D01*
X359086Y108404D01*
X359004Y108440D01*
X358920Y108472D01*
X358836Y108501D01*
X358750Y108526D01*
X358663Y108547D01*
X358576Y108565D01*
X358487Y108578D01*
X358398Y108588D01*
X358309Y108594D01*
X358220Y108596D01*
X358220Y108597D02*
X352894Y108597D01*
X354533Y112067D02*
X352894Y114115D01*
X360268Y114115D01*
X360268Y112067D02*
X360268Y116164D01*
D20*
X176101Y98651D03*
D21*
X280900Y108050D02*
X280900Y184050D01*
X280900Y108050D02*
X176300Y108050D01*
X176300Y184050D01*
X280900Y184050D01*
D14*
X199676Y136899D02*
X191238Y136899D01*
X199676Y136899D02*
X199789Y136901D01*
X199902Y136907D01*
X200015Y136917D01*
X200128Y136931D01*
X200240Y136948D01*
X200351Y136970D01*
X200461Y136995D01*
X200571Y137025D01*
X200679Y137058D01*
X200786Y137095D01*
X200892Y137135D01*
X200996Y137180D01*
X201099Y137228D01*
X201200Y137279D01*
X201299Y137334D01*
X201396Y137392D01*
X201491Y137454D01*
X201584Y137519D01*
X201674Y137587D01*
X201762Y137658D01*
X201848Y137733D01*
X201931Y137810D01*
X202011Y137890D01*
X202088Y137973D01*
X202163Y138059D01*
X202234Y138147D01*
X202302Y138237D01*
X202367Y138330D01*
X202429Y138425D01*
X202487Y138522D01*
X202542Y138621D01*
X202593Y138722D01*
X202641Y138825D01*
X202686Y138929D01*
X202726Y139035D01*
X202763Y139142D01*
X202796Y139250D01*
X202826Y139360D01*
X202851Y139470D01*
X202873Y139581D01*
X202890Y139693D01*
X202904Y139806D01*
X202914Y139919D01*
X202920Y140032D01*
X202922Y140145D01*
X202920Y140258D01*
X202914Y140371D01*
X202904Y140484D01*
X202890Y140597D01*
X202873Y140709D01*
X202851Y140820D01*
X202826Y140930D01*
X202796Y141040D01*
X202763Y141148D01*
X202726Y141255D01*
X202686Y141361D01*
X202641Y141465D01*
X202593Y141568D01*
X202542Y141669D01*
X202487Y141768D01*
X202429Y141865D01*
X202367Y141960D01*
X202302Y142053D01*
X202234Y142143D01*
X202163Y142231D01*
X202088Y142317D01*
X202011Y142400D01*
X201931Y142480D01*
X201848Y142557D01*
X201762Y142632D01*
X201674Y142703D01*
X201584Y142771D01*
X201491Y142836D01*
X201396Y142898D01*
X201299Y142956D01*
X201200Y143011D01*
X201099Y143062D01*
X200996Y143110D01*
X200892Y143155D01*
X200786Y143195D01*
X200679Y143232D01*
X200571Y143265D01*
X200461Y143295D01*
X200351Y143320D01*
X200240Y143342D01*
X200128Y143359D01*
X200015Y143373D01*
X199902Y143383D01*
X199789Y143389D01*
X199676Y143391D01*
X199676Y143390D02*
X191238Y143390D01*
X202922Y148710D02*
X202922Y151955D01*
X202920Y152068D01*
X202914Y152181D01*
X202904Y152294D01*
X202890Y152407D01*
X202873Y152519D01*
X202851Y152630D01*
X202826Y152740D01*
X202796Y152850D01*
X202763Y152958D01*
X202726Y153065D01*
X202686Y153171D01*
X202641Y153275D01*
X202593Y153378D01*
X202542Y153479D01*
X202487Y153578D01*
X202429Y153675D01*
X202367Y153770D01*
X202302Y153863D01*
X202234Y153953D01*
X202163Y154041D01*
X202088Y154127D01*
X202011Y154210D01*
X201931Y154290D01*
X201848Y154367D01*
X201762Y154442D01*
X201674Y154513D01*
X201584Y154581D01*
X201491Y154646D01*
X201396Y154708D01*
X201299Y154766D01*
X201200Y154821D01*
X201099Y154872D01*
X200996Y154920D01*
X200892Y154965D01*
X200786Y155005D01*
X200679Y155042D01*
X200571Y155075D01*
X200461Y155105D01*
X200351Y155130D01*
X200240Y155152D01*
X200128Y155169D01*
X200015Y155183D01*
X199902Y155193D01*
X199789Y155199D01*
X199676Y155201D01*
X199563Y155199D01*
X199450Y155193D01*
X199337Y155183D01*
X199224Y155169D01*
X199112Y155152D01*
X199001Y155130D01*
X198891Y155105D01*
X198781Y155075D01*
X198673Y155042D01*
X198566Y155005D01*
X198460Y154965D01*
X198356Y154920D01*
X198253Y154872D01*
X198152Y154821D01*
X198053Y154766D01*
X197956Y154708D01*
X197861Y154646D01*
X197768Y154581D01*
X197678Y154513D01*
X197590Y154442D01*
X197504Y154367D01*
X197421Y154290D01*
X197341Y154210D01*
X197264Y154127D01*
X197189Y154041D01*
X197118Y153953D01*
X197050Y153863D01*
X196985Y153770D01*
X196923Y153675D01*
X196865Y153578D01*
X196810Y153479D01*
X196759Y153378D01*
X196711Y153275D01*
X196666Y153171D01*
X196626Y153065D01*
X196589Y152958D01*
X196556Y152850D01*
X196526Y152740D01*
X196501Y152630D01*
X196479Y152519D01*
X196462Y152407D01*
X196448Y152294D01*
X196438Y152181D01*
X196432Y152068D01*
X196430Y151955D01*
X191238Y152605D02*
X191238Y148710D01*
X191238Y152605D02*
X191240Y152706D01*
X191246Y152806D01*
X191256Y152906D01*
X191269Y153006D01*
X191287Y153105D01*
X191308Y153204D01*
X191333Y153301D01*
X191362Y153398D01*
X191395Y153493D01*
X191431Y153587D01*
X191471Y153679D01*
X191514Y153770D01*
X191561Y153859D01*
X191611Y153946D01*
X191665Y154032D01*
X191722Y154115D01*
X191782Y154195D01*
X191845Y154274D01*
X191912Y154350D01*
X191981Y154423D01*
X192053Y154493D01*
X192127Y154561D01*
X192204Y154626D01*
X192284Y154687D01*
X192366Y154746D01*
X192450Y154801D01*
X192536Y154853D01*
X192624Y154902D01*
X192714Y154947D01*
X192806Y154989D01*
X192899Y155027D01*
X192994Y155061D01*
X193089Y155092D01*
X193186Y155119D01*
X193284Y155142D01*
X193383Y155162D01*
X193483Y155177D01*
X193583Y155189D01*
X193683Y155197D01*
X193784Y155201D01*
X193884Y155201D01*
X193985Y155197D01*
X194085Y155189D01*
X194185Y155177D01*
X194285Y155162D01*
X194384Y155142D01*
X194482Y155119D01*
X194579Y155092D01*
X194674Y155061D01*
X194769Y155027D01*
X194862Y154989D01*
X194954Y154947D01*
X195044Y154902D01*
X195132Y154853D01*
X195218Y154801D01*
X195302Y154746D01*
X195384Y154687D01*
X195464Y154626D01*
X195541Y154561D01*
X195615Y154493D01*
X195687Y154423D01*
X195756Y154350D01*
X195823Y154274D01*
X195886Y154195D01*
X195946Y154115D01*
X196003Y154032D01*
X196057Y153946D01*
X196107Y153859D01*
X196154Y153770D01*
X196197Y153679D01*
X196237Y153587D01*
X196273Y153493D01*
X196306Y153398D01*
X196335Y153301D01*
X196360Y153204D01*
X196381Y153105D01*
X196399Y153006D01*
X196412Y152906D01*
X196422Y152806D01*
X196428Y152706D01*
X196430Y152605D01*
X196431Y152605D02*
X196431Y150008D01*
X308510Y42600D02*
X308510Y33600D01*
X296010Y33600D02*
X296010Y42850D01*
D15*
X308260Y36600D03*
X296260Y36600D03*
D16*
X302260Y36600D03*
D17*
X302260Y30600D03*
X302260Y45600D03*
D11*
X287401Y68467D02*
X287401Y73787D01*
X287401Y68467D02*
X287403Y68378D01*
X287409Y68289D01*
X287419Y68200D01*
X287432Y68112D01*
X287449Y68024D01*
X287471Y67937D01*
X287496Y67852D01*
X287524Y67767D01*
X287557Y67684D01*
X287593Y67602D01*
X287632Y67522D01*
X287675Y67444D01*
X287721Y67368D01*
X287771Y67293D01*
X287824Y67221D01*
X287880Y67152D01*
X287939Y67085D01*
X288000Y67020D01*
X288065Y66959D01*
X288132Y66900D01*
X288201Y66844D01*
X288273Y66791D01*
X288348Y66741D01*
X288424Y66695D01*
X288502Y66652D01*
X288582Y66613D01*
X288664Y66577D01*
X288747Y66544D01*
X288832Y66516D01*
X288917Y66491D01*
X289004Y66469D01*
X289092Y66452D01*
X289180Y66439D01*
X289269Y66429D01*
X289358Y66423D01*
X289447Y66421D01*
X289536Y66423D01*
X289625Y66429D01*
X289714Y66439D01*
X289802Y66452D01*
X289890Y66469D01*
X289977Y66491D01*
X290062Y66516D01*
X290147Y66544D01*
X290230Y66577D01*
X290312Y66613D01*
X290392Y66652D01*
X290470Y66695D01*
X290546Y66741D01*
X290621Y66791D01*
X290693Y66844D01*
X290762Y66900D01*
X290829Y66959D01*
X290894Y67020D01*
X290955Y67085D01*
X291014Y67152D01*
X291070Y67221D01*
X291123Y67293D01*
X291173Y67368D01*
X291219Y67444D01*
X291262Y67522D01*
X291301Y67602D01*
X291337Y67684D01*
X291370Y67767D01*
X291398Y67852D01*
X291423Y67937D01*
X291445Y68024D01*
X291462Y68112D01*
X291475Y68200D01*
X291485Y68289D01*
X291491Y68378D01*
X291493Y68467D01*
X291493Y73787D01*
X298809Y68058D02*
X298807Y67980D01*
X298802Y67902D01*
X298792Y67825D01*
X298779Y67748D01*
X298763Y67672D01*
X298743Y67597D01*
X298719Y67523D01*
X298692Y67450D01*
X298661Y67378D01*
X298627Y67308D01*
X298590Y67240D01*
X298549Y67173D01*
X298505Y67108D01*
X298459Y67046D01*
X298409Y66986D01*
X298357Y66928D01*
X298302Y66873D01*
X298244Y66821D01*
X298184Y66771D01*
X298122Y66725D01*
X298057Y66681D01*
X297991Y66640D01*
X297922Y66603D01*
X297852Y66569D01*
X297780Y66538D01*
X297707Y66511D01*
X297633Y66487D01*
X297558Y66467D01*
X297482Y66451D01*
X297405Y66438D01*
X297328Y66428D01*
X297250Y66423D01*
X297172Y66421D01*
X297058Y66423D01*
X296945Y66428D01*
X296831Y66438D01*
X296718Y66451D01*
X296606Y66468D01*
X296494Y66488D01*
X296383Y66512D01*
X296272Y66540D01*
X296163Y66571D01*
X296055Y66606D01*
X295948Y66645D01*
X295842Y66687D01*
X295738Y66732D01*
X295635Y66781D01*
X295534Y66834D01*
X295435Y66889D01*
X295337Y66948D01*
X295242Y67010D01*
X295149Y67075D01*
X295057Y67143D01*
X294969Y67214D01*
X294882Y67288D01*
X294798Y67365D01*
X294717Y67444D01*
X294921Y72150D02*
X294923Y72228D01*
X294928Y72306D01*
X294938Y72383D01*
X294951Y72460D01*
X294967Y72536D01*
X294987Y72611D01*
X295011Y72685D01*
X295038Y72758D01*
X295069Y72830D01*
X295103Y72900D01*
X295140Y72969D01*
X295181Y73035D01*
X295225Y73100D01*
X295271Y73162D01*
X295321Y73222D01*
X295373Y73280D01*
X295428Y73335D01*
X295486Y73387D01*
X295546Y73437D01*
X295608Y73483D01*
X295673Y73527D01*
X295740Y73568D01*
X295808Y73605D01*
X295878Y73639D01*
X295950Y73670D01*
X296023Y73697D01*
X296097Y73721D01*
X296172Y73741D01*
X296248Y73757D01*
X296325Y73770D01*
X296402Y73780D01*
X296480Y73785D01*
X296558Y73787D01*
X296668Y73785D01*
X296777Y73779D01*
X296887Y73769D01*
X296995Y73756D01*
X297104Y73738D01*
X297211Y73717D01*
X297318Y73691D01*
X297424Y73662D01*
X297529Y73630D01*
X297632Y73593D01*
X297734Y73553D01*
X297835Y73509D01*
X297934Y73461D01*
X298031Y73411D01*
X298126Y73356D01*
X298219Y73298D01*
X298310Y73237D01*
X298399Y73173D01*
X295739Y70717D02*
X295672Y70759D01*
X295607Y70803D01*
X295545Y70851D01*
X295485Y70901D01*
X295427Y70954D01*
X295372Y71010D01*
X295320Y71069D01*
X295270Y71129D01*
X295223Y71193D01*
X295180Y71258D01*
X295139Y71325D01*
X295102Y71394D01*
X295068Y71465D01*
X295037Y71537D01*
X295010Y71611D01*
X294986Y71685D01*
X294966Y71761D01*
X294950Y71838D01*
X294937Y71915D01*
X294927Y71993D01*
X294922Y72072D01*
X294920Y72150D01*
X297990Y69490D02*
X298056Y69448D01*
X298121Y69404D01*
X298183Y69357D01*
X298243Y69306D01*
X298301Y69253D01*
X298356Y69197D01*
X298409Y69139D01*
X298458Y69078D01*
X298505Y69015D01*
X298548Y68950D01*
X298589Y68883D01*
X298626Y68814D01*
X298660Y68743D01*
X298691Y68671D01*
X298718Y68597D01*
X298742Y68522D01*
X298762Y68447D01*
X298778Y68370D01*
X298791Y68293D01*
X298801Y68215D01*
X298806Y68136D01*
X298808Y68058D01*
X297990Y69490D02*
X295739Y70718D01*
X302047Y66421D02*
X305321Y66421D01*
X302047Y66421D02*
X302047Y73787D01*
X305321Y73787D01*
X304502Y70513D02*
X302047Y70513D01*
X308422Y73787D02*
X308422Y66421D01*
X308422Y73787D02*
X310468Y73787D01*
X310557Y73785D01*
X310646Y73779D01*
X310735Y73769D01*
X310823Y73756D01*
X310911Y73739D01*
X310998Y73717D01*
X311083Y73692D01*
X311168Y73664D01*
X311251Y73631D01*
X311333Y73595D01*
X311413Y73556D01*
X311491Y73513D01*
X311567Y73467D01*
X311642Y73417D01*
X311714Y73364D01*
X311783Y73308D01*
X311850Y73249D01*
X311915Y73188D01*
X311976Y73123D01*
X312035Y73056D01*
X312091Y72987D01*
X312144Y72915D01*
X312194Y72840D01*
X312240Y72764D01*
X312283Y72686D01*
X312322Y72606D01*
X312358Y72524D01*
X312391Y72441D01*
X312419Y72356D01*
X312444Y72271D01*
X312466Y72184D01*
X312483Y72096D01*
X312496Y72008D01*
X312506Y71919D01*
X312512Y71830D01*
X312514Y71741D01*
X312512Y71652D01*
X312506Y71563D01*
X312496Y71474D01*
X312483Y71386D01*
X312466Y71298D01*
X312444Y71211D01*
X312419Y71126D01*
X312391Y71041D01*
X312358Y70958D01*
X312322Y70876D01*
X312283Y70796D01*
X312240Y70718D01*
X312194Y70642D01*
X312144Y70567D01*
X312091Y70495D01*
X312035Y70426D01*
X311976Y70359D01*
X311915Y70294D01*
X311850Y70233D01*
X311783Y70174D01*
X311714Y70118D01*
X311642Y70065D01*
X311567Y70015D01*
X311491Y69969D01*
X311413Y69926D01*
X311333Y69887D01*
X311251Y69851D01*
X311168Y69818D01*
X311083Y69790D01*
X310998Y69765D01*
X310911Y69743D01*
X310823Y69726D01*
X310735Y69713D01*
X310646Y69703D01*
X310557Y69697D01*
X310468Y69695D01*
X308422Y69695D01*
X310878Y69695D02*
X312515Y66421D01*
D14*
X330100Y42600D02*
X330100Y33600D01*
X317600Y33600D02*
X317600Y42850D01*
D15*
X329850Y36600D03*
X317850Y36600D03*
D16*
X323850Y36600D03*
D17*
X323850Y30600D03*
X323850Y45600D03*
D11*
X311752Y17399D02*
X311752Y10033D01*
X311752Y17399D02*
X313798Y17399D01*
X313887Y17397D01*
X313976Y17391D01*
X314065Y17381D01*
X314153Y17368D01*
X314241Y17351D01*
X314328Y17329D01*
X314413Y17304D01*
X314498Y17276D01*
X314581Y17243D01*
X314663Y17207D01*
X314743Y17168D01*
X314821Y17125D01*
X314897Y17079D01*
X314972Y17029D01*
X315044Y16976D01*
X315113Y16920D01*
X315180Y16861D01*
X315245Y16800D01*
X315306Y16735D01*
X315365Y16668D01*
X315421Y16599D01*
X315474Y16527D01*
X315524Y16452D01*
X315570Y16376D01*
X315613Y16298D01*
X315652Y16218D01*
X315688Y16136D01*
X315721Y16053D01*
X315749Y15968D01*
X315774Y15883D01*
X315796Y15796D01*
X315813Y15708D01*
X315826Y15620D01*
X315836Y15531D01*
X315842Y15442D01*
X315844Y15353D01*
X315842Y15264D01*
X315836Y15175D01*
X315826Y15086D01*
X315813Y14998D01*
X315796Y14910D01*
X315774Y14823D01*
X315749Y14738D01*
X315721Y14653D01*
X315688Y14570D01*
X315652Y14488D01*
X315613Y14408D01*
X315570Y14330D01*
X315524Y14254D01*
X315474Y14179D01*
X315421Y14107D01*
X315365Y14038D01*
X315306Y13971D01*
X315245Y13906D01*
X315180Y13845D01*
X315113Y13786D01*
X315044Y13730D01*
X314972Y13677D01*
X314897Y13627D01*
X314821Y13581D01*
X314743Y13538D01*
X314663Y13499D01*
X314581Y13463D01*
X314498Y13430D01*
X314413Y13402D01*
X314328Y13377D01*
X314241Y13355D01*
X314153Y13338D01*
X314065Y13325D01*
X313976Y13315D01*
X313887Y13309D01*
X313798Y13307D01*
X311752Y13307D01*
X318454Y17399D02*
X320090Y10033D01*
X321727Y14944D01*
X323364Y10033D01*
X325001Y17399D01*
X328267Y17399D02*
X328267Y10033D01*
X328267Y17399D02*
X330313Y17399D01*
X330402Y17397D01*
X330491Y17391D01*
X330580Y17381D01*
X330668Y17368D01*
X330756Y17351D01*
X330843Y17329D01*
X330928Y17304D01*
X331013Y17276D01*
X331096Y17243D01*
X331178Y17207D01*
X331258Y17168D01*
X331336Y17125D01*
X331412Y17079D01*
X331487Y17029D01*
X331559Y16976D01*
X331628Y16920D01*
X331695Y16861D01*
X331760Y16800D01*
X331821Y16735D01*
X331880Y16668D01*
X331936Y16599D01*
X331989Y16527D01*
X332039Y16452D01*
X332085Y16376D01*
X332128Y16298D01*
X332167Y16218D01*
X332203Y16136D01*
X332236Y16053D01*
X332264Y15968D01*
X332289Y15883D01*
X332311Y15796D01*
X332328Y15708D01*
X332341Y15620D01*
X332351Y15531D01*
X332357Y15442D01*
X332359Y15353D01*
X332357Y15264D01*
X332351Y15175D01*
X332341Y15086D01*
X332328Y14998D01*
X332311Y14910D01*
X332289Y14823D01*
X332264Y14738D01*
X332236Y14653D01*
X332203Y14570D01*
X332167Y14488D01*
X332128Y14408D01*
X332085Y14330D01*
X332039Y14254D01*
X331989Y14179D01*
X331936Y14107D01*
X331880Y14038D01*
X331821Y13971D01*
X331760Y13906D01*
X331695Y13845D01*
X331628Y13786D01*
X331559Y13730D01*
X331487Y13677D01*
X331412Y13627D01*
X331336Y13581D01*
X331258Y13538D01*
X331178Y13499D01*
X331096Y13463D01*
X331013Y13430D01*
X330928Y13402D01*
X330843Y13377D01*
X330756Y13355D01*
X330668Y13338D01*
X330580Y13325D01*
X330491Y13315D01*
X330402Y13309D01*
X330313Y13307D01*
X328267Y13307D01*
X330722Y13307D02*
X332359Y10033D01*
D22*
X154700Y182450D02*
X-300Y182450D01*
X-300Y287450D01*
X154700Y287450D01*
X154700Y182450D01*
D23*
X39700Y188450D03*
X50700Y188450D03*
X58700Y188450D03*
X74700Y188450D03*
X82700Y188450D03*
X90700Y188450D03*
X98700Y188450D03*
X106700Y188450D03*
X114700Y188450D03*
X78700Y197450D03*
X86700Y197450D03*
X94700Y197450D03*
X102700Y197450D03*
X110700Y197450D03*
D24*
X148700Y186950D03*
X148700Y194950D03*
X148700Y202950D03*
X148700Y210950D03*
X148700Y218950D03*
X148700Y226950D03*
X148700Y234950D03*
X148700Y242950D03*
X148700Y250950D03*
X148700Y258950D03*
X148700Y266950D03*
X148700Y274950D03*
X148700Y282950D03*
X139700Y214950D03*
X139700Y222950D03*
X139700Y230950D03*
X139700Y238950D03*
X139700Y246950D03*
X139700Y254950D03*
D23*
X138700Y281450D03*
X130700Y281450D03*
X122700Y281450D03*
X114700Y281450D03*
X106700Y281450D03*
X126700Y272450D03*
X118700Y272450D03*
X110700Y272450D03*
X102700Y272450D03*
X94700Y272450D03*
X86700Y272450D03*
X78700Y272450D03*
X70700Y272450D03*
X62700Y272450D03*
X54700Y272450D03*
X46700Y272450D03*
X39700Y281450D03*
X50700Y281450D03*
X58700Y281450D03*
X74700Y281450D03*
X82700Y281450D03*
X90700Y281450D03*
D24*
X82700Y214950D03*
X82700Y222950D03*
X82700Y230950D03*
X82700Y238950D03*
X82700Y246950D03*
X82700Y254950D03*
D25*
X155700Y181450D02*
X-1300Y181450D01*
X155700Y181450D02*
X155700Y288450D01*
X-1300Y288450D01*
X-1300Y181450D01*
D13*
X158335Y229275D02*
X161820Y229275D01*
X161820Y229274D02*
X161891Y229276D01*
X161963Y229282D01*
X162033Y229291D01*
X162103Y229304D01*
X162173Y229321D01*
X162241Y229342D01*
X162308Y229366D01*
X162374Y229394D01*
X162438Y229425D01*
X162501Y229460D01*
X162561Y229498D01*
X162620Y229539D01*
X162676Y229583D01*
X162730Y229630D01*
X162781Y229679D01*
X162829Y229732D01*
X162875Y229787D01*
X162917Y229844D01*
X162957Y229904D01*
X162993Y229965D01*
X163026Y230029D01*
X163055Y230094D01*
X163081Y230160D01*
X163104Y230228D01*
X163123Y230297D01*
X163138Y230367D01*
X163149Y230437D01*
X163157Y230508D01*
X163161Y230579D01*
X163161Y230651D01*
X163157Y230722D01*
X163149Y230793D01*
X163138Y230863D01*
X163123Y230933D01*
X163104Y231002D01*
X163081Y231070D01*
X163055Y231136D01*
X163026Y231201D01*
X162993Y231265D01*
X162957Y231326D01*
X162917Y231386D01*
X162875Y231443D01*
X162829Y231498D01*
X162781Y231551D01*
X162730Y231600D01*
X162676Y231647D01*
X162620Y231691D01*
X162561Y231732D01*
X162501Y231770D01*
X162438Y231805D01*
X162374Y231836D01*
X162308Y231864D01*
X162241Y231888D01*
X162173Y231909D01*
X162103Y231926D01*
X162033Y231939D01*
X161963Y231948D01*
X161891Y231954D01*
X161820Y231956D01*
X158335Y231956D01*
X158335Y236419D02*
X158337Y236487D01*
X158343Y236554D01*
X158352Y236621D01*
X158365Y236688D01*
X158382Y236753D01*
X158403Y236818D01*
X158427Y236881D01*
X158455Y236943D01*
X158486Y237003D01*
X158520Y237061D01*
X158558Y237117D01*
X158598Y237172D01*
X158642Y237223D01*
X158689Y237272D01*
X158738Y237319D01*
X158789Y237363D01*
X158844Y237403D01*
X158900Y237441D01*
X158958Y237475D01*
X159018Y237506D01*
X159080Y237534D01*
X159143Y237558D01*
X159208Y237579D01*
X159273Y237596D01*
X159340Y237609D01*
X159407Y237618D01*
X159474Y237624D01*
X159542Y237626D01*
X158335Y236419D02*
X158337Y236341D01*
X158343Y236263D01*
X158353Y236186D01*
X158366Y236109D01*
X158384Y236033D01*
X158405Y235958D01*
X158430Y235884D01*
X158459Y235812D01*
X158491Y235741D01*
X158527Y235672D01*
X158566Y235604D01*
X158609Y235539D01*
X158655Y235476D01*
X158704Y235415D01*
X158756Y235357D01*
X158811Y235302D01*
X158868Y235249D01*
X158928Y235200D01*
X158991Y235153D01*
X159056Y235110D01*
X159122Y235070D01*
X159191Y235033D01*
X159262Y235000D01*
X159334Y234970D01*
X159408Y234944D01*
X160480Y237223D02*
X160431Y237272D01*
X160379Y237319D01*
X160324Y237362D01*
X160267Y237403D01*
X160208Y237441D01*
X160147Y237475D01*
X160084Y237506D01*
X160020Y237534D01*
X159954Y237558D01*
X159888Y237578D01*
X159820Y237595D01*
X159751Y237608D01*
X159682Y237617D01*
X159612Y237623D01*
X159542Y237625D01*
X160480Y237223D02*
X163161Y234944D01*
X163161Y237625D01*
D10*
X186400Y228600D02*
X194600Y228600D01*
X194600Y215900D02*
X186400Y215900D01*
D26*
X197814Y222265D03*
X183082Y222265D03*
D11*
X198501Y232791D02*
X198501Y240157D01*
X200547Y240157D01*
X200636Y240155D01*
X200725Y240149D01*
X200814Y240139D01*
X200902Y240126D01*
X200990Y240109D01*
X201077Y240087D01*
X201162Y240062D01*
X201247Y240034D01*
X201330Y240001D01*
X201412Y239965D01*
X201492Y239926D01*
X201570Y239883D01*
X201646Y239837D01*
X201721Y239787D01*
X201793Y239734D01*
X201862Y239678D01*
X201929Y239619D01*
X201994Y239558D01*
X202055Y239493D01*
X202114Y239426D01*
X202170Y239357D01*
X202223Y239285D01*
X202273Y239210D01*
X202319Y239134D01*
X202362Y239056D01*
X202401Y238976D01*
X202437Y238894D01*
X202470Y238811D01*
X202498Y238726D01*
X202523Y238641D01*
X202545Y238554D01*
X202562Y238466D01*
X202575Y238378D01*
X202585Y238289D01*
X202591Y238200D01*
X202593Y238111D01*
X202591Y238022D01*
X202585Y237933D01*
X202575Y237844D01*
X202562Y237756D01*
X202545Y237668D01*
X202523Y237581D01*
X202498Y237496D01*
X202470Y237411D01*
X202437Y237328D01*
X202401Y237246D01*
X202362Y237166D01*
X202319Y237088D01*
X202273Y237012D01*
X202223Y236937D01*
X202170Y236865D01*
X202114Y236796D01*
X202055Y236729D01*
X201994Y236664D01*
X201929Y236603D01*
X201862Y236544D01*
X201793Y236488D01*
X201721Y236435D01*
X201646Y236385D01*
X201570Y236339D01*
X201492Y236296D01*
X201412Y236257D01*
X201330Y236221D01*
X201247Y236188D01*
X201162Y236160D01*
X201077Y236135D01*
X200990Y236113D01*
X200902Y236096D01*
X200814Y236083D01*
X200725Y236073D01*
X200636Y236067D01*
X200547Y236065D01*
X198501Y236065D01*
X200956Y236065D02*
X202593Y232791D01*
X207402Y236065D02*
X209857Y236065D01*
X207402Y236065D02*
X207324Y236067D01*
X207246Y236072D01*
X207169Y236082D01*
X207092Y236095D01*
X207016Y236111D01*
X206941Y236131D01*
X206867Y236155D01*
X206794Y236182D01*
X206722Y236213D01*
X206652Y236247D01*
X206583Y236284D01*
X206517Y236325D01*
X206452Y236369D01*
X206390Y236415D01*
X206330Y236465D01*
X206272Y236517D01*
X206217Y236572D01*
X206165Y236630D01*
X206115Y236690D01*
X206069Y236752D01*
X206025Y236817D01*
X205984Y236884D01*
X205947Y236952D01*
X205913Y237022D01*
X205882Y237094D01*
X205855Y237167D01*
X205831Y237241D01*
X205811Y237316D01*
X205795Y237392D01*
X205782Y237469D01*
X205772Y237546D01*
X205767Y237624D01*
X205765Y237702D01*
X205765Y238111D01*
X205767Y238200D01*
X205773Y238289D01*
X205783Y238378D01*
X205796Y238466D01*
X205813Y238554D01*
X205835Y238641D01*
X205860Y238726D01*
X205888Y238811D01*
X205921Y238894D01*
X205957Y238976D01*
X205996Y239056D01*
X206039Y239134D01*
X206085Y239210D01*
X206135Y239285D01*
X206188Y239357D01*
X206244Y239426D01*
X206303Y239493D01*
X206364Y239558D01*
X206429Y239619D01*
X206496Y239678D01*
X206565Y239734D01*
X206637Y239787D01*
X206712Y239837D01*
X206788Y239883D01*
X206866Y239926D01*
X206946Y239965D01*
X207028Y240001D01*
X207111Y240034D01*
X207196Y240062D01*
X207281Y240087D01*
X207368Y240109D01*
X207456Y240126D01*
X207544Y240139D01*
X207633Y240149D01*
X207722Y240155D01*
X207811Y240157D01*
X207900Y240155D01*
X207989Y240149D01*
X208078Y240139D01*
X208166Y240126D01*
X208254Y240109D01*
X208341Y240087D01*
X208426Y240062D01*
X208511Y240034D01*
X208594Y240001D01*
X208676Y239965D01*
X208756Y239926D01*
X208834Y239883D01*
X208910Y239837D01*
X208985Y239787D01*
X209057Y239734D01*
X209126Y239678D01*
X209193Y239619D01*
X209258Y239558D01*
X209319Y239493D01*
X209378Y239426D01*
X209434Y239357D01*
X209487Y239285D01*
X209537Y239210D01*
X209583Y239134D01*
X209626Y239056D01*
X209665Y238976D01*
X209701Y238894D01*
X209734Y238811D01*
X209762Y238726D01*
X209787Y238641D01*
X209809Y238554D01*
X209826Y238466D01*
X209839Y238378D01*
X209849Y238289D01*
X209855Y238200D01*
X209857Y238111D01*
X209857Y236065D01*
X209855Y235953D01*
X209849Y235842D01*
X209840Y235730D01*
X209827Y235619D01*
X209809Y235509D01*
X209789Y235399D01*
X209764Y235290D01*
X209736Y235182D01*
X209704Y235075D01*
X209668Y234969D01*
X209629Y234864D01*
X209586Y234761D01*
X209540Y234659D01*
X209490Y234559D01*
X209437Y234460D01*
X209380Y234364D01*
X209321Y234269D01*
X209258Y234177D01*
X209192Y234087D01*
X209123Y233999D01*
X209051Y233913D01*
X208976Y233830D01*
X208898Y233750D01*
X208818Y233672D01*
X208735Y233597D01*
X208649Y233525D01*
X208561Y233456D01*
X208471Y233390D01*
X208379Y233327D01*
X208284Y233268D01*
X208188Y233211D01*
X208089Y233158D01*
X207989Y233108D01*
X207887Y233062D01*
X207784Y233019D01*
X207679Y232980D01*
X207573Y232944D01*
X207466Y232912D01*
X207358Y232884D01*
X207249Y232859D01*
X207139Y232839D01*
X207029Y232821D01*
X206918Y232808D01*
X206806Y232799D01*
X206695Y232793D01*
X206583Y232791D01*
D10*
X237200Y228600D02*
X245400Y228600D01*
X245400Y215900D02*
X237200Y215900D01*
D26*
X248614Y222265D03*
X233882Y222265D03*
D11*
X264541Y219837D02*
X264541Y212471D01*
X264541Y219837D02*
X266587Y219837D01*
X266676Y219835D01*
X266765Y219829D01*
X266854Y219819D01*
X266942Y219806D01*
X267030Y219789D01*
X267117Y219767D01*
X267202Y219742D01*
X267287Y219714D01*
X267370Y219681D01*
X267452Y219645D01*
X267532Y219606D01*
X267610Y219563D01*
X267686Y219517D01*
X267761Y219467D01*
X267833Y219414D01*
X267902Y219358D01*
X267969Y219299D01*
X268034Y219238D01*
X268095Y219173D01*
X268154Y219106D01*
X268210Y219037D01*
X268263Y218965D01*
X268313Y218890D01*
X268359Y218814D01*
X268402Y218736D01*
X268441Y218656D01*
X268477Y218574D01*
X268510Y218491D01*
X268538Y218406D01*
X268563Y218321D01*
X268585Y218234D01*
X268602Y218146D01*
X268615Y218058D01*
X268625Y217969D01*
X268631Y217880D01*
X268633Y217791D01*
X268631Y217702D01*
X268625Y217613D01*
X268615Y217524D01*
X268602Y217436D01*
X268585Y217348D01*
X268563Y217261D01*
X268538Y217176D01*
X268510Y217091D01*
X268477Y217008D01*
X268441Y216926D01*
X268402Y216846D01*
X268359Y216768D01*
X268313Y216692D01*
X268263Y216617D01*
X268210Y216545D01*
X268154Y216476D01*
X268095Y216409D01*
X268034Y216344D01*
X267969Y216283D01*
X267902Y216224D01*
X267833Y216168D01*
X267761Y216115D01*
X267686Y216065D01*
X267610Y216019D01*
X267532Y215976D01*
X267452Y215937D01*
X267370Y215901D01*
X267287Y215868D01*
X267202Y215840D01*
X267117Y215815D01*
X267030Y215793D01*
X266942Y215776D01*
X266854Y215763D01*
X266765Y215753D01*
X266676Y215747D01*
X266587Y215745D01*
X264541Y215745D01*
X266996Y215745D02*
X268633Y212471D01*
X271805Y218200D02*
X273851Y219837D01*
X273851Y212471D01*
X271805Y212471D02*
X275897Y212471D01*
X279121Y216154D02*
X279123Y216307D01*
X279129Y216460D01*
X279138Y216612D01*
X279152Y216765D01*
X279169Y216917D01*
X279190Y217068D01*
X279215Y217219D01*
X279244Y217369D01*
X279276Y217519D01*
X279313Y217667D01*
X279353Y217815D01*
X279396Y217962D01*
X279444Y218107D01*
X279495Y218251D01*
X279549Y218394D01*
X279608Y218536D01*
X279669Y218675D01*
X279735Y218814D01*
X279734Y218814D02*
X279760Y218884D01*
X279790Y218954D01*
X279823Y219021D01*
X279859Y219087D01*
X279898Y219151D01*
X279941Y219213D01*
X279987Y219272D01*
X280035Y219330D01*
X280086Y219384D01*
X280140Y219437D01*
X280197Y219486D01*
X280256Y219533D01*
X280317Y219576D01*
X280380Y219617D01*
X280445Y219654D01*
X280512Y219689D01*
X280581Y219719D01*
X280651Y219747D01*
X280722Y219770D01*
X280794Y219791D01*
X280867Y219807D01*
X280941Y219820D01*
X281016Y219830D01*
X281091Y219835D01*
X281166Y219837D01*
X281241Y219835D01*
X281316Y219830D01*
X281391Y219820D01*
X281465Y219807D01*
X281538Y219791D01*
X281610Y219770D01*
X281681Y219747D01*
X281751Y219719D01*
X281820Y219689D01*
X281887Y219654D01*
X281952Y219617D01*
X282015Y219576D01*
X282076Y219533D01*
X282135Y219486D01*
X282192Y219437D01*
X282246Y219384D01*
X282297Y219330D01*
X282346Y219272D01*
X282391Y219213D01*
X282434Y219151D01*
X282473Y219087D01*
X282510Y219021D01*
X282542Y218953D01*
X282572Y218884D01*
X282598Y218814D01*
X282663Y218676D01*
X282725Y218536D01*
X282783Y218394D01*
X282838Y218251D01*
X282889Y218107D01*
X282937Y217962D01*
X282980Y217815D01*
X283020Y217668D01*
X283057Y217519D01*
X283089Y217369D01*
X283118Y217219D01*
X283143Y217068D01*
X283164Y216917D01*
X283181Y216765D01*
X283195Y216612D01*
X283204Y216460D01*
X283210Y216307D01*
X283212Y216154D01*
X279120Y216154D02*
X279122Y216001D01*
X279128Y215848D01*
X279137Y215695D01*
X279151Y215543D01*
X279168Y215391D01*
X279189Y215240D01*
X279214Y215089D01*
X279243Y214938D01*
X279275Y214789D01*
X279312Y214640D01*
X279352Y214493D01*
X279395Y214346D01*
X279443Y214201D01*
X279494Y214056D01*
X279549Y213914D01*
X279607Y213772D01*
X279669Y213632D01*
X279734Y213494D01*
X279760Y213423D01*
X279790Y213354D01*
X279823Y213287D01*
X279859Y213221D01*
X279898Y213157D01*
X279941Y213095D01*
X279987Y213036D01*
X280035Y212978D01*
X280086Y212924D01*
X280140Y212871D01*
X280197Y212822D01*
X280256Y212775D01*
X280317Y212732D01*
X280380Y212691D01*
X280445Y212654D01*
X280512Y212619D01*
X280581Y212589D01*
X280651Y212561D01*
X280722Y212538D01*
X280794Y212517D01*
X280867Y212501D01*
X280941Y212488D01*
X281016Y212478D01*
X281091Y212473D01*
X281166Y212471D01*
X282598Y213494D02*
X282663Y213632D01*
X282725Y213772D01*
X282783Y213914D01*
X282838Y214057D01*
X282889Y214201D01*
X282937Y214346D01*
X282980Y214493D01*
X283020Y214641D01*
X283057Y214789D01*
X283089Y214939D01*
X283118Y215089D01*
X283143Y215240D01*
X283164Y215391D01*
X283181Y215543D01*
X283195Y215696D01*
X283204Y215848D01*
X283210Y216001D01*
X283212Y216154D01*
X282598Y213494D02*
X282572Y213424D01*
X282542Y213354D01*
X282510Y213287D01*
X282473Y213221D01*
X282434Y213157D01*
X282391Y213095D01*
X282345Y213036D01*
X282297Y212978D01*
X282246Y212924D01*
X282192Y212871D01*
X282135Y212822D01*
X282076Y212775D01*
X282015Y212732D01*
X281952Y212691D01*
X281887Y212654D01*
X281820Y212619D01*
X281751Y212589D01*
X281681Y212561D01*
X281610Y212538D01*
X281538Y212517D01*
X281465Y212501D01*
X281391Y212488D01*
X281316Y212478D01*
X281241Y212473D01*
X281166Y212471D01*
X279529Y214108D02*
X282803Y218200D01*
D13*
X138950Y145650D02*
X13450Y145650D01*
X138950Y145650D02*
X138950Y95650D01*
X13450Y95650D02*
X13450Y145650D01*
X13450Y95650D02*
X63700Y95650D01*
X88700Y95650D02*
X138950Y95650D01*
X130450Y137150D02*
X21950Y137150D01*
X130450Y137150D02*
X130450Y104150D01*
X21950Y104150D02*
X21950Y137150D01*
X21950Y104150D02*
X63700Y104150D01*
X88700Y104150D02*
X130450Y104150D01*
X63700Y104150D02*
X63700Y95650D01*
X88700Y95650D02*
X88700Y104150D01*
X44200Y147650D02*
X11200Y147650D01*
X11200Y93650D01*
X44200Y93650D01*
X108200Y147650D02*
X141200Y147650D01*
X141200Y93650D01*
X108200Y93650D01*
D10*
X15365Y158016D02*
X10962Y151412D01*
X15365Y151412D02*
X10962Y158016D01*
X18644Y156548D02*
X20479Y158016D01*
X20479Y151412D01*
X22313Y151412D02*
X18644Y151412D01*
D13*
X125730Y34100D02*
X129730Y34100D01*
X125730Y34100D02*
X121730Y34100D01*
X125730Y42100D02*
X129730Y42100D01*
X125730Y42100D02*
X121730Y42100D01*
X125730Y36100D02*
X125730Y34100D01*
X125730Y41100D02*
X125730Y42100D01*
X122730Y39100D02*
X125730Y36100D01*
D25*
X146730Y24100D02*
X104730Y24100D01*
X104730Y52100D01*
X146730Y52100D01*
X146730Y24100D01*
X136230Y30100D02*
X136420Y30576D01*
X136599Y31057D01*
X136766Y31543D01*
X136921Y32032D01*
X137064Y32524D01*
X137195Y33021D01*
X137313Y33520D01*
X137419Y34022D01*
X137513Y34526D01*
X137595Y35033D01*
X137664Y35541D01*
X137720Y36051D01*
X137764Y36562D01*
X137796Y37074D01*
X137815Y37587D01*
X137821Y38100D01*
X137815Y38613D01*
X137796Y39126D01*
X137764Y39638D01*
X137720Y40149D01*
X137664Y40659D01*
X137595Y41167D01*
X137513Y41674D01*
X137419Y42178D01*
X137313Y42680D01*
X137195Y43179D01*
X137064Y43676D01*
X136921Y44168D01*
X136766Y44657D01*
X136599Y45143D01*
X136420Y45624D01*
X136230Y46100D01*
X136230Y30100D02*
X115230Y30100D01*
X115040Y30576D01*
X114861Y31057D01*
X114694Y31543D01*
X114539Y32032D01*
X114396Y32524D01*
X114265Y33021D01*
X114147Y33520D01*
X114041Y34022D01*
X113947Y34526D01*
X113865Y35033D01*
X113796Y35541D01*
X113740Y36051D01*
X113696Y36562D01*
X113664Y37074D01*
X113645Y37587D01*
X113639Y38100D01*
X113645Y38613D01*
X113664Y39126D01*
X113696Y39638D01*
X113740Y40149D01*
X113796Y40659D01*
X113865Y41167D01*
X113947Y41674D01*
X114041Y42178D01*
X114147Y42680D01*
X114265Y43179D01*
X114396Y43676D01*
X114539Y44168D01*
X114694Y44657D01*
X114861Y45143D01*
X115040Y45624D01*
X115230Y46100D01*
X136230Y46100D01*
X146730Y22846D02*
X104730Y22846D01*
X104730Y53354D02*
X146730Y53354D01*
D10*
X128951Y14422D02*
X128949Y14348D01*
X128943Y14273D01*
X128934Y14200D01*
X128921Y14126D01*
X128904Y14054D01*
X128884Y13983D01*
X128860Y13912D01*
X128832Y13843D01*
X128801Y13775D01*
X128767Y13710D01*
X128729Y13645D01*
X128688Y13583D01*
X128644Y13523D01*
X128597Y13466D01*
X128547Y13411D01*
X128494Y13358D01*
X128439Y13308D01*
X128382Y13261D01*
X128322Y13217D01*
X128260Y13176D01*
X128195Y13138D01*
X128129Y13104D01*
X128062Y13073D01*
X127993Y13045D01*
X127922Y13021D01*
X127851Y13001D01*
X127778Y12984D01*
X127705Y12971D01*
X127631Y12962D01*
X127557Y12956D01*
X127483Y12954D01*
X127372Y12956D01*
X127261Y12962D01*
X127150Y12972D01*
X127039Y12986D01*
X126930Y13004D01*
X126821Y13026D01*
X126712Y13051D01*
X126605Y13081D01*
X126499Y13114D01*
X126394Y13152D01*
X126291Y13192D01*
X126189Y13237D01*
X126089Y13285D01*
X125990Y13337D01*
X125894Y13392D01*
X125799Y13451D01*
X125707Y13513D01*
X125617Y13579D01*
X125529Y13647D01*
X125444Y13719D01*
X125362Y13794D01*
X125282Y13871D01*
X125465Y18090D02*
X125467Y18164D01*
X125473Y18239D01*
X125482Y18312D01*
X125495Y18386D01*
X125512Y18458D01*
X125532Y18529D01*
X125556Y18600D01*
X125584Y18669D01*
X125615Y18736D01*
X125649Y18802D01*
X125687Y18867D01*
X125728Y18929D01*
X125772Y18989D01*
X125819Y19046D01*
X125869Y19101D01*
X125922Y19154D01*
X125977Y19204D01*
X126034Y19251D01*
X126094Y19295D01*
X126156Y19336D01*
X126221Y19374D01*
X126287Y19408D01*
X126354Y19439D01*
X126423Y19467D01*
X126494Y19491D01*
X126565Y19511D01*
X126637Y19528D01*
X126711Y19541D01*
X126784Y19550D01*
X126859Y19556D01*
X126933Y19558D01*
X127037Y19556D01*
X127141Y19550D01*
X127245Y19540D01*
X127348Y19527D01*
X127451Y19509D01*
X127553Y19487D01*
X127654Y19462D01*
X127754Y19433D01*
X127853Y19400D01*
X127950Y19363D01*
X128046Y19323D01*
X128141Y19279D01*
X128233Y19231D01*
X128324Y19181D01*
X128413Y19126D01*
X128500Y19069D01*
X128584Y19008D01*
X126199Y16805D02*
X126136Y16844D01*
X126076Y16886D01*
X126018Y16931D01*
X125961Y16979D01*
X125908Y17030D01*
X125857Y17083D01*
X125808Y17138D01*
X125763Y17196D01*
X125720Y17256D01*
X125680Y17318D01*
X125644Y17382D01*
X125610Y17448D01*
X125580Y17516D01*
X125553Y17584D01*
X125530Y17654D01*
X125510Y17725D01*
X125494Y17797D01*
X125481Y17870D01*
X125472Y17943D01*
X125467Y18016D01*
X125465Y18090D01*
X128217Y15707D02*
X128280Y15668D01*
X128340Y15626D01*
X128399Y15581D01*
X128455Y15533D01*
X128508Y15482D01*
X128559Y15429D01*
X128608Y15374D01*
X128653Y15316D01*
X128696Y15256D01*
X128736Y15194D01*
X128772Y15130D01*
X128806Y15064D01*
X128836Y14996D01*
X128863Y14928D01*
X128886Y14858D01*
X128906Y14787D01*
X128922Y14715D01*
X128935Y14642D01*
X128944Y14569D01*
X128949Y14496D01*
X128951Y14422D01*
X128217Y15706D02*
X126199Y16806D01*
X132228Y19558D02*
X133695Y12954D01*
X135163Y17357D01*
X136631Y12954D01*
X138098Y19558D01*
X141619Y18090D02*
X143454Y19558D01*
X143454Y12954D01*
X145288Y12954D02*
X141619Y12954D01*
X378170Y148590D02*
X386370Y148590D01*
X386370Y161290D02*
X378170Y161290D01*
D26*
X374956Y154925D03*
X389688Y154925D03*
D11*
X341628Y158369D02*
X341628Y151003D01*
X341628Y158369D02*
X343674Y158369D01*
X343763Y158367D01*
X343852Y158361D01*
X343941Y158351D01*
X344029Y158338D01*
X344117Y158321D01*
X344204Y158299D01*
X344289Y158274D01*
X344374Y158246D01*
X344457Y158213D01*
X344539Y158177D01*
X344619Y158138D01*
X344697Y158095D01*
X344773Y158049D01*
X344848Y157999D01*
X344920Y157946D01*
X344989Y157890D01*
X345056Y157831D01*
X345121Y157770D01*
X345182Y157705D01*
X345241Y157638D01*
X345297Y157569D01*
X345350Y157497D01*
X345400Y157422D01*
X345446Y157346D01*
X345489Y157268D01*
X345528Y157188D01*
X345564Y157106D01*
X345597Y157023D01*
X345625Y156938D01*
X345650Y156853D01*
X345672Y156766D01*
X345689Y156678D01*
X345702Y156590D01*
X345712Y156501D01*
X345718Y156412D01*
X345720Y156323D01*
X345718Y156234D01*
X345712Y156145D01*
X345702Y156056D01*
X345689Y155968D01*
X345672Y155880D01*
X345650Y155793D01*
X345625Y155708D01*
X345597Y155623D01*
X345564Y155540D01*
X345528Y155458D01*
X345489Y155378D01*
X345446Y155300D01*
X345400Y155224D01*
X345350Y155149D01*
X345297Y155077D01*
X345241Y155008D01*
X345182Y154941D01*
X345121Y154876D01*
X345056Y154815D01*
X344989Y154756D01*
X344920Y154700D01*
X344848Y154647D01*
X344773Y154597D01*
X344697Y154551D01*
X344619Y154508D01*
X344539Y154469D01*
X344457Y154433D01*
X344374Y154400D01*
X344289Y154372D01*
X344204Y154347D01*
X344117Y154325D01*
X344029Y154308D01*
X343941Y154295D01*
X343852Y154285D01*
X343763Y154279D01*
X343674Y154277D01*
X341628Y154277D01*
X344083Y154277D02*
X345720Y151003D01*
X348892Y156732D02*
X350938Y158369D01*
X350938Y151003D01*
X348892Y151003D02*
X352984Y151003D01*
X356207Y151003D02*
X358662Y151003D01*
X358740Y151005D01*
X358818Y151010D01*
X358895Y151020D01*
X358972Y151033D01*
X359048Y151049D01*
X359123Y151069D01*
X359197Y151093D01*
X359270Y151120D01*
X359342Y151151D01*
X359412Y151185D01*
X359481Y151222D01*
X359547Y151263D01*
X359612Y151307D01*
X359674Y151353D01*
X359734Y151403D01*
X359792Y151455D01*
X359847Y151510D01*
X359899Y151568D01*
X359949Y151628D01*
X359995Y151690D01*
X360039Y151755D01*
X360080Y151822D01*
X360117Y151890D01*
X360151Y151960D01*
X360182Y152032D01*
X360209Y152105D01*
X360233Y152179D01*
X360253Y152254D01*
X360269Y152330D01*
X360282Y152407D01*
X360292Y152484D01*
X360297Y152562D01*
X360299Y152640D01*
X360299Y153458D01*
X360297Y153536D01*
X360292Y153614D01*
X360282Y153691D01*
X360269Y153768D01*
X360253Y153844D01*
X360233Y153919D01*
X360209Y153993D01*
X360182Y154066D01*
X360151Y154138D01*
X360117Y154208D01*
X360080Y154277D01*
X360039Y154343D01*
X359995Y154408D01*
X359949Y154470D01*
X359899Y154530D01*
X359847Y154588D01*
X359792Y154643D01*
X359734Y154695D01*
X359674Y154745D01*
X359612Y154791D01*
X359547Y154835D01*
X359481Y154876D01*
X359412Y154913D01*
X359342Y154947D01*
X359270Y154978D01*
X359197Y155005D01*
X359123Y155029D01*
X359048Y155049D01*
X358972Y155065D01*
X358895Y155078D01*
X358818Y155088D01*
X358740Y155093D01*
X358662Y155095D01*
X356207Y155095D01*
X356207Y158369D01*
X360299Y158369D01*
D10*
X378170Y213360D02*
X386370Y213360D01*
X386370Y200660D02*
X378170Y200660D01*
D26*
X389584Y207025D03*
X374852Y207025D03*
D11*
X341628Y210439D02*
X341628Y203073D01*
X341628Y210439D02*
X343674Y210439D01*
X343763Y210437D01*
X343852Y210431D01*
X343941Y210421D01*
X344029Y210408D01*
X344117Y210391D01*
X344204Y210369D01*
X344289Y210344D01*
X344374Y210316D01*
X344457Y210283D01*
X344539Y210247D01*
X344619Y210208D01*
X344697Y210165D01*
X344773Y210119D01*
X344848Y210069D01*
X344920Y210016D01*
X344989Y209960D01*
X345056Y209901D01*
X345121Y209840D01*
X345182Y209775D01*
X345241Y209708D01*
X345297Y209639D01*
X345350Y209567D01*
X345400Y209492D01*
X345446Y209416D01*
X345489Y209338D01*
X345528Y209258D01*
X345564Y209176D01*
X345597Y209093D01*
X345625Y209008D01*
X345650Y208923D01*
X345672Y208836D01*
X345689Y208748D01*
X345702Y208660D01*
X345712Y208571D01*
X345718Y208482D01*
X345720Y208393D01*
X345718Y208304D01*
X345712Y208215D01*
X345702Y208126D01*
X345689Y208038D01*
X345672Y207950D01*
X345650Y207863D01*
X345625Y207778D01*
X345597Y207693D01*
X345564Y207610D01*
X345528Y207528D01*
X345489Y207448D01*
X345446Y207370D01*
X345400Y207294D01*
X345350Y207219D01*
X345297Y207147D01*
X345241Y207078D01*
X345182Y207011D01*
X345121Y206946D01*
X345056Y206885D01*
X344989Y206826D01*
X344920Y206770D01*
X344848Y206717D01*
X344773Y206667D01*
X344697Y206621D01*
X344619Y206578D01*
X344539Y206539D01*
X344457Y206503D01*
X344374Y206470D01*
X344289Y206442D01*
X344204Y206417D01*
X344117Y206395D01*
X344029Y206378D01*
X343941Y206365D01*
X343852Y206355D01*
X343763Y206349D01*
X343674Y206347D01*
X341628Y206347D01*
X344083Y206347D02*
X345720Y203073D01*
X348892Y208802D02*
X350938Y210439D01*
X350938Y203073D01*
X348892Y203073D02*
X352984Y203073D01*
X356207Y207165D02*
X358662Y207165D01*
X358740Y207163D01*
X358818Y207158D01*
X358895Y207148D01*
X358972Y207135D01*
X359048Y207119D01*
X359123Y207099D01*
X359197Y207075D01*
X359270Y207048D01*
X359342Y207017D01*
X359412Y206983D01*
X359481Y206946D01*
X359547Y206905D01*
X359612Y206861D01*
X359674Y206815D01*
X359734Y206765D01*
X359792Y206713D01*
X359847Y206658D01*
X359899Y206600D01*
X359949Y206540D01*
X359995Y206478D01*
X360039Y206413D01*
X360080Y206347D01*
X360117Y206278D01*
X360151Y206208D01*
X360182Y206136D01*
X360209Y206063D01*
X360233Y205989D01*
X360253Y205914D01*
X360269Y205838D01*
X360282Y205761D01*
X360292Y205684D01*
X360297Y205606D01*
X360299Y205528D01*
X360299Y205119D01*
X360297Y205030D01*
X360291Y204941D01*
X360281Y204852D01*
X360268Y204764D01*
X360251Y204676D01*
X360229Y204589D01*
X360204Y204504D01*
X360176Y204419D01*
X360143Y204336D01*
X360107Y204254D01*
X360068Y204174D01*
X360025Y204096D01*
X359979Y204020D01*
X359929Y203945D01*
X359876Y203873D01*
X359820Y203804D01*
X359761Y203737D01*
X359700Y203672D01*
X359635Y203611D01*
X359568Y203552D01*
X359499Y203496D01*
X359427Y203443D01*
X359352Y203393D01*
X359276Y203347D01*
X359198Y203304D01*
X359118Y203265D01*
X359036Y203229D01*
X358953Y203196D01*
X358868Y203168D01*
X358783Y203143D01*
X358696Y203121D01*
X358608Y203104D01*
X358520Y203091D01*
X358431Y203081D01*
X358342Y203075D01*
X358253Y203073D01*
X358164Y203075D01*
X358075Y203081D01*
X357986Y203091D01*
X357898Y203104D01*
X357810Y203121D01*
X357723Y203143D01*
X357638Y203168D01*
X357553Y203196D01*
X357470Y203229D01*
X357388Y203265D01*
X357308Y203304D01*
X357230Y203347D01*
X357154Y203393D01*
X357079Y203443D01*
X357007Y203496D01*
X356938Y203552D01*
X356871Y203611D01*
X356806Y203672D01*
X356745Y203737D01*
X356686Y203804D01*
X356630Y203873D01*
X356577Y203945D01*
X356527Y204020D01*
X356481Y204096D01*
X356438Y204174D01*
X356399Y204254D01*
X356363Y204336D01*
X356330Y204419D01*
X356302Y204504D01*
X356277Y204589D01*
X356255Y204676D01*
X356238Y204764D01*
X356225Y204852D01*
X356215Y204941D01*
X356209Y205030D01*
X356207Y205119D01*
X356207Y207165D01*
X356209Y207279D01*
X356215Y207393D01*
X356225Y207507D01*
X356239Y207621D01*
X356257Y207734D01*
X356279Y207846D01*
X356304Y207957D01*
X356334Y208067D01*
X356367Y208177D01*
X356404Y208285D01*
X356445Y208391D01*
X356490Y208497D01*
X356538Y208600D01*
X356590Y208702D01*
X356646Y208802D01*
X356704Y208900D01*
X356767Y208996D01*
X356832Y209089D01*
X356901Y209181D01*
X356973Y209269D01*
X357048Y209356D01*
X357126Y209439D01*
X357207Y209520D01*
X357290Y209598D01*
X357377Y209673D01*
X357465Y209745D01*
X357557Y209814D01*
X357650Y209879D01*
X357746Y209941D01*
X357844Y210000D01*
X357944Y210056D01*
X358046Y210108D01*
X358149Y210156D01*
X358255Y210201D01*
X358361Y210242D01*
X358469Y210279D01*
X358579Y210312D01*
X358689Y210342D01*
X358800Y210367D01*
X358912Y210389D01*
X359025Y210407D01*
X359139Y210421D01*
X359253Y210431D01*
X359367Y210437D01*
X359481Y210439D01*
D10*
X292100Y234950D02*
X285750Y241300D01*
X304800Y234950D02*
X311150Y241300D01*
X317500Y234950D01*
X330200Y234950D02*
X336550Y241300D01*
X342900Y234950D01*
X355600Y234950D02*
X361950Y241300D01*
X368300Y234950D01*
X381000Y234950D02*
X387350Y241300D01*
X393700Y234950D01*
X406400Y234950D02*
X412750Y241300D01*
X285750Y241300D02*
X285750Y279400D01*
X292100Y285750D01*
X304800Y285750D01*
X311150Y279400D01*
X317500Y285750D01*
X330200Y285750D01*
X336550Y279400D01*
X342900Y285750D01*
X355600Y285750D01*
X361950Y279400D01*
X368300Y285750D01*
X381000Y285750D01*
X387350Y279400D01*
X393700Y285750D01*
X406400Y285750D01*
X412750Y279400D01*
X311150Y279400D02*
X311150Y241300D01*
X336550Y241300D02*
X336550Y279400D01*
X361950Y279400D02*
X361950Y241300D01*
X387350Y241300D02*
X387350Y279400D01*
X412750Y279400D02*
X412750Y241300D01*
X406400Y234950D02*
X393700Y234950D01*
X381000Y234950D02*
X368300Y234950D01*
X355600Y234950D02*
X342900Y234950D01*
X330200Y234950D02*
X317500Y234950D01*
X304800Y234950D02*
X292100Y234950D01*
X412750Y241300D02*
X419100Y234950D01*
X431800Y234950D02*
X438150Y241300D01*
X412750Y279400D02*
X419100Y285750D01*
X431800Y285750D01*
X438150Y279400D01*
X438150Y241300D01*
X431800Y234950D02*
X419100Y234950D01*
D12*
X298450Y247650D03*
X298450Y273050D03*
X323850Y273050D03*
X323850Y247650D03*
X349250Y273050D03*
X349250Y247650D03*
X374650Y273050D03*
X400050Y273050D03*
X374650Y247650D03*
X400050Y247650D03*
X425450Y273050D03*
X425450Y247650D03*
D27*
X396875Y57150D02*
X396875Y19050D01*
D22*
X367030Y20574D02*
X367030Y55626D01*
X394970Y55626D02*
X394970Y20574D01*
X394970Y55626D02*
X367030Y55626D01*
X367030Y20574D02*
X394970Y20574D01*
D27*
X365125Y19050D02*
X365125Y57150D01*
X366713Y57150D01*
X366713Y19050D02*
X365125Y19050D01*
X395288Y19050D02*
X396875Y19050D01*
X396875Y57150D02*
X395288Y57150D01*
D28*
X362385Y15203D03*
D13*
X362903Y33925D02*
X358077Y33925D01*
X358077Y35265D01*
X358076Y35265D02*
X358078Y35335D01*
X358083Y35405D01*
X358093Y35475D01*
X358105Y35544D01*
X358122Y35612D01*
X358142Y35679D01*
X358165Y35746D01*
X358192Y35810D01*
X358222Y35874D01*
X358256Y35936D01*
X358292Y35995D01*
X358332Y36053D01*
X358375Y36109D01*
X358420Y36162D01*
X358469Y36213D01*
X358520Y36262D01*
X358573Y36307D01*
X358629Y36350D01*
X358687Y36390D01*
X358747Y36426D01*
X358808Y36460D01*
X358872Y36490D01*
X358936Y36517D01*
X359003Y36540D01*
X359070Y36560D01*
X359138Y36577D01*
X359207Y36589D01*
X359277Y36599D01*
X359347Y36604D01*
X359417Y36606D01*
X361562Y36606D01*
X361632Y36604D01*
X361702Y36599D01*
X361772Y36589D01*
X361841Y36577D01*
X361909Y36560D01*
X361976Y36540D01*
X362043Y36517D01*
X362107Y36490D01*
X362171Y36460D01*
X362233Y36426D01*
X362292Y36390D01*
X362350Y36350D01*
X362406Y36307D01*
X362459Y36262D01*
X362510Y36213D01*
X362559Y36162D01*
X362604Y36109D01*
X362647Y36053D01*
X362687Y35995D01*
X362723Y35935D01*
X362757Y35874D01*
X362787Y35810D01*
X362814Y35746D01*
X362837Y35679D01*
X362857Y35612D01*
X362874Y35544D01*
X362886Y35475D01*
X362896Y35405D01*
X362901Y35335D01*
X362903Y35265D01*
X362903Y33925D01*
X358076Y41069D02*
X358078Y41137D01*
X358084Y41204D01*
X358093Y41271D01*
X358106Y41338D01*
X358123Y41403D01*
X358144Y41468D01*
X358168Y41531D01*
X358196Y41593D01*
X358227Y41653D01*
X358261Y41711D01*
X358299Y41767D01*
X358339Y41822D01*
X358383Y41873D01*
X358430Y41922D01*
X358479Y41969D01*
X358530Y42013D01*
X358585Y42053D01*
X358641Y42091D01*
X358699Y42125D01*
X358759Y42156D01*
X358821Y42184D01*
X358884Y42208D01*
X358949Y42229D01*
X359014Y42246D01*
X359081Y42259D01*
X359148Y42268D01*
X359215Y42274D01*
X359283Y42276D01*
X358076Y41069D02*
X358078Y40991D01*
X358084Y40913D01*
X358094Y40836D01*
X358107Y40759D01*
X358125Y40683D01*
X358146Y40608D01*
X358171Y40534D01*
X358200Y40462D01*
X358232Y40391D01*
X358268Y40322D01*
X358307Y40254D01*
X358350Y40189D01*
X358396Y40126D01*
X358445Y40065D01*
X358497Y40007D01*
X358552Y39952D01*
X358609Y39899D01*
X358669Y39850D01*
X358732Y39803D01*
X358797Y39760D01*
X358863Y39720D01*
X358932Y39683D01*
X359003Y39650D01*
X359075Y39620D01*
X359149Y39594D01*
X360221Y41873D02*
X360172Y41922D01*
X360120Y41969D01*
X360065Y42012D01*
X360008Y42053D01*
X359949Y42091D01*
X359888Y42125D01*
X359825Y42156D01*
X359761Y42184D01*
X359695Y42208D01*
X359629Y42228D01*
X359561Y42245D01*
X359492Y42258D01*
X359423Y42267D01*
X359353Y42273D01*
X359283Y42275D01*
X360221Y41873D02*
X362903Y39594D01*
X362903Y42275D01*
D29*
X44450Y71120D02*
X44450Y73660D01*
X44450Y17780D02*
X44450Y15240D01*
X457200Y71120D02*
X457200Y73660D01*
X457200Y17780D02*
X457200Y15240D01*
X250825Y71120D02*
X250825Y73660D01*
X250825Y17780D02*
X250825Y15240D01*
D13*
X304540Y195840D02*
X335540Y195840D01*
X335540Y164840D01*
X304540Y164840D01*
X304540Y195840D01*
X304540Y193940D01*
X304540Y195840D02*
X311440Y195840D01*
X328640Y195840D02*
X335540Y195840D01*
X335540Y193940D01*
X304540Y166740D02*
X304540Y164840D01*
X311440Y164840D01*
X328640Y164840D02*
X335540Y164840D01*
X335540Y166740D01*
D30*
X299540Y190340D02*
X299542Y190384D01*
X299548Y190428D01*
X299558Y190471D01*
X299571Y190513D01*
X299588Y190554D01*
X299609Y190593D01*
X299633Y190630D01*
X299660Y190665D01*
X299690Y190697D01*
X299723Y190727D01*
X299759Y190753D01*
X299796Y190777D01*
X299836Y190796D01*
X299877Y190813D01*
X299920Y190825D01*
X299963Y190834D01*
X300007Y190839D01*
X300051Y190840D01*
X300095Y190837D01*
X300139Y190830D01*
X300182Y190819D01*
X300224Y190805D01*
X300264Y190787D01*
X300303Y190765D01*
X300339Y190741D01*
X300373Y190713D01*
X300405Y190682D01*
X300434Y190648D01*
X300460Y190612D01*
X300482Y190574D01*
X300501Y190534D01*
X300516Y190492D01*
X300528Y190450D01*
X300536Y190406D01*
X300540Y190362D01*
X300540Y190318D01*
X300536Y190274D01*
X300528Y190230D01*
X300516Y190188D01*
X300501Y190146D01*
X300482Y190106D01*
X300460Y190068D01*
X300434Y190032D01*
X300405Y189998D01*
X300373Y189967D01*
X300339Y189939D01*
X300303Y189915D01*
X300264Y189893D01*
X300224Y189875D01*
X300182Y189861D01*
X300139Y189850D01*
X300095Y189843D01*
X300051Y189840D01*
X300007Y189841D01*
X299963Y189846D01*
X299920Y189855D01*
X299877Y189867D01*
X299836Y189884D01*
X299796Y189903D01*
X299759Y189927D01*
X299723Y189953D01*
X299690Y189983D01*
X299660Y190015D01*
X299633Y190050D01*
X299609Y190087D01*
X299588Y190126D01*
X299571Y190167D01*
X299558Y190209D01*
X299548Y190252D01*
X299542Y190296D01*
X299540Y190340D01*
X307040Y190340D02*
X307042Y190384D01*
X307048Y190428D01*
X307058Y190471D01*
X307071Y190513D01*
X307088Y190554D01*
X307109Y190593D01*
X307133Y190630D01*
X307160Y190665D01*
X307190Y190697D01*
X307223Y190727D01*
X307259Y190753D01*
X307296Y190777D01*
X307336Y190796D01*
X307377Y190813D01*
X307420Y190825D01*
X307463Y190834D01*
X307507Y190839D01*
X307551Y190840D01*
X307595Y190837D01*
X307639Y190830D01*
X307682Y190819D01*
X307724Y190805D01*
X307764Y190787D01*
X307803Y190765D01*
X307839Y190741D01*
X307873Y190713D01*
X307905Y190682D01*
X307934Y190648D01*
X307960Y190612D01*
X307982Y190574D01*
X308001Y190534D01*
X308016Y190492D01*
X308028Y190450D01*
X308036Y190406D01*
X308040Y190362D01*
X308040Y190318D01*
X308036Y190274D01*
X308028Y190230D01*
X308016Y190188D01*
X308001Y190146D01*
X307982Y190106D01*
X307960Y190068D01*
X307934Y190032D01*
X307905Y189998D01*
X307873Y189967D01*
X307839Y189939D01*
X307803Y189915D01*
X307764Y189893D01*
X307724Y189875D01*
X307682Y189861D01*
X307639Y189850D01*
X307595Y189843D01*
X307551Y189840D01*
X307507Y189841D01*
X307463Y189846D01*
X307420Y189855D01*
X307377Y189867D01*
X307336Y189884D01*
X307296Y189903D01*
X307259Y189927D01*
X307223Y189953D01*
X307190Y189983D01*
X307160Y190015D01*
X307133Y190050D01*
X307109Y190087D01*
X307088Y190126D01*
X307071Y190167D01*
X307058Y190209D01*
X307048Y190252D01*
X307042Y190296D01*
X307040Y190340D01*
D29*
X315434Y161821D02*
X315434Y157770D01*
X315436Y157692D01*
X315442Y157615D01*
X315451Y157538D01*
X315465Y157461D01*
X315482Y157386D01*
X315503Y157311D01*
X315528Y157237D01*
X315556Y157165D01*
X315588Y157094D01*
X315624Y157025D01*
X315663Y156958D01*
X315705Y156892D01*
X315750Y156829D01*
X315799Y156769D01*
X315850Y156710D01*
X315904Y156655D01*
X315961Y156602D01*
X316021Y156552D01*
X316083Y156505D01*
X316147Y156461D01*
X316213Y156421D01*
X316281Y156384D01*
X316351Y156350D01*
X316423Y156320D01*
X316496Y156293D01*
X316570Y156270D01*
X316645Y156251D01*
X316721Y156236D01*
X316798Y156224D01*
X316876Y156216D01*
X316953Y156212D01*
X317031Y156212D01*
X317108Y156216D01*
X317186Y156224D01*
X317263Y156236D01*
X317339Y156251D01*
X317414Y156270D01*
X317488Y156293D01*
X317561Y156320D01*
X317633Y156350D01*
X317703Y156384D01*
X317771Y156421D01*
X317837Y156461D01*
X317901Y156505D01*
X317963Y156552D01*
X318023Y156602D01*
X318080Y156655D01*
X318134Y156710D01*
X318185Y156769D01*
X318234Y156829D01*
X318279Y156892D01*
X318321Y156958D01*
X318360Y157025D01*
X318396Y157094D01*
X318428Y157165D01*
X318456Y157237D01*
X318481Y157311D01*
X318502Y157386D01*
X318519Y157461D01*
X318533Y157538D01*
X318542Y157615D01*
X318548Y157692D01*
X318550Y157770D01*
X318550Y161821D01*
X321123Y159328D02*
X322993Y159328D01*
X323063Y159326D01*
X323133Y159320D01*
X323202Y159310D01*
X323270Y159297D01*
X323338Y159279D01*
X323405Y159258D01*
X323470Y159233D01*
X323534Y159205D01*
X323596Y159173D01*
X323656Y159137D01*
X323714Y159098D01*
X323770Y159056D01*
X323823Y159011D01*
X323874Y158963D01*
X323922Y158912D01*
X323967Y158859D01*
X324009Y158803D01*
X324048Y158745D01*
X324084Y158685D01*
X324116Y158623D01*
X324144Y158559D01*
X324169Y158494D01*
X324190Y158427D01*
X324208Y158359D01*
X324221Y158291D01*
X324231Y158222D01*
X324237Y158152D01*
X324239Y158082D01*
X324239Y157770D01*
X324237Y157692D01*
X324231Y157615D01*
X324222Y157538D01*
X324208Y157461D01*
X324191Y157386D01*
X324170Y157311D01*
X324145Y157237D01*
X324117Y157165D01*
X324085Y157094D01*
X324049Y157025D01*
X324010Y156958D01*
X323968Y156892D01*
X323923Y156829D01*
X323874Y156769D01*
X323823Y156710D01*
X323769Y156655D01*
X323712Y156602D01*
X323652Y156552D01*
X323590Y156505D01*
X323526Y156461D01*
X323460Y156421D01*
X323392Y156384D01*
X323322Y156350D01*
X323250Y156320D01*
X323177Y156293D01*
X323103Y156270D01*
X323028Y156251D01*
X322952Y156236D01*
X322875Y156224D01*
X322797Y156216D01*
X322720Y156212D01*
X322642Y156212D01*
X322565Y156216D01*
X322487Y156224D01*
X322410Y156236D01*
X322334Y156251D01*
X322259Y156270D01*
X322185Y156293D01*
X322112Y156320D01*
X322040Y156350D01*
X321970Y156384D01*
X321902Y156421D01*
X321836Y156461D01*
X321772Y156505D01*
X321710Y156552D01*
X321650Y156602D01*
X321593Y156655D01*
X321539Y156710D01*
X321488Y156769D01*
X321439Y156829D01*
X321394Y156892D01*
X321352Y156958D01*
X321313Y157025D01*
X321277Y157094D01*
X321245Y157165D01*
X321217Y157237D01*
X321192Y157311D01*
X321171Y157386D01*
X321154Y157461D01*
X321140Y157538D01*
X321131Y157615D01*
X321125Y157692D01*
X321123Y157770D01*
X321123Y159328D01*
X321125Y159426D01*
X321131Y159524D01*
X321140Y159621D01*
X321154Y159718D01*
X321171Y159814D01*
X321192Y159910D01*
X321217Y160005D01*
X321245Y160098D01*
X321277Y160191D01*
X321313Y160282D01*
X321352Y160372D01*
X321395Y160460D01*
X321441Y160546D01*
X321490Y160631D01*
X321543Y160713D01*
X321599Y160793D01*
X321658Y160871D01*
X321720Y160947D01*
X321785Y161020D01*
X321853Y161091D01*
X321924Y161159D01*
X321997Y161224D01*
X322073Y161286D01*
X322151Y161345D01*
X322231Y161401D01*
X322313Y161454D01*
X322398Y161503D01*
X322484Y161549D01*
X322572Y161592D01*
X322662Y161631D01*
X322753Y161667D01*
X322846Y161699D01*
X322939Y161727D01*
X323034Y161752D01*
X323130Y161773D01*
X323226Y161790D01*
X323323Y161804D01*
X323420Y161813D01*
X323518Y161819D01*
X323616Y161821D01*
D14*
X378460Y188210D02*
X386080Y188210D01*
X386080Y175010D02*
X378710Y175010D01*
D31*
X375099Y181622D03*
X389577Y181622D03*
D11*
X346046Y182753D02*
X344409Y182753D01*
X344331Y182755D01*
X344253Y182760D01*
X344176Y182770D01*
X344099Y182783D01*
X344023Y182799D01*
X343948Y182819D01*
X343874Y182843D01*
X343801Y182870D01*
X343729Y182901D01*
X343659Y182935D01*
X343591Y182972D01*
X343524Y183013D01*
X343459Y183057D01*
X343397Y183103D01*
X343337Y183153D01*
X343279Y183205D01*
X343224Y183260D01*
X343172Y183318D01*
X343122Y183378D01*
X343076Y183440D01*
X343032Y183505D01*
X342991Y183572D01*
X342954Y183640D01*
X342920Y183710D01*
X342889Y183782D01*
X342862Y183855D01*
X342838Y183929D01*
X342818Y184004D01*
X342802Y184080D01*
X342789Y184157D01*
X342779Y184234D01*
X342774Y184312D01*
X342772Y184390D01*
X342773Y184390D02*
X342773Y188482D01*
X342772Y188482D02*
X342774Y188562D01*
X342780Y188642D01*
X342790Y188722D01*
X342803Y188801D01*
X342821Y188880D01*
X342842Y188957D01*
X342868Y189033D01*
X342897Y189108D01*
X342929Y189182D01*
X342965Y189254D01*
X343005Y189324D01*
X343048Y189391D01*
X343094Y189457D01*
X343144Y189520D01*
X343196Y189581D01*
X343251Y189640D01*
X343310Y189695D01*
X343370Y189747D01*
X343434Y189797D01*
X343500Y189843D01*
X343567Y189886D01*
X343637Y189926D01*
X343709Y189962D01*
X343783Y189994D01*
X343857Y190023D01*
X343934Y190049D01*
X344011Y190070D01*
X344090Y190088D01*
X344169Y190101D01*
X344249Y190111D01*
X344329Y190117D01*
X344409Y190119D01*
X346046Y190119D01*
X348892Y188482D02*
X350938Y190119D01*
X350938Y182753D01*
X348892Y182753D02*
X352984Y182753D01*
X356207Y182753D02*
X358662Y182753D01*
X358740Y182755D01*
X358818Y182760D01*
X358895Y182770D01*
X358972Y182783D01*
X359048Y182799D01*
X359123Y182819D01*
X359197Y182843D01*
X359270Y182870D01*
X359342Y182901D01*
X359412Y182935D01*
X359481Y182972D01*
X359547Y183013D01*
X359612Y183057D01*
X359674Y183103D01*
X359734Y183153D01*
X359792Y183205D01*
X359847Y183260D01*
X359899Y183318D01*
X359949Y183378D01*
X359995Y183440D01*
X360039Y183505D01*
X360080Y183572D01*
X360117Y183640D01*
X360151Y183710D01*
X360182Y183782D01*
X360209Y183855D01*
X360233Y183929D01*
X360253Y184004D01*
X360269Y184080D01*
X360282Y184157D01*
X360292Y184234D01*
X360297Y184312D01*
X360299Y184390D01*
X360299Y185208D01*
X360297Y185286D01*
X360292Y185364D01*
X360282Y185441D01*
X360269Y185518D01*
X360253Y185594D01*
X360233Y185669D01*
X360209Y185743D01*
X360182Y185816D01*
X360151Y185888D01*
X360117Y185958D01*
X360080Y186027D01*
X360039Y186093D01*
X359995Y186158D01*
X359949Y186220D01*
X359899Y186280D01*
X359847Y186338D01*
X359792Y186393D01*
X359734Y186445D01*
X359674Y186495D01*
X359612Y186541D01*
X359547Y186585D01*
X359481Y186626D01*
X359412Y186663D01*
X359342Y186697D01*
X359270Y186728D01*
X359197Y186755D01*
X359123Y186779D01*
X359048Y186799D01*
X358972Y186815D01*
X358895Y186828D01*
X358818Y186838D01*
X358740Y186843D01*
X358662Y186845D01*
X356207Y186845D01*
X356207Y190119D01*
X360299Y190119D01*
D25*
X449740Y168260D02*
X467200Y168260D01*
X449740Y168260D02*
X449740Y182260D01*
X467200Y182260D01*
X467200Y168260D01*
X461470Y175260D02*
X455470Y171260D01*
X455470Y179260D01*
X461470Y175260D01*
D32*
X471950Y175510D03*
X444990Y175510D03*
D33*
X462470Y175260D03*
D10*
X487172Y177546D02*
X487172Y170942D01*
X487172Y177546D02*
X489006Y177546D01*
X489091Y177544D01*
X489175Y177538D01*
X489259Y177528D01*
X489343Y177515D01*
X489426Y177497D01*
X489508Y177476D01*
X489589Y177451D01*
X489669Y177422D01*
X489747Y177390D01*
X489823Y177354D01*
X489898Y177314D01*
X489971Y177271D01*
X490042Y177225D01*
X490111Y177176D01*
X490178Y177123D01*
X490242Y177067D01*
X490303Y177009D01*
X490361Y176948D01*
X490417Y176884D01*
X490470Y176817D01*
X490519Y176748D01*
X490565Y176677D01*
X490608Y176604D01*
X490648Y176529D01*
X490684Y176453D01*
X490716Y176375D01*
X490745Y176295D01*
X490770Y176214D01*
X490791Y176132D01*
X490809Y176049D01*
X490822Y175965D01*
X490832Y175881D01*
X490838Y175797D01*
X490840Y175712D01*
X490841Y175712D02*
X490841Y172776D01*
X490840Y172776D02*
X490838Y172691D01*
X490832Y172607D01*
X490822Y172523D01*
X490809Y172439D01*
X490791Y172356D01*
X490770Y172274D01*
X490745Y172193D01*
X490716Y172113D01*
X490684Y172035D01*
X490648Y171959D01*
X490608Y171884D01*
X490565Y171811D01*
X490519Y171740D01*
X490470Y171671D01*
X490417Y171604D01*
X490361Y171540D01*
X490303Y171479D01*
X490242Y171421D01*
X490178Y171365D01*
X490111Y171312D01*
X490042Y171263D01*
X489971Y171217D01*
X489898Y171174D01*
X489823Y171134D01*
X489747Y171098D01*
X489669Y171066D01*
X489589Y171037D01*
X489508Y171012D01*
X489426Y170991D01*
X489343Y170973D01*
X489259Y170960D01*
X489175Y170950D01*
X489091Y170944D01*
X489006Y170942D01*
X487172Y170942D01*
X494731Y170942D02*
X496565Y170942D01*
X496650Y170944D01*
X496734Y170950D01*
X496818Y170960D01*
X496902Y170973D01*
X496985Y170991D01*
X497067Y171012D01*
X497148Y171037D01*
X497228Y171066D01*
X497306Y171098D01*
X497382Y171134D01*
X497457Y171174D01*
X497530Y171217D01*
X497601Y171263D01*
X497670Y171312D01*
X497737Y171365D01*
X497801Y171421D01*
X497862Y171479D01*
X497920Y171540D01*
X497976Y171604D01*
X498029Y171671D01*
X498078Y171740D01*
X498124Y171811D01*
X498167Y171884D01*
X498207Y171959D01*
X498243Y172035D01*
X498275Y172113D01*
X498304Y172193D01*
X498329Y172274D01*
X498350Y172356D01*
X498368Y172439D01*
X498381Y172523D01*
X498391Y172607D01*
X498397Y172691D01*
X498399Y172776D01*
X498397Y172861D01*
X498391Y172945D01*
X498381Y173029D01*
X498368Y173113D01*
X498350Y173196D01*
X498329Y173278D01*
X498304Y173359D01*
X498275Y173439D01*
X498243Y173517D01*
X498207Y173593D01*
X498167Y173668D01*
X498124Y173741D01*
X498078Y173812D01*
X498029Y173881D01*
X497976Y173948D01*
X497920Y174012D01*
X497862Y174073D01*
X497801Y174131D01*
X497737Y174187D01*
X497670Y174240D01*
X497601Y174289D01*
X497530Y174335D01*
X497457Y174378D01*
X497382Y174418D01*
X497306Y174454D01*
X497228Y174486D01*
X497148Y174515D01*
X497067Y174540D01*
X496985Y174561D01*
X496902Y174579D01*
X496818Y174592D01*
X496734Y174602D01*
X496650Y174608D01*
X496565Y174610D01*
X496932Y177546D02*
X494731Y177546D01*
X496932Y177546D02*
X497008Y177544D01*
X497083Y177538D01*
X497158Y177529D01*
X497232Y177515D01*
X497306Y177498D01*
X497378Y177476D01*
X497450Y177452D01*
X497520Y177423D01*
X497588Y177391D01*
X497655Y177356D01*
X497720Y177317D01*
X497783Y177274D01*
X497843Y177229D01*
X497901Y177181D01*
X497957Y177129D01*
X498009Y177075D01*
X498059Y177018D01*
X498106Y176959D01*
X498150Y176898D01*
X498191Y176834D01*
X498228Y176768D01*
X498262Y176700D01*
X498292Y176631D01*
X498319Y176560D01*
X498342Y176488D01*
X498361Y176415D01*
X498376Y176341D01*
X498388Y176266D01*
X498396Y176191D01*
X498400Y176116D01*
X498400Y176040D01*
X498396Y175965D01*
X498388Y175890D01*
X498376Y175815D01*
X498361Y175741D01*
X498342Y175668D01*
X498319Y175596D01*
X498292Y175525D01*
X498262Y175456D01*
X498228Y175388D01*
X498191Y175322D01*
X498150Y175258D01*
X498106Y175197D01*
X498059Y175138D01*
X498009Y175081D01*
X497957Y175027D01*
X497901Y174975D01*
X497843Y174927D01*
X497783Y174882D01*
X497720Y174839D01*
X497655Y174800D01*
X497588Y174765D01*
X497520Y174733D01*
X497450Y174704D01*
X497378Y174680D01*
X497306Y174658D01*
X497232Y174641D01*
X497158Y174627D01*
X497083Y174618D01*
X497008Y174612D01*
X496932Y174610D01*
X496932Y174611D02*
X495465Y174611D01*
X471654Y201676D02*
X471654Y214884D01*
X471654Y201676D02*
X440206Y201676D01*
X440206Y214884D01*
D25*
X471654Y214884D01*
X440206Y214884D02*
X440206Y201756D01*
X440206Y214884D02*
X450294Y214884D01*
X471654Y214884D02*
X471654Y201756D01*
X471654Y214884D02*
X461566Y214884D01*
X459654Y201676D02*
X452066Y201676D01*
D34*
X455930Y218313D03*
X465328Y198247D03*
X446532Y198247D03*
D10*
X480822Y209606D02*
X480822Y212542D01*
X480824Y212627D01*
X480830Y212711D01*
X480840Y212795D01*
X480853Y212879D01*
X480871Y212962D01*
X480892Y213044D01*
X480917Y213125D01*
X480946Y213205D01*
X480978Y213283D01*
X481014Y213359D01*
X481054Y213434D01*
X481097Y213507D01*
X481143Y213578D01*
X481192Y213647D01*
X481245Y213714D01*
X481301Y213778D01*
X481359Y213839D01*
X481420Y213897D01*
X481484Y213953D01*
X481551Y214006D01*
X481620Y214055D01*
X481691Y214101D01*
X481764Y214144D01*
X481839Y214184D01*
X481915Y214220D01*
X481993Y214252D01*
X482073Y214281D01*
X482154Y214306D01*
X482236Y214327D01*
X482319Y214345D01*
X482403Y214358D01*
X482487Y214368D01*
X482571Y214374D01*
X482656Y214376D01*
X482741Y214374D01*
X482825Y214368D01*
X482909Y214358D01*
X482993Y214345D01*
X483076Y214327D01*
X483158Y214306D01*
X483239Y214281D01*
X483319Y214252D01*
X483397Y214220D01*
X483473Y214184D01*
X483548Y214144D01*
X483621Y214101D01*
X483692Y214055D01*
X483761Y214006D01*
X483828Y213953D01*
X483892Y213897D01*
X483953Y213839D01*
X484011Y213778D01*
X484067Y213714D01*
X484120Y213647D01*
X484169Y213578D01*
X484215Y213507D01*
X484258Y213434D01*
X484298Y213359D01*
X484334Y213283D01*
X484366Y213205D01*
X484395Y213125D01*
X484420Y213044D01*
X484441Y212962D01*
X484459Y212879D01*
X484472Y212795D01*
X484482Y212711D01*
X484488Y212627D01*
X484490Y212542D01*
X484491Y212542D02*
X484491Y209606D01*
X484490Y209606D02*
X484488Y209521D01*
X484482Y209437D01*
X484472Y209353D01*
X484459Y209269D01*
X484441Y209186D01*
X484420Y209104D01*
X484395Y209023D01*
X484366Y208943D01*
X484334Y208865D01*
X484298Y208789D01*
X484258Y208714D01*
X484215Y208641D01*
X484169Y208570D01*
X484120Y208501D01*
X484067Y208434D01*
X484011Y208370D01*
X483953Y208309D01*
X483892Y208251D01*
X483828Y208195D01*
X483761Y208142D01*
X483692Y208093D01*
X483621Y208047D01*
X483548Y208004D01*
X483473Y207964D01*
X483397Y207928D01*
X483319Y207896D01*
X483239Y207867D01*
X483158Y207842D01*
X483076Y207821D01*
X482993Y207803D01*
X482909Y207790D01*
X482825Y207780D01*
X482741Y207774D01*
X482656Y207772D01*
X482571Y207774D01*
X482487Y207780D01*
X482403Y207790D01*
X482319Y207803D01*
X482236Y207821D01*
X482154Y207842D01*
X482073Y207867D01*
X481993Y207896D01*
X481915Y207928D01*
X481839Y207964D01*
X481764Y208004D01*
X481691Y208047D01*
X481620Y208093D01*
X481551Y208142D01*
X481484Y208195D01*
X481420Y208251D01*
X481359Y208309D01*
X481301Y208370D01*
X481245Y208434D01*
X481192Y208501D01*
X481143Y208570D01*
X481097Y208641D01*
X481054Y208714D01*
X481014Y208789D01*
X480978Y208865D01*
X480946Y208943D01*
X480917Y209023D01*
X480892Y209104D01*
X480871Y209186D01*
X480853Y209269D01*
X480840Y209353D01*
X480830Y209437D01*
X480824Y209521D01*
X480822Y209606D01*
X483757Y209240D02*
X485225Y207772D01*
X487667Y207772D02*
X489869Y207772D01*
X489943Y207774D01*
X490018Y207780D01*
X490091Y207789D01*
X490165Y207802D01*
X490237Y207819D01*
X490308Y207839D01*
X490379Y207863D01*
X490448Y207891D01*
X490515Y207922D01*
X490581Y207956D01*
X490646Y207994D01*
X490708Y208035D01*
X490768Y208079D01*
X490825Y208126D01*
X490880Y208176D01*
X490933Y208229D01*
X490983Y208284D01*
X491030Y208341D01*
X491074Y208401D01*
X491115Y208463D01*
X491153Y208528D01*
X491187Y208593D01*
X491218Y208661D01*
X491246Y208730D01*
X491270Y208801D01*
X491290Y208872D01*
X491307Y208944D01*
X491320Y209018D01*
X491329Y209091D01*
X491335Y209166D01*
X491337Y209240D01*
X491336Y209240D02*
X491336Y209973D01*
X491337Y209973D02*
X491335Y210047D01*
X491329Y210122D01*
X491320Y210195D01*
X491307Y210269D01*
X491290Y210341D01*
X491270Y210412D01*
X491246Y210483D01*
X491218Y210552D01*
X491187Y210619D01*
X491153Y210685D01*
X491115Y210750D01*
X491074Y210812D01*
X491030Y210872D01*
X490983Y210929D01*
X490933Y210984D01*
X490880Y211037D01*
X490825Y211087D01*
X490768Y211134D01*
X490708Y211178D01*
X490646Y211219D01*
X490581Y211257D01*
X490515Y211291D01*
X490448Y211322D01*
X490379Y211350D01*
X490308Y211374D01*
X490237Y211394D01*
X490165Y211411D01*
X490091Y211424D01*
X490018Y211433D01*
X489943Y211439D01*
X489869Y211441D01*
X487667Y211441D01*
X487667Y214376D01*
X491336Y214376D01*
X386370Y135890D02*
X378170Y135890D01*
X378170Y123190D02*
X386370Y123190D01*
D26*
X389584Y129555D03*
X374852Y129555D03*
D11*
X340358Y133223D02*
X340358Y140589D01*
X342404Y140589D01*
X342493Y140587D01*
X342582Y140581D01*
X342671Y140571D01*
X342759Y140558D01*
X342847Y140541D01*
X342934Y140519D01*
X343019Y140494D01*
X343104Y140466D01*
X343187Y140433D01*
X343269Y140397D01*
X343349Y140358D01*
X343427Y140315D01*
X343503Y140269D01*
X343578Y140219D01*
X343650Y140166D01*
X343719Y140110D01*
X343786Y140051D01*
X343851Y139990D01*
X343912Y139925D01*
X343971Y139858D01*
X344027Y139789D01*
X344080Y139717D01*
X344130Y139642D01*
X344176Y139566D01*
X344219Y139488D01*
X344258Y139408D01*
X344294Y139326D01*
X344327Y139243D01*
X344355Y139158D01*
X344380Y139073D01*
X344402Y138986D01*
X344419Y138898D01*
X344432Y138810D01*
X344442Y138721D01*
X344448Y138632D01*
X344450Y138543D01*
X344448Y138454D01*
X344442Y138365D01*
X344432Y138276D01*
X344419Y138188D01*
X344402Y138100D01*
X344380Y138013D01*
X344355Y137928D01*
X344327Y137843D01*
X344294Y137760D01*
X344258Y137678D01*
X344219Y137598D01*
X344176Y137520D01*
X344130Y137444D01*
X344080Y137369D01*
X344027Y137297D01*
X343971Y137228D01*
X343912Y137161D01*
X343851Y137096D01*
X343786Y137035D01*
X343719Y136976D01*
X343650Y136920D01*
X343578Y136867D01*
X343503Y136817D01*
X343427Y136771D01*
X343349Y136728D01*
X343269Y136689D01*
X343187Y136653D01*
X343104Y136620D01*
X343019Y136592D01*
X342934Y136567D01*
X342847Y136545D01*
X342759Y136528D01*
X342671Y136515D01*
X342582Y136505D01*
X342493Y136499D01*
X342404Y136497D01*
X340358Y136497D01*
X342813Y136497D02*
X344450Y133223D01*
X351714Y138748D02*
X351712Y138833D01*
X351706Y138918D01*
X351696Y139002D01*
X351683Y139086D01*
X351665Y139170D01*
X351644Y139252D01*
X351619Y139333D01*
X351590Y139413D01*
X351557Y139492D01*
X351521Y139569D01*
X351481Y139644D01*
X351438Y139718D01*
X351392Y139789D01*
X351342Y139858D01*
X351289Y139925D01*
X351233Y139989D01*
X351174Y140050D01*
X351113Y140109D01*
X351049Y140165D01*
X350982Y140218D01*
X350913Y140268D01*
X350842Y140314D01*
X350768Y140357D01*
X350693Y140397D01*
X350616Y140433D01*
X350537Y140466D01*
X350457Y140495D01*
X350376Y140520D01*
X350294Y140541D01*
X350210Y140559D01*
X350126Y140572D01*
X350042Y140582D01*
X349957Y140588D01*
X349872Y140590D01*
X349872Y140589D02*
X349776Y140587D01*
X349680Y140581D01*
X349585Y140571D01*
X349490Y140558D01*
X349395Y140540D01*
X349302Y140519D01*
X349209Y140494D01*
X349118Y140465D01*
X349027Y140433D01*
X348938Y140397D01*
X348851Y140357D01*
X348765Y140314D01*
X348681Y140268D01*
X348599Y140218D01*
X348519Y140164D01*
X348442Y140108D01*
X348367Y140048D01*
X348294Y139986D01*
X348224Y139920D01*
X348156Y139852D01*
X348091Y139781D01*
X348030Y139708D01*
X347971Y139632D01*
X347915Y139553D01*
X347863Y139473D01*
X347814Y139390D01*
X347768Y139306D01*
X347726Y139220D01*
X347688Y139132D01*
X347653Y139043D01*
X347621Y138952D01*
X351100Y137316D02*
X351160Y137375D01*
X351217Y137437D01*
X351272Y137501D01*
X351323Y137568D01*
X351372Y137637D01*
X351418Y137707D01*
X351461Y137780D01*
X351501Y137854D01*
X351537Y137930D01*
X351570Y138008D01*
X351600Y138087D01*
X351627Y138167D01*
X351650Y138248D01*
X351669Y138330D01*
X351685Y138412D01*
X351698Y138496D01*
X351707Y138580D01*
X351712Y138664D01*
X351714Y138748D01*
X351100Y137315D02*
X347622Y133223D01*
X351714Y133223D01*
X359030Y138748D02*
X359028Y138833D01*
X359022Y138918D01*
X359012Y139002D01*
X358999Y139086D01*
X358981Y139170D01*
X358960Y139252D01*
X358935Y139333D01*
X358906Y139413D01*
X358873Y139492D01*
X358837Y139569D01*
X358797Y139644D01*
X358754Y139718D01*
X358708Y139789D01*
X358658Y139858D01*
X358605Y139925D01*
X358549Y139989D01*
X358490Y140050D01*
X358429Y140109D01*
X358365Y140165D01*
X358298Y140218D01*
X358229Y140268D01*
X358158Y140314D01*
X358084Y140357D01*
X358009Y140397D01*
X357932Y140433D01*
X357853Y140466D01*
X357773Y140495D01*
X357692Y140520D01*
X357610Y140541D01*
X357526Y140559D01*
X357442Y140572D01*
X357358Y140582D01*
X357273Y140588D01*
X357188Y140590D01*
X357188Y140589D02*
X357092Y140587D01*
X356996Y140581D01*
X356901Y140571D01*
X356806Y140558D01*
X356711Y140540D01*
X356618Y140519D01*
X356525Y140494D01*
X356434Y140465D01*
X356343Y140433D01*
X356254Y140397D01*
X356167Y140357D01*
X356081Y140314D01*
X355997Y140268D01*
X355915Y140218D01*
X355835Y140164D01*
X355758Y140108D01*
X355683Y140048D01*
X355610Y139986D01*
X355540Y139920D01*
X355472Y139852D01*
X355407Y139781D01*
X355346Y139708D01*
X355287Y139632D01*
X355231Y139553D01*
X355179Y139473D01*
X355130Y139390D01*
X355084Y139306D01*
X355042Y139220D01*
X355004Y139132D01*
X354969Y139043D01*
X354937Y138952D01*
X358415Y137316D02*
X358475Y137375D01*
X358532Y137437D01*
X358587Y137501D01*
X358638Y137568D01*
X358687Y137637D01*
X358733Y137707D01*
X358776Y137780D01*
X358816Y137854D01*
X358852Y137930D01*
X358885Y138008D01*
X358915Y138087D01*
X358942Y138167D01*
X358965Y138248D01*
X358984Y138330D01*
X359000Y138412D01*
X359013Y138496D01*
X359022Y138580D01*
X359027Y138664D01*
X359029Y138748D01*
X358415Y137315D02*
X354937Y133223D01*
X359029Y133223D01*
D25*
X438150Y154686D02*
X473710Y154686D01*
X473710Y89154D01*
X438150Y89154D01*
X438150Y154686D01*
D14*
X498602Y134612D02*
X498602Y132636D01*
X498602Y134612D02*
X498600Y134699D01*
X498594Y134787D01*
X498585Y134874D01*
X498571Y134960D01*
X498554Y135046D01*
X498533Y135130D01*
X498508Y135214D01*
X498479Y135297D01*
X498447Y135378D01*
X498412Y135458D01*
X498373Y135536D01*
X498330Y135613D01*
X498284Y135687D01*
X498235Y135759D01*
X498183Y135829D01*
X498127Y135897D01*
X498069Y135962D01*
X498008Y136025D01*
X497944Y136084D01*
X497877Y136141D01*
X497809Y136195D01*
X497737Y136246D01*
X497664Y136293D01*
X497589Y136338D01*
X497511Y136379D01*
X497432Y136416D01*
X497352Y136450D01*
X497270Y136480D01*
X497187Y136507D01*
X497102Y136530D01*
X497017Y136549D01*
X496931Y136564D01*
X496844Y136576D01*
X496757Y136584D01*
X496670Y136588D01*
X496582Y136588D01*
X496495Y136584D01*
X496408Y136576D01*
X496321Y136564D01*
X496235Y136549D01*
X496150Y136530D01*
X496065Y136507D01*
X495982Y136480D01*
X495900Y136450D01*
X495820Y136416D01*
X495741Y136379D01*
X495663Y136338D01*
X495588Y136293D01*
X495515Y136246D01*
X495443Y136195D01*
X495375Y136141D01*
X495308Y136084D01*
X495244Y136025D01*
X495183Y135962D01*
X495125Y135897D01*
X495069Y135829D01*
X495017Y135759D01*
X494968Y135687D01*
X494922Y135613D01*
X494879Y135536D01*
X494840Y135458D01*
X494805Y135378D01*
X494773Y135297D01*
X494744Y135214D01*
X494719Y135130D01*
X494698Y135046D01*
X494681Y134960D01*
X494667Y134874D01*
X494658Y134787D01*
X494652Y134699D01*
X494650Y134612D01*
X491490Y135007D02*
X491490Y132636D01*
X491490Y135007D02*
X491492Y135086D01*
X491498Y135164D01*
X491508Y135242D01*
X491521Y135320D01*
X491539Y135397D01*
X491560Y135473D01*
X491585Y135547D01*
X491614Y135621D01*
X491646Y135693D01*
X491682Y135763D01*
X491722Y135831D01*
X491765Y135897D01*
X491811Y135961D01*
X491860Y136023D01*
X491912Y136082D01*
X491967Y136138D01*
X492025Y136192D01*
X492085Y136242D01*
X492148Y136290D01*
X492213Y136334D01*
X492280Y136375D01*
X492349Y136413D01*
X492420Y136447D01*
X492493Y136478D01*
X492567Y136505D01*
X492642Y136528D01*
X492718Y136547D01*
X492796Y136563D01*
X492874Y136575D01*
X492952Y136583D01*
X493031Y136587D01*
X493109Y136587D01*
X493188Y136583D01*
X493266Y136575D01*
X493344Y136563D01*
X493422Y136547D01*
X493498Y136528D01*
X493573Y136505D01*
X493647Y136478D01*
X493720Y136447D01*
X493791Y136413D01*
X493860Y136375D01*
X493927Y136334D01*
X493992Y136290D01*
X494055Y136242D01*
X494115Y136192D01*
X494173Y136138D01*
X494228Y136082D01*
X494280Y136023D01*
X494329Y135961D01*
X494375Y135897D01*
X494418Y135831D01*
X494458Y135763D01*
X494494Y135693D01*
X494526Y135621D01*
X494555Y135547D01*
X494580Y135473D01*
X494601Y135397D01*
X494619Y135320D01*
X494632Y135242D01*
X494642Y135164D01*
X494648Y135086D01*
X494650Y135007D01*
X494651Y135007D02*
X494651Y133426D01*
X428442Y141478D02*
X422910Y143058D01*
X428442Y141478D02*
X428442Y145429D01*
X426861Y144244D02*
X430022Y144244D01*
X491490Y89878D02*
X493070Y87902D01*
X491490Y89878D02*
X498602Y89878D01*
X498602Y91853D02*
X498602Y87902D01*
X491584Y111695D02*
X491586Y111777D01*
X491592Y111859D01*
X491601Y111941D01*
X491614Y112022D01*
X491631Y112102D01*
X491652Y112182D01*
X491676Y112260D01*
X491704Y112337D01*
X491735Y112413D01*
X491770Y112488D01*
X491809Y112560D01*
X491850Y112631D01*
X491895Y112700D01*
X491943Y112766D01*
X491994Y112831D01*
X492048Y112893D01*
X492105Y112952D01*
X492164Y113009D01*
X492226Y113063D01*
X492291Y113114D01*
X492357Y113162D01*
X492426Y113207D01*
X492497Y113248D01*
X492569Y113287D01*
X492644Y113322D01*
X492720Y113353D01*
X492797Y113381D01*
X492875Y113405D01*
X492955Y113426D01*
X493035Y113443D01*
X493116Y113456D01*
X493198Y113465D01*
X493280Y113471D01*
X493362Y113473D01*
X491584Y111695D02*
X491586Y111602D01*
X491592Y111510D01*
X491601Y111418D01*
X491614Y111326D01*
X491631Y111235D01*
X491651Y111145D01*
X491675Y111055D01*
X491703Y110967D01*
X491735Y110879D01*
X491769Y110794D01*
X491808Y110709D01*
X491849Y110627D01*
X491894Y110546D01*
X491943Y110466D01*
X491994Y110389D01*
X492048Y110314D01*
X492106Y110242D01*
X492166Y110171D01*
X492230Y110104D01*
X492295Y110039D01*
X492364Y109976D01*
X492435Y109917D01*
X492508Y109860D01*
X492584Y109806D01*
X492661Y109756D01*
X492741Y109708D01*
X492823Y109664D01*
X492906Y109624D01*
X492991Y109586D01*
X493077Y109552D01*
X493164Y109522D01*
X494745Y112880D02*
X494684Y112941D01*
X494621Y112999D01*
X494555Y113054D01*
X494487Y113107D01*
X494416Y113156D01*
X494344Y113201D01*
X494269Y113244D01*
X494193Y113283D01*
X494114Y113319D01*
X494035Y113351D01*
X493954Y113379D01*
X493871Y113404D01*
X493788Y113425D01*
X493704Y113442D01*
X493619Y113456D01*
X493534Y113465D01*
X493448Y113471D01*
X493362Y113473D01*
X494745Y112880D02*
X498696Y109522D01*
X498696Y113473D01*
D35*
X428625Y121920D03*
D36*
X483235Y121920D03*
X483235Y98806D03*
X483235Y145034D03*
D35*
X428625Y121920D03*
D36*
X483235Y121920D03*
X483235Y98806D03*
X483235Y145034D03*
D14*
X461264Y103406D02*
X449580Y103406D01*
X461264Y102108D02*
X461264Y104704D01*
X449580Y104704D02*
X449580Y102108D01*
X461264Y111868D02*
X461264Y114464D01*
X461264Y111868D02*
X461262Y111769D01*
X461256Y111669D01*
X461247Y111570D01*
X461234Y111472D01*
X461217Y111374D01*
X461196Y111276D01*
X461171Y111180D01*
X461143Y111085D01*
X461111Y110991D01*
X461076Y110898D01*
X461037Y110806D01*
X460994Y110716D01*
X460949Y110628D01*
X460899Y110541D01*
X460847Y110457D01*
X460791Y110374D01*
X460733Y110294D01*
X460671Y110216D01*
X460606Y110141D01*
X460538Y110068D01*
X460468Y109998D01*
X460395Y109930D01*
X460320Y109865D01*
X460242Y109803D01*
X460162Y109745D01*
X460079Y109689D01*
X459995Y109637D01*
X459908Y109587D01*
X459820Y109542D01*
X459730Y109499D01*
X459638Y109460D01*
X459545Y109425D01*
X459451Y109393D01*
X459356Y109365D01*
X459260Y109340D01*
X459162Y109319D01*
X459064Y109302D01*
X458966Y109289D01*
X458867Y109280D01*
X458767Y109274D01*
X458668Y109272D01*
X458668Y109271D02*
X452176Y109271D01*
X452077Y109273D01*
X451977Y109279D01*
X451878Y109288D01*
X451780Y109301D01*
X451682Y109319D01*
X451584Y109339D01*
X451488Y109364D01*
X451392Y109392D01*
X451298Y109424D01*
X451205Y109459D01*
X451114Y109498D01*
X451024Y109541D01*
X450935Y109586D01*
X450849Y109636D01*
X450764Y109688D01*
X450682Y109744D01*
X450602Y109803D01*
X450524Y109864D01*
X450448Y109929D01*
X450375Y109997D01*
X450305Y110067D01*
X450237Y110140D01*
X450172Y110216D01*
X450111Y110294D01*
X450052Y110374D01*
X449996Y110456D01*
X449944Y110541D01*
X449895Y110627D01*
X449849Y110716D01*
X449806Y110806D01*
X449767Y110897D01*
X449732Y110990D01*
X449700Y111084D01*
X449672Y111180D01*
X449647Y111276D01*
X449627Y111374D01*
X449609Y111472D01*
X449596Y111570D01*
X449587Y111669D01*
X449581Y111768D01*
X449579Y111868D01*
X449580Y111868D02*
X449580Y114464D01*
X449580Y122400D02*
X449582Y122507D01*
X449588Y122613D01*
X449598Y122719D01*
X449611Y122825D01*
X449629Y122931D01*
X449650Y123035D01*
X449675Y123139D01*
X449704Y123242D01*
X449736Y123343D01*
X449773Y123443D01*
X449813Y123542D01*
X449856Y123640D01*
X449903Y123736D01*
X449954Y123830D01*
X450008Y123922D01*
X450065Y124012D01*
X450125Y124100D01*
X450189Y124185D01*
X450256Y124268D01*
X450326Y124349D01*
X450398Y124427D01*
X450474Y124503D01*
X450552Y124575D01*
X450633Y124645D01*
X450716Y124712D01*
X450801Y124776D01*
X450889Y124836D01*
X450979Y124893D01*
X451071Y124947D01*
X451165Y124998D01*
X451261Y125045D01*
X451359Y125088D01*
X451458Y125128D01*
X451558Y125165D01*
X451659Y125197D01*
X451762Y125226D01*
X451866Y125251D01*
X451970Y125272D01*
X452076Y125290D01*
X452182Y125303D01*
X452288Y125313D01*
X452394Y125319D01*
X452501Y125321D01*
X449580Y122400D02*
X449582Y122279D01*
X449588Y122158D01*
X449598Y122038D01*
X449611Y121917D01*
X449629Y121798D01*
X449650Y121678D01*
X449675Y121560D01*
X449704Y121443D01*
X449737Y121326D01*
X449773Y121211D01*
X449814Y121097D01*
X449857Y120984D01*
X449905Y120872D01*
X449956Y120763D01*
X450011Y120655D01*
X450069Y120548D01*
X450130Y120444D01*
X450195Y120342D01*
X450263Y120242D01*
X450334Y120144D01*
X450408Y120048D01*
X450485Y119955D01*
X450566Y119865D01*
X450649Y119777D01*
X450735Y119692D01*
X450824Y119609D01*
X450915Y119530D01*
X451009Y119453D01*
X451105Y119380D01*
X451203Y119310D01*
X451304Y119243D01*
X451407Y119179D01*
X451512Y119119D01*
X451619Y119061D01*
X451727Y119008D01*
X451837Y118958D01*
X451949Y118912D01*
X452062Y118869D01*
X452177Y118830D01*
X454773Y124346D02*
X454695Y124425D01*
X454615Y124501D01*
X454532Y124574D01*
X454446Y124644D01*
X454359Y124711D01*
X454268Y124775D01*
X454176Y124835D01*
X454082Y124893D01*
X453985Y124947D01*
X453887Y124997D01*
X453787Y125044D01*
X453686Y125088D01*
X453583Y125128D01*
X453478Y125164D01*
X453373Y125196D01*
X453266Y125225D01*
X453159Y125250D01*
X453050Y125272D01*
X452941Y125289D01*
X452832Y125303D01*
X452722Y125312D01*
X452611Y125318D01*
X452501Y125320D01*
X454773Y124347D02*
X461264Y118830D01*
X461264Y125321D01*
M02*
