G04 EAGLE Gerber RS-274X export*
G75*
%MOMM*%
%FSLAX34Y34*%
%LPD*%
%INInner Layer 2*%
%IPPOS*%
%AMOC8*
5,1,8,0,0,1.08239X$1,22.5*%
G01*
%ADD10C,0.152400*%
%ADD11C,1.524000*%
%ADD12C,3.516000*%
%ADD13C,0.457200*%
%ADD14C,0.452400*%
%ADD15C,0.975000*%
%ADD16C,1.350000*%
%ADD17C,0.127000*%

G36*
X505010Y2041D02*
X505010Y2041D01*
X505068Y2039D01*
X505150Y2061D01*
X505234Y2073D01*
X505287Y2096D01*
X505343Y2111D01*
X505416Y2154D01*
X505493Y2189D01*
X505538Y2227D01*
X505588Y2256D01*
X505646Y2318D01*
X505710Y2372D01*
X505742Y2421D01*
X505782Y2464D01*
X505821Y2539D01*
X505868Y2609D01*
X505885Y2665D01*
X505912Y2717D01*
X505923Y2785D01*
X505953Y2880D01*
X505956Y2980D01*
X505967Y3048D01*
X505967Y289052D01*
X505959Y289110D01*
X505961Y289168D01*
X505939Y289250D01*
X505927Y289334D01*
X505904Y289387D01*
X505889Y289443D01*
X505846Y289516D01*
X505811Y289593D01*
X505773Y289638D01*
X505744Y289688D01*
X505682Y289746D01*
X505628Y289810D01*
X505579Y289842D01*
X505536Y289882D01*
X505461Y289921D01*
X505391Y289968D01*
X505335Y289985D01*
X505283Y290012D01*
X505215Y290023D01*
X505120Y290053D01*
X505020Y290056D01*
X504952Y290067D01*
X282530Y290067D01*
X282501Y290063D01*
X282472Y290066D01*
X282360Y290043D01*
X282248Y290027D01*
X282222Y290015D01*
X282193Y290010D01*
X282092Y289957D01*
X281989Y289911D01*
X281967Y289892D01*
X281940Y289879D01*
X281858Y289801D01*
X281772Y289728D01*
X281756Y289703D01*
X281734Y289683D01*
X281677Y289585D01*
X281614Y289491D01*
X281605Y289463D01*
X281591Y289438D01*
X281563Y289328D01*
X281529Y289220D01*
X281528Y289190D01*
X281521Y289162D01*
X281524Y289049D01*
X281521Y288936D01*
X281529Y288907D01*
X281530Y288878D01*
X281564Y288770D01*
X281593Y288661D01*
X281608Y288635D01*
X281617Y288607D01*
X281663Y288543D01*
X281738Y288416D01*
X281784Y288373D01*
X281812Y288334D01*
X282933Y287213D01*
X282933Y284287D01*
X280863Y282217D01*
X277937Y282217D01*
X275867Y284287D01*
X275867Y287213D01*
X276988Y288334D01*
X277006Y288358D01*
X277028Y288377D01*
X277091Y288471D01*
X277159Y288561D01*
X277169Y288589D01*
X277186Y288613D01*
X277220Y288721D01*
X277260Y288827D01*
X277263Y288856D01*
X277271Y288884D01*
X277274Y288998D01*
X277284Y289110D01*
X277278Y289139D01*
X277279Y289168D01*
X277250Y289278D01*
X277228Y289389D01*
X277214Y289415D01*
X277207Y289443D01*
X277149Y289541D01*
X277097Y289641D01*
X277077Y289663D01*
X277062Y289688D01*
X276979Y289765D01*
X276901Y289847D01*
X276876Y289862D01*
X276854Y289882D01*
X276754Y289934D01*
X276656Y289991D01*
X276627Y289998D01*
X276601Y290012D01*
X276524Y290025D01*
X276380Y290061D01*
X276318Y290059D01*
X276270Y290067D01*
X175884Y290067D01*
X175855Y290063D01*
X175825Y290066D01*
X175714Y290043D01*
X175602Y290027D01*
X175576Y290015D01*
X175547Y290010D01*
X175446Y289957D01*
X175343Y289911D01*
X175320Y289892D01*
X175294Y289879D01*
X175212Y289801D01*
X175126Y289728D01*
X175110Y289703D01*
X175088Y289683D01*
X175031Y289585D01*
X174968Y289491D01*
X174959Y289463D01*
X174945Y289438D01*
X174917Y289328D01*
X174882Y289220D01*
X174882Y289190D01*
X174874Y289162D01*
X174878Y289049D01*
X174875Y288936D01*
X174883Y288907D01*
X174884Y288878D01*
X174918Y288770D01*
X174947Y288661D01*
X174962Y288635D01*
X174971Y288607D01*
X175017Y288543D01*
X175092Y288416D01*
X175138Y288373D01*
X175166Y288334D01*
X176277Y287223D01*
X176277Y284277D01*
X174193Y282193D01*
X171247Y282193D01*
X169163Y284277D01*
X169163Y287223D01*
X170274Y288334D01*
X170292Y288358D01*
X170314Y288377D01*
X170377Y288471D01*
X170445Y288561D01*
X170455Y288589D01*
X170472Y288613D01*
X170506Y288721D01*
X170546Y288827D01*
X170549Y288856D01*
X170558Y288884D01*
X170560Y288998D01*
X170570Y289110D01*
X170564Y289139D01*
X170565Y289168D01*
X170536Y289278D01*
X170514Y289389D01*
X170500Y289415D01*
X170493Y289443D01*
X170435Y289541D01*
X170383Y289641D01*
X170363Y289663D01*
X170348Y289688D01*
X170265Y289765D01*
X170187Y289847D01*
X170162Y289862D01*
X170140Y289882D01*
X170040Y289934D01*
X169942Y289991D01*
X169913Y289998D01*
X169887Y290012D01*
X169810Y290025D01*
X169666Y290061D01*
X169604Y290059D01*
X169556Y290067D01*
X123293Y290067D01*
X123235Y290059D01*
X123177Y290061D01*
X123095Y290039D01*
X123011Y290027D01*
X122958Y290004D01*
X122902Y289989D01*
X122829Y289946D01*
X122752Y289911D01*
X122707Y289873D01*
X122657Y289844D01*
X122599Y289782D01*
X122535Y289728D01*
X122503Y289679D01*
X122463Y289636D01*
X122424Y289561D01*
X122377Y289491D01*
X122360Y289435D01*
X122333Y289383D01*
X122322Y289315D01*
X122292Y289220D01*
X122289Y289120D01*
X122278Y289052D01*
X122278Y286258D01*
X122285Y286207D01*
X122284Y286186D01*
X122285Y286182D01*
X122284Y286142D01*
X122306Y286060D01*
X122318Y285976D01*
X122341Y285923D01*
X122356Y285867D01*
X122399Y285794D01*
X122434Y285717D01*
X122472Y285672D01*
X122501Y285622D01*
X122563Y285564D01*
X122617Y285500D01*
X122666Y285468D01*
X122709Y285428D01*
X122784Y285389D01*
X122854Y285342D01*
X122910Y285325D01*
X122962Y285298D01*
X123030Y285287D01*
X123125Y285257D01*
X123225Y285254D01*
X123293Y285243D01*
X153242Y285243D01*
X156024Y282461D01*
X156048Y282443D01*
X156067Y282421D01*
X156161Y282358D01*
X156251Y282290D01*
X156279Y282279D01*
X156303Y282263D01*
X156411Y282229D01*
X156517Y282188D01*
X156546Y282186D01*
X156574Y282177D01*
X156688Y282174D01*
X156800Y282165D01*
X156829Y282171D01*
X156858Y282170D01*
X156968Y282199D01*
X157079Y282221D01*
X157105Y282234D01*
X157133Y282242D01*
X157231Y282300D01*
X157331Y282352D01*
X157353Y282372D01*
X157378Y282387D01*
X157455Y282470D01*
X157537Y282548D01*
X157552Y282573D01*
X157572Y282594D01*
X157624Y282695D01*
X157681Y282793D01*
X157688Y282821D01*
X157702Y282847D01*
X157715Y282925D01*
X157751Y283068D01*
X157749Y283131D01*
X157757Y283178D01*
X157757Y284673D01*
X159827Y286743D01*
X162753Y286743D01*
X164823Y284673D01*
X164823Y281747D01*
X162753Y279677D01*
X161258Y279677D01*
X161229Y279673D01*
X161200Y279676D01*
X161089Y279653D01*
X160977Y279637D01*
X160950Y279625D01*
X160921Y279620D01*
X160821Y279567D01*
X160718Y279521D01*
X160695Y279502D01*
X160669Y279489D01*
X160587Y279411D01*
X160501Y279338D01*
X160484Y279313D01*
X160463Y279293D01*
X160406Y279195D01*
X160343Y279101D01*
X160334Y279073D01*
X160319Y279048D01*
X160291Y278938D01*
X160257Y278830D01*
X160256Y278800D01*
X160249Y278772D01*
X160253Y278659D01*
X160250Y278546D01*
X160257Y278517D01*
X160258Y278488D01*
X160293Y278380D01*
X160322Y278271D01*
X160337Y278245D01*
X160346Y278217D01*
X160391Y278153D01*
X160467Y278026D01*
X160513Y277983D01*
X160541Y277944D01*
X161605Y276880D01*
X161674Y276828D01*
X161738Y276768D01*
X161788Y276742D01*
X161832Y276709D01*
X161914Y276678D01*
X161991Y276638D01*
X162039Y276630D01*
X162097Y276608D01*
X162245Y276596D01*
X162323Y276583D01*
X164023Y276583D01*
X166093Y274513D01*
X166093Y271587D01*
X164023Y269517D01*
X161097Y269517D01*
X159027Y271587D01*
X159027Y273287D01*
X159015Y273374D01*
X159012Y273462D01*
X158995Y273514D01*
X158987Y273569D01*
X158952Y273649D01*
X158925Y273732D01*
X158897Y273771D01*
X158871Y273828D01*
X158775Y273942D01*
X158730Y274005D01*
X151855Y280880D01*
X151786Y280932D01*
X151722Y280992D01*
X151672Y281018D01*
X151628Y281051D01*
X151546Y281082D01*
X151469Y281122D01*
X151421Y281130D01*
X151363Y281152D01*
X151215Y281164D01*
X151137Y281177D01*
X115998Y281177D01*
X115660Y281515D01*
X115591Y281567D01*
X115527Y281627D01*
X115477Y281653D01*
X115433Y281686D01*
X115351Y281717D01*
X115274Y281757D01*
X115226Y281765D01*
X115168Y281787D01*
X115020Y281799D01*
X114942Y281812D01*
X101068Y281812D01*
X101010Y281804D01*
X100952Y281806D01*
X100870Y281784D01*
X100786Y281772D01*
X100733Y281749D01*
X100677Y281734D01*
X100604Y281691D01*
X100527Y281656D01*
X100482Y281618D01*
X100432Y281589D01*
X100374Y281527D01*
X100310Y281473D01*
X100278Y281424D01*
X100238Y281381D01*
X100199Y281306D01*
X100152Y281236D01*
X100135Y281180D01*
X100108Y281128D01*
X100097Y281060D01*
X100067Y280965D01*
X100064Y280865D01*
X100053Y280797D01*
X100053Y277937D01*
X97983Y275867D01*
X95057Y275867D01*
X92987Y277937D01*
X92987Y278892D01*
X92979Y278950D01*
X92981Y279008D01*
X92959Y279090D01*
X92947Y279174D01*
X92924Y279227D01*
X92909Y279283D01*
X92866Y279356D01*
X92831Y279433D01*
X92793Y279478D01*
X92764Y279528D01*
X92702Y279586D01*
X92648Y279650D01*
X92599Y279682D01*
X92556Y279722D01*
X92481Y279761D01*
X92411Y279808D01*
X92355Y279825D01*
X92303Y279852D01*
X92235Y279863D01*
X92140Y279893D01*
X92040Y279896D01*
X91972Y279907D01*
X71964Y279907D01*
X71877Y279895D01*
X71790Y279892D01*
X71737Y279875D01*
X71682Y279867D01*
X71603Y279832D01*
X71519Y279805D01*
X71480Y279777D01*
X71423Y279751D01*
X71310Y279655D01*
X71246Y279610D01*
X70043Y278407D01*
X67117Y278407D01*
X65047Y280477D01*
X65047Y283403D01*
X67117Y285473D01*
X70043Y285473D01*
X71246Y284270D01*
X71316Y284218D01*
X71380Y284158D01*
X71429Y284132D01*
X71473Y284099D01*
X71555Y284068D01*
X71633Y284028D01*
X71680Y284020D01*
X71739Y283998D01*
X71887Y283986D01*
X71964Y283973D01*
X74975Y283973D01*
X75004Y283977D01*
X75033Y283974D01*
X75145Y283997D01*
X75257Y284013D01*
X75283Y284025D01*
X75312Y284030D01*
X75413Y284083D01*
X75516Y284129D01*
X75538Y284148D01*
X75565Y284161D01*
X75647Y284239D01*
X75733Y284312D01*
X75749Y284337D01*
X75771Y284357D01*
X75828Y284455D01*
X75891Y284549D01*
X75900Y284577D01*
X75914Y284602D01*
X75942Y284712D01*
X75976Y284820D01*
X75977Y284850D01*
X75984Y284878D01*
X75981Y284991D01*
X75984Y285104D01*
X75976Y285133D01*
X75975Y285162D01*
X75941Y285270D01*
X75912Y285379D01*
X75897Y285405D01*
X75888Y285433D01*
X75842Y285497D01*
X75767Y285624D01*
X75721Y285667D01*
X75693Y285706D01*
X75207Y286192D01*
X75207Y289052D01*
X75199Y289110D01*
X75201Y289168D01*
X75179Y289250D01*
X75167Y289334D01*
X75144Y289387D01*
X75129Y289443D01*
X75086Y289516D01*
X75051Y289593D01*
X75013Y289638D01*
X74984Y289688D01*
X74922Y289746D01*
X74868Y289810D01*
X74819Y289842D01*
X74776Y289882D01*
X74701Y289921D01*
X74631Y289968D01*
X74575Y289985D01*
X74523Y290012D01*
X74455Y290023D01*
X74360Y290053D01*
X74260Y290056D01*
X74192Y290067D01*
X38481Y290067D01*
X38423Y290059D01*
X38365Y290061D01*
X38283Y290039D01*
X38199Y290027D01*
X38146Y290004D01*
X38090Y289989D01*
X38017Y289946D01*
X37940Y289911D01*
X37895Y289873D01*
X37845Y289844D01*
X37787Y289782D01*
X37723Y289728D01*
X37691Y289679D01*
X37651Y289636D01*
X37612Y289561D01*
X37565Y289491D01*
X37548Y289435D01*
X37521Y289383D01*
X37510Y289315D01*
X37480Y289220D01*
X37477Y289120D01*
X37466Y289052D01*
X37466Y263353D01*
X37470Y263324D01*
X37467Y263295D01*
X37490Y263183D01*
X37506Y263071D01*
X37518Y263045D01*
X37523Y263016D01*
X37576Y262915D01*
X37622Y262812D01*
X37641Y262790D01*
X37654Y262763D01*
X37732Y262681D01*
X37805Y262595D01*
X37830Y262579D01*
X37850Y262557D01*
X37948Y262500D01*
X38042Y262437D01*
X38070Y262428D01*
X38095Y262414D01*
X38205Y262386D01*
X38313Y262352D01*
X38343Y262351D01*
X38371Y262344D01*
X38484Y262347D01*
X38597Y262344D01*
X38626Y262352D01*
X38655Y262353D01*
X38763Y262387D01*
X38872Y262416D01*
X38898Y262431D01*
X38926Y262440D01*
X38990Y262486D01*
X39117Y262561D01*
X39160Y262607D01*
X39199Y262635D01*
X40447Y263883D01*
X43373Y263883D01*
X45002Y262254D01*
X45049Y262219D01*
X45089Y262176D01*
X45162Y262134D01*
X45229Y262083D01*
X45284Y262062D01*
X45334Y262033D01*
X45416Y262012D01*
X45495Y261982D01*
X45553Y261977D01*
X45610Y261963D01*
X45694Y261965D01*
X45778Y261958D01*
X45836Y261970D01*
X45894Y261972D01*
X45974Y261998D01*
X46057Y262014D01*
X46109Y262041D01*
X46165Y262059D01*
X46221Y262099D01*
X46309Y262145D01*
X46382Y262214D01*
X46438Y262254D01*
X48067Y263883D01*
X50993Y263883D01*
X53063Y261813D01*
X53063Y258887D01*
X50993Y256817D01*
X48067Y256817D01*
X46438Y258446D01*
X46391Y258481D01*
X46351Y258524D01*
X46278Y258566D01*
X46211Y258617D01*
X46156Y258638D01*
X46106Y258667D01*
X46024Y258688D01*
X45945Y258718D01*
X45887Y258723D01*
X45830Y258737D01*
X45746Y258735D01*
X45662Y258742D01*
X45604Y258730D01*
X45546Y258728D01*
X45466Y258702D01*
X45383Y258686D01*
X45331Y258659D01*
X45275Y258641D01*
X45219Y258601D01*
X45131Y258555D01*
X45058Y258486D01*
X45002Y258446D01*
X43373Y256817D01*
X40447Y256817D01*
X39199Y258065D01*
X39175Y258083D01*
X39156Y258105D01*
X39062Y258168D01*
X38972Y258236D01*
X38944Y258246D01*
X38920Y258263D01*
X38812Y258297D01*
X38706Y258337D01*
X38677Y258340D01*
X38649Y258348D01*
X38535Y258351D01*
X38423Y258361D01*
X38394Y258355D01*
X38365Y258356D01*
X38255Y258327D01*
X38144Y258305D01*
X38118Y258291D01*
X38090Y258284D01*
X37992Y258226D01*
X37892Y258174D01*
X37870Y258154D01*
X37845Y258139D01*
X37768Y258056D01*
X37686Y257978D01*
X37671Y257953D01*
X37651Y257931D01*
X37599Y257831D01*
X37542Y257733D01*
X37535Y257704D01*
X37521Y257678D01*
X37508Y257601D01*
X37472Y257457D01*
X37474Y257395D01*
X37466Y257347D01*
X37466Y173727D01*
X37093Y173354D01*
X3048Y173354D01*
X2990Y173346D01*
X2932Y173348D01*
X2850Y173326D01*
X2766Y173314D01*
X2713Y173291D01*
X2657Y173276D01*
X2584Y173233D01*
X2507Y173198D01*
X2462Y173160D01*
X2412Y173131D01*
X2354Y173069D01*
X2290Y173015D01*
X2258Y172966D01*
X2218Y172923D01*
X2179Y172848D01*
X2132Y172778D01*
X2115Y172722D01*
X2088Y172670D01*
X2077Y172602D01*
X2047Y172507D01*
X2044Y172407D01*
X2033Y172339D01*
X2033Y3048D01*
X2041Y2990D01*
X2039Y2932D01*
X2061Y2850D01*
X2073Y2766D01*
X2096Y2713D01*
X2111Y2657D01*
X2154Y2584D01*
X2189Y2507D01*
X2227Y2462D01*
X2256Y2412D01*
X2318Y2354D01*
X2372Y2290D01*
X2421Y2258D01*
X2464Y2218D01*
X2539Y2179D01*
X2609Y2132D01*
X2665Y2115D01*
X2717Y2088D01*
X2785Y2077D01*
X2880Y2047D01*
X2980Y2044D01*
X3048Y2033D01*
X504952Y2033D01*
X505010Y2041D01*
G37*
%LPC*%
G36*
X236584Y13433D02*
X236584Y13433D01*
X227250Y19531D01*
X220402Y28330D01*
X216782Y38875D01*
X216782Y50025D01*
X220402Y60570D01*
X227250Y69369D01*
X236584Y75467D01*
X247393Y78204D01*
X258505Y77284D01*
X268715Y72805D01*
X276918Y65253D01*
X282225Y55448D01*
X284060Y44450D01*
X283956Y43826D01*
X283787Y42811D01*
X283787Y42810D01*
X283448Y40780D01*
X283278Y39765D01*
X282770Y36719D01*
X282601Y35704D01*
X282225Y33452D01*
X276918Y23647D01*
X268715Y16095D01*
X258505Y11616D01*
X247393Y10696D01*
X236584Y13433D01*
G37*
%LPD*%
%LPC*%
G36*
X280467Y164083D02*
X280467Y164083D01*
X278383Y166167D01*
X278383Y169113D01*
X280637Y171367D01*
X280672Y171413D01*
X280714Y171454D01*
X280757Y171526D01*
X280807Y171594D01*
X280828Y171648D01*
X280858Y171699D01*
X280879Y171780D01*
X280909Y171859D01*
X280914Y171918D01*
X280928Y171974D01*
X280925Y172059D01*
X280932Y172143D01*
X280921Y172200D01*
X280919Y172258D01*
X280893Y172339D01*
X280876Y172421D01*
X280849Y172473D01*
X280831Y172529D01*
X280791Y172585D01*
X280745Y172674D01*
X280677Y172746D01*
X280637Y172802D01*
X278372Y175067D01*
X278372Y176527D01*
X278368Y176556D01*
X278371Y176585D01*
X278348Y176696D01*
X278332Y176808D01*
X278320Y176835D01*
X278315Y176864D01*
X278263Y176964D01*
X278216Y177067D01*
X278197Y177090D01*
X278184Y177116D01*
X278106Y177198D01*
X278033Y177284D01*
X278008Y177301D01*
X277988Y177322D01*
X277890Y177379D01*
X277796Y177442D01*
X277768Y177451D01*
X277743Y177466D01*
X277633Y177494D01*
X277525Y177528D01*
X277495Y177529D01*
X277467Y177536D01*
X277354Y177532D01*
X277241Y177535D01*
X277212Y177528D01*
X277183Y177527D01*
X277075Y177492D01*
X276966Y177463D01*
X276940Y177448D01*
X276912Y177439D01*
X276849Y177394D01*
X276721Y177318D01*
X276678Y177272D01*
X276639Y177244D01*
X271800Y172405D01*
X271748Y172336D01*
X271688Y172272D01*
X271662Y172222D01*
X271629Y172178D01*
X271598Y172096D01*
X271558Y172019D01*
X271550Y171971D01*
X271528Y171913D01*
X271516Y171765D01*
X271503Y171687D01*
X271503Y169987D01*
X269433Y167917D01*
X266507Y167917D01*
X264437Y169987D01*
X264437Y172913D01*
X266507Y174983D01*
X268207Y174983D01*
X268294Y174995D01*
X268382Y174998D01*
X268434Y175015D01*
X268489Y175023D01*
X268569Y175058D01*
X268652Y175085D01*
X268691Y175113D01*
X268748Y175139D01*
X268862Y175235D01*
X268925Y175280D01*
X295068Y201423D01*
X306496Y201423D01*
X306583Y201435D01*
X306670Y201438D01*
X306723Y201455D01*
X306778Y201463D01*
X306857Y201498D01*
X306941Y201525D01*
X306980Y201553D01*
X307037Y201579D01*
X307150Y201675D01*
X307214Y201720D01*
X308417Y202923D01*
X311343Y202923D01*
X313413Y200853D01*
X313413Y197927D01*
X311343Y195857D01*
X308417Y195857D01*
X307214Y197060D01*
X307144Y197112D01*
X307080Y197172D01*
X307031Y197198D01*
X306987Y197231D01*
X306905Y197262D01*
X306827Y197302D01*
X306780Y197310D01*
X306721Y197332D01*
X306573Y197344D01*
X306496Y197357D01*
X297173Y197357D01*
X297086Y197345D01*
X296998Y197342D01*
X296946Y197325D01*
X296891Y197317D01*
X296811Y197282D01*
X296728Y197255D01*
X296689Y197227D01*
X296632Y197201D01*
X296518Y197105D01*
X296455Y197060D01*
X281191Y181796D01*
X281173Y181772D01*
X281151Y181753D01*
X281088Y181659D01*
X281020Y181569D01*
X281009Y181541D01*
X280993Y181517D01*
X280959Y181409D01*
X280918Y181303D01*
X280916Y181274D01*
X280907Y181246D01*
X280904Y181132D01*
X280895Y181020D01*
X280901Y180991D01*
X280900Y180962D01*
X280928Y180852D01*
X280951Y180741D01*
X280964Y180715D01*
X280972Y180687D01*
X281030Y180589D01*
X281082Y180489D01*
X281102Y180467D01*
X281117Y180442D01*
X281200Y180365D01*
X281278Y180283D01*
X281303Y180268D01*
X281324Y180248D01*
X281425Y180196D01*
X281523Y180139D01*
X281551Y180132D01*
X281577Y180118D01*
X281655Y180105D01*
X281798Y180069D01*
X281861Y180071D01*
X281908Y180063D01*
X283368Y180063D01*
X284571Y178860D01*
X284641Y178808D01*
X284705Y178748D01*
X284754Y178722D01*
X284798Y178689D01*
X284880Y178658D01*
X284958Y178618D01*
X285005Y178610D01*
X285064Y178588D01*
X285212Y178576D01*
X285289Y178563D01*
X327667Y178563D01*
X327754Y178575D01*
X327842Y178578D01*
X327894Y178595D01*
X327949Y178603D01*
X328029Y178638D01*
X328112Y178665D01*
X328151Y178693D01*
X328208Y178719D01*
X328322Y178815D01*
X328385Y178860D01*
X391924Y242398D01*
X391925Y242400D01*
X391926Y242401D01*
X392014Y242519D01*
X392095Y242626D01*
X392095Y242627D01*
X392096Y242628D01*
X392147Y242762D01*
X392196Y242891D01*
X392196Y242893D01*
X392196Y242894D01*
X392208Y243038D01*
X392219Y243175D01*
X392219Y243176D01*
X392219Y243178D01*
X392216Y243193D01*
X392163Y243453D01*
X392149Y243480D01*
X392144Y243505D01*
X391159Y245882D01*
X391159Y249418D01*
X392513Y252686D01*
X395014Y255187D01*
X398282Y256541D01*
X401818Y256541D01*
X405086Y255187D01*
X407587Y252686D01*
X408941Y249418D01*
X408941Y245882D01*
X407587Y242614D01*
X405086Y240113D01*
X401818Y238759D01*
X398282Y238759D01*
X395905Y239744D01*
X395903Y239744D01*
X395902Y239745D01*
X395768Y239779D01*
X395629Y239815D01*
X395628Y239815D01*
X395626Y239815D01*
X395486Y239811D01*
X395345Y239807D01*
X395344Y239806D01*
X395342Y239806D01*
X395209Y239763D01*
X395075Y239720D01*
X395073Y239719D01*
X395072Y239719D01*
X395060Y239710D01*
X394838Y239562D01*
X394819Y239538D01*
X394798Y239524D01*
X331260Y175985D01*
X329772Y174497D01*
X285289Y174497D01*
X285202Y174485D01*
X285115Y174482D01*
X285062Y174465D01*
X285007Y174457D01*
X284928Y174422D01*
X284844Y174395D01*
X284805Y174367D01*
X284748Y174341D01*
X284635Y174245D01*
X284571Y174200D01*
X283208Y172837D01*
X283173Y172791D01*
X283131Y172750D01*
X283088Y172677D01*
X283038Y172610D01*
X283017Y172556D01*
X282987Y172505D01*
X282966Y172423D01*
X282936Y172344D01*
X282931Y172286D01*
X282917Y172230D01*
X282920Y172145D01*
X282913Y172061D01*
X282924Y172004D01*
X282926Y171945D01*
X282952Y171865D01*
X282969Y171782D01*
X282996Y171731D01*
X283014Y171675D01*
X283054Y171619D01*
X283100Y171530D01*
X283168Y171458D01*
X283208Y171402D01*
X285497Y169113D01*
X285497Y166167D01*
X283413Y164083D01*
X280467Y164083D01*
G37*
%LPD*%
%LPC*%
G36*
X40700Y25599D02*
X40700Y25599D01*
X33772Y28469D01*
X28469Y33772D01*
X25599Y40700D01*
X25599Y48200D01*
X28469Y55128D01*
X33772Y60431D01*
X40700Y63301D01*
X48200Y63301D01*
X55128Y60431D01*
X60431Y55128D01*
X63301Y48200D01*
X63301Y40700D01*
X60431Y33772D01*
X55128Y28469D01*
X48200Y25599D01*
X40700Y25599D01*
G37*
%LPD*%
%LPC*%
G36*
X453450Y25599D02*
X453450Y25599D01*
X446522Y28469D01*
X441219Y33772D01*
X438349Y40700D01*
X438349Y48200D01*
X441219Y55128D01*
X446522Y60431D01*
X453450Y63301D01*
X460950Y63301D01*
X467878Y60431D01*
X473181Y55128D01*
X476051Y48200D01*
X476051Y40700D01*
X473181Y33772D01*
X467878Y28469D01*
X460950Y25599D01*
X453450Y25599D01*
G37*
%LPD*%
%LPC*%
G36*
X411155Y49129D02*
X411155Y49129D01*
X408207Y50350D01*
X405950Y52607D01*
X404729Y55555D01*
X404729Y58745D01*
X405950Y61693D01*
X408207Y63950D01*
X411155Y65171D01*
X411255Y65171D01*
X411284Y65175D01*
X411314Y65172D01*
X411425Y65195D01*
X411537Y65211D01*
X411563Y65223D01*
X411592Y65228D01*
X411693Y65281D01*
X411796Y65327D01*
X411819Y65346D01*
X411845Y65359D01*
X411927Y65437D01*
X412013Y65510D01*
X412029Y65535D01*
X412051Y65555D01*
X412108Y65653D01*
X412171Y65747D01*
X412180Y65775D01*
X412194Y65800D01*
X412222Y65910D01*
X412257Y66018D01*
X412257Y66048D01*
X412264Y66076D01*
X412261Y66189D01*
X412264Y66302D01*
X412256Y66331D01*
X412255Y66360D01*
X412221Y66468D01*
X412192Y66577D01*
X412177Y66603D01*
X412168Y66631D01*
X412122Y66694D01*
X412047Y66822D01*
X412001Y66865D01*
X411973Y66904D01*
X409760Y69117D01*
X408539Y72065D01*
X408539Y75255D01*
X409760Y78203D01*
X412017Y80460D01*
X414965Y81681D01*
X418155Y81681D01*
X421103Y80460D01*
X423360Y78203D01*
X424581Y75255D01*
X424581Y72065D01*
X423360Y69117D01*
X421103Y66860D01*
X418155Y65639D01*
X418055Y65639D01*
X418026Y65635D01*
X417996Y65638D01*
X417885Y65615D01*
X417773Y65599D01*
X417747Y65587D01*
X417718Y65582D01*
X417617Y65529D01*
X417514Y65483D01*
X417491Y65464D01*
X417465Y65451D01*
X417383Y65373D01*
X417297Y65300D01*
X417281Y65275D01*
X417259Y65255D01*
X417202Y65157D01*
X417139Y65063D01*
X417130Y65035D01*
X417116Y65010D01*
X417088Y64900D01*
X417053Y64792D01*
X417053Y64762D01*
X417046Y64734D01*
X417049Y64621D01*
X417046Y64508D01*
X417054Y64479D01*
X417055Y64450D01*
X417089Y64342D01*
X417118Y64233D01*
X417133Y64207D01*
X417142Y64179D01*
X417188Y64116D01*
X417263Y63988D01*
X417309Y63945D01*
X417337Y63906D01*
X419550Y61693D01*
X420771Y58745D01*
X420771Y55555D01*
X419550Y52607D01*
X417293Y50350D01*
X414345Y49129D01*
X411155Y49129D01*
G37*
%LPD*%
%LPC*%
G36*
X120447Y148843D02*
X120447Y148843D01*
X118363Y150927D01*
X118363Y153873D01*
X120447Y155957D01*
X122361Y155957D01*
X122448Y155969D01*
X122535Y155972D01*
X122588Y155989D01*
X122643Y155997D01*
X122722Y156032D01*
X122806Y156059D01*
X122845Y156087D01*
X122902Y156113D01*
X123015Y156209D01*
X123079Y156254D01*
X127481Y160656D01*
X144840Y160656D01*
X144927Y160668D01*
X145014Y160671D01*
X145067Y160688D01*
X145122Y160696D01*
X145201Y160731D01*
X145285Y160758D01*
X145324Y160786D01*
X145381Y160812D01*
X145494Y160908D01*
X145558Y160953D01*
X161246Y176641D01*
X161298Y176711D01*
X161358Y176775D01*
X161384Y176824D01*
X161417Y176868D01*
X161448Y176950D01*
X161488Y177028D01*
X161496Y177075D01*
X161518Y177134D01*
X161530Y177282D01*
X161543Y177359D01*
X161543Y179273D01*
X163627Y181357D01*
X166573Y181357D01*
X168657Y179273D01*
X168657Y176327D01*
X166573Y174243D01*
X164659Y174243D01*
X164572Y174231D01*
X164485Y174228D01*
X164432Y174211D01*
X164377Y174203D01*
X164298Y174168D01*
X164214Y174141D01*
X164175Y174113D01*
X164118Y174087D01*
X164005Y173991D01*
X163941Y173946D01*
X146839Y156844D01*
X131307Y156844D01*
X131278Y156840D01*
X131248Y156843D01*
X131137Y156820D01*
X131025Y156804D01*
X130999Y156792D01*
X130970Y156787D01*
X130869Y156734D01*
X130766Y156688D01*
X130743Y156669D01*
X130717Y156656D01*
X130635Y156578D01*
X130549Y156505D01*
X130533Y156480D01*
X130511Y156460D01*
X130454Y156362D01*
X130391Y156268D01*
X130382Y156240D01*
X130368Y156215D01*
X130340Y156105D01*
X130305Y155997D01*
X130305Y155967D01*
X130297Y155939D01*
X130301Y155826D01*
X130298Y155713D01*
X130306Y155684D01*
X130307Y155655D01*
X130341Y155547D01*
X130370Y155438D01*
X130385Y155412D01*
X130394Y155384D01*
X130440Y155320D01*
X130515Y155193D01*
X130561Y155150D01*
X130589Y155111D01*
X131827Y153873D01*
X131827Y150927D01*
X129743Y148843D01*
X126797Y148843D01*
X125813Y149827D01*
X125766Y149862D01*
X125726Y149905D01*
X125653Y149947D01*
X125586Y149998D01*
X125531Y150019D01*
X125481Y150048D01*
X125399Y150069D01*
X125320Y150099D01*
X125262Y150104D01*
X125205Y150118D01*
X125121Y150116D01*
X125037Y150123D01*
X124979Y150111D01*
X124921Y150109D01*
X124841Y150084D01*
X124758Y150067D01*
X124706Y150040D01*
X124650Y150022D01*
X124594Y149982D01*
X124506Y149936D01*
X124433Y149867D01*
X124377Y149827D01*
X123393Y148843D01*
X120447Y148843D01*
G37*
%LPD*%
%LPC*%
G36*
X106355Y57257D02*
X106355Y57257D01*
X103407Y58478D01*
X101150Y60735D01*
X99929Y63683D01*
X99929Y67048D01*
X99925Y67077D01*
X99928Y67107D01*
X99905Y67218D01*
X99889Y67330D01*
X99877Y67356D01*
X99872Y67385D01*
X99819Y67486D01*
X99773Y67589D01*
X99754Y67612D01*
X99741Y67638D01*
X99663Y67720D01*
X99590Y67806D01*
X99565Y67822D01*
X99545Y67844D01*
X99447Y67901D01*
X99353Y67964D01*
X99325Y67973D01*
X99300Y67987D01*
X99190Y68015D01*
X99082Y68050D01*
X99052Y68050D01*
X99024Y68058D01*
X98911Y68054D01*
X98798Y68057D01*
X98769Y68049D01*
X98740Y68048D01*
X98632Y68014D01*
X98523Y67985D01*
X98497Y67970D01*
X98469Y67961D01*
X98405Y67915D01*
X98278Y67840D01*
X98235Y67794D01*
X98196Y67766D01*
X96723Y66293D01*
X93777Y66293D01*
X91693Y68377D01*
X91693Y71628D01*
X91685Y71686D01*
X91687Y71744D01*
X91665Y71826D01*
X91653Y71910D01*
X91630Y71963D01*
X91615Y72019D01*
X91572Y72092D01*
X91537Y72169D01*
X91499Y72214D01*
X91470Y72264D01*
X91408Y72322D01*
X91354Y72386D01*
X91305Y72418D01*
X91262Y72458D01*
X91187Y72497D01*
X91117Y72544D01*
X91061Y72561D01*
X91009Y72588D01*
X90941Y72599D01*
X90846Y72629D01*
X90746Y72632D01*
X90678Y72643D01*
X87427Y72643D01*
X85343Y74727D01*
X85343Y77673D01*
X87427Y79757D01*
X90373Y79757D01*
X92457Y77673D01*
X92457Y74422D01*
X92465Y74364D01*
X92463Y74306D01*
X92485Y74224D01*
X92497Y74140D01*
X92520Y74087D01*
X92535Y74031D01*
X92578Y73958D01*
X92613Y73881D01*
X92651Y73836D01*
X92680Y73786D01*
X92742Y73728D01*
X92796Y73664D01*
X92845Y73632D01*
X92888Y73592D01*
X92963Y73553D01*
X93033Y73506D01*
X93089Y73489D01*
X93141Y73462D01*
X93209Y73451D01*
X93304Y73421D01*
X93404Y73418D01*
X93472Y73407D01*
X96723Y73407D01*
X98807Y71323D01*
X98807Y69267D01*
X98819Y69182D01*
X98821Y69096D01*
X98839Y69042D01*
X98847Y68986D01*
X98882Y68908D01*
X98908Y68826D01*
X98940Y68778D01*
X98963Y68726D01*
X99018Y68661D01*
X99066Y68590D01*
X99110Y68553D01*
X99146Y68509D01*
X99218Y68462D01*
X99284Y68407D01*
X99336Y68383D01*
X99383Y68352D01*
X99465Y68326D01*
X99544Y68291D01*
X99600Y68283D01*
X99654Y68266D01*
X99740Y68264D01*
X99825Y68252D01*
X99881Y68260D01*
X99938Y68259D01*
X100021Y68281D01*
X100106Y68293D01*
X100158Y68316D01*
X100213Y68331D01*
X100287Y68374D01*
X100366Y68410D01*
X100409Y68447D01*
X100458Y68476D01*
X100517Y68539D01*
X100582Y68594D01*
X100608Y68636D01*
X100652Y68683D01*
X100718Y68812D01*
X100760Y68879D01*
X101150Y69821D01*
X103407Y72078D01*
X106355Y73299D01*
X109545Y73299D01*
X112493Y72078D01*
X114750Y69821D01*
X115971Y66873D01*
X115971Y63683D01*
X114750Y60735D01*
X112493Y58478D01*
X109545Y57257D01*
X106355Y57257D01*
G37*
%LPD*%
%LPC*%
G36*
X480832Y264159D02*
X480832Y264159D01*
X477564Y265513D01*
X475063Y268014D01*
X473709Y271282D01*
X473709Y274818D01*
X475063Y278086D01*
X477564Y280587D01*
X480832Y281941D01*
X484368Y281941D01*
X487636Y280587D01*
X490137Y278086D01*
X491491Y274818D01*
X491491Y271282D01*
X490137Y268014D01*
X487636Y265513D01*
X484368Y264159D01*
X480832Y264159D01*
G37*
%LPD*%
%LPC*%
G36*
X423682Y264159D02*
X423682Y264159D01*
X420414Y265513D01*
X417913Y268014D01*
X416559Y271282D01*
X416559Y274818D01*
X417913Y278086D01*
X420414Y280587D01*
X423682Y281941D01*
X427218Y281941D01*
X430486Y280587D01*
X432987Y278086D01*
X434341Y274818D01*
X434341Y271282D01*
X432987Y268014D01*
X430486Y265513D01*
X427218Y264159D01*
X423682Y264159D01*
G37*
%LPD*%
%LPC*%
G36*
X398282Y264159D02*
X398282Y264159D01*
X395014Y265513D01*
X392513Y268014D01*
X391159Y271282D01*
X391159Y274818D01*
X392513Y278086D01*
X395014Y280587D01*
X398282Y281941D01*
X401818Y281941D01*
X405086Y280587D01*
X407587Y278086D01*
X408941Y274818D01*
X408941Y271282D01*
X407587Y268014D01*
X405086Y265513D01*
X401818Y264159D01*
X398282Y264159D01*
G37*
%LPD*%
%LPC*%
G36*
X372882Y264159D02*
X372882Y264159D01*
X369614Y265513D01*
X367113Y268014D01*
X365759Y271282D01*
X365759Y274818D01*
X367113Y278086D01*
X369614Y280587D01*
X372882Y281941D01*
X376418Y281941D01*
X379686Y280587D01*
X382187Y278086D01*
X383541Y274818D01*
X383541Y271282D01*
X382187Y268014D01*
X379686Y265513D01*
X376418Y264159D01*
X372882Y264159D01*
G37*
%LPD*%
%LPC*%
G36*
X347482Y264159D02*
X347482Y264159D01*
X344214Y265513D01*
X341713Y268014D01*
X340359Y271282D01*
X340359Y274818D01*
X341713Y278086D01*
X344214Y280587D01*
X347482Y281941D01*
X351018Y281941D01*
X354286Y280587D01*
X356787Y278086D01*
X358141Y274818D01*
X358141Y271282D01*
X356787Y268014D01*
X354286Y265513D01*
X351018Y264159D01*
X347482Y264159D01*
G37*
%LPD*%
%LPC*%
G36*
X322082Y264159D02*
X322082Y264159D01*
X318814Y265513D01*
X316313Y268014D01*
X314959Y271282D01*
X314959Y274818D01*
X316313Y278086D01*
X318814Y280587D01*
X322082Y281941D01*
X325618Y281941D01*
X328886Y280587D01*
X331387Y278086D01*
X332741Y274818D01*
X332741Y271282D01*
X331387Y268014D01*
X328886Y265513D01*
X325618Y264159D01*
X322082Y264159D01*
G37*
%LPD*%
%LPC*%
G36*
X296682Y264159D02*
X296682Y264159D01*
X293414Y265513D01*
X290913Y268014D01*
X289559Y271282D01*
X289559Y274818D01*
X290913Y278086D01*
X293414Y280587D01*
X296682Y281941D01*
X300218Y281941D01*
X303486Y280587D01*
X305987Y278086D01*
X307341Y274818D01*
X307341Y271282D01*
X305987Y268014D01*
X303486Y265513D01*
X300218Y264159D01*
X296682Y264159D01*
G37*
%LPD*%
%LPC*%
G36*
X322082Y238759D02*
X322082Y238759D01*
X318814Y240113D01*
X316313Y242614D01*
X314959Y245882D01*
X314959Y249418D01*
X316313Y252686D01*
X318814Y255187D01*
X322082Y256541D01*
X325618Y256541D01*
X328886Y255187D01*
X331387Y252686D01*
X332741Y249418D01*
X332741Y245882D01*
X331387Y242614D01*
X328886Y240113D01*
X325618Y238759D01*
X322082Y238759D01*
G37*
%LPD*%
%LPC*%
G36*
X347482Y238759D02*
X347482Y238759D01*
X344214Y240113D01*
X341713Y242614D01*
X340359Y245882D01*
X340359Y249418D01*
X341713Y252686D01*
X344214Y255187D01*
X347482Y256541D01*
X351018Y256541D01*
X354286Y255187D01*
X356787Y252686D01*
X358141Y249418D01*
X358141Y245882D01*
X356787Y242614D01*
X354286Y240113D01*
X351018Y238759D01*
X347482Y238759D01*
G37*
%LPD*%
%LPC*%
G36*
X372882Y238759D02*
X372882Y238759D01*
X369614Y240113D01*
X367113Y242614D01*
X365759Y245882D01*
X365759Y249418D01*
X367113Y252686D01*
X369614Y255187D01*
X372882Y256541D01*
X376418Y256541D01*
X379686Y255187D01*
X382187Y252686D01*
X383541Y249418D01*
X383541Y245882D01*
X382187Y242614D01*
X379686Y240113D01*
X376418Y238759D01*
X372882Y238759D01*
G37*
%LPD*%
%LPC*%
G36*
X480832Y238759D02*
X480832Y238759D01*
X477564Y240113D01*
X475063Y242614D01*
X473709Y245882D01*
X473709Y249418D01*
X475063Y252686D01*
X477564Y255187D01*
X480832Y256541D01*
X484368Y256541D01*
X487636Y255187D01*
X490137Y252686D01*
X491491Y249418D01*
X491491Y245882D01*
X490137Y242614D01*
X487636Y240113D01*
X484368Y238759D01*
X480832Y238759D01*
G37*
%LPD*%
%LPC*%
G36*
X423682Y238759D02*
X423682Y238759D01*
X420414Y240113D01*
X417913Y242614D01*
X416559Y245882D01*
X416559Y249418D01*
X417913Y252686D01*
X420414Y255187D01*
X423682Y256541D01*
X427218Y256541D01*
X430486Y255187D01*
X432987Y252686D01*
X434341Y249418D01*
X434341Y245882D01*
X432987Y242614D01*
X430486Y240113D01*
X427218Y238759D01*
X423682Y238759D01*
G37*
%LPD*%
%LPC*%
G36*
X171511Y188237D02*
X171511Y188237D01*
X169441Y190307D01*
X169441Y193233D01*
X169669Y193461D01*
X169687Y193484D01*
X169709Y193503D01*
X169772Y193598D01*
X169840Y193688D01*
X169850Y193715D01*
X169866Y193740D01*
X169901Y193848D01*
X169941Y193954D01*
X169943Y193983D01*
X169952Y194011D01*
X169955Y194124D01*
X169965Y194237D01*
X169959Y194266D01*
X169960Y194295D01*
X169931Y194405D01*
X169909Y194516D01*
X169895Y194542D01*
X169888Y194570D01*
X169830Y194667D01*
X169778Y194768D01*
X169757Y194789D01*
X169742Y194815D01*
X169660Y194892D01*
X169582Y194974D01*
X169557Y194989D01*
X169535Y195009D01*
X169434Y195061D01*
X169337Y195118D01*
X169308Y195125D01*
X169282Y195139D01*
X169205Y195152D01*
X169061Y195188D01*
X168999Y195186D01*
X168951Y195194D01*
X168053Y195194D01*
X165984Y197263D01*
X165984Y200190D01*
X167006Y201212D01*
X167041Y201259D01*
X167084Y201299D01*
X167126Y201372D01*
X167177Y201439D01*
X167198Y201494D01*
X167227Y201544D01*
X167248Y201626D01*
X167278Y201705D01*
X167283Y201763D01*
X167297Y201820D01*
X167295Y201904D01*
X167302Y201988D01*
X167290Y202046D01*
X167288Y202104D01*
X167262Y202184D01*
X167246Y202267D01*
X167219Y202319D01*
X167201Y202375D01*
X167161Y202431D01*
X167115Y202519D01*
X167046Y202592D01*
X167006Y202648D01*
X165377Y204277D01*
X165377Y207203D01*
X165633Y207459D01*
X165651Y207483D01*
X165673Y207502D01*
X165736Y207596D01*
X165804Y207686D01*
X165814Y207714D01*
X165831Y207738D01*
X165865Y207846D01*
X165905Y207952D01*
X165908Y207981D01*
X165916Y208009D01*
X165919Y208123D01*
X165929Y208235D01*
X165923Y208264D01*
X165924Y208293D01*
X165895Y208403D01*
X165873Y208514D01*
X165859Y208540D01*
X165852Y208568D01*
X165794Y208666D01*
X165742Y208766D01*
X165722Y208788D01*
X165707Y208813D01*
X165624Y208890D01*
X165546Y208972D01*
X165521Y208987D01*
X165499Y209007D01*
X165399Y209059D01*
X165301Y209116D01*
X165272Y209123D01*
X165246Y209137D01*
X165169Y209150D01*
X165025Y209186D01*
X164963Y209184D01*
X164915Y209192D01*
X164272Y209192D01*
X162202Y211262D01*
X162202Y214188D01*
X164272Y216258D01*
X167198Y216258D01*
X169268Y214188D01*
X169268Y211262D01*
X169012Y211006D01*
X168994Y210982D01*
X168972Y210963D01*
X168909Y210869D01*
X168841Y210779D01*
X168831Y210751D01*
X168814Y210727D01*
X168780Y210619D01*
X168740Y210513D01*
X168737Y210484D01*
X168729Y210456D01*
X168726Y210342D01*
X168716Y210230D01*
X168722Y210201D01*
X168721Y210172D01*
X168750Y210062D01*
X168772Y209951D01*
X168786Y209925D01*
X168793Y209897D01*
X168851Y209799D01*
X168903Y209699D01*
X168923Y209677D01*
X168938Y209652D01*
X169021Y209575D01*
X169099Y209493D01*
X169124Y209478D01*
X169146Y209458D01*
X169246Y209406D01*
X169344Y209349D01*
X169373Y209342D01*
X169399Y209328D01*
X169476Y209315D01*
X169620Y209279D01*
X169682Y209281D01*
X169730Y209273D01*
X170373Y209273D01*
X172383Y207263D01*
X172430Y207228D01*
X172470Y207185D01*
X172543Y207143D01*
X172610Y207092D01*
X172665Y207071D01*
X172715Y207042D01*
X172797Y207021D01*
X172876Y206991D01*
X172934Y206986D01*
X172991Y206972D01*
X173075Y206974D01*
X173159Y206967D01*
X173217Y206979D01*
X173275Y206981D01*
X173355Y207007D01*
X173438Y207023D01*
X173490Y207050D01*
X173546Y207068D01*
X173602Y207108D01*
X173690Y207154D01*
X173763Y207223D01*
X173819Y207263D01*
X175829Y209273D01*
X178755Y209273D01*
X180825Y207203D01*
X180825Y204277D01*
X178755Y202207D01*
X175829Y202207D01*
X173819Y204217D01*
X173772Y204252D01*
X173732Y204295D01*
X173659Y204337D01*
X173592Y204388D01*
X173537Y204409D01*
X173487Y204438D01*
X173405Y204459D01*
X173326Y204489D01*
X173268Y204494D01*
X173211Y204508D01*
X173127Y204506D01*
X173043Y204513D01*
X172985Y204501D01*
X172927Y204499D01*
X172847Y204473D01*
X172764Y204457D01*
X172712Y204430D01*
X172656Y204412D01*
X172600Y204372D01*
X172512Y204326D01*
X172439Y204257D01*
X172383Y204217D01*
X171421Y203255D01*
X171386Y203208D01*
X171343Y203168D01*
X171300Y203095D01*
X171250Y203028D01*
X171229Y202973D01*
X171199Y202922D01*
X171179Y202841D01*
X171149Y202762D01*
X171144Y202703D01*
X171129Y202647D01*
X171132Y202563D01*
X171125Y202479D01*
X171137Y202421D01*
X171138Y202363D01*
X171164Y202282D01*
X171181Y202200D01*
X171208Y202148D01*
X171226Y202092D01*
X171266Y202036D01*
X171312Y201947D01*
X171381Y201875D01*
X171421Y201819D01*
X173050Y200190D01*
X173050Y197263D01*
X172822Y197036D01*
X172804Y197012D01*
X172782Y196993D01*
X172719Y196899D01*
X172651Y196809D01*
X172641Y196781D01*
X172624Y196757D01*
X172590Y196649D01*
X172550Y196543D01*
X172547Y196514D01*
X172539Y196486D01*
X172536Y196373D01*
X172526Y196260D01*
X172532Y196231D01*
X172531Y196202D01*
X172560Y196092D01*
X172582Y195981D01*
X172596Y195955D01*
X172603Y195927D01*
X172661Y195829D01*
X172713Y195729D01*
X172733Y195707D01*
X172748Y195682D01*
X172831Y195605D01*
X172909Y195523D01*
X172934Y195508D01*
X172956Y195488D01*
X173056Y195436D01*
X173154Y195379D01*
X173183Y195372D01*
X173209Y195358D01*
X173286Y195345D01*
X173430Y195309D01*
X173492Y195311D01*
X173540Y195303D01*
X174437Y195303D01*
X176507Y193233D01*
X176507Y190307D01*
X174437Y188237D01*
X171511Y188237D01*
G37*
%LPD*%
%LPC*%
G36*
X127945Y80879D02*
X127945Y80879D01*
X124997Y82100D01*
X122740Y84357D01*
X121519Y87305D01*
X121519Y90495D01*
X122740Y93443D01*
X124997Y95700D01*
X127945Y96921D01*
X131135Y96921D01*
X134083Y95700D01*
X136340Y93443D01*
X137561Y90495D01*
X137561Y87305D01*
X136340Y84357D01*
X134083Y82100D01*
X131135Y80879D01*
X127945Y80879D01*
G37*
%LPD*%
%LPC*%
G36*
X93851Y113617D02*
X93851Y113617D01*
X91266Y114688D01*
X89288Y116666D01*
X88217Y119251D01*
X88217Y122049D01*
X89288Y124634D01*
X91266Y126612D01*
X93851Y127683D01*
X96649Y127683D01*
X99234Y126612D01*
X101212Y124634D01*
X102283Y122049D01*
X102283Y119251D01*
X101212Y116666D01*
X99234Y114688D01*
X96649Y113617D01*
X93851Y113617D01*
G37*
%LPD*%
%LPC*%
G36*
X55751Y113617D02*
X55751Y113617D01*
X53166Y114688D01*
X51188Y116666D01*
X50117Y119251D01*
X50117Y122049D01*
X51188Y124634D01*
X53166Y126612D01*
X55751Y127683D01*
X58549Y127683D01*
X61134Y126612D01*
X63112Y124634D01*
X64183Y122049D01*
X64183Y119251D01*
X63112Y116666D01*
X61134Y114688D01*
X58549Y113617D01*
X55751Y113617D01*
G37*
%LPD*%
%LPC*%
G36*
X157287Y254912D02*
X157287Y254912D01*
X155217Y256982D01*
X155217Y259908D01*
X157287Y261978D01*
X158987Y261978D01*
X159074Y261990D01*
X159162Y261993D01*
X159214Y262010D01*
X159269Y262018D01*
X159349Y262053D01*
X159432Y262080D01*
X159471Y262108D01*
X159528Y262134D01*
X159642Y262230D01*
X159705Y262275D01*
X168866Y271436D01*
X168918Y271505D01*
X168978Y271569D01*
X169004Y271619D01*
X169037Y271663D01*
X169068Y271745D01*
X169108Y271822D01*
X169116Y271870D01*
X169138Y271928D01*
X169150Y272076D01*
X169163Y272154D01*
X169163Y273888D01*
X171247Y275972D01*
X174193Y275972D01*
X176277Y273888D01*
X176277Y270942D01*
X174193Y268858D01*
X172459Y268858D01*
X172372Y268846D01*
X172284Y268843D01*
X172232Y268826D01*
X172177Y268818D01*
X172097Y268783D01*
X172014Y268756D01*
X171975Y268728D01*
X171918Y268702D01*
X171804Y268606D01*
X171741Y268561D01*
X162580Y259400D01*
X162528Y259331D01*
X162468Y259267D01*
X162442Y259217D01*
X162409Y259173D01*
X162378Y259091D01*
X162338Y259014D01*
X162330Y258966D01*
X162308Y258908D01*
X162296Y258760D01*
X162283Y258682D01*
X162283Y256982D01*
X160213Y254912D01*
X157287Y254912D01*
G37*
%LPD*%
%LPC*%
G36*
X422958Y190704D02*
X422958Y190704D01*
X420699Y191640D01*
X418970Y193369D01*
X418034Y195628D01*
X418034Y198072D01*
X418970Y200331D01*
X420699Y202060D01*
X422958Y202996D01*
X425402Y202996D01*
X427661Y202060D01*
X429390Y200331D01*
X430326Y198072D01*
X430326Y195628D01*
X429390Y193369D01*
X427661Y191640D01*
X425402Y190704D01*
X422958Y190704D01*
G37*
%LPD*%
%LPC*%
G36*
X422958Y167844D02*
X422958Y167844D01*
X420699Y168780D01*
X418970Y170509D01*
X418034Y172768D01*
X418034Y175212D01*
X418970Y177471D01*
X420699Y179200D01*
X422958Y180136D01*
X425402Y180136D01*
X427661Y179200D01*
X429390Y177471D01*
X430326Y175212D01*
X430326Y172768D01*
X429390Y170509D01*
X427661Y168780D01*
X425402Y167844D01*
X422958Y167844D01*
G37*
%LPD*%
%LPC*%
G36*
X284287Y79017D02*
X284287Y79017D01*
X282217Y81087D01*
X282217Y84013D01*
X284287Y86083D01*
X287528Y86083D01*
X287586Y86091D01*
X287644Y86089D01*
X287726Y86111D01*
X287810Y86123D01*
X287863Y86146D01*
X287919Y86161D01*
X287992Y86204D01*
X288069Y86239D01*
X288114Y86277D01*
X288164Y86306D01*
X288222Y86368D01*
X288286Y86422D01*
X288318Y86471D01*
X288358Y86514D01*
X288397Y86589D01*
X288444Y86659D01*
X288461Y86715D01*
X288488Y86767D01*
X288499Y86835D01*
X288529Y86930D01*
X288532Y87030D01*
X288543Y87098D01*
X288543Y90373D01*
X290627Y92457D01*
X293573Y92457D01*
X295657Y90373D01*
X295657Y87427D01*
X293573Y85343D01*
X290298Y85343D01*
X290240Y85335D01*
X290182Y85337D01*
X290100Y85315D01*
X290016Y85303D01*
X289963Y85280D01*
X289907Y85265D01*
X289834Y85222D01*
X289757Y85187D01*
X289712Y85149D01*
X289662Y85120D01*
X289604Y85058D01*
X289540Y85004D01*
X289508Y84955D01*
X289468Y84912D01*
X289429Y84837D01*
X289382Y84767D01*
X289365Y84711D01*
X289338Y84659D01*
X289327Y84591D01*
X289297Y84496D01*
X289294Y84396D01*
X289283Y84328D01*
X289283Y81087D01*
X287213Y79017D01*
X284287Y79017D01*
G37*
%LPD*%
%LPC*%
G36*
X243002Y141223D02*
X243002Y141223D01*
X240918Y143307D01*
X240918Y146253D01*
X243002Y148337D01*
X245948Y148337D01*
X247565Y146720D01*
X247612Y146685D01*
X247652Y146642D01*
X247725Y146600D01*
X247792Y146549D01*
X247847Y146528D01*
X247897Y146499D01*
X247979Y146478D01*
X248058Y146448D01*
X248116Y146443D01*
X248173Y146428D01*
X248257Y146431D01*
X248341Y146424D01*
X248399Y146436D01*
X248457Y146438D01*
X248537Y146463D01*
X248620Y146480D01*
X248672Y146507D01*
X248728Y146525D01*
X248784Y146565D01*
X248872Y146611D01*
X248945Y146680D01*
X249001Y146720D01*
X251257Y148976D01*
X254203Y148976D01*
X256287Y146892D01*
X256287Y143946D01*
X254203Y141862D01*
X251257Y141862D01*
X249640Y143479D01*
X249593Y143514D01*
X249553Y143557D01*
X249480Y143599D01*
X249413Y143650D01*
X249358Y143671D01*
X249308Y143700D01*
X249226Y143721D01*
X249147Y143751D01*
X249089Y143756D01*
X249032Y143770D01*
X248948Y143768D01*
X248864Y143775D01*
X248806Y143763D01*
X248748Y143761D01*
X248668Y143735D01*
X248585Y143719D01*
X248533Y143692D01*
X248477Y143674D01*
X248421Y143634D01*
X248333Y143588D01*
X248260Y143519D01*
X248204Y143479D01*
X245948Y141223D01*
X243002Y141223D01*
G37*
%LPD*%
%LPC*%
G36*
X93787Y256817D02*
X93787Y256817D01*
X91717Y258887D01*
X91717Y261813D01*
X93787Y263883D01*
X96713Y263883D01*
X96945Y263651D01*
X96969Y263633D01*
X96988Y263611D01*
X97082Y263548D01*
X97172Y263480D01*
X97200Y263470D01*
X97224Y263453D01*
X97332Y263419D01*
X97438Y263379D01*
X97467Y263376D01*
X97495Y263368D01*
X97608Y263365D01*
X97721Y263355D01*
X97750Y263361D01*
X97779Y263360D01*
X97889Y263389D01*
X98000Y263411D01*
X98026Y263425D01*
X98054Y263432D01*
X98152Y263490D01*
X98252Y263542D01*
X98274Y263562D01*
X98299Y263577D01*
X98376Y263660D01*
X98458Y263738D01*
X98473Y263763D01*
X98493Y263785D01*
X98545Y263885D01*
X98602Y263983D01*
X98609Y264012D01*
X98623Y264038D01*
X98636Y264115D01*
X98672Y264259D01*
X98670Y264321D01*
X98678Y264369D01*
X98678Y266903D01*
X100762Y268987D01*
X103708Y268987D01*
X105792Y266903D01*
X105792Y263957D01*
X103708Y261873D01*
X100762Y261873D01*
X100516Y262119D01*
X100492Y262137D01*
X100473Y262159D01*
X100379Y262222D01*
X100289Y262290D01*
X100261Y262300D01*
X100237Y262317D01*
X100129Y262351D01*
X100023Y262391D01*
X99994Y262394D01*
X99966Y262403D01*
X99853Y262405D01*
X99740Y262415D01*
X99711Y262409D01*
X99682Y262410D01*
X99572Y262381D01*
X99461Y262359D01*
X99435Y262345D01*
X99407Y262338D01*
X99309Y262280D01*
X99209Y262228D01*
X99187Y262208D01*
X99162Y262193D01*
X99085Y262110D01*
X99003Y262032D01*
X98988Y262007D01*
X98968Y261985D01*
X98916Y261885D01*
X98859Y261787D01*
X98852Y261758D01*
X98838Y261732D01*
X98825Y261655D01*
X98789Y261511D01*
X98791Y261449D01*
X98783Y261401D01*
X98783Y258887D01*
X96713Y256817D01*
X93787Y256817D01*
G37*
%LPD*%
%LPC*%
G36*
X303327Y146938D02*
X303327Y146938D01*
X301243Y149022D01*
X301243Y150368D01*
X301235Y150426D01*
X301237Y150484D01*
X301215Y150566D01*
X301203Y150650D01*
X301180Y150703D01*
X301165Y150759D01*
X301122Y150832D01*
X301087Y150909D01*
X301049Y150954D01*
X301020Y151004D01*
X300958Y151062D01*
X300904Y151126D01*
X300855Y151158D01*
X300812Y151198D01*
X300737Y151237D01*
X300667Y151284D01*
X300611Y151301D01*
X300559Y151328D01*
X300491Y151339D01*
X300396Y151369D01*
X300296Y151372D01*
X300228Y151383D01*
X298882Y151383D01*
X296798Y153467D01*
X296798Y156413D01*
X298882Y158497D01*
X301828Y158497D01*
X303912Y156413D01*
X303912Y155067D01*
X303920Y155009D01*
X303918Y154951D01*
X303940Y154869D01*
X303952Y154785D01*
X303975Y154732D01*
X303990Y154676D01*
X304033Y154603D01*
X304068Y154526D01*
X304106Y154481D01*
X304135Y154431D01*
X304197Y154373D01*
X304251Y154309D01*
X304300Y154277D01*
X304343Y154237D01*
X304418Y154198D01*
X304488Y154151D01*
X304544Y154134D01*
X304596Y154107D01*
X304664Y154096D01*
X304759Y154066D01*
X304859Y154063D01*
X304927Y154052D01*
X306273Y154052D01*
X308357Y151968D01*
X308357Y149022D01*
X306273Y146938D01*
X303327Y146938D01*
G37*
%LPD*%
%LPC*%
G36*
X300481Y249681D02*
X300481Y249681D01*
X300481Y257616D01*
X300829Y257561D01*
X302350Y257066D01*
X303775Y256340D01*
X305069Y255400D01*
X306200Y254269D01*
X307140Y252975D01*
X307866Y251550D01*
X308361Y250029D01*
X308416Y249681D01*
X300481Y249681D01*
G37*
%LPD*%
%LPC*%
G36*
X288484Y249681D02*
X288484Y249681D01*
X288539Y250029D01*
X289034Y251550D01*
X289760Y252975D01*
X290700Y254269D01*
X291831Y255400D01*
X293125Y256340D01*
X294550Y257066D01*
X296071Y257561D01*
X296419Y257616D01*
X296419Y249681D01*
X288484Y249681D01*
G37*
%LPD*%
%LPC*%
G36*
X300481Y245619D02*
X300481Y245619D01*
X308416Y245619D01*
X308361Y245271D01*
X307866Y243750D01*
X307140Y242325D01*
X306200Y241031D01*
X305069Y239900D01*
X303775Y238960D01*
X302350Y238234D01*
X300829Y237739D01*
X300481Y237684D01*
X300481Y245619D01*
G37*
%LPD*%
%LPC*%
G36*
X296071Y237739D02*
X296071Y237739D01*
X294550Y238234D01*
X293125Y238960D01*
X291831Y239900D01*
X290700Y241031D01*
X289760Y242325D01*
X289034Y243750D01*
X288539Y245271D01*
X288484Y245619D01*
X296419Y245619D01*
X296419Y237684D01*
X296071Y237739D01*
G37*
%LPD*%
%LPC*%
G36*
X86157Y15493D02*
X86157Y15493D01*
X84073Y17577D01*
X84073Y20523D01*
X86157Y22607D01*
X89103Y22607D01*
X91187Y20523D01*
X91187Y17577D01*
X89103Y15493D01*
X86157Y15493D01*
G37*
%LPD*%
%LPC*%
G36*
X333807Y12953D02*
X333807Y12953D01*
X331723Y15037D01*
X331723Y17983D01*
X333807Y20067D01*
X336753Y20067D01*
X338837Y17983D01*
X338837Y15037D01*
X336753Y12953D01*
X333807Y12953D01*
G37*
%LPD*%
%LPC*%
G36*
X11227Y9143D02*
X11227Y9143D01*
X9143Y11227D01*
X9143Y14173D01*
X11227Y16257D01*
X14173Y16257D01*
X16257Y14173D01*
X16257Y11227D01*
X14173Y9143D01*
X11227Y9143D01*
G37*
%LPD*%
%LPC*%
G36*
X129972Y251078D02*
X129972Y251078D01*
X127888Y253162D01*
X127888Y256108D01*
X129972Y258192D01*
X132918Y258192D01*
X135002Y256108D01*
X135002Y253162D01*
X132918Y251078D01*
X129972Y251078D01*
G37*
%LPD*%
%LPC*%
G36*
X121082Y244728D02*
X121082Y244728D01*
X118998Y246812D01*
X118998Y249758D01*
X121082Y251842D01*
X124028Y251842D01*
X126112Y249758D01*
X126112Y246812D01*
X124028Y244728D01*
X121082Y244728D01*
G37*
%LPD*%
%LPC*%
G36*
X88697Y239648D02*
X88697Y239648D01*
X86613Y241732D01*
X86613Y244678D01*
X88697Y246762D01*
X91643Y246762D01*
X93727Y244678D01*
X93727Y241732D01*
X91643Y239648D01*
X88697Y239648D01*
G37*
%LPD*%
%LPC*%
G36*
X189027Y235203D02*
X189027Y235203D01*
X186943Y237287D01*
X186943Y240233D01*
X189027Y242317D01*
X191973Y242317D01*
X194057Y240233D01*
X194057Y237287D01*
X191973Y235203D01*
X189027Y235203D01*
G37*
%LPD*%
%LPC*%
G36*
X265227Y231393D02*
X265227Y231393D01*
X263143Y233477D01*
X263143Y236423D01*
X265227Y238507D01*
X268173Y238507D01*
X270257Y236423D01*
X270257Y233477D01*
X268173Y231393D01*
X265227Y231393D01*
G37*
%LPD*%
%LPC*%
G36*
X403657Y227583D02*
X403657Y227583D01*
X401573Y229667D01*
X401573Y232613D01*
X403657Y234697D01*
X406603Y234697D01*
X408687Y232613D01*
X408687Y229667D01*
X406603Y227583D01*
X403657Y227583D01*
G37*
%LPD*%
%LPC*%
G36*
X297612Y227583D02*
X297612Y227583D01*
X295528Y229667D01*
X295528Y232613D01*
X297612Y234697D01*
X300558Y234697D01*
X302642Y232613D01*
X302642Y229667D01*
X300558Y227583D01*
X297612Y227583D01*
G37*
%LPD*%
%LPC*%
G36*
X107747Y204088D02*
X107747Y204088D01*
X105663Y206172D01*
X105663Y209118D01*
X107747Y211202D01*
X110693Y211202D01*
X112777Y209118D01*
X112777Y206172D01*
X110693Y204088D01*
X107747Y204088D01*
G37*
%LPD*%
%LPC*%
G36*
X62662Y204088D02*
X62662Y204088D01*
X60578Y206172D01*
X60578Y209118D01*
X62662Y211202D01*
X65608Y211202D01*
X67692Y209118D01*
X67692Y206172D01*
X65608Y204088D01*
X62662Y204088D01*
G37*
%LPD*%
%LPC*%
G36*
X390322Y202437D02*
X390322Y202437D01*
X388238Y204521D01*
X388238Y207467D01*
X390322Y209551D01*
X393268Y209551D01*
X395352Y207467D01*
X395352Y204521D01*
X393268Y202437D01*
X390322Y202437D01*
G37*
%LPD*%
%LPC*%
G36*
X96952Y200278D02*
X96952Y200278D01*
X94868Y202362D01*
X94868Y205308D01*
X96952Y207392D01*
X99898Y207392D01*
X101982Y205308D01*
X101982Y202362D01*
X99898Y200278D01*
X96952Y200278D01*
G37*
%LPD*%
%LPC*%
G36*
X53772Y199008D02*
X53772Y199008D01*
X51688Y201092D01*
X51688Y204038D01*
X53772Y206122D01*
X56718Y206122D01*
X58802Y204038D01*
X58802Y201092D01*
X56718Y199008D01*
X53772Y199008D01*
G37*
%LPD*%
%LPC*%
G36*
X42342Y196468D02*
X42342Y196468D01*
X40258Y198552D01*
X40258Y201498D01*
X42342Y203582D01*
X45288Y203582D01*
X47372Y201498D01*
X47372Y198552D01*
X45288Y196468D01*
X42342Y196468D01*
G37*
%LPD*%
%LPC*%
G36*
X354127Y174243D02*
X354127Y174243D01*
X352043Y176327D01*
X352043Y179273D01*
X354127Y181357D01*
X357073Y181357D01*
X359157Y179273D01*
X359157Y176327D01*
X357073Y174243D01*
X354127Y174243D01*
G37*
%LPD*%
%LPC*%
G36*
X341427Y167893D02*
X341427Y167893D01*
X339343Y169977D01*
X339343Y172923D01*
X341427Y175007D01*
X344373Y175007D01*
X346457Y172923D01*
X346457Y169977D01*
X344373Y167893D01*
X341427Y167893D01*
G37*
%LPD*%
%LPC*%
G36*
X74727Y164743D02*
X74727Y164743D01*
X72643Y166827D01*
X72643Y169773D01*
X74727Y171857D01*
X77673Y171857D01*
X79757Y169773D01*
X79757Y166827D01*
X77673Y164743D01*
X74727Y164743D01*
G37*
%LPD*%
%LPC*%
G36*
X32817Y162813D02*
X32817Y162813D01*
X30733Y164897D01*
X30733Y167843D01*
X32817Y169927D01*
X35763Y169927D01*
X37847Y167843D01*
X37847Y164897D01*
X35763Y162813D01*
X32817Y162813D01*
G37*
%LPD*%
%LPC*%
G36*
X16307Y162813D02*
X16307Y162813D01*
X14223Y164897D01*
X14223Y167843D01*
X16307Y169927D01*
X19253Y169927D01*
X21337Y167843D01*
X21337Y164897D01*
X19253Y162813D01*
X16307Y162813D01*
G37*
%LPD*%
%LPC*%
G36*
X59487Y155828D02*
X59487Y155828D01*
X57403Y157912D01*
X57403Y160858D01*
X59487Y162942D01*
X62433Y162942D01*
X64517Y160858D01*
X64517Y157912D01*
X62433Y155828D01*
X59487Y155828D01*
G37*
%LPD*%
%LPC*%
G36*
X284912Y151383D02*
X284912Y151383D01*
X282828Y153467D01*
X282828Y156413D01*
X284912Y158497D01*
X287858Y158497D01*
X289942Y156413D01*
X289942Y153467D01*
X287858Y151383D01*
X284912Y151383D01*
G37*
%LPD*%
%LPC*%
G36*
X329997Y150748D02*
X329997Y150748D01*
X327913Y152832D01*
X327913Y155778D01*
X329997Y157862D01*
X332943Y157862D01*
X335027Y155778D01*
X335027Y152832D01*
X332943Y150748D01*
X329997Y150748D01*
G37*
%LPD*%
%LPC*%
G36*
X208077Y147573D02*
X208077Y147573D01*
X205993Y149657D01*
X205993Y152603D01*
X208077Y154687D01*
X211023Y154687D01*
X213107Y152603D01*
X213107Y149657D01*
X211023Y147573D01*
X208077Y147573D01*
G37*
%LPD*%
%LPC*%
G36*
X152197Y147573D02*
X152197Y147573D01*
X150113Y149657D01*
X150113Y152603D01*
X152197Y154687D01*
X155143Y154687D01*
X157227Y152603D01*
X157227Y149657D01*
X155143Y147573D01*
X152197Y147573D01*
G37*
%LPD*%
%LPC*%
G36*
X107747Y146938D02*
X107747Y146938D01*
X105663Y149022D01*
X105663Y151968D01*
X107747Y154052D01*
X110693Y154052D01*
X112777Y151968D01*
X112777Y149022D01*
X110693Y146938D01*
X107747Y146938D01*
G37*
%LPD*%
%LPC*%
G36*
X316027Y146049D02*
X316027Y146049D01*
X313943Y148133D01*
X313943Y151079D01*
X316027Y153163D01*
X318973Y153163D01*
X321057Y151079D01*
X321057Y148133D01*
X318973Y146049D01*
X316027Y146049D01*
G37*
%LPD*%
%LPC*%
G36*
X183957Y143773D02*
X183957Y143773D01*
X181873Y145857D01*
X181873Y148803D01*
X183957Y150887D01*
X186903Y150887D01*
X188987Y148803D01*
X188987Y145857D01*
X186903Y143773D01*
X183957Y143773D01*
G37*
%LPD*%
%LPC*%
G36*
X284912Y139953D02*
X284912Y139953D01*
X282828Y142037D01*
X282828Y144983D01*
X284912Y147067D01*
X287858Y147067D01*
X289942Y144983D01*
X289942Y142037D01*
X287858Y139953D01*
X284912Y139953D01*
G37*
%LPD*%
%LPC*%
G36*
X39167Y137413D02*
X39167Y137413D01*
X37083Y139497D01*
X37083Y142443D01*
X39167Y144527D01*
X42113Y144527D01*
X44197Y142443D01*
X44197Y139497D01*
X42113Y137413D01*
X39167Y137413D01*
G37*
%LPD*%
%LPC*%
G36*
X328727Y136143D02*
X328727Y136143D01*
X326643Y138227D01*
X326643Y141173D01*
X328727Y143257D01*
X331673Y143257D01*
X333757Y141173D01*
X333757Y138227D01*
X331673Y136143D01*
X328727Y136143D01*
G37*
%LPD*%
%LPC*%
G36*
X289357Y131063D02*
X289357Y131063D01*
X287273Y133147D01*
X287273Y136093D01*
X289357Y138177D01*
X292303Y138177D01*
X294387Y136093D01*
X294387Y133147D01*
X292303Y131063D01*
X289357Y131063D01*
G37*
%LPD*%
%LPC*%
G36*
X131877Y129793D02*
X131877Y129793D01*
X129793Y131877D01*
X129793Y134823D01*
X131877Y136907D01*
X134823Y136907D01*
X136907Y134823D01*
X136907Y131877D01*
X134823Y129793D01*
X131877Y129793D01*
G37*
%LPD*%
%LPC*%
G36*
X70917Y118998D02*
X70917Y118998D01*
X68833Y121082D01*
X68833Y124028D01*
X70917Y126112D01*
X73863Y126112D01*
X75947Y124028D01*
X75947Y121082D01*
X73863Y118998D01*
X70917Y118998D01*
G37*
%LPD*%
%LPC*%
G36*
X257607Y118363D02*
X257607Y118363D01*
X255523Y120447D01*
X255523Y123393D01*
X257607Y125477D01*
X260553Y125477D01*
X262637Y123393D01*
X262637Y120447D01*
X260553Y118363D01*
X257607Y118363D01*
G37*
%LPD*%
%LPC*%
G36*
X124257Y113283D02*
X124257Y113283D01*
X122173Y115367D01*
X122173Y118313D01*
X124257Y120397D01*
X127203Y120397D01*
X129287Y118313D01*
X129287Y115367D01*
X127203Y113283D01*
X124257Y113283D01*
G37*
%LPD*%
%LPC*%
G36*
X74727Y95593D02*
X74727Y95593D01*
X72643Y97677D01*
X72643Y100623D01*
X74727Y102707D01*
X77673Y102707D01*
X79757Y100623D01*
X79757Y97677D01*
X77673Y95593D01*
X74727Y95593D01*
G37*
%LPD*%
%LPC*%
G36*
X335077Y54228D02*
X335077Y54228D01*
X332993Y56312D01*
X332993Y59258D01*
X335077Y61342D01*
X338023Y61342D01*
X340107Y59258D01*
X340107Y56312D01*
X338023Y54228D01*
X335077Y54228D01*
G37*
%LPD*%
%LPC*%
G36*
X26467Y82803D02*
X26467Y82803D01*
X24383Y84887D01*
X24383Y87833D01*
X26467Y89917D01*
X29413Y89917D01*
X31497Y87833D01*
X31497Y84887D01*
X29413Y82803D01*
X26467Y82803D01*
G37*
%LPD*%
%LPC*%
G36*
X465887Y81533D02*
X465887Y81533D01*
X463803Y83617D01*
X463803Y86563D01*
X465887Y88647D01*
X468833Y88647D01*
X470917Y86563D01*
X470917Y83617D01*
X468833Y81533D01*
X465887Y81533D01*
G37*
%LPD*%
%LPC*%
G36*
X173787Y76453D02*
X173787Y76453D01*
X171703Y78537D01*
X171703Y81483D01*
X173787Y83567D01*
X176733Y83567D01*
X178817Y81483D01*
X178817Y78537D01*
X176733Y76453D01*
X173787Y76453D01*
G37*
%LPD*%
%LPC*%
G36*
X74727Y72643D02*
X74727Y72643D01*
X72643Y74727D01*
X72643Y77673D01*
X74727Y79757D01*
X77673Y79757D01*
X79757Y77673D01*
X79757Y74727D01*
X77673Y72643D01*
X74727Y72643D01*
G37*
%LPD*%
%LPC*%
G36*
X309677Y59181D02*
X309677Y59181D01*
X307593Y61265D01*
X307593Y64211D01*
X309677Y66295D01*
X312623Y66295D01*
X314707Y64211D01*
X314707Y61265D01*
X312623Y59181D01*
X309677Y59181D01*
G37*
%LPD*%
%LPC*%
G36*
X290627Y53593D02*
X290627Y53593D01*
X288543Y55677D01*
X288543Y58623D01*
X290627Y60707D01*
X293573Y60707D01*
X295657Y58623D01*
X295657Y55677D01*
X293573Y53593D01*
X290627Y53593D01*
G37*
%LPD*%
%LPC*%
G36*
X144577Y53593D02*
X144577Y53593D01*
X142493Y55677D01*
X142493Y58623D01*
X144577Y60707D01*
X147523Y60707D01*
X149607Y58623D01*
X149607Y55677D01*
X147523Y53593D01*
X144577Y53593D01*
G37*
%LPD*%
%LPC*%
G36*
X312217Y44703D02*
X312217Y44703D01*
X310133Y46787D01*
X310133Y49733D01*
X312217Y51817D01*
X315163Y51817D01*
X317247Y49733D01*
X317247Y46787D01*
X315163Y44703D01*
X312217Y44703D01*
G37*
%LPD*%
%LPC*%
G36*
X392227Y34543D02*
X392227Y34543D01*
X390143Y36627D01*
X390143Y39573D01*
X392227Y41657D01*
X395173Y41657D01*
X397257Y39573D01*
X397257Y36627D01*
X395173Y34543D01*
X392227Y34543D01*
G37*
%LPD*%
%LPC*%
G36*
X295707Y33908D02*
X295707Y33908D01*
X293623Y35992D01*
X293623Y38938D01*
X295707Y41022D01*
X298653Y41022D01*
X300737Y38938D01*
X300737Y35992D01*
X298653Y33908D01*
X295707Y33908D01*
G37*
%LPD*%
%LPC*%
G36*
X333553Y32384D02*
X333553Y32384D01*
X331469Y34468D01*
X331469Y37414D01*
X333553Y39498D01*
X336499Y39498D01*
X338583Y37414D01*
X338583Y34468D01*
X336499Y32384D01*
X333553Y32384D01*
G37*
%LPD*%
%LPC*%
G36*
X211887Y19303D02*
X211887Y19303D01*
X209803Y21387D01*
X209803Y24333D01*
X211887Y26417D01*
X214833Y26417D01*
X216917Y24333D01*
X216917Y21387D01*
X214833Y19303D01*
X211887Y19303D01*
G37*
%LPD*%
%LPC*%
G36*
X288087Y18033D02*
X288087Y18033D01*
X286003Y20117D01*
X286003Y23063D01*
X288087Y25147D01*
X291033Y25147D01*
X293117Y23063D01*
X293117Y20117D01*
X291033Y18033D01*
X288087Y18033D01*
G37*
%LPD*%
%LPC*%
G36*
X181407Y16763D02*
X181407Y16763D01*
X179323Y18847D01*
X179323Y21793D01*
X181407Y23877D01*
X184353Y23877D01*
X186437Y21793D01*
X186437Y18847D01*
X184353Y16763D01*
X181407Y16763D01*
G37*
%LPD*%
%LPC*%
G36*
X130607Y261873D02*
X130607Y261873D01*
X128523Y263957D01*
X128523Y266903D01*
X130607Y268987D01*
X133553Y268987D01*
X135637Y266903D01*
X135637Y263957D01*
X133553Y261873D01*
X130607Y261873D01*
G37*
%LPD*%
%LPC*%
G36*
X277937Y269517D02*
X277937Y269517D01*
X275867Y271587D01*
X275867Y274513D01*
X277937Y276583D01*
X280863Y276583D01*
X282933Y274513D01*
X282933Y271587D01*
X280863Y269517D01*
X277937Y269517D01*
G37*
%LPD*%
%LPC*%
G36*
X224597Y73937D02*
X224597Y73937D01*
X222527Y76007D01*
X222527Y78933D01*
X224597Y81003D01*
X227523Y81003D01*
X229593Y78933D01*
X229593Y76007D01*
X227523Y73937D01*
X224597Y73937D01*
G37*
%LPD*%
%LPC*%
G36*
X487487Y219987D02*
X487487Y219987D01*
X485417Y222057D01*
X485417Y224983D01*
X487487Y227053D01*
X490413Y227053D01*
X492483Y224983D01*
X492483Y222057D01*
X490413Y219987D01*
X487487Y219987D01*
G37*
%LPD*%
%LPC*%
G36*
X185227Y118387D02*
X185227Y118387D01*
X183157Y120457D01*
X183157Y123383D01*
X185227Y125453D01*
X188153Y125453D01*
X190223Y123383D01*
X190223Y120457D01*
X188153Y118387D01*
X185227Y118387D01*
G37*
%LPD*%
%LPC*%
G36*
X164907Y230147D02*
X164907Y230147D01*
X162837Y232217D01*
X162837Y235143D01*
X164907Y237213D01*
X167833Y237213D01*
X169903Y235143D01*
X169903Y232217D01*
X167833Y230147D01*
X164907Y230147D01*
G37*
%LPD*%
%LPC*%
G36*
X351597Y116863D02*
X351597Y116863D01*
X349527Y118933D01*
X349527Y121859D01*
X351597Y123929D01*
X354523Y123929D01*
X356593Y121859D01*
X356593Y118933D01*
X354523Y116863D01*
X351597Y116863D01*
G37*
%LPD*%
%LPC*%
G36*
X72832Y261897D02*
X72832Y261897D01*
X70762Y263967D01*
X70762Y266893D01*
X72832Y268963D01*
X75758Y268963D01*
X77828Y266893D01*
X77828Y263967D01*
X75758Y261897D01*
X72832Y261897D01*
G37*
%LPD*%
%LPC*%
G36*
X392237Y89177D02*
X392237Y89177D01*
X390167Y91247D01*
X390167Y94173D01*
X392237Y96243D01*
X395163Y96243D01*
X397233Y94173D01*
X397233Y91247D01*
X395163Y89177D01*
X392237Y89177D01*
G37*
%LPD*%
%LPC*%
G36*
X220787Y161567D02*
X220787Y161567D01*
X218717Y163637D01*
X218717Y166563D01*
X220787Y168633D01*
X223713Y168633D01*
X225783Y166563D01*
X225783Y163637D01*
X223713Y161567D01*
X220787Y161567D01*
G37*
%LPD*%
%LPC*%
G36*
X283781Y98067D02*
X283781Y98067D01*
X281711Y100137D01*
X281711Y103063D01*
X283781Y105133D01*
X286707Y105133D01*
X288777Y103063D01*
X288777Y100137D01*
X286707Y98067D01*
X283781Y98067D01*
G37*
%LPD*%
%LPC*%
G36*
X365567Y128547D02*
X365567Y128547D01*
X363497Y130617D01*
X363497Y133543D01*
X365567Y135613D01*
X368493Y135613D01*
X370563Y133543D01*
X370563Y130617D01*
X368493Y128547D01*
X365567Y128547D01*
G37*
%LPD*%
%LPC*%
G36*
X415097Y90447D02*
X415097Y90447D01*
X413027Y92517D01*
X413027Y95443D01*
X415097Y97513D01*
X418023Y97513D01*
X420093Y95443D01*
X420093Y92517D01*
X418023Y90447D01*
X415097Y90447D01*
G37*
%LPD*%
%LPC*%
G36*
X258887Y203477D02*
X258887Y203477D01*
X256817Y205547D01*
X256817Y208473D01*
X258887Y210543D01*
X261813Y210543D01*
X263883Y208473D01*
X263883Y205547D01*
X261813Y203477D01*
X258887Y203477D01*
G37*
%LPD*%
%LPC*%
G36*
X487487Y180617D02*
X487487Y180617D01*
X485417Y182687D01*
X485417Y185613D01*
X487487Y187683D01*
X490413Y187683D01*
X492483Y185613D01*
X492483Y182687D01*
X490413Y180617D01*
X487487Y180617D01*
G37*
%LPD*%
%LPC*%
G36*
X191704Y204239D02*
X191704Y204239D01*
X189634Y206309D01*
X189634Y209235D01*
X191704Y211305D01*
X194630Y211305D01*
X196700Y209235D01*
X196700Y206309D01*
X194630Y204239D01*
X191704Y204239D01*
G37*
%LPD*%
%LPC*%
G36*
X133157Y197127D02*
X133157Y197127D01*
X131087Y199197D01*
X131087Y202123D01*
X133157Y204193D01*
X136083Y204193D01*
X138153Y202123D01*
X138153Y199197D01*
X136083Y197127D01*
X133157Y197127D01*
G37*
%LPD*%
%LPC*%
G36*
X56957Y178331D02*
X56957Y178331D01*
X54887Y180401D01*
X54887Y183327D01*
X56957Y185397D01*
X59883Y185397D01*
X61953Y183327D01*
X61953Y180401D01*
X59883Y178331D01*
X56957Y178331D01*
G37*
%LPD*%
%LPC*%
G36*
X272857Y79017D02*
X272857Y79017D01*
X270787Y81087D01*
X270787Y84013D01*
X272857Y86083D01*
X275783Y86083D01*
X277853Y84013D01*
X277853Y81087D01*
X275783Y79017D01*
X272857Y79017D01*
G37*
%LPD*%
%LPC*%
G36*
X415732Y148867D02*
X415732Y148867D01*
X413662Y150937D01*
X413662Y153863D01*
X415732Y155933D01*
X418658Y155933D01*
X420728Y153863D01*
X420728Y150937D01*
X418658Y148867D01*
X415732Y148867D01*
G37*
%LPD*%
%LPC*%
G36*
X492567Y10437D02*
X492567Y10437D01*
X490497Y12507D01*
X490497Y15433D01*
X492567Y17503D01*
X495493Y17503D01*
X497563Y15433D01*
X497563Y12507D01*
X495493Y10437D01*
X492567Y10437D01*
G37*
%LPD*%
%LPC*%
G36*
X321117Y204747D02*
X321117Y204747D01*
X319047Y206817D01*
X319047Y209743D01*
X321117Y211813D01*
X324043Y211813D01*
X326113Y209743D01*
X326113Y206817D01*
X324043Y204747D01*
X321117Y204747D01*
G37*
%LPD*%
%LPC*%
G36*
X404937Y9167D02*
X404937Y9167D01*
X402867Y11237D01*
X402867Y14163D01*
X404937Y16233D01*
X407863Y16233D01*
X409933Y14163D01*
X409933Y11237D01*
X407863Y9167D01*
X404937Y9167D01*
G37*
%LPD*%
%LPC*%
G36*
X134427Y270787D02*
X134427Y270787D01*
X132357Y272857D01*
X132357Y275783D01*
X134427Y277853D01*
X137353Y277853D01*
X139423Y275783D01*
X139423Y272857D01*
X137353Y270787D01*
X134427Y270787D01*
G37*
%LPD*%
%LPC*%
G36*
X298449Y247649D02*
X298449Y247649D01*
X298449Y247651D01*
X298451Y247651D01*
X298451Y247649D01*
X298449Y247649D01*
G37*
%LPD*%
D10*
X218339Y44450D02*
X218349Y45232D01*
X218377Y46013D01*
X218425Y46793D01*
X218492Y47572D01*
X218579Y48349D01*
X218684Y49124D01*
X218808Y49895D01*
X218951Y50664D01*
X219113Y51429D01*
X219294Y52189D01*
X219493Y52945D01*
X219710Y53696D01*
X219947Y54441D01*
X220201Y55180D01*
X220473Y55913D01*
X220764Y56639D01*
X221072Y57357D01*
X221397Y58068D01*
X221740Y58771D01*
X222100Y59464D01*
X222477Y60149D01*
X222870Y60825D01*
X223281Y61490D01*
X223707Y62145D01*
X224149Y62790D01*
X224607Y63424D01*
X225080Y64046D01*
X225569Y64656D01*
X226072Y65254D01*
X226590Y65840D01*
X227122Y66413D01*
X227668Y66972D01*
X228227Y67518D01*
X228800Y68050D01*
X229386Y68568D01*
X229984Y69071D01*
X230594Y69560D01*
X231216Y70033D01*
X231850Y70491D01*
X232495Y70933D01*
X233150Y71359D01*
X233815Y71770D01*
X234491Y72163D01*
X235176Y72540D01*
X235869Y72900D01*
X236572Y73243D01*
X237283Y73568D01*
X238001Y73876D01*
X238727Y74167D01*
X239460Y74439D01*
X240199Y74693D01*
X240944Y74930D01*
X241695Y75147D01*
X242451Y75346D01*
X243211Y75527D01*
X243976Y75689D01*
X244745Y75832D01*
X245516Y75956D01*
X246291Y76061D01*
X247068Y76148D01*
X247847Y76215D01*
X248627Y76263D01*
X249408Y76291D01*
X250190Y76301D01*
X250972Y76291D01*
X251753Y76263D01*
X252533Y76215D01*
X253312Y76148D01*
X254089Y76061D01*
X254864Y75956D01*
X255635Y75832D01*
X256404Y75689D01*
X257169Y75527D01*
X257929Y75346D01*
X258685Y75147D01*
X259436Y74930D01*
X260181Y74693D01*
X260920Y74439D01*
X261653Y74167D01*
X262379Y73876D01*
X263097Y73568D01*
X263808Y73243D01*
X264511Y72900D01*
X265204Y72540D01*
X265889Y72163D01*
X266565Y71770D01*
X267230Y71359D01*
X267885Y70933D01*
X268530Y70491D01*
X269164Y70033D01*
X269786Y69560D01*
X270396Y69071D01*
X270994Y68568D01*
X271580Y68050D01*
X272153Y67518D01*
X272712Y66972D01*
X273258Y66413D01*
X273790Y65840D01*
X274308Y65254D01*
X274811Y64656D01*
X275300Y64046D01*
X275773Y63424D01*
X276231Y62790D01*
X276673Y62145D01*
X277099Y61490D01*
X277510Y60825D01*
X277903Y60149D01*
X278280Y59464D01*
X278640Y58771D01*
X278983Y58068D01*
X279308Y57357D01*
X279616Y56639D01*
X279907Y55913D01*
X280179Y55180D01*
X280433Y54441D01*
X280670Y53696D01*
X280887Y52945D01*
X281086Y52189D01*
X281267Y51429D01*
X281429Y50664D01*
X281572Y49895D01*
X281696Y49124D01*
X281801Y48349D01*
X281888Y47572D01*
X281955Y46793D01*
X282003Y46013D01*
X282031Y45232D01*
X282041Y44450D01*
X282031Y43668D01*
X282003Y42887D01*
X281955Y42107D01*
X281888Y41328D01*
X281801Y40551D01*
X281696Y39776D01*
X281572Y39005D01*
X281429Y38236D01*
X281267Y37471D01*
X281086Y36711D01*
X280887Y35955D01*
X280670Y35204D01*
X280433Y34459D01*
X280179Y33720D01*
X279907Y32987D01*
X279616Y32261D01*
X279308Y31543D01*
X278983Y30832D01*
X278640Y30129D01*
X278280Y29436D01*
X277903Y28751D01*
X277510Y28075D01*
X277099Y27410D01*
X276673Y26755D01*
X276231Y26110D01*
X275773Y25476D01*
X275300Y24854D01*
X274811Y24244D01*
X274308Y23646D01*
X273790Y23060D01*
X273258Y22487D01*
X272712Y21928D01*
X272153Y21382D01*
X271580Y20850D01*
X270994Y20332D01*
X270396Y19829D01*
X269786Y19340D01*
X269164Y18867D01*
X268530Y18409D01*
X267885Y17967D01*
X267230Y17541D01*
X266565Y17130D01*
X265889Y16737D01*
X265204Y16360D01*
X264511Y16000D01*
X263808Y15657D01*
X263097Y15332D01*
X262379Y15024D01*
X261653Y14733D01*
X260920Y14461D01*
X260181Y14207D01*
X259436Y13970D01*
X258685Y13753D01*
X257929Y13554D01*
X257169Y13373D01*
X256404Y13211D01*
X255635Y13068D01*
X254864Y12944D01*
X254089Y12839D01*
X253312Y12752D01*
X252533Y12685D01*
X251753Y12637D01*
X250972Y12609D01*
X250190Y12599D01*
X249408Y12609D01*
X248627Y12637D01*
X247847Y12685D01*
X247068Y12752D01*
X246291Y12839D01*
X245516Y12944D01*
X244745Y13068D01*
X243976Y13211D01*
X243211Y13373D01*
X242451Y13554D01*
X241695Y13753D01*
X240944Y13970D01*
X240199Y14207D01*
X239460Y14461D01*
X238727Y14733D01*
X238001Y15024D01*
X237283Y15332D01*
X236572Y15657D01*
X235869Y16000D01*
X235176Y16360D01*
X234491Y16737D01*
X233815Y17130D01*
X233150Y17541D01*
X232495Y17967D01*
X231850Y18409D01*
X231216Y18867D01*
X230594Y19340D01*
X229984Y19829D01*
X229386Y20332D01*
X228800Y20850D01*
X228227Y21382D01*
X227668Y21928D01*
X227122Y22487D01*
X226590Y23060D01*
X226072Y23646D01*
X225569Y24244D01*
X225080Y24854D01*
X224607Y25476D01*
X224149Y26110D01*
X223707Y26755D01*
X223281Y27410D01*
X222870Y28075D01*
X222477Y28751D01*
X222100Y29436D01*
X221740Y30129D01*
X221397Y30832D01*
X221072Y31543D01*
X220764Y32261D01*
X220473Y32987D01*
X220201Y33720D01*
X219947Y34459D01*
X219710Y35204D01*
X219493Y35955D01*
X219294Y36711D01*
X219113Y37471D01*
X218951Y38236D01*
X218808Y39005D01*
X218684Y39776D01*
X218579Y40551D01*
X218492Y41328D01*
X218425Y42107D01*
X218377Y42887D01*
X218349Y43668D01*
X218339Y44450D01*
D11*
X482600Y273050D03*
X482600Y247650D03*
X298450Y247650D03*
X298450Y273050D03*
X323850Y247650D03*
X323850Y273050D03*
X349250Y247650D03*
X349250Y273050D03*
X374650Y247650D03*
X374650Y273050D03*
X400050Y247650D03*
X400050Y273050D03*
X425450Y247650D03*
X425450Y273050D03*
D12*
X44450Y44450D03*
X457200Y44450D03*
X250825Y44450D03*
D13*
X317500Y149606D03*
X34290Y166370D03*
D14*
X49530Y260350D03*
X285750Y82550D03*
X488950Y184150D03*
D15*
X424180Y173990D03*
D13*
X330200Y139700D03*
X355600Y177800D03*
D14*
X161290Y283210D03*
X279400Y285750D03*
D13*
X172720Y285750D03*
X190500Y238760D03*
X266700Y234950D03*
D14*
X322580Y208280D03*
D13*
X281940Y167640D03*
X252730Y145419D03*
D14*
X95250Y260350D03*
D13*
X76200Y76200D03*
X40640Y140970D03*
D14*
X222250Y165100D03*
D13*
X335280Y16510D03*
X393700Y38100D03*
D14*
X406400Y12700D03*
D13*
X342900Y171450D03*
D16*
X107950Y65278D03*
X412750Y57150D03*
D15*
X424180Y196850D03*
D13*
X292100Y57150D03*
D16*
X129540Y88900D03*
X416560Y73660D03*
D14*
X41910Y260350D03*
D13*
X182880Y20320D03*
X213360Y22860D03*
X289560Y21590D03*
X290830Y134620D03*
X405130Y231140D03*
X17780Y166370D03*
D14*
X260350Y207010D03*
X367030Y132080D03*
X226060Y77470D03*
D13*
X87630Y19050D03*
X12700Y12700D03*
D14*
X494030Y13970D03*
X488950Y223520D03*
D13*
X27940Y86360D03*
D14*
X274320Y82550D03*
D13*
X76200Y99150D03*
D14*
X177292Y205740D03*
D13*
X125730Y116840D03*
D14*
X134620Y200660D03*
X416560Y93980D03*
D13*
X209550Y151130D03*
X153670Y151130D03*
X175260Y80010D03*
X467360Y85090D03*
X132080Y265430D03*
X76200Y168300D03*
X331470Y154305D03*
X391795Y205994D03*
X259080Y121920D03*
D14*
X172974Y191770D03*
D13*
X131445Y254635D03*
X122555Y248285D03*
X244475Y144780D03*
X300355Y154940D03*
D14*
X166370Y233680D03*
D13*
X336550Y57785D03*
X292100Y88900D03*
X335026Y35941D03*
X286385Y143510D03*
X286385Y154940D03*
X311150Y62738D03*
D14*
X285244Y101600D03*
D13*
X307975Y164465D03*
X140335Y260985D03*
D14*
X347980Y107950D03*
D13*
X391795Y193040D03*
X196850Y85090D03*
X50800Y82550D03*
D14*
X333024Y219710D03*
D13*
X340360Y229870D03*
D14*
X374650Y82550D03*
D13*
X448310Y132080D03*
X459740Y132080D03*
X431800Y135890D03*
X431800Y107950D03*
D14*
X118745Y287655D03*
X193167Y207772D03*
X78740Y287655D03*
D13*
X72390Y122555D03*
X185430Y147330D03*
D14*
X186690Y121920D03*
X353060Y120396D03*
X393700Y92710D03*
D13*
X128270Y152400D03*
X133350Y133350D03*
D10*
X158750Y258445D02*
X172720Y272415D01*
D14*
X158750Y258445D03*
D13*
X172720Y272415D03*
X297180Y37465D03*
X313690Y48260D03*
X43815Y200025D03*
X60960Y159385D03*
X109220Y207645D03*
X109220Y150495D03*
X88900Y76200D03*
X146050Y57150D03*
D14*
X309880Y199390D03*
X267970Y171450D03*
D10*
X295910Y199390D01*
X309880Y199390D01*
X92710Y281940D02*
X68580Y281940D01*
X92710Y281940D02*
X94615Y283845D01*
X116205Y283845D01*
X116840Y283210D01*
X152400Y283210D01*
X162560Y273050D01*
D14*
X68580Y281940D03*
X162560Y273050D03*
X279400Y273050D03*
X74295Y265430D03*
X135890Y274320D03*
X58420Y181864D03*
D13*
X102235Y265430D03*
X90170Y243205D03*
D14*
X96520Y279400D03*
D13*
X299085Y231140D03*
X98425Y203835D03*
D14*
X165735Y212725D03*
D17*
X165100Y177800D02*
X146050Y158750D01*
X128270Y158750D01*
X121920Y152400D01*
D13*
X165100Y177800D03*
X121920Y152400D03*
X304800Y150495D03*
D14*
X417195Y152400D03*
D13*
X55245Y202565D03*
X64135Y207645D03*
X95250Y69850D03*
D14*
X168910Y205740D03*
X169517Y198727D03*
D10*
X328930Y176530D02*
X400050Y247650D01*
X328930Y176530D02*
X281905Y176530D01*
D14*
X281905Y176530D03*
M02*
