M48
;GenerationSoftware,Autodesk,EAGLE,9.6.2*%
;CreationDate,2021-03-04T04:39:10Z*%
FMAT,2
ICI,OFF
METRIC,TZ,000.000
T7C0.300
T6C0.305
T5C0.650
T4C0.900
T3C1.000
T2C1.016
T1C2.500
%
G90
M71
T1
X45720Y4445
X4445Y4445
X25082Y4445
T2
X34925Y24765
X40005Y24765
X32385Y27305
X48260Y27305
X32385Y24765
X29845Y27305
X37465Y27305
X42545Y27305
X37465Y24765
X42545Y24765
X34925Y27305
X29845Y24765
X40005Y27305
X48260Y24765
T3
X9525Y12065
X5715Y12065
T4
X41275Y5715
X12954Y8890
X41656Y7366
X10795Y6528
T5
X42418Y19685
X42418Y17399
T6
X31750Y14961
X3429Y16637
X5524Y20257
X6413Y20765
X9525Y6985
X33020Y13970
X35560Y17780
X14033Y26098
X17272Y28575
X19050Y23876
X26670Y23495
X28194Y16764
X25273Y14542
X7620Y7620
X33528Y1651
X39370Y3810
X34290Y17145
X29210Y5715
X18288Y2032
X21336Y2286
X28956Y2159
X29083Y13462
X40513Y23114
X1778Y16637
X8763Y1905
X1270Y1270
X2794Y8636
X7620Y9915
X12573Y11684
X20955Y15113
X15367Y15113
X17526Y8001
X46736Y8509
X13208Y26543
X7620Y16830
X33147Y15430
X39180Y20599
X25908Y12192
X13144Y25463
X12255Y24828
X24447Y14478
X30035Y15494
X33655Y5778
X29210Y8890
X33503Y3594
X28638Y14351
X28638Y15494
X31115Y6274
X30797Y16447
X4064Y14097
X39180Y19304
X19685Y8509
X5080Y8255
X34036Y22987
X44831Y13208
X45974Y13208
X43180Y13589
X43180Y10795
X7239Y12255
X18543Y14733
X12827Y15240
X13335Y13335
X17272Y27241
X29718Y3746
X31369Y4826
X4382Y20003
X6096Y15938
X10922Y20765
X10922Y15049
X8890Y7620
X14605Y5715
X10224Y26543
X9017Y24320
X29908Y23114
X9843Y20384
X16510Y17780
X12192Y15240
X30480Y15049
T7
X4953Y26035
X28575Y8255
X48895Y18415
X16129Y28321
X26797Y17145
X6858Y28194
X16256Y27305
X27940Y27305
X7429Y26543
X28524Y10160
X5842Y18186
X15875Y25844
X19317Y20777
X9652Y27940
X7874Y28765
X34798Y10795
X16574Y21273
X37465Y8255
X18669Y12192
X35306Y12040
X41720Y15240
X39370Y9271
X33302Y21971
X11874Y28765
X16891Y20574
X16952Y19873
X28190Y17653
X30988Y19939
X16637Y23368
X17297Y19177
X41656Y9398
X13462Y20066
X17729Y20574
X27432Y8255
X48895Y22352
X49403Y1397
X22606Y7747
X36703Y13208
X26035Y20701
X4191Y26035
X40640Y1270
X22225Y16510
X9525Y26035
X32258Y20828
X27940Y28575
X13589Y27432
M30